M48
; DRILL file {KiCad (6.0.9-0)} date 2024 August 25, Sunday 20:51:05
; FORMAT={-:-/ absolute / inch / decimal}
; #@! TF.CreationDate,2024-08-25T20:51:05+02:00
; #@! TF.GenerationSoftware,Kicad,Pcbnew,(6.0.9-0)
; #@! TF.FileFunction,Plated,1,2,PTH
FMAT,2
INCH
; #@! TA.AperFunction,Plated,PTH,ComponentDrill
T1C0.0394
; #@! TA.AperFunction,Plated,PTH,ComponentDrill
T2C0.0472
; #@! TA.AperFunction,Plated,PTH,ComponentDrill
T3C0.0630
%
G90
G05
T2
X2.0965Y-2.1382
X2.0965Y-2.3382
X5.7657Y-2.313
T3
X1.9465Y-2.3382
X2.2465Y-2.3382
X2.7756Y-1.7992
X2.7756Y-2.0472
X2.7756Y-2.2972
X3.2126Y-1.7992
X3.2126Y-2.0472
X3.2126Y-2.2972
X3.4764Y-1.7992
X3.4764Y-2.0472
X3.4764Y-2.2972
X3.9134Y-1.7992
X3.9134Y-2.0472
X3.9134Y-2.2972
X4.6693Y-1.7992
X4.6693Y-2.0472
X4.6693Y-2.2972
X5.1063Y-1.7992
X5.1063Y-2.0472
X5.1063Y-2.2972
X5.6157Y-2.1378
X5.9157Y-2.1628
T1
G00X4.126Y-2.0295
M15
G01X4.126Y-1.9429
M16
G05
G00X4.3583Y-1.8524
M15
G01X4.2717Y-1.8524
M16
G05
G00X4.3661Y-2.1004
M15
G01X4.2638Y-2.1004
M16
G05
T0
M30
