%TF.GenerationSoftware,KiCad,Pcbnew,(6.0.9-0)*%
%TF.CreationDate,2024-08-25T20:51:05+02:00*%
%TF.ProjectId,preamp-test-jacks-board,70726561-6d70-42d7-9465-73742d6a6163,rev?*%
%TF.SameCoordinates,Original*%
%TF.FileFunction,Soldermask,Top*%
%TF.FilePolarity,Negative*%
%FSLAX46Y46*%
G04 Gerber Fmt 4.6, Leading zero omitted, Abs format (unit mm)*
G04 Created by KiCad (PCBNEW (6.0.9-0)) date 2024-08-25 20:51:05*
%MOMM*%
%LPD*%
G01*
G04 APERTURE LIST*
%ADD10C,1.900000*%
%ADD11R,1.200000X2.000000*%
%ADD12C,1.600000*%
%ADD13C,3.400000*%
%ADD14C,2.900000*%
%ADD15R,4.600000X2.000000*%
%ADD16O,4.200000X2.000000*%
%ADD17O,2.000000X4.200000*%
%ADD18C,3.200000*%
G04 APERTURE END LIST*
D10*
%TO.C,J8*%
X59870000Y-68900000D03*
X47130000Y-68900000D03*
D11*
X49050000Y-70000000D03*
X50320000Y-64000000D03*
X51590000Y-70000000D03*
X52860000Y-64000000D03*
X54130000Y-70000000D03*
X55400000Y-64000000D03*
X56670000Y-70000000D03*
X57940000Y-64000000D03*
%TD*%
D12*
%TO.C,J4*%
X57060000Y-50500000D03*
X49440000Y-45420000D03*
D13*
X57060000Y-59390000D03*
X49440000Y-59390000D03*
D14*
X53250000Y-59390000D03*
X53250000Y-54310000D03*
%TD*%
D15*
%TO.C,J1*%
X109600000Y-53350000D03*
D16*
X109600000Y-47050000D03*
D17*
X104800000Y-50450000D03*
%TD*%
D10*
%TO.C,J7*%
X140130000Y-68900000D03*
X152870000Y-68900000D03*
D11*
X142050000Y-70000000D03*
X143320000Y-64000000D03*
X144590000Y-70000000D03*
X145860000Y-64000000D03*
X147130000Y-70000000D03*
X148400000Y-64000000D03*
X149670000Y-70000000D03*
X150940000Y-64000000D03*
%TD*%
D18*
%TO.C,J6*%
X70500000Y-52000000D03*
X81600000Y-52000000D03*
X70500000Y-45700000D03*
X81600000Y-45700000D03*
X70500000Y-58350000D03*
X81600000Y-58350000D03*
%TD*%
%TO.C,J5*%
X118600000Y-52000000D03*
X129700000Y-52000000D03*
X129700000Y-45700000D03*
X118600000Y-45700000D03*
X118600000Y-58350000D03*
X129700000Y-58350000D03*
%TD*%
D12*
%TO.C,J2*%
X142640000Y-45410000D03*
X150260000Y-50490000D03*
D13*
X142640000Y-54300000D03*
X150260000Y-54935000D03*
D14*
X146450000Y-58750000D03*
%TD*%
D18*
%TO.C,J3*%
X88300000Y-52000000D03*
X99400000Y-52000000D03*
X88300000Y-45700000D03*
X99400000Y-45700000D03*
X88300000Y-58350000D03*
X99400000Y-58350000D03*
%TD*%
M02*
