%TF.GenerationSoftware,KiCad,Pcbnew,(6.0.9-0)*%
%TF.CreationDate,2024-08-25T20:51:05+02:00*%
%TF.ProjectId,preamp-test-jacks-board,70726561-6d70-42d7-9465-73742d6a6163,rev?*%
%TF.SameCoordinates,Original*%
%TF.FileFunction,Other,Comment*%
%FSLAX46Y46*%
G04 Gerber Fmt 4.6, Leading zero omitted, Abs format (unit mm)*
G04 Created by KiCad (PCBNEW (6.0.9-0)) date 2024-08-25 20:51:05*
%MOMM*%
%LPD*%
G01*
G04 APERTURE LIST*
%ADD10C,0.150000*%
G04 APERTURE END LIST*
D10*
%TO.C,J8*%
X50404761Y-67452380D02*
X50404761Y-66452380D01*
X50976190Y-67452380D02*
X50547619Y-66880952D01*
X50976190Y-66452380D02*
X50404761Y-67023809D01*
X51404761Y-66928571D02*
X51738095Y-66928571D01*
X51880952Y-67452380D02*
X51404761Y-67452380D01*
X51404761Y-66452380D01*
X51880952Y-66452380D01*
X52309523Y-66928571D02*
X52642857Y-66928571D01*
X52785714Y-67452380D02*
X52309523Y-67452380D01*
X52309523Y-66452380D01*
X52785714Y-66452380D01*
X53214285Y-67452380D02*
X53214285Y-66452380D01*
X53595238Y-66452380D01*
X53690476Y-66500000D01*
X53738095Y-66547619D01*
X53785714Y-66642857D01*
X53785714Y-66785714D01*
X53738095Y-66880952D01*
X53690476Y-66928571D01*
X53595238Y-66976190D01*
X53214285Y-66976190D01*
X54404761Y-66452380D02*
X54595238Y-66452380D01*
X54690476Y-66500000D01*
X54785714Y-66595238D01*
X54833333Y-66785714D01*
X54833333Y-67119047D01*
X54785714Y-67309523D01*
X54690476Y-67404761D01*
X54595238Y-67452380D01*
X54404761Y-67452380D01*
X54309523Y-67404761D01*
X54214285Y-67309523D01*
X54166666Y-67119047D01*
X54166666Y-66785714D01*
X54214285Y-66595238D01*
X54309523Y-66500000D01*
X54404761Y-66452380D01*
X55261904Y-66452380D02*
X55261904Y-67261904D01*
X55309523Y-67357142D01*
X55357142Y-67404761D01*
X55452380Y-67452380D01*
X55642857Y-67452380D01*
X55738095Y-67404761D01*
X55785714Y-67357142D01*
X55833333Y-67261904D01*
X55833333Y-66452380D01*
X56166666Y-66452380D02*
X56738095Y-66452380D01*
X56452380Y-67452380D02*
X56452380Y-66452380D01*
%TO.C,J7*%
X143404761Y-67452380D02*
X143404761Y-66452380D01*
X143976190Y-67452380D02*
X143547619Y-66880952D01*
X143976190Y-66452380D02*
X143404761Y-67023809D01*
X144404761Y-66928571D02*
X144738095Y-66928571D01*
X144880952Y-67452380D02*
X144404761Y-67452380D01*
X144404761Y-66452380D01*
X144880952Y-66452380D01*
X145309523Y-66928571D02*
X145642857Y-66928571D01*
X145785714Y-67452380D02*
X145309523Y-67452380D01*
X145309523Y-66452380D01*
X145785714Y-66452380D01*
X146214285Y-67452380D02*
X146214285Y-66452380D01*
X146595238Y-66452380D01*
X146690476Y-66500000D01*
X146738095Y-66547619D01*
X146785714Y-66642857D01*
X146785714Y-66785714D01*
X146738095Y-66880952D01*
X146690476Y-66928571D01*
X146595238Y-66976190D01*
X146214285Y-66976190D01*
X147404761Y-66452380D02*
X147595238Y-66452380D01*
X147690476Y-66500000D01*
X147785714Y-66595238D01*
X147833333Y-66785714D01*
X147833333Y-67119047D01*
X147785714Y-67309523D01*
X147690476Y-67404761D01*
X147595238Y-67452380D01*
X147404761Y-67452380D01*
X147309523Y-67404761D01*
X147214285Y-67309523D01*
X147166666Y-67119047D01*
X147166666Y-66785714D01*
X147214285Y-66595238D01*
X147309523Y-66500000D01*
X147404761Y-66452380D01*
X148261904Y-66452380D02*
X148261904Y-67261904D01*
X148309523Y-67357142D01*
X148357142Y-67404761D01*
X148452380Y-67452380D01*
X148642857Y-67452380D01*
X148738095Y-67404761D01*
X148785714Y-67357142D01*
X148833333Y-67261904D01*
X148833333Y-66452380D01*
X149166666Y-66452380D02*
X149738095Y-66452380D01*
X149452380Y-67452380D02*
X149452380Y-66452380D01*
%TD*%
M02*
