%TF.GenerationSoftware,KiCad,Pcbnew,(6.0.9-0)*%
%TF.CreationDate,2024-08-25T20:51:05+02:00*%
%TF.ProjectId,preamp-test-jacks-board,70726561-6d70-42d7-9465-73742d6a6163,rev?*%
%TF.SameCoordinates,Original*%
%TF.FileFunction,Copper,L1,Top*%
%TF.FilePolarity,Positive*%
%FSLAX46Y46*%
G04 Gerber Fmt 4.6, Leading zero omitted, Abs format (unit mm)*
G04 Created by KiCad (PCBNEW (6.0.9-0)) date 2024-08-25 20:51:05*
%MOMM*%
%LPD*%
G01*
G04 APERTURE LIST*
%TA.AperFunction,SMDPad,CuDef*%
%ADD10R,1.200000X2.000000*%
%TD*%
%TA.AperFunction,ComponentPad*%
%ADD11C,3.400000*%
%TD*%
%TA.AperFunction,ComponentPad*%
%ADD12C,2.900000*%
%TD*%
%TA.AperFunction,ComponentPad*%
%ADD13R,4.600000X2.000000*%
%TD*%
%TA.AperFunction,ComponentPad*%
%ADD14O,4.200000X2.000000*%
%TD*%
%TA.AperFunction,ComponentPad*%
%ADD15O,2.000000X4.200000*%
%TD*%
%TA.AperFunction,ComponentPad*%
%ADD16C,3.200000*%
%TD*%
%TA.AperFunction,Conductor*%
%ADD17C,0.800000*%
%TD*%
%TA.AperFunction,Conductor*%
%ADD18C,0.500000*%
%TD*%
G04 APERTURE END LIST*
D10*
%TO.P,J8,1,Pin_1*%
%TO.N,/Jack9V*%
X49050000Y-70000000D03*
%TO.P,J8,2,Pin_2*%
%TO.N,/GND*%
X50320000Y-64000000D03*
%TO.P,J8,3,Pin_3*%
%TO.N,/Out-*%
X51590000Y-70000000D03*
%TO.P,J8,4,Pin_4*%
%TO.N,/Out+*%
X52860000Y-64000000D03*
%TO.P,J8,5,Pin_5*%
%TO.N,/GND*%
X54130000Y-70000000D03*
%TO.P,J8,6,Pin_6*%
%TO.N,/InstOut*%
X55400000Y-64000000D03*
%TO.P,J8,7,Pin_7*%
%TO.N,/GND*%
X56670000Y-70000000D03*
%TO.P,J8,8,Pin_8*%
%TO.N,/VolumeIn*%
X57940000Y-64000000D03*
%TD*%
D11*
%TO.P,J4,1*%
%TO.N,/GND*%
X57060000Y-59390000D03*
%TO.P,J4,2*%
%TO.N,/Out+*%
X49440000Y-59390000D03*
D12*
%TO.P,J4,3*%
%TO.N,/Out-*%
X53250000Y-59390000D03*
%TO.P,J4,G*%
%TO.N,/GND*%
X53250000Y-54310000D03*
%TD*%
D13*
%TO.P,J1,1*%
%TO.N,/GND*%
X109600000Y-53350000D03*
D14*
%TO.P,J1,2*%
%TO.N,/Jack9V*%
X109600000Y-47050000D03*
D15*
%TO.P,J1,3*%
%TO.N,unconnected-(J1-Pad3)*%
X104800000Y-50450000D03*
%TD*%
D10*
%TO.P,J7,1,Pin_1*%
%TO.N,/Jack9V*%
X142050000Y-70000000D03*
%TO.P,J7,2,Pin_2*%
%TO.N,/GND*%
X143320000Y-64000000D03*
%TO.P,J7,3,Pin_3*%
%TO.N,/PreOut*%
X144590000Y-70000000D03*
%TO.P,J7,4,Pin_4*%
%TO.N,/GND*%
X145860000Y-64000000D03*
%TO.P,J7,5,Pin_5*%
%TO.N,/InGND*%
X147130000Y-70000000D03*
%TO.P,J7,6,Pin_6*%
%TO.N,/In-*%
X148400000Y-64000000D03*
%TO.P,J7,7,Pin_7*%
%TO.N,/In+*%
X149670000Y-70000000D03*
%TO.P,J7,8,Pin_8*%
%TO.N,/GND*%
X150940000Y-64000000D03*
%TD*%
D16*
%TO.P,J6,R*%
%TO.N,unconnected-(J6-PadR)*%
X70500000Y-52000000D03*
%TO.P,J6,RN*%
%TO.N,unconnected-(J6-PadRN)*%
X81600000Y-52000000D03*
%TO.P,J6,S*%
%TO.N,/GND*%
X70500000Y-45700000D03*
X81600000Y-45700000D03*
%TO.P,J6,T*%
%TO.N,/InstOut*%
X70500000Y-58350000D03*
%TO.P,J6,TN*%
%TO.N,unconnected-(J6-PadTN)*%
X81600000Y-58350000D03*
%TD*%
%TO.P,J5,R*%
%TO.N,unconnected-(J5-PadR)*%
X118600000Y-52000000D03*
%TO.P,J5,RN*%
%TO.N,unconnected-(J5-PadRN)*%
X129700000Y-52000000D03*
%TO.P,J5,S*%
%TO.N,/GND*%
X129700000Y-45700000D03*
X118600000Y-45700000D03*
%TO.P,J5,T*%
%TO.N,/PreOut*%
X118600000Y-58350000D03*
%TO.P,J5,TN*%
%TO.N,unconnected-(J5-PadTN)*%
X129700000Y-58350000D03*
%TD*%
D11*
%TO.P,J2,1*%
%TO.N,/InGND*%
X142640000Y-54300000D03*
%TO.P,J2,2*%
%TO.N,/In+*%
X150260000Y-54935000D03*
D12*
%TO.P,J2,3*%
%TO.N,/In-*%
X146450000Y-58750000D03*
%TD*%
D16*
%TO.P,J3,R*%
%TO.N,unconnected-(J3-PadR)*%
X88300000Y-52000000D03*
%TO.P,J3,RN*%
%TO.N,unconnected-(J3-PadRN)*%
X99400000Y-52000000D03*
%TO.P,J3,S*%
%TO.N,/GND*%
X88300000Y-45700000D03*
X99400000Y-45700000D03*
%TO.P,J3,T*%
%TO.N,/VolumeIn*%
X88300000Y-58350000D03*
%TO.P,J3,TN*%
%TO.N,/PreOut*%
X99400000Y-58350000D03*
%TD*%
D17*
%TO.N,/GND*%
X54130000Y-70000000D02*
X56670000Y-70000000D01*
%TO.N,/Jack9V*%
X39116000Y-50546000D02*
X40662001Y-48999999D01*
X51167000Y-72517000D02*
X111887000Y-72517000D01*
X109286000Y-46736000D02*
X109600000Y-47050000D01*
X39116000Y-69088000D02*
X39116000Y-50546000D01*
X49050000Y-70000000D02*
X47422000Y-71628000D01*
X142087600Y-70037600D02*
X142050000Y-70000000D01*
X49050000Y-70000000D02*
X49050000Y-70400000D01*
X142087600Y-71424800D02*
X142087600Y-70037600D01*
X49050000Y-70400000D02*
X51167000Y-72517000D01*
X40662001Y-48999999D02*
X100860001Y-48999999D01*
X47422000Y-71628000D02*
X41656000Y-71628000D01*
X41656000Y-71628000D02*
X39116000Y-69088000D01*
X103124000Y-46736000D02*
X109286000Y-46736000D01*
X111887000Y-72517000D02*
X140995400Y-72517000D01*
X100860001Y-48999999D02*
X103124000Y-46736000D01*
X140995400Y-72517000D02*
X142087600Y-71424800D01*
%TO.N,/InGND*%
X142308000Y-65600000D02*
X141478000Y-64770000D01*
X141478000Y-64770000D02*
X141478000Y-55462000D01*
X146626000Y-65600000D02*
X142308000Y-65600000D01*
X141478000Y-55462000D02*
X142640000Y-54300000D01*
X147130000Y-70000000D02*
X147130000Y-66104000D01*
X147130000Y-66104000D02*
X146626000Y-65600000D01*
%TO.N,/In+*%
X149670000Y-69024000D02*
X153416000Y-65278000D01*
X149670000Y-70000000D02*
X149670000Y-69024000D01*
X153416000Y-58091000D02*
X150260000Y-54935000D01*
X153416000Y-65278000D02*
X153416000Y-58091000D01*
%TO.N,/In-*%
X148400000Y-64000000D02*
X148400000Y-60700000D01*
X148400000Y-60700000D02*
X146450000Y-58750000D01*
D18*
%TO.N,/VolumeIn*%
X57940000Y-64000000D02*
X87384000Y-64000000D01*
X88300000Y-63084000D02*
X88300000Y-58350000D01*
X87384000Y-64000000D02*
X88300000Y-63084000D01*
%TO.N,/PreOut*%
X140208000Y-65532000D02*
X122936000Y-65532000D01*
X118600000Y-61196000D02*
X118600000Y-58350000D01*
X144590000Y-70000000D02*
X144590000Y-69914000D01*
X144590000Y-69914000D02*
X140208000Y-65532000D01*
X122936000Y-65532000D02*
X118600000Y-61196000D01*
X99400000Y-58350000D02*
X118600000Y-58350000D01*
D17*
%TO.N,/Out+*%
X52860000Y-64000000D02*
X52860000Y-62810000D01*
X52860000Y-62810000D02*
X49440000Y-59390000D01*
%TO.N,/Out-*%
X51590000Y-70000000D02*
X54127400Y-67462600D01*
X54127400Y-67462600D02*
X54127400Y-60267400D01*
X54127400Y-60267400D02*
X53250000Y-59390000D01*
D18*
%TO.N,/InstOut*%
X70500000Y-60564000D02*
X70500000Y-58350000D01*
X55400000Y-64000000D02*
X57170000Y-62230000D01*
X57170000Y-62230000D02*
X68834000Y-62230000D01*
X68834000Y-62230000D02*
X70500000Y-60564000D01*
%TD*%
%TA.AperFunction,Conductor*%
%TO.N,/GND*%
G36*
X48794635Y-43782502D02*
G01*
X48841128Y-43836158D01*
X48851232Y-43906432D01*
X48821738Y-43971012D01*
X48775746Y-44004484D01*
X48713745Y-44030802D01*
X48709461Y-44033500D01*
X48505260Y-44162092D01*
X48505257Y-44162094D01*
X48500981Y-44164787D01*
X48312375Y-44331065D01*
X48152780Y-44525359D01*
X48026303Y-44742670D01*
X48024488Y-44747399D01*
X47940035Y-44967406D01*
X47936196Y-44977406D01*
X47935162Y-44982356D01*
X47935161Y-44982359D01*
X47912381Y-45091403D01*
X47884778Y-45223530D01*
X47873372Y-45474708D01*
X47873953Y-45479728D01*
X47873953Y-45479732D01*
X47894509Y-45657389D01*
X47902271Y-45724478D01*
X47903650Y-45729350D01*
X47903650Y-45729352D01*
X47927762Y-45814562D01*
X47970733Y-45966416D01*
X48076995Y-46194295D01*
X48079836Y-46198475D01*
X48079838Y-46198479D01*
X48208680Y-46388064D01*
X48218323Y-46402253D01*
X48221798Y-46405928D01*
X48221799Y-46405929D01*
X48381625Y-46574941D01*
X48391082Y-46584941D01*
X48395108Y-46588019D01*
X48395109Y-46588020D01*
X48586807Y-46734585D01*
X48586811Y-46734588D01*
X48590827Y-46737658D01*
X48812420Y-46856475D01*
X49050158Y-46938334D01*
X49162993Y-46957824D01*
X49294016Y-46980456D01*
X49294022Y-46980457D01*
X49297926Y-46981131D01*
X49301887Y-46981311D01*
X49301888Y-46981311D01*
X49326653Y-46982436D01*
X49326672Y-46982436D01*
X49328072Y-46982500D01*
X49503176Y-46982500D01*
X49505684Y-46982298D01*
X49505689Y-46982298D01*
X49685585Y-46967824D01*
X49685589Y-46967823D01*
X49690627Y-46967418D01*
X49695535Y-46966212D01*
X49695538Y-46966212D01*
X49929892Y-46908649D01*
X49934806Y-46907442D01*
X49939458Y-46905467D01*
X49939462Y-46905466D01*
X50161597Y-46811175D01*
X50166255Y-46809198D01*
X50246317Y-46758780D01*
X50374740Y-46677908D01*
X50374743Y-46677906D01*
X50379019Y-46675213D01*
X50567625Y-46508935D01*
X50727220Y-46314641D01*
X50853697Y-46097330D01*
X50901020Y-45974049D01*
X50941991Y-45867318D01*
X50941992Y-45867314D01*
X50943804Y-45862594D01*
X50946928Y-45847641D01*
X50976911Y-45704119D01*
X68133202Y-45704119D01*
X68152913Y-46004849D01*
X68153987Y-46013007D01*
X68212783Y-46308597D01*
X68214914Y-46316549D01*
X68311785Y-46601923D01*
X68314940Y-46609542D01*
X68448233Y-46879831D01*
X68452354Y-46886969D01*
X68619786Y-47137548D01*
X68624802Y-47144085D01*
X68646451Y-47168770D01*
X68659690Y-47177167D01*
X68669456Y-47171333D01*
X70127980Y-45712810D01*
X70134357Y-45701131D01*
X70864408Y-45701131D01*
X70864539Y-45702966D01*
X70868790Y-45709580D01*
X72328791Y-47169580D01*
X72342551Y-47177094D01*
X72351914Y-47170634D01*
X72375198Y-47144085D01*
X72380214Y-47137548D01*
X72547646Y-46886969D01*
X72551767Y-46879831D01*
X72685060Y-46609542D01*
X72688215Y-46601923D01*
X72785086Y-46316549D01*
X72787217Y-46308597D01*
X72846013Y-46013007D01*
X72847087Y-46004849D01*
X72866798Y-45704119D01*
X79233202Y-45704119D01*
X79252913Y-46004849D01*
X79253987Y-46013007D01*
X79312783Y-46308597D01*
X79314914Y-46316549D01*
X79411785Y-46601923D01*
X79414940Y-46609542D01*
X79548233Y-46879831D01*
X79552354Y-46886969D01*
X79719786Y-47137548D01*
X79724802Y-47144085D01*
X79746451Y-47168770D01*
X79759690Y-47177167D01*
X79769456Y-47171333D01*
X81227980Y-45712810D01*
X81234357Y-45701131D01*
X81964408Y-45701131D01*
X81964539Y-45702966D01*
X81968790Y-45709580D01*
X83428791Y-47169580D01*
X83442551Y-47177094D01*
X83451914Y-47170634D01*
X83475198Y-47144085D01*
X83480214Y-47137548D01*
X83647646Y-46886969D01*
X83651767Y-46879831D01*
X83785060Y-46609542D01*
X83788215Y-46601923D01*
X83885086Y-46316549D01*
X83887217Y-46308597D01*
X83946013Y-46013007D01*
X83947087Y-46004849D01*
X83966798Y-45704119D01*
X85933202Y-45704119D01*
X85952913Y-46004849D01*
X85953987Y-46013007D01*
X86012783Y-46308597D01*
X86014914Y-46316549D01*
X86111785Y-46601923D01*
X86114940Y-46609542D01*
X86248233Y-46879831D01*
X86252354Y-46886969D01*
X86419786Y-47137548D01*
X86424802Y-47144085D01*
X86446451Y-47168770D01*
X86459690Y-47177167D01*
X86469456Y-47171333D01*
X87927980Y-45712810D01*
X87934357Y-45701131D01*
X88664408Y-45701131D01*
X88664539Y-45702966D01*
X88668790Y-45709580D01*
X90128791Y-47169580D01*
X90142551Y-47177094D01*
X90151914Y-47170634D01*
X90175198Y-47144085D01*
X90180214Y-47137548D01*
X90347646Y-46886969D01*
X90351767Y-46879831D01*
X90485060Y-46609542D01*
X90488215Y-46601923D01*
X90585086Y-46316549D01*
X90587217Y-46308597D01*
X90646013Y-46013007D01*
X90647087Y-46004849D01*
X90666798Y-45704119D01*
X97033202Y-45704119D01*
X97052913Y-46004849D01*
X97053987Y-46013007D01*
X97112783Y-46308597D01*
X97114914Y-46316549D01*
X97211785Y-46601923D01*
X97214940Y-46609542D01*
X97348233Y-46879831D01*
X97352354Y-46886969D01*
X97519786Y-47137548D01*
X97524802Y-47144085D01*
X97546451Y-47168770D01*
X97559690Y-47177167D01*
X97569456Y-47171333D01*
X99027980Y-45712810D01*
X99035592Y-45698869D01*
X99035461Y-45697034D01*
X99031210Y-45690420D01*
X97571209Y-44230420D01*
X97557449Y-44222906D01*
X97548086Y-44229366D01*
X97524802Y-44255915D01*
X97519786Y-44262452D01*
X97352354Y-44513031D01*
X97348233Y-44520169D01*
X97214940Y-44790458D01*
X97211785Y-44798077D01*
X97114914Y-45083451D01*
X97112783Y-45091403D01*
X97053987Y-45386993D01*
X97052913Y-45395151D01*
X97033202Y-45695881D01*
X97033202Y-45704119D01*
X90666798Y-45704119D01*
X90666798Y-45695881D01*
X90647087Y-45395151D01*
X90646013Y-45386993D01*
X90587217Y-45091403D01*
X90585086Y-45083451D01*
X90488215Y-44798077D01*
X90485060Y-44790458D01*
X90351767Y-44520169D01*
X90347646Y-44513031D01*
X90180214Y-44262452D01*
X90175198Y-44255915D01*
X90153549Y-44231230D01*
X90140310Y-44222833D01*
X90130544Y-44228667D01*
X88672020Y-45687190D01*
X88664408Y-45701131D01*
X87934357Y-45701131D01*
X87935592Y-45698869D01*
X87935461Y-45697034D01*
X87931210Y-45690420D01*
X86471209Y-44230420D01*
X86457449Y-44222906D01*
X86448086Y-44229366D01*
X86424802Y-44255915D01*
X86419786Y-44262452D01*
X86252354Y-44513031D01*
X86248233Y-44520169D01*
X86114940Y-44790458D01*
X86111785Y-44798077D01*
X86014914Y-45083451D01*
X86012783Y-45091403D01*
X85953987Y-45386993D01*
X85952913Y-45395151D01*
X85933202Y-45695881D01*
X85933202Y-45704119D01*
X83966798Y-45704119D01*
X83966798Y-45695881D01*
X83947087Y-45395151D01*
X83946013Y-45386993D01*
X83887217Y-45091403D01*
X83885086Y-45083451D01*
X83788215Y-44798077D01*
X83785060Y-44790458D01*
X83651767Y-44520169D01*
X83647646Y-44513031D01*
X83480214Y-44262452D01*
X83475198Y-44255915D01*
X83453549Y-44231230D01*
X83440310Y-44222833D01*
X83430544Y-44228667D01*
X81972020Y-45687190D01*
X81964408Y-45701131D01*
X81234357Y-45701131D01*
X81235592Y-45698869D01*
X81235461Y-45697034D01*
X81231210Y-45690420D01*
X79771209Y-44230420D01*
X79757449Y-44222906D01*
X79748086Y-44229366D01*
X79724802Y-44255915D01*
X79719786Y-44262452D01*
X79552354Y-44513031D01*
X79548233Y-44520169D01*
X79414940Y-44790458D01*
X79411785Y-44798077D01*
X79314914Y-45083451D01*
X79312783Y-45091403D01*
X79253987Y-45386993D01*
X79252913Y-45395151D01*
X79233202Y-45695881D01*
X79233202Y-45704119D01*
X72866798Y-45704119D01*
X72866798Y-45695881D01*
X72847087Y-45395151D01*
X72846013Y-45386993D01*
X72787217Y-45091403D01*
X72785086Y-45083451D01*
X72688215Y-44798077D01*
X72685060Y-44790458D01*
X72551767Y-44520169D01*
X72547646Y-44513031D01*
X72380214Y-44262452D01*
X72375198Y-44255915D01*
X72353549Y-44231230D01*
X72340310Y-44222833D01*
X72330544Y-44228667D01*
X70872020Y-45687190D01*
X70864408Y-45701131D01*
X70134357Y-45701131D01*
X70135592Y-45698869D01*
X70135461Y-45697034D01*
X70131210Y-45690420D01*
X68671209Y-44230420D01*
X68657449Y-44222906D01*
X68648086Y-44229366D01*
X68624802Y-44255915D01*
X68619786Y-44262452D01*
X68452354Y-44513031D01*
X68448233Y-44520169D01*
X68314940Y-44790458D01*
X68311785Y-44798077D01*
X68214914Y-45083451D01*
X68212783Y-45091403D01*
X68153987Y-45386993D01*
X68152913Y-45395151D01*
X68133202Y-45695881D01*
X68133202Y-45704119D01*
X50976911Y-45704119D01*
X50994188Y-45621421D01*
X50994188Y-45621417D01*
X50995222Y-45616470D01*
X51006628Y-45365292D01*
X51003177Y-45335461D01*
X50978311Y-45120552D01*
X50977729Y-45115522D01*
X50909267Y-44873584D01*
X50803005Y-44645705D01*
X50799323Y-44640286D01*
X50664524Y-44441936D01*
X50664523Y-44441935D01*
X50661677Y-44437747D01*
X50652221Y-44427747D01*
X50492398Y-44258739D01*
X50488918Y-44255059D01*
X50475839Y-44245059D01*
X50293193Y-44105415D01*
X50293189Y-44105412D01*
X50289173Y-44102342D01*
X50097455Y-43999544D01*
X50046872Y-43949726D01*
X50031252Y-43880469D01*
X50055556Y-43813762D01*
X50112066Y-43770783D01*
X50156996Y-43762500D01*
X68896890Y-43762500D01*
X68965011Y-43782502D01*
X69011504Y-43836158D01*
X69013102Y-43843400D01*
X69028667Y-43869456D01*
X70487190Y-45327980D01*
X70501131Y-45335592D01*
X70502966Y-45335461D01*
X70509580Y-45331210D01*
X71969580Y-43871209D01*
X71993113Y-43828113D01*
X72043316Y-43777912D01*
X72103700Y-43762500D01*
X79996890Y-43762500D01*
X80065011Y-43782502D01*
X80111504Y-43836158D01*
X80113102Y-43843400D01*
X80128667Y-43869456D01*
X81587190Y-45327980D01*
X81601131Y-45335592D01*
X81602966Y-45335461D01*
X81609580Y-45331210D01*
X83069580Y-43871209D01*
X83093113Y-43828113D01*
X83143316Y-43777912D01*
X83203700Y-43762500D01*
X86696890Y-43762500D01*
X86765011Y-43782502D01*
X86811504Y-43836158D01*
X86813102Y-43843400D01*
X86828667Y-43869456D01*
X88287190Y-45327980D01*
X88301131Y-45335592D01*
X88302966Y-45335461D01*
X88309580Y-45331210D01*
X89769580Y-43871209D01*
X89793113Y-43828113D01*
X89843316Y-43777912D01*
X89903700Y-43762500D01*
X97796890Y-43762500D01*
X97865011Y-43782502D01*
X97911504Y-43836158D01*
X97913102Y-43843400D01*
X97928667Y-43869456D01*
X99387190Y-45327980D01*
X99401131Y-45335592D01*
X99402966Y-45335461D01*
X99409580Y-45331210D01*
X100869580Y-43871209D01*
X100893113Y-43828113D01*
X100943316Y-43777912D01*
X101003700Y-43762500D01*
X116996890Y-43762500D01*
X117065011Y-43782502D01*
X117111504Y-43836158D01*
X117113102Y-43843400D01*
X117128667Y-43869456D01*
X118587190Y-45327980D01*
X118601131Y-45335592D01*
X118602966Y-45335461D01*
X118609580Y-45331210D01*
X120069580Y-43871209D01*
X120093113Y-43828113D01*
X120143316Y-43777912D01*
X120203700Y-43762500D01*
X128096890Y-43762500D01*
X128165011Y-43782502D01*
X128211504Y-43836158D01*
X128213102Y-43843400D01*
X128228667Y-43869456D01*
X129687190Y-45327980D01*
X129701131Y-45335592D01*
X129702966Y-45335461D01*
X129709580Y-45331210D01*
X131169580Y-43871209D01*
X131193113Y-43828113D01*
X131243316Y-43777912D01*
X131303700Y-43762500D01*
X141902956Y-43762500D01*
X141971077Y-43782502D01*
X142017570Y-43836158D01*
X142027674Y-43906432D01*
X141998180Y-43971012D01*
X141952188Y-44004484D01*
X141913745Y-44020802D01*
X141893581Y-44033500D01*
X141705260Y-44152092D01*
X141705257Y-44152094D01*
X141700981Y-44154787D01*
X141512375Y-44321065D01*
X141352780Y-44515359D01*
X141350236Y-44519730D01*
X141349236Y-44521449D01*
X141226303Y-44732670D01*
X141220649Y-44747399D01*
X141177809Y-44859002D01*
X141136196Y-44967406D01*
X141135162Y-44972356D01*
X141135161Y-44972359D01*
X141110292Y-45091403D01*
X141084778Y-45213530D01*
X141073372Y-45464708D01*
X141073953Y-45469728D01*
X141073953Y-45469732D01*
X141095666Y-45657389D01*
X141102271Y-45714478D01*
X141103650Y-45719350D01*
X141103650Y-45719352D01*
X141115279Y-45760446D01*
X141170733Y-45956416D01*
X141276995Y-46184295D01*
X141279836Y-46188475D01*
X141279838Y-46188479D01*
X141415476Y-46388064D01*
X141418323Y-46392253D01*
X141421798Y-46395928D01*
X141421799Y-46395929D01*
X141459246Y-46435528D01*
X141591082Y-46574941D01*
X141595108Y-46578019D01*
X141595109Y-46578020D01*
X141786807Y-46724585D01*
X141786811Y-46724588D01*
X141790827Y-46727658D01*
X142012420Y-46846475D01*
X142017209Y-46848124D01*
X142041462Y-46856475D01*
X142250158Y-46928334D01*
X142379228Y-46950628D01*
X142494016Y-46970456D01*
X142494022Y-46970457D01*
X142497926Y-46971131D01*
X142501887Y-46971311D01*
X142501888Y-46971311D01*
X142526653Y-46972436D01*
X142526672Y-46972436D01*
X142528072Y-46972500D01*
X142703176Y-46972500D01*
X142705684Y-46972298D01*
X142705689Y-46972298D01*
X142885585Y-46957824D01*
X142885589Y-46957823D01*
X142890627Y-46957418D01*
X142895535Y-46956212D01*
X142895538Y-46956212D01*
X143129892Y-46898649D01*
X143134806Y-46897442D01*
X143139458Y-46895467D01*
X143139462Y-46895466D01*
X143342696Y-46809198D01*
X143366255Y-46799198D01*
X143463979Y-46737658D01*
X143574740Y-46667908D01*
X143574743Y-46667906D01*
X143579019Y-46665213D01*
X143767625Y-46498935D01*
X143927220Y-46304641D01*
X144053697Y-46087330D01*
X144101980Y-45961549D01*
X144141991Y-45857318D01*
X144141992Y-45857314D01*
X144143804Y-45852594D01*
X144144839Y-45847641D01*
X144194188Y-45611421D01*
X144194188Y-45611417D01*
X144195222Y-45606470D01*
X144206628Y-45355292D01*
X144198805Y-45287673D01*
X144178311Y-45110552D01*
X144177729Y-45105522D01*
X144171484Y-45083451D01*
X144110644Y-44868451D01*
X144109267Y-44863584D01*
X144003005Y-44635705D01*
X143861677Y-44427747D01*
X143701855Y-44258739D01*
X143692398Y-44248739D01*
X143688918Y-44245059D01*
X143684891Y-44241980D01*
X143493193Y-44095415D01*
X143493189Y-44095412D01*
X143489173Y-44092342D01*
X143316105Y-43999544D01*
X143265522Y-43949726D01*
X143249902Y-43880469D01*
X143274206Y-43813762D01*
X143330716Y-43770783D01*
X143375646Y-43762500D01*
X162111500Y-43762500D01*
X162179621Y-43782502D01*
X162226114Y-43836158D01*
X162237500Y-43888500D01*
X162237500Y-73111500D01*
X162217498Y-73179621D01*
X162163842Y-73226114D01*
X162111500Y-73237500D01*
X142223113Y-73237500D01*
X142154992Y-73217498D01*
X142108499Y-73163842D01*
X142098395Y-73093568D01*
X142127889Y-73028988D01*
X142134018Y-73022405D01*
X142878882Y-72277541D01*
X142884899Y-72271904D01*
X142930119Y-72232247D01*
X142934460Y-72228440D01*
X142990165Y-72157779D01*
X142992225Y-72155236D01*
X143046053Y-72090515D01*
X143046060Y-72090505D01*
X143049750Y-72086068D01*
X143052576Y-72081023D01*
X143053826Y-72079203D01*
X143062029Y-72066926D01*
X143063159Y-72065187D01*
X143066731Y-72060655D01*
X143069415Y-72055554D01*
X143069418Y-72055549D01*
X143108644Y-71980991D01*
X143110197Y-71978131D01*
X143154145Y-71899657D01*
X143156004Y-71894180D01*
X143156899Y-71892171D01*
X143162733Y-71878591D01*
X143163522Y-71876686D01*
X143166211Y-71871575D01*
X143192902Y-71785616D01*
X143193922Y-71782478D01*
X143220966Y-71702810D01*
X143220966Y-71702808D01*
X143222822Y-71697342D01*
X143223651Y-71691626D01*
X143224166Y-71689480D01*
X143227408Y-71675152D01*
X143227855Y-71673051D01*
X143229568Y-71667533D01*
X143236032Y-71612917D01*
X143263902Y-71547619D01*
X143322650Y-71507755D01*
X143393625Y-71505980D01*
X143450176Y-71538552D01*
X143514201Y-71602466D01*
X143665560Y-71695764D01*
X143672508Y-71698069D01*
X143672509Y-71698069D01*
X143827791Y-71749575D01*
X143827793Y-71749576D01*
X143834322Y-71751741D01*
X143939334Y-71762500D01*
X145240666Y-71762500D01*
X145243912Y-71762163D01*
X145243916Y-71762163D01*
X145340132Y-71752180D01*
X145340136Y-71752179D01*
X145346990Y-71751468D01*
X145353526Y-71749287D01*
X145353528Y-71749287D01*
X145492835Y-71702810D01*
X145515654Y-71695197D01*
X145666850Y-71601634D01*
X145770754Y-71497549D01*
X145833037Y-71463470D01*
X145903857Y-71468473D01*
X145948944Y-71497394D01*
X146049017Y-71597293D01*
X146049026Y-71597300D01*
X146054201Y-71602466D01*
X146205560Y-71695764D01*
X146212508Y-71698069D01*
X146212509Y-71698069D01*
X146367791Y-71749575D01*
X146367793Y-71749576D01*
X146374322Y-71751741D01*
X146479334Y-71762500D01*
X147780666Y-71762500D01*
X147783912Y-71762163D01*
X147783916Y-71762163D01*
X147880132Y-71752180D01*
X147880136Y-71752179D01*
X147886990Y-71751468D01*
X147893526Y-71749287D01*
X147893528Y-71749287D01*
X148032835Y-71702810D01*
X148055654Y-71695197D01*
X148206850Y-71601634D01*
X148310754Y-71497549D01*
X148373037Y-71463470D01*
X148443857Y-71468473D01*
X148488944Y-71497394D01*
X148589017Y-71597293D01*
X148589026Y-71597300D01*
X148594201Y-71602466D01*
X148745560Y-71695764D01*
X148752508Y-71698069D01*
X148752509Y-71698069D01*
X148907791Y-71749575D01*
X148907793Y-71749576D01*
X148914322Y-71751741D01*
X149019334Y-71762500D01*
X150320666Y-71762500D01*
X150323912Y-71762163D01*
X150323916Y-71762163D01*
X150420132Y-71752180D01*
X150420136Y-71752179D01*
X150426990Y-71751468D01*
X150433526Y-71749287D01*
X150433528Y-71749287D01*
X150572835Y-71702810D01*
X150595654Y-71695197D01*
X150746850Y-71601634D01*
X150872466Y-71475799D01*
X150965764Y-71324440D01*
X151003371Y-71211060D01*
X151019575Y-71162209D01*
X151019576Y-71162207D01*
X151021741Y-71155678D01*
X151032500Y-71050666D01*
X151032500Y-69577953D01*
X151052502Y-69509832D01*
X151106158Y-69463339D01*
X151176432Y-69453235D01*
X151241012Y-69482729D01*
X151277813Y-69537452D01*
X151290170Y-69573855D01*
X151292371Y-69578091D01*
X151292373Y-69578097D01*
X151350222Y-69689461D01*
X151410275Y-69805068D01*
X151563972Y-70015453D01*
X151567346Y-70018845D01*
X151567348Y-70018847D01*
X151744348Y-70196776D01*
X151744353Y-70196780D01*
X151747724Y-70200169D01*
X151751570Y-70203010D01*
X151751575Y-70203014D01*
X151857868Y-70281523D01*
X151957302Y-70354966D01*
X151961532Y-70357192D01*
X151961536Y-70357194D01*
X152183646Y-70474051D01*
X152187883Y-70476280D01*
X152434161Y-70561321D01*
X152690468Y-70608131D01*
X152773832Y-70612500D01*
X152936257Y-70612500D01*
X152938636Y-70612319D01*
X152938637Y-70612319D01*
X153125030Y-70598141D01*
X153125035Y-70598140D01*
X153129797Y-70597778D01*
X153134450Y-70596699D01*
X153134453Y-70596699D01*
X153378951Y-70540027D01*
X153378950Y-70540027D01*
X153383615Y-70538946D01*
X153625613Y-70442398D01*
X153850223Y-70310357D01*
X154052277Y-70145859D01*
X154227123Y-69952692D01*
X154244769Y-69925982D01*
X154365570Y-69743124D01*
X154370739Y-69735300D01*
X154374158Y-69727885D01*
X154477813Y-69503038D01*
X154477814Y-69503035D01*
X154479819Y-69498686D01*
X154484410Y-69482729D01*
X154550533Y-69252888D01*
X154550534Y-69252884D01*
X154551854Y-69248295D01*
X154568589Y-69118561D01*
X154584575Y-68994626D01*
X154585186Y-68989889D01*
X154579048Y-68729414D01*
X154544863Y-68536530D01*
X154534414Y-68477569D01*
X154534413Y-68477565D01*
X154533580Y-68472865D01*
X154449830Y-68226145D01*
X154447629Y-68221909D01*
X154447627Y-68221903D01*
X154363892Y-68060707D01*
X154329725Y-67994932D01*
X154176028Y-67784547D01*
X154172652Y-67781153D01*
X153995652Y-67603224D01*
X153995647Y-67603220D01*
X153992276Y-67599831D01*
X153988430Y-67596990D01*
X153988425Y-67596986D01*
X153786550Y-67447879D01*
X153786549Y-67447878D01*
X153782698Y-67445034D01*
X153778468Y-67442808D01*
X153778464Y-67442806D01*
X153556354Y-67325949D01*
X153556352Y-67325948D01*
X153552117Y-67323720D01*
X153547588Y-67322156D01*
X153342759Y-67251427D01*
X153284898Y-67210286D01*
X153258464Y-67144394D01*
X153271851Y-67074671D01*
X153294790Y-67043233D01*
X154207282Y-66130741D01*
X154213299Y-66125104D01*
X154258519Y-66085447D01*
X154262860Y-66081640D01*
X154318565Y-66010979D01*
X154320625Y-66008436D01*
X154374453Y-65943715D01*
X154374460Y-65943705D01*
X154378150Y-65939268D01*
X154380976Y-65934223D01*
X154382226Y-65932403D01*
X154390429Y-65920126D01*
X154391559Y-65918387D01*
X154395131Y-65913855D01*
X154397815Y-65908754D01*
X154397818Y-65908749D01*
X154437044Y-65834191D01*
X154438597Y-65831331D01*
X154482545Y-65752857D01*
X154484404Y-65747380D01*
X154485299Y-65745371D01*
X154491133Y-65731791D01*
X154491922Y-65729886D01*
X154494611Y-65724775D01*
X154502904Y-65698069D01*
X154521302Y-65638816D01*
X154522322Y-65635678D01*
X154549366Y-65556010D01*
X154549366Y-65556008D01*
X154551222Y-65550542D01*
X154552051Y-65544826D01*
X154552566Y-65542680D01*
X154555808Y-65528352D01*
X154556255Y-65526251D01*
X154557968Y-65520733D01*
X154568545Y-65431367D01*
X154568975Y-65428101D01*
X154581052Y-65344814D01*
X154581052Y-65344810D01*
X154581880Y-65339101D01*
X154578597Y-65255544D01*
X154578500Y-65250597D01*
X154578500Y-58134439D01*
X154578770Y-58126198D01*
X154582702Y-58066204D01*
X154583080Y-58060439D01*
X154572500Y-57971052D01*
X154572157Y-57967777D01*
X154569579Y-57939717D01*
X154563930Y-57878244D01*
X154562361Y-57872682D01*
X154561941Y-57870414D01*
X154559106Y-57856163D01*
X154558647Y-57854002D01*
X154557968Y-57848267D01*
X154556255Y-57842751D01*
X154556254Y-57842745D01*
X154531276Y-57762302D01*
X154530339Y-57759139D01*
X154507506Y-57678180D01*
X154505936Y-57672613D01*
X154503381Y-57667431D01*
X154502582Y-57665350D01*
X154497143Y-57651717D01*
X154496324Y-57649739D01*
X154494611Y-57644224D01*
X154452711Y-57564587D01*
X154451218Y-57561656D01*
X154415416Y-57489056D01*
X154411440Y-57480993D01*
X154407986Y-57476368D01*
X154406851Y-57474515D01*
X154399032Y-57462122D01*
X154397820Y-57460256D01*
X154395131Y-57455145D01*
X154339435Y-57384494D01*
X154337438Y-57381892D01*
X154319358Y-57357679D01*
X154283607Y-57309803D01*
X154237551Y-57267229D01*
X154222177Y-57253018D01*
X154218611Y-57249588D01*
X152672025Y-55703002D01*
X152637999Y-55640690D01*
X152641287Y-55574972D01*
X152648624Y-55552392D01*
X152648627Y-55552380D01*
X152649852Y-55548610D01*
X152707913Y-55244243D01*
X152727369Y-54935000D01*
X152707913Y-54625757D01*
X152649852Y-54321390D01*
X152554102Y-54026701D01*
X152552413Y-54023111D01*
X152423860Y-53749922D01*
X152423856Y-53749915D01*
X152422172Y-53746336D01*
X152256143Y-53484717D01*
X152058635Y-53245970D01*
X151832760Y-53033860D01*
X151582082Y-52851731D01*
X151572873Y-52846668D01*
X151314017Y-52704361D01*
X151314014Y-52704360D01*
X151310555Y-52702458D01*
X151153500Y-52640276D01*
X151026142Y-52589851D01*
X151026139Y-52589850D01*
X151022459Y-52588393D01*
X151018625Y-52587409D01*
X151018617Y-52587406D01*
X150810543Y-52533982D01*
X150722339Y-52511335D01*
X150718411Y-52510839D01*
X150718407Y-52510838D01*
X150596026Y-52495378D01*
X150414927Y-52472500D01*
X150105073Y-52472500D01*
X149923974Y-52495378D01*
X149801593Y-52510838D01*
X149801589Y-52510839D01*
X149797661Y-52511335D01*
X149709457Y-52533982D01*
X149501383Y-52587406D01*
X149501375Y-52587409D01*
X149497541Y-52588393D01*
X149493861Y-52589850D01*
X149493858Y-52589851D01*
X149366500Y-52640276D01*
X149209445Y-52702458D01*
X149205986Y-52704360D01*
X149205983Y-52704361D01*
X148947128Y-52846668D01*
X148937918Y-52851731D01*
X148687240Y-53033860D01*
X148461365Y-53245970D01*
X148263857Y-53484717D01*
X148097828Y-53746336D01*
X148096144Y-53749915D01*
X148096140Y-53749922D01*
X147967587Y-54023111D01*
X147965898Y-54026701D01*
X147870148Y-54321390D01*
X147812087Y-54625757D01*
X147792631Y-54935000D01*
X147812087Y-55244243D01*
X147870148Y-55548610D01*
X147965898Y-55843299D01*
X147967585Y-55846885D01*
X147967587Y-55846889D01*
X148096140Y-56120078D01*
X148096144Y-56120085D01*
X148097828Y-56123664D01*
X148099951Y-56127010D01*
X148099952Y-56127011D01*
X148123729Y-56164477D01*
X148263857Y-56385283D01*
X148461365Y-56624030D01*
X148464252Y-56626741D01*
X148678552Y-56827981D01*
X148687240Y-56836140D01*
X148937918Y-57018269D01*
X148941387Y-57020176D01*
X148941390Y-57020178D01*
X149200788Y-57162783D01*
X149209445Y-57167542D01*
X149269835Y-57191452D01*
X149493858Y-57280149D01*
X149493861Y-57280150D01*
X149497541Y-57281607D01*
X149501375Y-57282591D01*
X149501383Y-57282594D01*
X149645038Y-57319478D01*
X149797661Y-57358665D01*
X149801589Y-57359161D01*
X149801593Y-57359162D01*
X149923393Y-57374549D01*
X150105073Y-57397500D01*
X150414927Y-57397500D01*
X150722339Y-57358665D01*
X150824705Y-57332382D01*
X150905207Y-57311713D01*
X150976162Y-57314146D01*
X151025637Y-57344660D01*
X152216595Y-58535618D01*
X152250621Y-58597930D01*
X152253500Y-58624713D01*
X152253500Y-62331714D01*
X152233498Y-62399835D01*
X152179842Y-62446328D01*
X152109568Y-62456432D01*
X152044988Y-62426938D01*
X152038482Y-62420887D01*
X152020662Y-62403098D01*
X152009256Y-62394090D01*
X151870457Y-62308532D01*
X151857279Y-62302388D01*
X151702103Y-62250918D01*
X151688737Y-62248052D01*
X151593824Y-62238328D01*
X151587409Y-62238000D01*
X151212115Y-62238000D01*
X151196876Y-62242475D01*
X151195671Y-62243865D01*
X151194000Y-62251548D01*
X151194000Y-65743883D01*
X151198381Y-65758803D01*
X151198381Y-65829799D01*
X151166580Y-65883397D01*
X148878718Y-68171259D01*
X148872701Y-68176896D01*
X148823140Y-68220360D01*
X148819565Y-68224895D01*
X148819563Y-68224897D01*
X148781031Y-68273774D01*
X148743546Y-68303511D01*
X148744346Y-68304803D01*
X148593150Y-68398366D01*
X148587977Y-68403548D01*
X148507673Y-68483992D01*
X148445390Y-68518071D01*
X148374570Y-68513068D01*
X148317698Y-68470571D01*
X148292829Y-68404072D01*
X148292500Y-68394974D01*
X148292500Y-66147439D01*
X148292770Y-66139198D01*
X148296702Y-66079204D01*
X148297080Y-66073439D01*
X148286500Y-65984052D01*
X148286157Y-65980778D01*
X148278737Y-65900029D01*
X148292421Y-65830364D01*
X148341598Y-65779157D01*
X148404208Y-65762500D01*
X149050666Y-65762500D01*
X149053912Y-65762163D01*
X149053916Y-65762163D01*
X149150132Y-65752180D01*
X149150136Y-65752179D01*
X149156990Y-65751468D01*
X149163526Y-65749287D01*
X149163528Y-65749287D01*
X149295277Y-65705332D01*
X149325654Y-65695197D01*
X149476850Y-65601634D01*
X149527853Y-65550542D01*
X149581109Y-65497194D01*
X149643392Y-65463115D01*
X149714212Y-65468118D01*
X149759299Y-65497039D01*
X149859333Y-65596898D01*
X149870744Y-65605910D01*
X150009543Y-65691468D01*
X150022721Y-65697612D01*
X150177897Y-65749082D01*
X150191263Y-65751948D01*
X150286176Y-65761672D01*
X150292591Y-65762000D01*
X150667885Y-65762000D01*
X150683124Y-65757525D01*
X150684329Y-65756135D01*
X150686000Y-65748452D01*
X150686000Y-62256115D01*
X150681525Y-62240876D01*
X150680135Y-62239671D01*
X150672452Y-62238000D01*
X150292640Y-62238000D01*
X150286124Y-62238337D01*
X150189971Y-62248314D01*
X150176574Y-62251207D01*
X150021508Y-62302941D01*
X150008330Y-62309115D01*
X149869689Y-62394908D01*
X149858294Y-62403940D01*
X149777673Y-62484702D01*
X149715391Y-62518781D01*
X149644571Y-62513778D01*
X149587698Y-62471281D01*
X149562829Y-62404783D01*
X149562500Y-62395684D01*
X149562500Y-60743424D01*
X149562770Y-60735183D01*
X149567079Y-60669439D01*
X149556503Y-60580088D01*
X149556160Y-60576814D01*
X149556001Y-60575078D01*
X149547930Y-60487244D01*
X149546362Y-60481684D01*
X149545963Y-60479530D01*
X149543107Y-60465170D01*
X149542646Y-60463000D01*
X149541967Y-60457267D01*
X149515281Y-60371322D01*
X149514349Y-60368174D01*
X149491504Y-60287171D01*
X149491502Y-60287166D01*
X149489936Y-60281613D01*
X149487385Y-60276441D01*
X149486634Y-60274483D01*
X149481133Y-60260696D01*
X149480323Y-60258740D01*
X149478610Y-60253224D01*
X149436721Y-60173605D01*
X149435228Y-60170674D01*
X149397998Y-60095178D01*
X149397993Y-60095169D01*
X149395440Y-60089993D01*
X149391985Y-60085366D01*
X149390826Y-60083475D01*
X149383032Y-60071122D01*
X149381820Y-60069256D01*
X149379131Y-60064145D01*
X149323435Y-59993494D01*
X149321438Y-59990892D01*
X149271060Y-59923427D01*
X149271059Y-59923426D01*
X149267607Y-59918803D01*
X149206176Y-59862017D01*
X149202611Y-59858588D01*
X148651960Y-59307937D01*
X148617934Y-59245625D01*
X148617476Y-59194260D01*
X148647475Y-59043448D01*
X148647476Y-59043442D01*
X148648278Y-59039409D01*
X148649193Y-59025461D01*
X148666977Y-58754119D01*
X148667247Y-58750000D01*
X148665521Y-58723668D01*
X148648548Y-58464706D01*
X148648547Y-58464702D01*
X148648278Y-58460591D01*
X148647474Y-58456548D01*
X148592501Y-58180179D01*
X148592499Y-58180173D01*
X148591696Y-58176134D01*
X148577543Y-58134439D01*
X148499798Y-57905411D01*
X148498469Y-57901496D01*
X148496646Y-57897800D01*
X148496643Y-57897792D01*
X148372018Y-57645080D01*
X148370192Y-57641377D01*
X148270095Y-57491571D01*
X148211353Y-57403657D01*
X148211349Y-57403652D01*
X148209060Y-57400226D01*
X148017830Y-57182170D01*
X147799774Y-56990940D01*
X147796348Y-56988651D01*
X147796343Y-56988647D01*
X147613670Y-56866589D01*
X147558624Y-56829808D01*
X147554925Y-56827984D01*
X147554920Y-56827981D01*
X147343387Y-56723665D01*
X147298504Y-56701531D01*
X147222927Y-56675876D01*
X147027773Y-56609630D01*
X147027770Y-56609629D01*
X147023866Y-56608304D01*
X147019827Y-56607501D01*
X147019821Y-56607499D01*
X146743452Y-56552526D01*
X146743449Y-56552526D01*
X146739409Y-56551722D01*
X146735298Y-56551453D01*
X146735294Y-56551452D01*
X146454119Y-56533023D01*
X146450000Y-56532753D01*
X146445881Y-56533023D01*
X146164706Y-56551452D01*
X146164702Y-56551453D01*
X146160591Y-56551722D01*
X146156551Y-56552526D01*
X146156548Y-56552526D01*
X145880179Y-56607499D01*
X145880173Y-56607501D01*
X145876134Y-56608304D01*
X145872230Y-56609629D01*
X145872227Y-56609630D01*
X145677073Y-56675876D01*
X145601496Y-56701531D01*
X145597800Y-56703354D01*
X145597792Y-56703357D01*
X145454775Y-56773886D01*
X145341377Y-56829808D01*
X145337944Y-56832102D01*
X145337942Y-56832103D01*
X145103657Y-56988647D01*
X145103652Y-56988651D01*
X145100226Y-56990940D01*
X144882170Y-57182170D01*
X144690940Y-57400226D01*
X144688651Y-57403652D01*
X144688647Y-57403657D01*
X144629905Y-57491571D01*
X144529808Y-57641377D01*
X144527982Y-57645080D01*
X144403357Y-57897792D01*
X144403354Y-57897800D01*
X144401531Y-57901496D01*
X144400202Y-57905411D01*
X144322458Y-58134439D01*
X144308304Y-58176134D01*
X144307501Y-58180173D01*
X144307499Y-58180179D01*
X144252526Y-58456548D01*
X144251722Y-58460591D01*
X144251453Y-58464702D01*
X144251452Y-58464706D01*
X144234479Y-58723668D01*
X144232753Y-58750000D01*
X144251722Y-59039409D01*
X144252525Y-59043448D01*
X144252526Y-59043452D01*
X144305136Y-59307937D01*
X144308304Y-59323866D01*
X144309629Y-59327770D01*
X144309630Y-59327773D01*
X144400202Y-59594589D01*
X144401531Y-59598504D01*
X144403354Y-59602200D01*
X144403357Y-59602208D01*
X144451210Y-59699243D01*
X144529808Y-59858623D01*
X144532102Y-59862056D01*
X144532103Y-59862058D01*
X144684405Y-60089993D01*
X144690940Y-60099774D01*
X144882170Y-60317830D01*
X145100226Y-60509060D01*
X145103652Y-60511349D01*
X145103657Y-60511353D01*
X145209404Y-60582011D01*
X145341376Y-60670192D01*
X145345075Y-60672016D01*
X145345080Y-60672019D01*
X145437447Y-60717569D01*
X145601496Y-60798469D01*
X145605401Y-60799794D01*
X145605402Y-60799795D01*
X145872227Y-60890370D01*
X145872230Y-60890371D01*
X145876134Y-60891696D01*
X145880173Y-60892499D01*
X145880179Y-60892501D01*
X146156548Y-60947474D01*
X146156551Y-60947474D01*
X146160591Y-60948278D01*
X146164702Y-60948547D01*
X146164706Y-60948548D01*
X146445881Y-60966977D01*
X146450000Y-60967247D01*
X146454119Y-60966977D01*
X146735297Y-60948548D01*
X146735304Y-60948547D01*
X146739409Y-60948278D01*
X146743442Y-60947476D01*
X146743448Y-60947475D01*
X146862447Y-60923804D01*
X146894260Y-60917476D01*
X146964973Y-60923804D01*
X147007937Y-60951960D01*
X147116482Y-61060506D01*
X147200596Y-61144620D01*
X147234621Y-61206932D01*
X147237500Y-61233715D01*
X147237500Y-62395602D01*
X147217498Y-62463723D01*
X147163842Y-62510216D01*
X147093568Y-62520320D01*
X147028988Y-62490826D01*
X147022482Y-62484775D01*
X146940663Y-62403099D01*
X146929256Y-62394090D01*
X146790457Y-62308532D01*
X146777279Y-62302388D01*
X146622103Y-62250918D01*
X146608737Y-62248052D01*
X146513824Y-62238328D01*
X146507409Y-62238000D01*
X146132115Y-62238000D01*
X146116876Y-62242475D01*
X146115671Y-62243865D01*
X146114000Y-62251548D01*
X146114000Y-64128000D01*
X146093998Y-64196121D01*
X146040342Y-64242614D01*
X145988000Y-64254000D01*
X143192000Y-64254000D01*
X143123879Y-64233998D01*
X143077386Y-64180342D01*
X143066000Y-64128000D01*
X143066000Y-63727885D01*
X143574000Y-63727885D01*
X143578475Y-63743124D01*
X143579865Y-63744329D01*
X143587548Y-63746000D01*
X145587885Y-63746000D01*
X145603124Y-63741525D01*
X145604329Y-63740135D01*
X145606000Y-63732452D01*
X145606000Y-62256115D01*
X145601525Y-62240876D01*
X145600135Y-62239671D01*
X145592452Y-62238000D01*
X145212640Y-62238000D01*
X145206124Y-62238337D01*
X145109971Y-62248314D01*
X145096574Y-62251207D01*
X144941508Y-62302941D01*
X144928330Y-62309115D01*
X144789689Y-62394908D01*
X144778294Y-62403940D01*
X144679248Y-62503160D01*
X144616965Y-62537240D01*
X144546145Y-62532237D01*
X144501057Y-62503317D01*
X144400663Y-62403099D01*
X144389256Y-62394090D01*
X144250457Y-62308532D01*
X144237279Y-62302388D01*
X144082103Y-62250918D01*
X144068737Y-62248052D01*
X143973824Y-62238328D01*
X143967409Y-62238000D01*
X143592115Y-62238000D01*
X143576876Y-62242475D01*
X143575671Y-62243865D01*
X143574000Y-62251548D01*
X143574000Y-63727885D01*
X143066000Y-63727885D01*
X143066000Y-62256115D01*
X143061525Y-62240876D01*
X143060135Y-62239671D01*
X143052452Y-62238000D01*
X142766500Y-62238000D01*
X142698379Y-62217998D01*
X142651886Y-62164342D01*
X142640500Y-62112000D01*
X142640500Y-56888500D01*
X142660502Y-56820379D01*
X142714158Y-56773886D01*
X142766500Y-56762500D01*
X142794927Y-56762500D01*
X142976607Y-56739549D01*
X143098407Y-56724162D01*
X143098411Y-56724161D01*
X143102339Y-56723665D01*
X143212748Y-56695317D01*
X143398617Y-56647594D01*
X143398625Y-56647591D01*
X143402459Y-56646607D01*
X143406139Y-56645150D01*
X143406142Y-56645149D01*
X143640081Y-56552526D01*
X143690555Y-56532542D01*
X143801261Y-56471681D01*
X143958610Y-56385178D01*
X143958613Y-56385176D01*
X143962082Y-56383269D01*
X144212760Y-56201140D01*
X144438635Y-55989030D01*
X144636143Y-55750283D01*
X144802172Y-55488664D01*
X144803856Y-55485085D01*
X144803860Y-55485078D01*
X144932413Y-55211889D01*
X144932415Y-55211885D01*
X144934102Y-55208299D01*
X145029852Y-54913610D01*
X145087913Y-54609243D01*
X145107369Y-54300000D01*
X145087913Y-53990757D01*
X145029852Y-53686390D01*
X144934102Y-53391701D01*
X144897607Y-53314145D01*
X144803860Y-53114922D01*
X144803856Y-53114915D01*
X144802172Y-53111336D01*
X144792440Y-53096000D01*
X144638265Y-52853061D01*
X144636143Y-52849717D01*
X144438635Y-52610970D01*
X144212760Y-52398860D01*
X143962082Y-52216731D01*
X143697188Y-52071104D01*
X143694017Y-52069361D01*
X143694014Y-52069360D01*
X143690555Y-52067458D01*
X143488457Y-51987442D01*
X143406142Y-51954851D01*
X143406139Y-51954850D01*
X143402459Y-51953393D01*
X143398625Y-51952409D01*
X143398617Y-51952406D01*
X143212748Y-51904683D01*
X143102339Y-51876335D01*
X143098411Y-51875839D01*
X143098407Y-51875838D01*
X142948597Y-51856913D01*
X142794927Y-51837500D01*
X142485073Y-51837500D01*
X142331403Y-51856913D01*
X142181593Y-51875838D01*
X142181589Y-51875839D01*
X142177661Y-51876335D01*
X142067252Y-51904683D01*
X141881383Y-51952406D01*
X141881375Y-51952409D01*
X141877541Y-51953393D01*
X141873861Y-51954850D01*
X141873858Y-51954851D01*
X141791543Y-51987442D01*
X141589445Y-52067458D01*
X141585986Y-52069360D01*
X141585983Y-52069361D01*
X141582813Y-52071104D01*
X141317918Y-52216731D01*
X141067240Y-52398860D01*
X140841365Y-52610970D01*
X140643857Y-52849717D01*
X140641735Y-52853061D01*
X140487561Y-53096000D01*
X140477828Y-53111336D01*
X140476144Y-53114915D01*
X140476140Y-53114922D01*
X140382393Y-53314145D01*
X140345898Y-53391701D01*
X140250148Y-53686390D01*
X140192087Y-53990757D01*
X140172631Y-54300000D01*
X140192087Y-54609243D01*
X140250148Y-54913610D01*
X140310412Y-55099082D01*
X140331237Y-55163176D01*
X140334161Y-55219046D01*
X140336032Y-55219267D01*
X140325456Y-55308627D01*
X140325026Y-55311892D01*
X140312120Y-55400899D01*
X140315403Y-55484456D01*
X140315500Y-55489403D01*
X140315500Y-64390130D01*
X140295498Y-64458251D01*
X140241842Y-64504744D01*
X140201359Y-64515571D01*
X140177876Y-64517790D01*
X140165703Y-64518941D01*
X140153846Y-64519500D01*
X123407582Y-64519500D01*
X123339461Y-64499498D01*
X123318487Y-64482595D01*
X119649405Y-60813514D01*
X119615379Y-60751202D01*
X119612500Y-60724419D01*
X119612500Y-60563195D01*
X119632502Y-60495074D01*
X119682772Y-60450189D01*
X119780081Y-60402202D01*
X119780086Y-60402199D01*
X119783785Y-60400375D01*
X119903268Y-60320539D01*
X120037854Y-60230612D01*
X120037859Y-60230608D01*
X120041285Y-60228319D01*
X120044379Y-60225605D01*
X120044385Y-60225601D01*
X120271035Y-60026833D01*
X120274124Y-60024124D01*
X120292114Y-60003610D01*
X120475601Y-59794385D01*
X120475605Y-59794379D01*
X120478319Y-59791285D01*
X120650375Y-59533784D01*
X120723234Y-59386042D01*
X120785523Y-59259733D01*
X120785526Y-59259725D01*
X120787349Y-59256029D01*
X120845479Y-59084782D01*
X120885570Y-58966679D01*
X120885571Y-58966676D01*
X120886896Y-58962772D01*
X120930039Y-58745881D01*
X120946510Y-58663073D01*
X120946510Y-58663070D01*
X120947314Y-58659030D01*
X120949564Y-58624713D01*
X120967299Y-58354119D01*
X120967569Y-58350000D01*
X127332431Y-58350000D01*
X127332701Y-58354119D01*
X127350437Y-58624713D01*
X127352686Y-58659030D01*
X127353490Y-58663070D01*
X127353490Y-58663073D01*
X127369962Y-58745881D01*
X127413104Y-58962772D01*
X127414429Y-58966676D01*
X127414430Y-58966679D01*
X127454521Y-59084782D01*
X127512651Y-59256029D01*
X127514474Y-59259725D01*
X127514477Y-59259733D01*
X127576766Y-59386042D01*
X127649625Y-59533784D01*
X127821681Y-59791285D01*
X127824395Y-59794379D01*
X127824399Y-59794385D01*
X128007886Y-60003610D01*
X128025876Y-60024124D01*
X128028965Y-60026833D01*
X128255615Y-60225601D01*
X128255621Y-60225605D01*
X128258715Y-60228319D01*
X128262141Y-60230608D01*
X128262146Y-60230612D01*
X128396732Y-60320539D01*
X128516215Y-60400375D01*
X128519914Y-60402199D01*
X128519919Y-60402202D01*
X128647606Y-60465170D01*
X128793971Y-60537349D01*
X128797876Y-60538674D01*
X128797877Y-60538675D01*
X129083321Y-60635570D01*
X129083324Y-60635571D01*
X129087228Y-60636896D01*
X129091267Y-60637699D01*
X129091273Y-60637701D01*
X129386927Y-60696510D01*
X129386930Y-60696510D01*
X129390970Y-60697314D01*
X129395081Y-60697583D01*
X129395085Y-60697584D01*
X129695881Y-60717299D01*
X129700000Y-60717569D01*
X129704119Y-60717299D01*
X130004915Y-60697584D01*
X130004919Y-60697583D01*
X130009030Y-60697314D01*
X130013070Y-60696510D01*
X130013073Y-60696510D01*
X130308727Y-60637701D01*
X130308733Y-60637699D01*
X130312772Y-60636896D01*
X130316676Y-60635571D01*
X130316679Y-60635570D01*
X130602123Y-60538675D01*
X130602124Y-60538674D01*
X130606029Y-60537349D01*
X130752394Y-60465170D01*
X130880081Y-60402202D01*
X130880086Y-60402199D01*
X130883785Y-60400375D01*
X131003268Y-60320539D01*
X131137854Y-60230612D01*
X131137859Y-60230608D01*
X131141285Y-60228319D01*
X131144379Y-60225605D01*
X131144385Y-60225601D01*
X131371035Y-60026833D01*
X131374124Y-60024124D01*
X131392114Y-60003610D01*
X131575601Y-59794385D01*
X131575605Y-59794379D01*
X131578319Y-59791285D01*
X131750375Y-59533784D01*
X131823234Y-59386042D01*
X131885523Y-59259733D01*
X131885526Y-59259725D01*
X131887349Y-59256029D01*
X131945479Y-59084782D01*
X131985570Y-58966679D01*
X131985571Y-58966676D01*
X131986896Y-58962772D01*
X132030039Y-58745881D01*
X132046510Y-58663073D01*
X132046510Y-58663070D01*
X132047314Y-58659030D01*
X132049564Y-58624713D01*
X132067299Y-58354119D01*
X132067569Y-58350000D01*
X132057825Y-58201336D01*
X132047584Y-58045085D01*
X132047583Y-58045081D01*
X132047314Y-58040970D01*
X132029216Y-57949985D01*
X131987701Y-57741273D01*
X131987699Y-57741267D01*
X131986896Y-57737228D01*
X131901797Y-57486532D01*
X131888678Y-57447886D01*
X131888678Y-57447885D01*
X131887349Y-57443971D01*
X131885526Y-57440275D01*
X131885523Y-57440267D01*
X131752201Y-57169919D01*
X131750375Y-57166216D01*
X131746098Y-57159814D01*
X131669282Y-57044851D01*
X131578319Y-56908715D01*
X131575605Y-56905621D01*
X131575601Y-56905615D01*
X131376833Y-56678965D01*
X131374124Y-56675876D01*
X131339087Y-56645149D01*
X131144385Y-56474399D01*
X131144379Y-56474395D01*
X131141285Y-56471681D01*
X131137855Y-56469389D01*
X131137854Y-56469388D01*
X130944747Y-56340359D01*
X130883785Y-56299625D01*
X130880086Y-56297801D01*
X130880081Y-56297798D01*
X130737393Y-56227433D01*
X130606029Y-56162651D01*
X130480613Y-56120078D01*
X130316679Y-56064430D01*
X130316676Y-56064429D01*
X130312772Y-56063104D01*
X130308733Y-56062301D01*
X130308727Y-56062299D01*
X130013073Y-56003490D01*
X130013070Y-56003490D01*
X130009030Y-56002686D01*
X130004919Y-56002417D01*
X130004915Y-56002416D01*
X129704119Y-55982701D01*
X129700000Y-55982431D01*
X129695881Y-55982701D01*
X129395085Y-56002416D01*
X129395081Y-56002417D01*
X129390970Y-56002686D01*
X129386930Y-56003490D01*
X129386927Y-56003490D01*
X129091273Y-56062299D01*
X129091267Y-56062301D01*
X129087228Y-56063104D01*
X129083324Y-56064429D01*
X129083321Y-56064430D01*
X128919387Y-56120078D01*
X128793971Y-56162651D01*
X128790275Y-56164474D01*
X128790267Y-56164477D01*
X128654187Y-56231585D01*
X128516216Y-56299625D01*
X128258715Y-56471681D01*
X128255621Y-56474395D01*
X128255615Y-56474399D01*
X128060913Y-56645149D01*
X128025876Y-56675876D01*
X128023167Y-56678965D01*
X127824399Y-56905615D01*
X127824395Y-56905621D01*
X127821681Y-56908715D01*
X127730718Y-57044851D01*
X127653903Y-57159814D01*
X127649625Y-57166216D01*
X127647799Y-57169919D01*
X127514477Y-57440267D01*
X127514474Y-57440275D01*
X127512651Y-57443971D01*
X127511322Y-57447885D01*
X127511322Y-57447886D01*
X127498204Y-57486532D01*
X127413104Y-57737228D01*
X127412301Y-57741267D01*
X127412299Y-57741273D01*
X127370784Y-57949985D01*
X127352686Y-58040970D01*
X127352417Y-58045081D01*
X127352416Y-58045085D01*
X127342175Y-58201336D01*
X127332431Y-58350000D01*
X120967569Y-58350000D01*
X120957825Y-58201336D01*
X120947584Y-58045085D01*
X120947583Y-58045081D01*
X120947314Y-58040970D01*
X120929216Y-57949985D01*
X120887701Y-57741273D01*
X120887699Y-57741267D01*
X120886896Y-57737228D01*
X120801797Y-57486532D01*
X120788678Y-57447886D01*
X120788678Y-57447885D01*
X120787349Y-57443971D01*
X120785526Y-57440275D01*
X120785523Y-57440267D01*
X120652201Y-57169919D01*
X120650375Y-57166216D01*
X120646098Y-57159814D01*
X120569282Y-57044851D01*
X120478319Y-56908715D01*
X120475605Y-56905621D01*
X120475601Y-56905615D01*
X120276833Y-56678965D01*
X120274124Y-56675876D01*
X120239087Y-56645149D01*
X120044385Y-56474399D01*
X120044379Y-56474395D01*
X120041285Y-56471681D01*
X120037855Y-56469389D01*
X120037854Y-56469388D01*
X119844747Y-56340359D01*
X119783785Y-56299625D01*
X119780086Y-56297801D01*
X119780081Y-56297798D01*
X119637393Y-56227433D01*
X119506029Y-56162651D01*
X119380613Y-56120078D01*
X119216679Y-56064430D01*
X119216676Y-56064429D01*
X119212772Y-56063104D01*
X119208733Y-56062301D01*
X119208727Y-56062299D01*
X118913073Y-56003490D01*
X118913070Y-56003490D01*
X118909030Y-56002686D01*
X118904919Y-56002417D01*
X118904915Y-56002416D01*
X118604119Y-55982701D01*
X118600000Y-55982431D01*
X118595881Y-55982701D01*
X118295085Y-56002416D01*
X118295081Y-56002417D01*
X118290970Y-56002686D01*
X118286930Y-56003490D01*
X118286927Y-56003490D01*
X117991273Y-56062299D01*
X117991267Y-56062301D01*
X117987228Y-56063104D01*
X117983324Y-56064429D01*
X117983321Y-56064430D01*
X117819387Y-56120078D01*
X117693971Y-56162651D01*
X117690275Y-56164474D01*
X117690267Y-56164477D01*
X117554187Y-56231585D01*
X117416216Y-56299625D01*
X117158715Y-56471681D01*
X117155621Y-56474395D01*
X117155615Y-56474399D01*
X116960913Y-56645149D01*
X116925876Y-56675876D01*
X116923167Y-56678965D01*
X116724399Y-56905615D01*
X116724395Y-56905621D01*
X116721681Y-56908715D01*
X116549625Y-57166216D01*
X116508490Y-57249630D01*
X116499811Y-57267229D01*
X116451742Y-57319478D01*
X116386805Y-57337500D01*
X101613195Y-57337500D01*
X101545074Y-57317498D01*
X101500189Y-57267229D01*
X101491510Y-57249630D01*
X101450375Y-57166216D01*
X101278319Y-56908715D01*
X101275605Y-56905621D01*
X101275601Y-56905615D01*
X101076833Y-56678965D01*
X101074124Y-56675876D01*
X101039087Y-56645149D01*
X100844385Y-56474399D01*
X100844379Y-56474395D01*
X100841285Y-56471681D01*
X100837855Y-56469389D01*
X100837854Y-56469388D01*
X100644747Y-56340359D01*
X100583785Y-56299625D01*
X100580086Y-56297801D01*
X100580081Y-56297798D01*
X100437393Y-56227433D01*
X100306029Y-56162651D01*
X100180613Y-56120078D01*
X100016679Y-56064430D01*
X100016676Y-56064429D01*
X100012772Y-56063104D01*
X100008733Y-56062301D01*
X100008727Y-56062299D01*
X99713073Y-56003490D01*
X99713070Y-56003490D01*
X99709030Y-56002686D01*
X99704919Y-56002417D01*
X99704915Y-56002416D01*
X99404119Y-55982701D01*
X99400000Y-55982431D01*
X99395881Y-55982701D01*
X99095085Y-56002416D01*
X99095081Y-56002417D01*
X99090970Y-56002686D01*
X99086930Y-56003490D01*
X99086927Y-56003490D01*
X98791273Y-56062299D01*
X98791267Y-56062301D01*
X98787228Y-56063104D01*
X98783324Y-56064429D01*
X98783321Y-56064430D01*
X98619387Y-56120078D01*
X98493971Y-56162651D01*
X98490275Y-56164474D01*
X98490267Y-56164477D01*
X98354187Y-56231585D01*
X98216216Y-56299625D01*
X97958715Y-56471681D01*
X97955621Y-56474395D01*
X97955615Y-56474399D01*
X97760913Y-56645149D01*
X97725876Y-56675876D01*
X97723167Y-56678965D01*
X97524399Y-56905615D01*
X97524395Y-56905621D01*
X97521681Y-56908715D01*
X97430718Y-57044851D01*
X97353903Y-57159814D01*
X97349625Y-57166216D01*
X97347799Y-57169919D01*
X97214477Y-57440267D01*
X97214474Y-57440275D01*
X97212651Y-57443971D01*
X97211322Y-57447885D01*
X97211322Y-57447886D01*
X97198204Y-57486532D01*
X97113104Y-57737228D01*
X97112301Y-57741267D01*
X97112299Y-57741273D01*
X97070784Y-57949985D01*
X97052686Y-58040970D01*
X97052417Y-58045081D01*
X97052416Y-58045085D01*
X97042175Y-58201336D01*
X97032431Y-58350000D01*
X97032701Y-58354119D01*
X97050437Y-58624713D01*
X97052686Y-58659030D01*
X97053490Y-58663070D01*
X97053490Y-58663073D01*
X97069962Y-58745881D01*
X97113104Y-58962772D01*
X97114429Y-58966676D01*
X97114430Y-58966679D01*
X97154521Y-59084782D01*
X97212651Y-59256029D01*
X97214474Y-59259725D01*
X97214477Y-59259733D01*
X97276766Y-59386042D01*
X97349625Y-59533784D01*
X97521681Y-59791285D01*
X97524395Y-59794379D01*
X97524399Y-59794385D01*
X97707886Y-60003610D01*
X97725876Y-60024124D01*
X97728965Y-60026833D01*
X97955615Y-60225601D01*
X97955621Y-60225605D01*
X97958715Y-60228319D01*
X97962141Y-60230608D01*
X97962146Y-60230612D01*
X98096732Y-60320539D01*
X98216215Y-60400375D01*
X98219914Y-60402199D01*
X98219919Y-60402202D01*
X98347606Y-60465170D01*
X98493971Y-60537349D01*
X98497876Y-60538674D01*
X98497877Y-60538675D01*
X98783321Y-60635570D01*
X98783324Y-60635571D01*
X98787228Y-60636896D01*
X98791267Y-60637699D01*
X98791273Y-60637701D01*
X99086927Y-60696510D01*
X99086930Y-60696510D01*
X99090970Y-60697314D01*
X99095081Y-60697583D01*
X99095085Y-60697584D01*
X99395881Y-60717299D01*
X99400000Y-60717569D01*
X99404119Y-60717299D01*
X99704915Y-60697584D01*
X99704919Y-60697583D01*
X99709030Y-60697314D01*
X99713070Y-60696510D01*
X99713073Y-60696510D01*
X100008727Y-60637701D01*
X100008733Y-60637699D01*
X100012772Y-60636896D01*
X100016676Y-60635571D01*
X100016679Y-60635570D01*
X100302123Y-60538675D01*
X100302124Y-60538674D01*
X100306029Y-60537349D01*
X100452394Y-60465170D01*
X100580081Y-60402202D01*
X100580086Y-60402199D01*
X100583785Y-60400375D01*
X100703268Y-60320539D01*
X100837854Y-60230612D01*
X100837859Y-60230608D01*
X100841285Y-60228319D01*
X100844379Y-60225605D01*
X100844385Y-60225601D01*
X101071035Y-60026833D01*
X101074124Y-60024124D01*
X101092114Y-60003610D01*
X101275601Y-59794385D01*
X101275605Y-59794379D01*
X101278319Y-59791285D01*
X101450375Y-59533784D01*
X101500189Y-59432771D01*
X101548258Y-59380522D01*
X101613195Y-59362500D01*
X116386805Y-59362500D01*
X116454926Y-59382502D01*
X116499811Y-59432771D01*
X116549625Y-59533784D01*
X116721681Y-59791285D01*
X116724395Y-59794379D01*
X116724399Y-59794385D01*
X116907886Y-60003610D01*
X116925876Y-60024124D01*
X116928965Y-60026833D01*
X117155615Y-60225601D01*
X117155621Y-60225605D01*
X117158715Y-60228319D01*
X117162141Y-60230608D01*
X117162146Y-60230612D01*
X117296732Y-60320539D01*
X117416215Y-60400375D01*
X117419914Y-60402199D01*
X117419919Y-60402202D01*
X117517228Y-60450189D01*
X117569477Y-60498257D01*
X117587500Y-60563195D01*
X117587500Y-61133934D01*
X117586763Y-61147543D01*
X117582656Y-61185346D01*
X117583193Y-61191482D01*
X117587049Y-61235561D01*
X117587378Y-61240388D01*
X117587500Y-61242880D01*
X117587500Y-61245964D01*
X117589829Y-61269717D01*
X117591700Y-61288799D01*
X117591819Y-61290079D01*
X117599962Y-61383152D01*
X117601455Y-61388291D01*
X117601977Y-61393614D01*
X117603758Y-61399512D01*
X117628938Y-61482913D01*
X117629313Y-61484177D01*
X117655360Y-61573829D01*
X117657821Y-61578576D01*
X117659368Y-61583701D01*
X117662260Y-61589140D01*
X117662262Y-61589145D01*
X117703229Y-61666193D01*
X117703841Y-61667360D01*
X117743903Y-61744647D01*
X117743906Y-61744652D01*
X117746738Y-61750115D01*
X117750074Y-61754295D01*
X117752587Y-61759020D01*
X117811635Y-61831421D01*
X117812345Y-61832301D01*
X117843751Y-61871643D01*
X117846243Y-61874135D01*
X117846936Y-61874910D01*
X117850651Y-61879259D01*
X117874188Y-61908119D01*
X117874191Y-61908122D01*
X117878083Y-61912894D01*
X117882830Y-61916821D01*
X117882832Y-61916823D01*
X117913566Y-61942248D01*
X117922346Y-61950238D01*
X122176163Y-66204054D01*
X122185264Y-66214196D01*
X122209096Y-66243837D01*
X122213814Y-66247796D01*
X122213820Y-66247802D01*
X122247711Y-66276240D01*
X122251363Y-66279426D01*
X122253210Y-66281101D01*
X122255384Y-66283275D01*
X122257753Y-66285221D01*
X122257763Y-66285230D01*
X122288684Y-66310629D01*
X122289668Y-66311445D01*
X122361203Y-66371470D01*
X122365891Y-66374047D01*
X122370025Y-66377443D01*
X122375451Y-66380352D01*
X122375455Y-66380355D01*
X122416018Y-66402103D01*
X122452310Y-66421563D01*
X122453402Y-66422156D01*
X122535204Y-66467127D01*
X122540304Y-66468745D01*
X122545019Y-66471273D01*
X122628826Y-66496896D01*
X122634295Y-66498568D01*
X122635553Y-66498960D01*
X122718597Y-66525303D01*
X122718600Y-66525304D01*
X122724471Y-66527166D01*
X122729786Y-66527762D01*
X122734904Y-66529327D01*
X122741029Y-66529949D01*
X122741033Y-66529950D01*
X122795167Y-66535449D01*
X122827806Y-66538764D01*
X122829007Y-66538892D01*
X122848990Y-66541134D01*
X122875504Y-66544108D01*
X122875512Y-66544108D01*
X122879003Y-66544500D01*
X122882528Y-66544500D01*
X122883567Y-66544558D01*
X122889256Y-66545006D01*
X122911111Y-66547226D01*
X122926322Y-66548771D01*
X122926325Y-66548771D01*
X122932448Y-66549393D01*
X122978295Y-66545059D01*
X122990154Y-66544500D01*
X139736418Y-66544500D01*
X139804539Y-66564502D01*
X139825513Y-66581405D01*
X140216513Y-66972405D01*
X140250539Y-67034717D01*
X140245474Y-67105532D01*
X140202927Y-67162368D01*
X140136407Y-67187179D01*
X140127418Y-67187500D01*
X140063743Y-67187500D01*
X140061364Y-67187681D01*
X140061363Y-67187681D01*
X139874970Y-67201859D01*
X139874965Y-67201860D01*
X139870203Y-67202222D01*
X139865550Y-67203301D01*
X139865547Y-67203301D01*
X139676184Y-67247193D01*
X139616385Y-67261054D01*
X139374387Y-67357602D01*
X139149777Y-67489643D01*
X138947723Y-67654141D01*
X138772877Y-67847308D01*
X138629261Y-68064700D01*
X138627260Y-68069040D01*
X138627258Y-68069044D01*
X138543123Y-68251548D01*
X138520181Y-68301314D01*
X138518857Y-68305915D01*
X138518857Y-68305916D01*
X138452512Y-68536530D01*
X138448146Y-68551705D01*
X138447535Y-68556440D01*
X138447534Y-68556446D01*
X138433149Y-68667968D01*
X138414814Y-68810111D01*
X138414927Y-68814888D01*
X138420436Y-69048681D01*
X138420952Y-69070586D01*
X138421786Y-69075290D01*
X138462590Y-69305523D01*
X138466420Y-69327135D01*
X138550170Y-69573855D01*
X138552371Y-69578091D01*
X138552373Y-69578097D01*
X138610222Y-69689461D01*
X138670275Y-69805068D01*
X138823972Y-70015453D01*
X138827346Y-70018845D01*
X138827348Y-70018847D01*
X139004348Y-70196776D01*
X139004353Y-70196780D01*
X139007724Y-70200169D01*
X139011570Y-70203010D01*
X139011575Y-70203014D01*
X139117868Y-70281523D01*
X139217302Y-70354966D01*
X139221532Y-70357192D01*
X139221536Y-70357194D01*
X139443646Y-70474051D01*
X139447883Y-70476280D01*
X139694161Y-70561321D01*
X139950468Y-70608131D01*
X140033832Y-70612500D01*
X140196257Y-70612500D01*
X140198636Y-70612319D01*
X140198637Y-70612319D01*
X140385030Y-70598141D01*
X140385035Y-70598140D01*
X140389797Y-70597778D01*
X140394450Y-70596699D01*
X140394453Y-70596699D01*
X140533049Y-70564574D01*
X140603927Y-70568678D01*
X140661335Y-70610450D01*
X140687045Y-70676627D01*
X140687500Y-70687320D01*
X140687500Y-71050666D01*
X140693549Y-71108962D01*
X140680685Y-71178782D01*
X140657317Y-71211060D01*
X140550782Y-71317595D01*
X140488470Y-71351621D01*
X140461687Y-71354500D01*
X58129809Y-71354500D01*
X58061688Y-71334498D01*
X58015195Y-71280842D01*
X58005091Y-71210568D01*
X58010216Y-71188832D01*
X58019083Y-71162100D01*
X58021948Y-71148737D01*
X58031672Y-71053824D01*
X58032000Y-71047409D01*
X58032000Y-70272115D01*
X58027525Y-70256876D01*
X58026135Y-70255671D01*
X58018452Y-70254000D01*
X54002000Y-70254000D01*
X53933879Y-70233998D01*
X53887386Y-70180342D01*
X53876000Y-70128000D01*
X53876000Y-69872000D01*
X53896002Y-69803879D01*
X53949658Y-69757386D01*
X54002000Y-69746000D01*
X56397885Y-69746000D01*
X56413124Y-69741525D01*
X56414329Y-69740135D01*
X56416000Y-69732452D01*
X56416000Y-69727885D01*
X56924000Y-69727885D01*
X56928475Y-69743124D01*
X56929865Y-69744329D01*
X56937548Y-69746000D01*
X58013885Y-69746000D01*
X58029124Y-69741525D01*
X58030329Y-69740135D01*
X58032000Y-69732452D01*
X58032000Y-69576480D01*
X58052002Y-69508359D01*
X58105658Y-69461866D01*
X58175932Y-69451762D01*
X58240512Y-69481256D01*
X58277313Y-69535979D01*
X58290170Y-69573855D01*
X58292371Y-69578091D01*
X58292373Y-69578097D01*
X58350223Y-69689462D01*
X58410275Y-69805068D01*
X58563972Y-70015453D01*
X58567346Y-70018845D01*
X58567348Y-70018847D01*
X58744348Y-70196776D01*
X58744353Y-70196780D01*
X58747724Y-70200169D01*
X58751570Y-70203010D01*
X58751575Y-70203014D01*
X58857868Y-70281523D01*
X58957302Y-70354966D01*
X58961532Y-70357192D01*
X58961536Y-70357194D01*
X59183646Y-70474051D01*
X59187883Y-70476280D01*
X59434161Y-70561321D01*
X59690468Y-70608131D01*
X59773832Y-70612500D01*
X59936257Y-70612500D01*
X59938636Y-70612319D01*
X59938637Y-70612319D01*
X60125030Y-70598141D01*
X60125035Y-70598140D01*
X60129797Y-70597778D01*
X60134450Y-70596699D01*
X60134453Y-70596699D01*
X60378951Y-70540027D01*
X60378950Y-70540027D01*
X60383615Y-70538946D01*
X60625613Y-70442398D01*
X60850223Y-70310357D01*
X61052277Y-70145859D01*
X61227123Y-69952692D01*
X61244769Y-69925982D01*
X61365570Y-69743124D01*
X61370739Y-69735300D01*
X61374158Y-69727885D01*
X61477813Y-69503038D01*
X61477814Y-69503035D01*
X61479819Y-69498686D01*
X61484410Y-69482729D01*
X61550533Y-69252888D01*
X61550534Y-69252884D01*
X61551854Y-69248295D01*
X61568589Y-69118561D01*
X61584575Y-68994626D01*
X61585186Y-68989889D01*
X61579048Y-68729414D01*
X61544863Y-68536530D01*
X61534414Y-68477569D01*
X61534413Y-68477565D01*
X61533580Y-68472865D01*
X61449830Y-68226145D01*
X61447629Y-68221909D01*
X61447627Y-68221903D01*
X61363892Y-68060707D01*
X61329725Y-67994932D01*
X61176028Y-67784547D01*
X61172652Y-67781153D01*
X60995652Y-67603224D01*
X60995647Y-67603220D01*
X60992276Y-67599831D01*
X60988430Y-67596990D01*
X60988425Y-67596986D01*
X60786550Y-67447879D01*
X60786549Y-67447878D01*
X60782698Y-67445034D01*
X60778468Y-67442808D01*
X60778464Y-67442806D01*
X60556354Y-67325949D01*
X60556352Y-67325948D01*
X60552117Y-67323720D01*
X60305839Y-67238679D01*
X60049532Y-67191869D01*
X59966168Y-67187500D01*
X59803743Y-67187500D01*
X59801364Y-67187681D01*
X59801363Y-67187681D01*
X59614970Y-67201859D01*
X59614965Y-67201860D01*
X59610203Y-67202222D01*
X59605550Y-67203301D01*
X59605547Y-67203301D01*
X59416184Y-67247193D01*
X59356385Y-67261054D01*
X59114387Y-67357602D01*
X58889777Y-67489643D01*
X58687723Y-67654141D01*
X58512877Y-67847308D01*
X58369261Y-68064700D01*
X58367260Y-68069040D01*
X58367258Y-68069044D01*
X58283123Y-68251548D01*
X58260181Y-68301314D01*
X58258857Y-68305915D01*
X58258857Y-68305916D01*
X58192512Y-68536530D01*
X58188146Y-68551705D01*
X58184358Y-68581070D01*
X58181890Y-68600203D01*
X58153337Y-68665205D01*
X58094174Y-68704451D01*
X58023185Y-68705481D01*
X57962908Y-68667968D01*
X57949780Y-68650386D01*
X57875087Y-68529683D01*
X57866056Y-68518289D01*
X57750667Y-68403102D01*
X57739256Y-68394090D01*
X57600457Y-68308532D01*
X57587279Y-68302388D01*
X57432103Y-68250918D01*
X57418737Y-68248052D01*
X57323824Y-68238328D01*
X57317409Y-68238000D01*
X56942115Y-68238000D01*
X56926876Y-68242475D01*
X56925671Y-68243865D01*
X56924000Y-68251548D01*
X56924000Y-69727885D01*
X56416000Y-69727885D01*
X56416000Y-68256115D01*
X56411525Y-68240876D01*
X56410135Y-68239671D01*
X56402452Y-68238000D01*
X56022640Y-68238000D01*
X56016124Y-68238337D01*
X55919971Y-68248314D01*
X55906574Y-68251207D01*
X55751508Y-68302941D01*
X55738330Y-68309115D01*
X55599689Y-68394908D01*
X55588294Y-68403940D01*
X55489248Y-68503160D01*
X55426965Y-68537240D01*
X55356145Y-68532237D01*
X55311057Y-68503317D01*
X55210663Y-68403099D01*
X55199254Y-68394088D01*
X55101763Y-68333993D01*
X55054270Y-68281221D01*
X55042848Y-68211149D01*
X55071006Y-68146165D01*
X55085853Y-68128313D01*
X55089550Y-68123868D01*
X55092377Y-68118820D01*
X55093632Y-68116994D01*
X55101829Y-68104726D01*
X55102959Y-68102987D01*
X55106531Y-68098455D01*
X55109215Y-68093354D01*
X55109218Y-68093349D01*
X55148444Y-68018791D01*
X55149997Y-68015931D01*
X55193945Y-67937457D01*
X55195801Y-67931990D01*
X55196683Y-67930009D01*
X55202495Y-67916482D01*
X55203320Y-67914489D01*
X55206011Y-67909375D01*
X55232692Y-67823450D01*
X55233708Y-67820320D01*
X55262622Y-67735143D01*
X55263451Y-67729423D01*
X55263968Y-67727271D01*
X55267207Y-67712956D01*
X55267655Y-67710851D01*
X55269368Y-67705333D01*
X55279948Y-67615945D01*
X55280371Y-67612733D01*
X55293280Y-67523701D01*
X55289997Y-67440144D01*
X55289900Y-67435197D01*
X55289900Y-65888500D01*
X55309902Y-65820379D01*
X55363558Y-65773886D01*
X55415900Y-65762500D01*
X56050666Y-65762500D01*
X56053912Y-65762163D01*
X56053916Y-65762163D01*
X56150132Y-65752180D01*
X56150136Y-65752179D01*
X56156990Y-65751468D01*
X56163526Y-65749287D01*
X56163528Y-65749287D01*
X56295277Y-65705332D01*
X56325654Y-65695197D01*
X56476850Y-65601634D01*
X56542992Y-65535377D01*
X56580754Y-65497549D01*
X56643037Y-65463470D01*
X56713857Y-65468473D01*
X56758944Y-65497394D01*
X56859017Y-65597293D01*
X56859026Y-65597300D01*
X56864201Y-65602466D01*
X57015560Y-65695764D01*
X57022508Y-65698069D01*
X57022509Y-65698069D01*
X57177791Y-65749575D01*
X57177793Y-65749576D01*
X57184322Y-65751741D01*
X57289334Y-65762500D01*
X58590666Y-65762500D01*
X58593912Y-65762163D01*
X58593916Y-65762163D01*
X58690132Y-65752180D01*
X58690136Y-65752179D01*
X58696990Y-65751468D01*
X58703526Y-65749287D01*
X58703528Y-65749287D01*
X58835277Y-65705332D01*
X58865654Y-65695197D01*
X59016850Y-65601634D01*
X59142466Y-65475799D01*
X59150285Y-65463115D01*
X59231921Y-65330674D01*
X59235764Y-65324440D01*
X59291741Y-65155678D01*
X59294817Y-65125657D01*
X59321659Y-65059930D01*
X59379774Y-65019148D01*
X59420161Y-65012500D01*
X87321934Y-65012500D01*
X87335543Y-65013237D01*
X87367222Y-65016679D01*
X87367225Y-65016679D01*
X87373346Y-65017344D01*
X87393581Y-65015574D01*
X87423561Y-65012951D01*
X87428388Y-65012622D01*
X87430880Y-65012500D01*
X87433964Y-65012500D01*
X87476834Y-65008297D01*
X87478079Y-65008181D01*
X87515295Y-65004925D01*
X87565017Y-65000575D01*
X87565019Y-65000575D01*
X87571152Y-65000038D01*
X87576291Y-64998545D01*
X87581614Y-64998023D01*
X87670913Y-64971062D01*
X87672177Y-64970687D01*
X87694506Y-64964200D01*
X87761829Y-64944640D01*
X87766576Y-64942179D01*
X87771701Y-64940632D01*
X87777140Y-64937740D01*
X87777145Y-64937738D01*
X87854193Y-64896771D01*
X87855360Y-64896159D01*
X87932647Y-64856097D01*
X87932652Y-64856094D01*
X87938115Y-64853262D01*
X87942295Y-64849926D01*
X87947020Y-64847413D01*
X88019421Y-64788365D01*
X88020332Y-64787630D01*
X88056891Y-64758446D01*
X88056892Y-64758445D01*
X88059643Y-64756249D01*
X88062135Y-64753757D01*
X88062910Y-64753064D01*
X88067259Y-64749349D01*
X88096119Y-64725812D01*
X88096122Y-64725809D01*
X88100894Y-64721917D01*
X88130244Y-64686439D01*
X88138233Y-64677659D01*
X88972059Y-63843832D01*
X88982204Y-63834730D01*
X89007033Y-63814768D01*
X89007042Y-63814759D01*
X89011837Y-63810904D01*
X89044241Y-63772286D01*
X89047425Y-63768637D01*
X89049090Y-63766801D01*
X89051276Y-63764615D01*
X89053232Y-63762233D01*
X89053239Y-63762226D01*
X89078624Y-63731322D01*
X89079466Y-63730307D01*
X89139470Y-63658797D01*
X89142049Y-63654106D01*
X89145443Y-63649974D01*
X89148358Y-63644537D01*
X89148361Y-63644533D01*
X89189538Y-63567738D01*
X89190167Y-63566578D01*
X89232158Y-63490197D01*
X89232159Y-63490195D01*
X89235127Y-63484796D01*
X89236743Y-63479701D01*
X89239274Y-63474981D01*
X89266610Y-63385568D01*
X89266947Y-63384485D01*
X89295166Y-63295529D01*
X89295762Y-63290215D01*
X89297327Y-63285096D01*
X89306764Y-63192194D01*
X89306899Y-63190930D01*
X89312108Y-63144496D01*
X89312108Y-63144488D01*
X89312500Y-63140997D01*
X89312500Y-63137472D01*
X89312558Y-63136433D01*
X89313007Y-63130727D01*
X89316771Y-63093678D01*
X89316771Y-63093675D01*
X89317393Y-63087552D01*
X89313059Y-63041702D01*
X89312500Y-63029845D01*
X89312500Y-60563195D01*
X89332502Y-60495074D01*
X89382772Y-60450189D01*
X89480081Y-60402202D01*
X89480086Y-60402199D01*
X89483785Y-60400375D01*
X89603268Y-60320539D01*
X89737854Y-60230612D01*
X89737859Y-60230608D01*
X89741285Y-60228319D01*
X89744379Y-60225605D01*
X89744385Y-60225601D01*
X89971035Y-60026833D01*
X89974124Y-60024124D01*
X89992114Y-60003610D01*
X90175601Y-59794385D01*
X90175605Y-59794379D01*
X90178319Y-59791285D01*
X90350375Y-59533784D01*
X90423234Y-59386042D01*
X90485523Y-59259733D01*
X90485526Y-59259725D01*
X90487349Y-59256029D01*
X90545479Y-59084782D01*
X90585570Y-58966679D01*
X90585571Y-58966676D01*
X90586896Y-58962772D01*
X90630039Y-58745881D01*
X90646510Y-58663073D01*
X90646510Y-58663070D01*
X90647314Y-58659030D01*
X90649564Y-58624713D01*
X90667299Y-58354119D01*
X90667569Y-58350000D01*
X90657825Y-58201336D01*
X90647584Y-58045085D01*
X90647583Y-58045081D01*
X90647314Y-58040970D01*
X90629216Y-57949985D01*
X90587701Y-57741273D01*
X90587699Y-57741267D01*
X90586896Y-57737228D01*
X90501797Y-57486532D01*
X90488678Y-57447886D01*
X90488678Y-57447885D01*
X90487349Y-57443971D01*
X90485526Y-57440275D01*
X90485523Y-57440267D01*
X90352201Y-57169919D01*
X90350375Y-57166216D01*
X90346098Y-57159814D01*
X90269282Y-57044851D01*
X90178319Y-56908715D01*
X90175605Y-56905621D01*
X90175601Y-56905615D01*
X89976833Y-56678965D01*
X89974124Y-56675876D01*
X89939087Y-56645149D01*
X89744385Y-56474399D01*
X89744379Y-56474395D01*
X89741285Y-56471681D01*
X89737855Y-56469389D01*
X89737854Y-56469388D01*
X89544747Y-56340359D01*
X89483785Y-56299625D01*
X89480086Y-56297801D01*
X89480081Y-56297798D01*
X89337393Y-56227433D01*
X89206029Y-56162651D01*
X89080613Y-56120078D01*
X88916679Y-56064430D01*
X88916676Y-56064429D01*
X88912772Y-56063104D01*
X88908733Y-56062301D01*
X88908727Y-56062299D01*
X88613073Y-56003490D01*
X88613070Y-56003490D01*
X88609030Y-56002686D01*
X88604919Y-56002417D01*
X88604915Y-56002416D01*
X88304119Y-55982701D01*
X88300000Y-55982431D01*
X88295881Y-55982701D01*
X87995085Y-56002416D01*
X87995081Y-56002417D01*
X87990970Y-56002686D01*
X87986930Y-56003490D01*
X87986927Y-56003490D01*
X87691273Y-56062299D01*
X87691267Y-56062301D01*
X87687228Y-56063104D01*
X87683324Y-56064429D01*
X87683321Y-56064430D01*
X87519387Y-56120078D01*
X87393971Y-56162651D01*
X87390275Y-56164474D01*
X87390267Y-56164477D01*
X87254187Y-56231585D01*
X87116216Y-56299625D01*
X86858715Y-56471681D01*
X86855621Y-56474395D01*
X86855615Y-56474399D01*
X86660913Y-56645149D01*
X86625876Y-56675876D01*
X86623167Y-56678965D01*
X86424399Y-56905615D01*
X86424395Y-56905621D01*
X86421681Y-56908715D01*
X86330718Y-57044851D01*
X86253903Y-57159814D01*
X86249625Y-57166216D01*
X86247799Y-57169919D01*
X86114477Y-57440267D01*
X86114474Y-57440275D01*
X86112651Y-57443971D01*
X86111322Y-57447885D01*
X86111322Y-57447886D01*
X86098204Y-57486532D01*
X86013104Y-57737228D01*
X86012301Y-57741267D01*
X86012299Y-57741273D01*
X85970784Y-57949985D01*
X85952686Y-58040970D01*
X85952417Y-58045081D01*
X85952416Y-58045085D01*
X85942175Y-58201336D01*
X85932431Y-58350000D01*
X85932701Y-58354119D01*
X85950437Y-58624713D01*
X85952686Y-58659030D01*
X85953490Y-58663070D01*
X85953490Y-58663073D01*
X85969962Y-58745881D01*
X86013104Y-58962772D01*
X86014429Y-58966676D01*
X86014430Y-58966679D01*
X86054521Y-59084782D01*
X86112651Y-59256029D01*
X86114474Y-59259725D01*
X86114477Y-59259733D01*
X86176766Y-59386042D01*
X86249625Y-59533784D01*
X86421681Y-59791285D01*
X86424395Y-59794379D01*
X86424399Y-59794385D01*
X86607886Y-60003610D01*
X86625876Y-60024124D01*
X86628965Y-60026833D01*
X86855615Y-60225601D01*
X86855621Y-60225605D01*
X86858715Y-60228319D01*
X86862141Y-60230608D01*
X86862146Y-60230612D01*
X86996732Y-60320539D01*
X87116215Y-60400375D01*
X87119914Y-60402199D01*
X87119919Y-60402202D01*
X87217228Y-60450189D01*
X87269477Y-60498257D01*
X87287500Y-60563195D01*
X87287500Y-62612419D01*
X87267498Y-62680540D01*
X87250595Y-62701514D01*
X87001514Y-62950595D01*
X86939202Y-62984621D01*
X86912419Y-62987500D01*
X69812582Y-62987500D01*
X69744461Y-62967498D01*
X69697968Y-62913842D01*
X69687864Y-62843568D01*
X69717358Y-62778988D01*
X69723487Y-62772405D01*
X71172059Y-61323833D01*
X71182202Y-61314731D01*
X71207037Y-61294763D01*
X71211837Y-61290904D01*
X71244230Y-61252299D01*
X71247411Y-61248654D01*
X71249092Y-61246800D01*
X71251276Y-61244616D01*
X71278656Y-61211283D01*
X71279471Y-61210301D01*
X71297010Y-61189399D01*
X71339470Y-61138797D01*
X71342049Y-61134106D01*
X71345443Y-61129974D01*
X71389538Y-61047737D01*
X71390093Y-61046713D01*
X71435127Y-60964796D01*
X71436745Y-60959696D01*
X71439273Y-60954981D01*
X71466568Y-60865705D01*
X71466960Y-60864447D01*
X71493303Y-60781403D01*
X71493304Y-60781400D01*
X71495166Y-60775529D01*
X71495762Y-60770214D01*
X71497327Y-60765096D01*
X71498739Y-60751202D01*
X71506759Y-60672242D01*
X71506899Y-60670930D01*
X71507067Y-60669439D01*
X71509134Y-60651010D01*
X71512108Y-60624496D01*
X71512108Y-60624488D01*
X71512500Y-60620997D01*
X71512500Y-60617472D01*
X71512558Y-60616433D01*
X71513007Y-60610727D01*
X71516771Y-60573679D01*
X71516771Y-60573675D01*
X71517393Y-60567552D01*
X71516813Y-60561419D01*
X71516816Y-60560628D01*
X71537055Y-60492577D01*
X71587087Y-60448061D01*
X71680081Y-60402202D01*
X71680086Y-60402199D01*
X71683785Y-60400375D01*
X71803268Y-60320539D01*
X71937854Y-60230612D01*
X71937859Y-60230608D01*
X71941285Y-60228319D01*
X71944379Y-60225605D01*
X71944385Y-60225601D01*
X72171035Y-60026833D01*
X72174124Y-60024124D01*
X72192114Y-60003610D01*
X72375601Y-59794385D01*
X72375605Y-59794379D01*
X72378319Y-59791285D01*
X72550375Y-59533784D01*
X72623234Y-59386042D01*
X72685523Y-59259733D01*
X72685526Y-59259725D01*
X72687349Y-59256029D01*
X72745479Y-59084782D01*
X72785570Y-58966679D01*
X72785571Y-58966676D01*
X72786896Y-58962772D01*
X72830039Y-58745881D01*
X72846510Y-58663073D01*
X72846510Y-58663070D01*
X72847314Y-58659030D01*
X72849564Y-58624713D01*
X72867299Y-58354119D01*
X72867569Y-58350000D01*
X79232431Y-58350000D01*
X79232701Y-58354119D01*
X79250437Y-58624713D01*
X79252686Y-58659030D01*
X79253490Y-58663070D01*
X79253490Y-58663073D01*
X79269962Y-58745881D01*
X79313104Y-58962772D01*
X79314429Y-58966676D01*
X79314430Y-58966679D01*
X79354521Y-59084782D01*
X79412651Y-59256029D01*
X79414474Y-59259725D01*
X79414477Y-59259733D01*
X79476766Y-59386042D01*
X79549625Y-59533784D01*
X79721681Y-59791285D01*
X79724395Y-59794379D01*
X79724399Y-59794385D01*
X79907886Y-60003610D01*
X79925876Y-60024124D01*
X79928965Y-60026833D01*
X80155615Y-60225601D01*
X80155621Y-60225605D01*
X80158715Y-60228319D01*
X80162141Y-60230608D01*
X80162146Y-60230612D01*
X80296732Y-60320539D01*
X80416215Y-60400375D01*
X80419914Y-60402199D01*
X80419919Y-60402202D01*
X80547606Y-60465170D01*
X80693971Y-60537349D01*
X80697876Y-60538674D01*
X80697877Y-60538675D01*
X80983321Y-60635570D01*
X80983324Y-60635571D01*
X80987228Y-60636896D01*
X80991267Y-60637699D01*
X80991273Y-60637701D01*
X81286927Y-60696510D01*
X81286930Y-60696510D01*
X81290970Y-60697314D01*
X81295081Y-60697583D01*
X81295085Y-60697584D01*
X81595881Y-60717299D01*
X81600000Y-60717569D01*
X81604119Y-60717299D01*
X81904915Y-60697584D01*
X81904919Y-60697583D01*
X81909030Y-60697314D01*
X81913070Y-60696510D01*
X81913073Y-60696510D01*
X82208727Y-60637701D01*
X82208733Y-60637699D01*
X82212772Y-60636896D01*
X82216676Y-60635571D01*
X82216679Y-60635570D01*
X82502123Y-60538675D01*
X82502124Y-60538674D01*
X82506029Y-60537349D01*
X82652394Y-60465170D01*
X82780081Y-60402202D01*
X82780086Y-60402199D01*
X82783785Y-60400375D01*
X82903268Y-60320539D01*
X83037854Y-60230612D01*
X83037859Y-60230608D01*
X83041285Y-60228319D01*
X83044379Y-60225605D01*
X83044385Y-60225601D01*
X83271035Y-60026833D01*
X83274124Y-60024124D01*
X83292114Y-60003610D01*
X83475601Y-59794385D01*
X83475605Y-59794379D01*
X83478319Y-59791285D01*
X83650375Y-59533784D01*
X83723234Y-59386042D01*
X83785523Y-59259733D01*
X83785526Y-59259725D01*
X83787349Y-59256029D01*
X83845479Y-59084782D01*
X83885570Y-58966679D01*
X83885571Y-58966676D01*
X83886896Y-58962772D01*
X83930039Y-58745881D01*
X83946510Y-58663073D01*
X83946510Y-58663070D01*
X83947314Y-58659030D01*
X83949564Y-58624713D01*
X83967299Y-58354119D01*
X83967569Y-58350000D01*
X83957825Y-58201336D01*
X83947584Y-58045085D01*
X83947583Y-58045081D01*
X83947314Y-58040970D01*
X83929216Y-57949985D01*
X83887701Y-57741273D01*
X83887699Y-57741267D01*
X83886896Y-57737228D01*
X83801797Y-57486532D01*
X83788678Y-57447886D01*
X83788678Y-57447885D01*
X83787349Y-57443971D01*
X83785526Y-57440275D01*
X83785523Y-57440267D01*
X83652201Y-57169919D01*
X83650375Y-57166216D01*
X83646098Y-57159814D01*
X83569282Y-57044851D01*
X83478319Y-56908715D01*
X83475605Y-56905621D01*
X83475601Y-56905615D01*
X83276833Y-56678965D01*
X83274124Y-56675876D01*
X83239087Y-56645149D01*
X83044385Y-56474399D01*
X83044379Y-56474395D01*
X83041285Y-56471681D01*
X83037855Y-56469389D01*
X83037854Y-56469388D01*
X82844747Y-56340359D01*
X82783785Y-56299625D01*
X82780086Y-56297801D01*
X82780081Y-56297798D01*
X82637393Y-56227433D01*
X82506029Y-56162651D01*
X82380613Y-56120078D01*
X82216679Y-56064430D01*
X82216676Y-56064429D01*
X82212772Y-56063104D01*
X82208733Y-56062301D01*
X82208727Y-56062299D01*
X81913073Y-56003490D01*
X81913070Y-56003490D01*
X81909030Y-56002686D01*
X81904919Y-56002417D01*
X81904915Y-56002416D01*
X81604119Y-55982701D01*
X81600000Y-55982431D01*
X81595881Y-55982701D01*
X81295085Y-56002416D01*
X81295081Y-56002417D01*
X81290970Y-56002686D01*
X81286930Y-56003490D01*
X81286927Y-56003490D01*
X80991273Y-56062299D01*
X80991267Y-56062301D01*
X80987228Y-56063104D01*
X80983324Y-56064429D01*
X80983321Y-56064430D01*
X80819387Y-56120078D01*
X80693971Y-56162651D01*
X80690275Y-56164474D01*
X80690267Y-56164477D01*
X80554187Y-56231585D01*
X80416216Y-56299625D01*
X80158715Y-56471681D01*
X80155621Y-56474395D01*
X80155615Y-56474399D01*
X79960913Y-56645149D01*
X79925876Y-56675876D01*
X79923167Y-56678965D01*
X79724399Y-56905615D01*
X79724395Y-56905621D01*
X79721681Y-56908715D01*
X79630718Y-57044851D01*
X79553903Y-57159814D01*
X79549625Y-57166216D01*
X79547799Y-57169919D01*
X79414477Y-57440267D01*
X79414474Y-57440275D01*
X79412651Y-57443971D01*
X79411322Y-57447885D01*
X79411322Y-57447886D01*
X79398204Y-57486532D01*
X79313104Y-57737228D01*
X79312301Y-57741267D01*
X79312299Y-57741273D01*
X79270784Y-57949985D01*
X79252686Y-58040970D01*
X79252417Y-58045081D01*
X79252416Y-58045085D01*
X79242175Y-58201336D01*
X79232431Y-58350000D01*
X72867569Y-58350000D01*
X72857825Y-58201336D01*
X72847584Y-58045085D01*
X72847583Y-58045081D01*
X72847314Y-58040970D01*
X72829216Y-57949985D01*
X72787701Y-57741273D01*
X72787699Y-57741267D01*
X72786896Y-57737228D01*
X72701797Y-57486532D01*
X72688678Y-57447886D01*
X72688678Y-57447885D01*
X72687349Y-57443971D01*
X72685526Y-57440275D01*
X72685523Y-57440267D01*
X72552201Y-57169919D01*
X72550375Y-57166216D01*
X72546098Y-57159814D01*
X72469282Y-57044851D01*
X72378319Y-56908715D01*
X72375605Y-56905621D01*
X72375601Y-56905615D01*
X72176833Y-56678965D01*
X72174124Y-56675876D01*
X72139087Y-56645149D01*
X71944385Y-56474399D01*
X71944379Y-56474395D01*
X71941285Y-56471681D01*
X71937855Y-56469389D01*
X71937854Y-56469388D01*
X71744747Y-56340359D01*
X71683785Y-56299625D01*
X71680086Y-56297801D01*
X71680081Y-56297798D01*
X71537393Y-56227433D01*
X71406029Y-56162651D01*
X71280613Y-56120078D01*
X71116679Y-56064430D01*
X71116676Y-56064429D01*
X71112772Y-56063104D01*
X71108733Y-56062301D01*
X71108727Y-56062299D01*
X70813073Y-56003490D01*
X70813070Y-56003490D01*
X70809030Y-56002686D01*
X70804919Y-56002417D01*
X70804915Y-56002416D01*
X70504119Y-55982701D01*
X70500000Y-55982431D01*
X70495881Y-55982701D01*
X70195085Y-56002416D01*
X70195081Y-56002417D01*
X70190970Y-56002686D01*
X70186930Y-56003490D01*
X70186927Y-56003490D01*
X69891273Y-56062299D01*
X69891267Y-56062301D01*
X69887228Y-56063104D01*
X69883324Y-56064429D01*
X69883321Y-56064430D01*
X69719387Y-56120078D01*
X69593971Y-56162651D01*
X69590275Y-56164474D01*
X69590267Y-56164477D01*
X69454187Y-56231585D01*
X69316216Y-56299625D01*
X69058715Y-56471681D01*
X69055621Y-56474395D01*
X69055615Y-56474399D01*
X68860913Y-56645149D01*
X68825876Y-56675876D01*
X68823167Y-56678965D01*
X68624399Y-56905615D01*
X68624395Y-56905621D01*
X68621681Y-56908715D01*
X68530718Y-57044851D01*
X68453903Y-57159814D01*
X68449625Y-57166216D01*
X68447799Y-57169919D01*
X68314477Y-57440267D01*
X68314474Y-57440275D01*
X68312651Y-57443971D01*
X68311322Y-57447885D01*
X68311322Y-57447886D01*
X68298204Y-57486532D01*
X68213104Y-57737228D01*
X68212301Y-57741267D01*
X68212299Y-57741273D01*
X68170784Y-57949985D01*
X68152686Y-58040970D01*
X68152417Y-58045081D01*
X68152416Y-58045085D01*
X68142175Y-58201336D01*
X68132431Y-58350000D01*
X68132701Y-58354119D01*
X68150437Y-58624713D01*
X68152686Y-58659030D01*
X68153490Y-58663070D01*
X68153490Y-58663073D01*
X68169962Y-58745881D01*
X68213104Y-58962772D01*
X68214429Y-58966676D01*
X68214430Y-58966679D01*
X68254521Y-59084782D01*
X68312651Y-59256029D01*
X68314474Y-59259725D01*
X68314477Y-59259733D01*
X68376766Y-59386042D01*
X68449625Y-59533784D01*
X68621681Y-59791285D01*
X68624395Y-59794379D01*
X68624399Y-59794385D01*
X68807886Y-60003610D01*
X68825876Y-60024124D01*
X68828965Y-60026833D01*
X69055615Y-60225601D01*
X69055621Y-60225605D01*
X69058715Y-60228319D01*
X69062141Y-60230608D01*
X69062146Y-60230612D01*
X69137915Y-60281239D01*
X69183443Y-60335716D01*
X69192291Y-60406159D01*
X69157009Y-60475099D01*
X68451514Y-61180595D01*
X68389201Y-61214620D01*
X68362418Y-61217500D01*
X59011198Y-61217500D01*
X58943077Y-61197498D01*
X58896584Y-61143842D01*
X58886480Y-61073568D01*
X58914113Y-61011185D01*
X59053207Y-60843049D01*
X59057864Y-60836638D01*
X59219609Y-60581770D01*
X59223421Y-60574837D01*
X59351947Y-60301705D01*
X59354862Y-60294342D01*
X59448140Y-60007261D01*
X59450111Y-59999584D01*
X59506672Y-59703081D01*
X59507665Y-59695218D01*
X59526619Y-59393958D01*
X59526619Y-59386042D01*
X59507665Y-59084782D01*
X59506672Y-59076919D01*
X59450111Y-58780416D01*
X59448140Y-58772739D01*
X59354862Y-58485658D01*
X59351947Y-58478295D01*
X59223421Y-58205163D01*
X59219609Y-58198230D01*
X59057860Y-57943355D01*
X59053216Y-57936962D01*
X58982831Y-57851882D01*
X58970314Y-57843427D01*
X58959576Y-57849634D01*
X57149095Y-59660115D01*
X57086783Y-59694141D01*
X57015968Y-59689076D01*
X56970905Y-59660115D01*
X55161527Y-57850737D01*
X55148265Y-57843495D01*
X55138160Y-57850684D01*
X55089092Y-57909997D01*
X55030258Y-57949736D01*
X54959280Y-57951358D01*
X54897275Y-57912759D01*
X54820546Y-57825266D01*
X54820539Y-57825259D01*
X54817830Y-57822170D01*
X54599774Y-57630940D01*
X54596348Y-57628651D01*
X54596343Y-57628647D01*
X54387914Y-57489379D01*
X54368669Y-57476520D01*
X55511686Y-57476520D01*
X55518589Y-57489379D01*
X57047188Y-59017978D01*
X57061132Y-59025592D01*
X57062965Y-59025461D01*
X57069580Y-59021210D01*
X58601734Y-57489056D01*
X58608347Y-57476945D01*
X58599520Y-57465327D01*
X58385022Y-57309485D01*
X58378342Y-57305245D01*
X58113803Y-57159814D01*
X58106668Y-57156457D01*
X57825987Y-57045327D01*
X57818462Y-57042882D01*
X57526084Y-56967813D01*
X57518313Y-56966330D01*
X57218827Y-56928497D01*
X57210937Y-56928000D01*
X56909063Y-56928000D01*
X56901173Y-56928497D01*
X56601687Y-56966330D01*
X56593916Y-56967813D01*
X56301538Y-57042882D01*
X56294013Y-57045327D01*
X56013332Y-57156457D01*
X56006197Y-57159814D01*
X55741658Y-57305245D01*
X55734978Y-57309485D01*
X55520109Y-57465596D01*
X55511686Y-57476520D01*
X54368669Y-57476520D01*
X54358624Y-57469808D01*
X54354925Y-57467984D01*
X54354920Y-57467981D01*
X54133248Y-57358665D01*
X54098504Y-57341531D01*
X54027705Y-57317498D01*
X53827773Y-57249630D01*
X53827770Y-57249629D01*
X53823866Y-57248304D01*
X53819827Y-57247501D01*
X53819821Y-57247499D01*
X53543452Y-57192526D01*
X53543449Y-57192526D01*
X53539409Y-57191722D01*
X53535298Y-57191453D01*
X53535294Y-57191452D01*
X53254119Y-57173023D01*
X53250000Y-57172753D01*
X53245881Y-57173023D01*
X52964706Y-57191452D01*
X52964702Y-57191453D01*
X52960591Y-57191722D01*
X52956551Y-57192526D01*
X52956548Y-57192526D01*
X52680179Y-57247499D01*
X52680173Y-57247501D01*
X52676134Y-57248304D01*
X52672230Y-57249629D01*
X52672227Y-57249630D01*
X52481342Y-57314427D01*
X52401496Y-57341531D01*
X52397800Y-57343354D01*
X52397792Y-57343357D01*
X52275517Y-57403657D01*
X52141377Y-57469808D01*
X52137944Y-57472102D01*
X52137942Y-57472103D01*
X51903657Y-57628647D01*
X51903652Y-57628651D01*
X51900226Y-57630940D01*
X51682170Y-57822170D01*
X51652359Y-57856163D01*
X51603059Y-57912379D01*
X51543105Y-57950407D01*
X51472110Y-57949985D01*
X51411242Y-57909617D01*
X51362533Y-57850737D01*
X51238635Y-57700970D01*
X51012760Y-57488860D01*
X50996361Y-57476945D01*
X50887014Y-57397500D01*
X50762082Y-57306731D01*
X50738634Y-57293840D01*
X50494017Y-57159361D01*
X50494014Y-57159360D01*
X50490555Y-57157458D01*
X50207344Y-57045327D01*
X50206142Y-57044851D01*
X50206139Y-57044850D01*
X50202459Y-57043393D01*
X50198625Y-57042409D01*
X50198617Y-57042406D01*
X49989238Y-56988647D01*
X49902339Y-56966335D01*
X49898411Y-56965839D01*
X49898407Y-56965838D01*
X49776607Y-56950451D01*
X49594927Y-56927500D01*
X49285073Y-56927500D01*
X49103393Y-56950451D01*
X48981593Y-56965838D01*
X48981589Y-56965839D01*
X48977661Y-56966335D01*
X48890762Y-56988647D01*
X48681383Y-57042406D01*
X48681375Y-57042409D01*
X48677541Y-57043393D01*
X48673861Y-57044850D01*
X48673858Y-57044851D01*
X48672656Y-57045327D01*
X48389445Y-57157458D01*
X48385986Y-57159360D01*
X48385983Y-57159361D01*
X48141367Y-57293840D01*
X48117918Y-57306731D01*
X47992986Y-57397500D01*
X47883640Y-57476945D01*
X47867240Y-57488860D01*
X47641365Y-57700970D01*
X47443857Y-57939717D01*
X47277828Y-58201336D01*
X47276144Y-58204915D01*
X47276140Y-58204922D01*
X47153895Y-58464706D01*
X47145898Y-58481701D01*
X47050148Y-58776390D01*
X46992087Y-59080757D01*
X46972631Y-59390000D01*
X46992087Y-59699243D01*
X47050148Y-60003610D01*
X47082401Y-60102874D01*
X47129584Y-60248088D01*
X47145898Y-60298299D01*
X47147585Y-60301885D01*
X47147587Y-60301889D01*
X47276140Y-60575078D01*
X47276144Y-60575085D01*
X47277828Y-60578664D01*
X47443857Y-60840283D01*
X47641365Y-61079030D01*
X47644252Y-61081741D01*
X47781674Y-61210788D01*
X47867240Y-61291140D01*
X47870443Y-61293467D01*
X47870444Y-61293468D01*
X47912238Y-61323833D01*
X48117918Y-61473269D01*
X48121387Y-61475176D01*
X48121390Y-61475178D01*
X48328696Y-61589145D01*
X48389445Y-61622542D01*
X48499695Y-61666193D01*
X48673858Y-61735149D01*
X48673861Y-61735150D01*
X48677541Y-61736607D01*
X48681375Y-61737591D01*
X48681383Y-61737594D01*
X48867252Y-61785317D01*
X48977661Y-61813665D01*
X48981589Y-61814161D01*
X48981593Y-61814162D01*
X49080171Y-61826615D01*
X49285073Y-61852500D01*
X49594927Y-61852500D01*
X49799829Y-61826615D01*
X49898407Y-61814162D01*
X49898411Y-61814161D01*
X49902339Y-61813665D01*
X50085205Y-61766713D01*
X50156160Y-61769145D01*
X50205635Y-61799659D01*
X50540273Y-62134297D01*
X50574299Y-62196609D01*
X50574298Y-62250177D01*
X50574000Y-62251547D01*
X50574000Y-65743885D01*
X50578475Y-65759124D01*
X50579865Y-65760329D01*
X50587548Y-65762000D01*
X50967360Y-65762000D01*
X50973876Y-65761663D01*
X51070029Y-65751686D01*
X51083426Y-65748793D01*
X51238492Y-65697059D01*
X51251670Y-65690885D01*
X51390311Y-65605092D01*
X51401711Y-65596056D01*
X51500399Y-65497195D01*
X51562681Y-65463115D01*
X51633501Y-65468118D01*
X51678590Y-65497039D01*
X51709958Y-65528352D01*
X51784201Y-65602466D01*
X51935560Y-65695764D01*
X51942508Y-65698069D01*
X51942509Y-65698069D01*
X52097791Y-65749575D01*
X52097793Y-65749576D01*
X52104322Y-65751741D01*
X52209334Y-65762500D01*
X52838900Y-65762500D01*
X52907021Y-65782502D01*
X52953514Y-65836158D01*
X52964900Y-65888500D01*
X52964900Y-66928887D01*
X52944898Y-66997008D01*
X52927995Y-67017982D01*
X51745382Y-68200595D01*
X51683070Y-68234621D01*
X51656287Y-68237500D01*
X50939334Y-68237500D01*
X50936088Y-68237837D01*
X50936084Y-68237837D01*
X50839868Y-68247820D01*
X50839864Y-68247821D01*
X50833010Y-68248532D01*
X50826474Y-68250713D01*
X50826472Y-68250713D01*
X50701801Y-68292307D01*
X50664346Y-68304803D01*
X50513150Y-68398366D01*
X50507977Y-68403548D01*
X50409246Y-68502451D01*
X50346963Y-68536530D01*
X50276143Y-68531527D01*
X50231056Y-68502606D01*
X50130983Y-68402707D01*
X50130974Y-68402700D01*
X50125799Y-68397534D01*
X49974440Y-68304236D01*
X49965631Y-68301314D01*
X49812209Y-68250425D01*
X49812207Y-68250424D01*
X49805678Y-68248259D01*
X49700666Y-68237500D01*
X48792263Y-68237500D01*
X48724142Y-68217498D01*
X48680449Y-68169583D01*
X48623892Y-68060707D01*
X48589725Y-67994932D01*
X48436028Y-67784547D01*
X48432652Y-67781153D01*
X48255652Y-67603224D01*
X48255647Y-67603220D01*
X48252276Y-67599831D01*
X48248430Y-67596990D01*
X48248425Y-67596986D01*
X48046550Y-67447879D01*
X48046549Y-67447878D01*
X48042698Y-67445034D01*
X48038468Y-67442808D01*
X48038464Y-67442806D01*
X47816354Y-67325949D01*
X47816352Y-67325948D01*
X47812117Y-67323720D01*
X47565839Y-67238679D01*
X47309532Y-67191869D01*
X47226168Y-67187500D01*
X47063743Y-67187500D01*
X47061364Y-67187681D01*
X47061363Y-67187681D01*
X46874970Y-67201859D01*
X46874965Y-67201860D01*
X46870203Y-67202222D01*
X46865550Y-67203301D01*
X46865547Y-67203301D01*
X46676184Y-67247193D01*
X46616385Y-67261054D01*
X46374387Y-67357602D01*
X46149777Y-67489643D01*
X45947723Y-67654141D01*
X45772877Y-67847308D01*
X45629261Y-68064700D01*
X45627260Y-68069040D01*
X45627258Y-68069044D01*
X45543123Y-68251548D01*
X45520181Y-68301314D01*
X45518857Y-68305915D01*
X45518857Y-68305916D01*
X45452512Y-68536530D01*
X45448146Y-68551705D01*
X45447535Y-68556440D01*
X45447534Y-68556446D01*
X45433149Y-68667968D01*
X45414814Y-68810111D01*
X45414927Y-68814888D01*
X45420436Y-69048681D01*
X45420952Y-69070586D01*
X45421786Y-69075290D01*
X45462590Y-69305523D01*
X45466420Y-69327135D01*
X45550170Y-69573855D01*
X45552371Y-69578091D01*
X45552373Y-69578097D01*
X45610223Y-69689462D01*
X45670275Y-69805068D01*
X45823972Y-70015453D01*
X45827346Y-70018845D01*
X45827348Y-70018847D01*
X46004348Y-70196776D01*
X46004353Y-70196780D01*
X46007724Y-70200169D01*
X46011576Y-70203014D01*
X46059145Y-70238149D01*
X46102056Y-70294710D01*
X46107576Y-70365491D01*
X46073952Y-70428021D01*
X46011860Y-70462446D01*
X45984286Y-70465500D01*
X42189713Y-70465500D01*
X42121592Y-70445498D01*
X42100618Y-70428595D01*
X40315405Y-68643382D01*
X40281379Y-68581070D01*
X40278500Y-68554287D01*
X40278500Y-65047360D01*
X48958000Y-65047360D01*
X48958337Y-65053876D01*
X48968314Y-65150029D01*
X48971207Y-65163426D01*
X49022941Y-65318492D01*
X49029115Y-65331670D01*
X49114908Y-65470311D01*
X49123944Y-65481711D01*
X49239333Y-65596898D01*
X49250744Y-65605910D01*
X49389543Y-65691468D01*
X49402721Y-65697612D01*
X49557897Y-65749082D01*
X49571263Y-65751948D01*
X49666176Y-65761672D01*
X49672591Y-65762000D01*
X50047885Y-65762000D01*
X50063124Y-65757525D01*
X50064329Y-65756135D01*
X50066000Y-65748452D01*
X50066000Y-64272115D01*
X50061525Y-64256876D01*
X50060135Y-64255671D01*
X50052452Y-64254000D01*
X48976115Y-64254000D01*
X48960876Y-64258475D01*
X48959671Y-64259865D01*
X48958000Y-64267548D01*
X48958000Y-65047360D01*
X40278500Y-65047360D01*
X40278500Y-63727885D01*
X48958000Y-63727885D01*
X48962475Y-63743124D01*
X48963865Y-63744329D01*
X48971548Y-63746000D01*
X50047885Y-63746000D01*
X50063124Y-63741525D01*
X50064329Y-63740135D01*
X50066000Y-63732452D01*
X50066000Y-62256115D01*
X50061525Y-62240876D01*
X50060135Y-62239671D01*
X50052452Y-62238000D01*
X49672640Y-62238000D01*
X49666124Y-62238337D01*
X49569971Y-62248314D01*
X49556574Y-62251207D01*
X49401508Y-62302941D01*
X49388330Y-62309115D01*
X49249689Y-62394908D01*
X49238289Y-62403944D01*
X49123102Y-62519333D01*
X49114090Y-62530744D01*
X49028532Y-62669543D01*
X49022388Y-62682721D01*
X48970918Y-62837897D01*
X48968052Y-62851263D01*
X48958328Y-62946176D01*
X48958000Y-62952591D01*
X48958000Y-63727885D01*
X40278500Y-63727885D01*
X40278500Y-56046259D01*
X51879199Y-56046259D01*
X51885656Y-56055619D01*
X51897424Y-56065938D01*
X51903966Y-56070958D01*
X52138194Y-56227464D01*
X52145331Y-56231585D01*
X52397990Y-56356182D01*
X52405594Y-56359332D01*
X52672357Y-56449886D01*
X52680309Y-56452017D01*
X52956614Y-56506977D01*
X52964772Y-56508051D01*
X53245881Y-56526476D01*
X53254119Y-56526476D01*
X53535228Y-56508051D01*
X53543386Y-56506977D01*
X53819691Y-56452017D01*
X53827643Y-56449886D01*
X54094406Y-56359332D01*
X54102010Y-56356182D01*
X54354669Y-56231585D01*
X54361806Y-56227464D01*
X54596034Y-56070958D01*
X54602576Y-56065938D01*
X54612477Y-56057255D01*
X54620875Y-56044017D01*
X54615041Y-56034252D01*
X53262810Y-54682020D01*
X53248869Y-54674408D01*
X53247034Y-54674539D01*
X53240420Y-54678790D01*
X51886713Y-56032498D01*
X51879199Y-56046259D01*
X40278500Y-56046259D01*
X40278500Y-54314119D01*
X51033524Y-54314119D01*
X51051949Y-54595228D01*
X51053023Y-54603386D01*
X51107983Y-54879691D01*
X51110114Y-54887643D01*
X51200668Y-55154406D01*
X51203818Y-55162010D01*
X51328415Y-55414669D01*
X51332536Y-55421806D01*
X51489042Y-55656034D01*
X51494062Y-55662576D01*
X51502745Y-55672477D01*
X51515983Y-55680875D01*
X51525748Y-55675041D01*
X52877980Y-54322810D01*
X52884357Y-54311131D01*
X53614408Y-54311131D01*
X53614539Y-54312966D01*
X53618790Y-54319580D01*
X54972498Y-55673287D01*
X54986259Y-55680801D01*
X54995619Y-55674344D01*
X55005938Y-55662576D01*
X55010958Y-55656034D01*
X55167464Y-55421806D01*
X55171585Y-55414669D01*
X55296182Y-55162010D01*
X55299332Y-55154406D01*
X55389886Y-54887643D01*
X55392017Y-54879691D01*
X55446977Y-54603386D01*
X55448051Y-54595228D01*
X55461020Y-54397360D01*
X106538000Y-54397360D01*
X106538337Y-54403876D01*
X106548314Y-54500029D01*
X106551207Y-54513426D01*
X106602941Y-54668492D01*
X106609115Y-54681670D01*
X106694908Y-54820311D01*
X106703944Y-54831711D01*
X106819333Y-54946898D01*
X106830744Y-54955910D01*
X106969543Y-55041468D01*
X106982721Y-55047612D01*
X107137897Y-55099082D01*
X107151263Y-55101948D01*
X107246176Y-55111672D01*
X107252591Y-55112000D01*
X109327885Y-55112000D01*
X109343124Y-55107525D01*
X109344329Y-55106135D01*
X109346000Y-55098452D01*
X109346000Y-55093885D01*
X109854000Y-55093885D01*
X109858475Y-55109124D01*
X109859865Y-55110329D01*
X109867548Y-55112000D01*
X111947360Y-55112000D01*
X111953876Y-55111663D01*
X112050029Y-55101686D01*
X112063426Y-55098793D01*
X112218492Y-55047059D01*
X112231670Y-55040885D01*
X112370311Y-54955092D01*
X112381711Y-54946056D01*
X112496898Y-54830667D01*
X112505910Y-54819256D01*
X112591468Y-54680457D01*
X112597612Y-54667279D01*
X112649082Y-54512103D01*
X112651948Y-54498737D01*
X112661672Y-54403824D01*
X112662000Y-54397409D01*
X112662000Y-53622115D01*
X112657525Y-53606876D01*
X112656135Y-53605671D01*
X112648452Y-53604000D01*
X109872115Y-53604000D01*
X109856876Y-53608475D01*
X109855671Y-53609865D01*
X109854000Y-53617548D01*
X109854000Y-55093885D01*
X109346000Y-55093885D01*
X109346000Y-53622115D01*
X109341525Y-53606876D01*
X109340135Y-53605671D01*
X109332452Y-53604000D01*
X106556115Y-53604000D01*
X106540876Y-53608475D01*
X106539671Y-53609865D01*
X106538000Y-53617548D01*
X106538000Y-54397360D01*
X55461020Y-54397360D01*
X55466476Y-54314119D01*
X55466476Y-54305881D01*
X55448051Y-54024772D01*
X55446977Y-54016614D01*
X55392017Y-53740309D01*
X55389886Y-53732357D01*
X55299332Y-53465594D01*
X55296182Y-53457990D01*
X55171585Y-53205331D01*
X55167464Y-53198194D01*
X55010958Y-52963966D01*
X55005938Y-52957424D01*
X54997255Y-52947523D01*
X54984017Y-52939125D01*
X54974252Y-52944959D01*
X53622020Y-54297190D01*
X53614408Y-54311131D01*
X52884357Y-54311131D01*
X52885592Y-54308869D01*
X52885461Y-54307034D01*
X52881210Y-54300420D01*
X51527502Y-52946713D01*
X51513741Y-52939199D01*
X51504381Y-52945656D01*
X51494062Y-52957424D01*
X51489042Y-52963966D01*
X51332536Y-53198194D01*
X51328415Y-53205331D01*
X51203818Y-53457990D01*
X51200668Y-53465594D01*
X51110114Y-53732357D01*
X51107983Y-53740309D01*
X51053023Y-54016614D01*
X51051949Y-54024772D01*
X51033524Y-54305881D01*
X51033524Y-54314119D01*
X40278500Y-54314119D01*
X40278500Y-52575983D01*
X51879125Y-52575983D01*
X51884959Y-52585748D01*
X53237190Y-53937980D01*
X53251131Y-53945592D01*
X53252966Y-53945461D01*
X53259580Y-53941210D01*
X54613287Y-52587502D01*
X54620801Y-52573741D01*
X54614344Y-52564381D01*
X54602576Y-52554062D01*
X54596034Y-52549042D01*
X54361806Y-52392536D01*
X54354669Y-52388415D01*
X54102010Y-52263818D01*
X54094406Y-52260668D01*
X53827643Y-52170114D01*
X53819691Y-52167983D01*
X53543386Y-52113023D01*
X53535228Y-52111949D01*
X53254119Y-52093524D01*
X53245881Y-52093524D01*
X52964772Y-52111949D01*
X52956614Y-52113023D01*
X52680309Y-52167983D01*
X52672357Y-52170114D01*
X52405594Y-52260668D01*
X52397990Y-52263818D01*
X52145331Y-52388415D01*
X52138194Y-52392536D01*
X51903966Y-52549042D01*
X51897424Y-52554062D01*
X51887523Y-52562745D01*
X51879125Y-52575983D01*
X40278500Y-52575983D01*
X40278500Y-51079713D01*
X40298502Y-51011592D01*
X40315405Y-50990618D01*
X41106619Y-50199404D01*
X41168931Y-50165378D01*
X41195714Y-50162499D01*
X55380085Y-50162499D01*
X55448206Y-50182501D01*
X55494699Y-50236157D01*
X55504892Y-50302986D01*
X55504778Y-50303530D01*
X55493372Y-50554708D01*
X55493953Y-50559728D01*
X55493953Y-50559732D01*
X55509190Y-50691421D01*
X55522271Y-50804478D01*
X55523650Y-50809350D01*
X55523650Y-50809352D01*
X55526640Y-50819919D01*
X55590733Y-51046416D01*
X55696995Y-51274295D01*
X55838323Y-51482253D01*
X55841798Y-51485928D01*
X55841799Y-51485929D01*
X55999211Y-51652388D01*
X56011082Y-51664941D01*
X56015108Y-51668019D01*
X56015109Y-51668020D01*
X56206807Y-51814585D01*
X56206811Y-51814588D01*
X56210827Y-51817658D01*
X56215285Y-51820048D01*
X56215286Y-51820049D01*
X56319332Y-51875838D01*
X56432420Y-51936475D01*
X56670158Y-52018334D01*
X56782993Y-52037824D01*
X56914016Y-52060456D01*
X56914022Y-52060457D01*
X56917926Y-52061131D01*
X56921887Y-52061311D01*
X56921888Y-52061311D01*
X56946653Y-52062436D01*
X56946672Y-52062436D01*
X56948072Y-52062500D01*
X57123176Y-52062500D01*
X57125684Y-52062298D01*
X57125689Y-52062298D01*
X57305585Y-52047824D01*
X57305589Y-52047823D01*
X57310627Y-52047418D01*
X57315535Y-52046212D01*
X57315538Y-52046212D01*
X57549892Y-51988649D01*
X57554806Y-51987442D01*
X57559458Y-51985467D01*
X57559462Y-51985466D01*
X57781597Y-51891175D01*
X57786255Y-51889198D01*
X57879569Y-51830435D01*
X57994740Y-51757908D01*
X57994743Y-51757906D01*
X57999019Y-51755213D01*
X58187625Y-51588935D01*
X58347220Y-51394641D01*
X58473697Y-51177330D01*
X58513610Y-51073353D01*
X58561991Y-50947318D01*
X58561992Y-50947314D01*
X58563804Y-50942594D01*
X58590206Y-50816216D01*
X58614188Y-50701421D01*
X58614188Y-50701417D01*
X58615222Y-50696470D01*
X58626628Y-50445292D01*
X58610162Y-50302980D01*
X58622202Y-50233013D01*
X58670158Y-50180661D01*
X58735327Y-50162499D01*
X68691065Y-50162499D01*
X68759186Y-50182501D01*
X68805679Y-50236157D01*
X68815783Y-50306431D01*
X68785797Y-50371577D01*
X68624399Y-50555615D01*
X68624395Y-50555621D01*
X68621681Y-50558715D01*
X68449625Y-50816216D01*
X68447799Y-50819919D01*
X68314477Y-51090267D01*
X68314474Y-51090275D01*
X68312651Y-51093971D01*
X68311322Y-51097885D01*
X68311322Y-51097886D01*
X68284355Y-51177330D01*
X68213104Y-51387228D01*
X68212301Y-51391267D01*
X68212299Y-51391273D01*
X68159240Y-51658020D01*
X68152686Y-51690970D01*
X68152417Y-51695081D01*
X68152416Y-51695085D01*
X68136595Y-51936475D01*
X68132431Y-52000000D01*
X68132701Y-52004119D01*
X68149723Y-52263818D01*
X68152686Y-52309030D01*
X68153490Y-52313070D01*
X68153490Y-52313073D01*
X68208545Y-52589851D01*
X68213104Y-52612772D01*
X68214429Y-52616676D01*
X68214430Y-52616679D01*
X68243548Y-52702458D01*
X68312651Y-52906029D01*
X68314474Y-52909725D01*
X68314477Y-52909733D01*
X68407221Y-53097797D01*
X68449625Y-53183784D01*
X68621681Y-53441285D01*
X68624395Y-53444379D01*
X68624399Y-53444385D01*
X68764379Y-53604000D01*
X68825876Y-53674124D01*
X68828965Y-53676833D01*
X69055615Y-53875601D01*
X69055621Y-53875605D01*
X69058715Y-53878319D01*
X69062141Y-53880608D01*
X69062146Y-53880612D01*
X69226990Y-53990757D01*
X69316215Y-54050375D01*
X69319914Y-54052199D01*
X69319919Y-54052202D01*
X69462607Y-54122567D01*
X69593971Y-54187349D01*
X69597876Y-54188674D01*
X69597877Y-54188675D01*
X69883321Y-54285570D01*
X69883324Y-54285571D01*
X69887228Y-54286896D01*
X69891267Y-54287699D01*
X69891273Y-54287701D01*
X70186927Y-54346510D01*
X70186930Y-54346510D01*
X70190970Y-54347314D01*
X70195081Y-54347583D01*
X70195085Y-54347584D01*
X70495881Y-54367299D01*
X70500000Y-54367569D01*
X70504119Y-54367299D01*
X70804915Y-54347584D01*
X70804919Y-54347583D01*
X70809030Y-54347314D01*
X70813070Y-54346510D01*
X70813073Y-54346510D01*
X71108727Y-54287701D01*
X71108733Y-54287699D01*
X71112772Y-54286896D01*
X71116676Y-54285571D01*
X71116679Y-54285570D01*
X71402123Y-54188675D01*
X71402124Y-54188674D01*
X71406029Y-54187349D01*
X71537393Y-54122567D01*
X71680081Y-54052202D01*
X71680086Y-54052199D01*
X71683785Y-54050375D01*
X71773010Y-53990757D01*
X71937854Y-53880612D01*
X71937859Y-53880608D01*
X71941285Y-53878319D01*
X71944379Y-53875605D01*
X71944385Y-53875601D01*
X72171035Y-53676833D01*
X72174124Y-53674124D01*
X72235621Y-53604000D01*
X72375601Y-53444385D01*
X72375605Y-53444379D01*
X72378319Y-53441285D01*
X72550375Y-53183784D01*
X72592779Y-53097797D01*
X72685523Y-52909733D01*
X72685526Y-52909725D01*
X72687349Y-52906029D01*
X72756452Y-52702458D01*
X72785570Y-52616679D01*
X72785571Y-52616676D01*
X72786896Y-52612772D01*
X72791456Y-52589851D01*
X72846510Y-52313073D01*
X72846510Y-52313070D01*
X72847314Y-52309030D01*
X72850278Y-52263818D01*
X72867299Y-52004119D01*
X72867569Y-52000000D01*
X72863405Y-51936475D01*
X72847584Y-51695085D01*
X72847583Y-51695081D01*
X72847314Y-51690970D01*
X72840760Y-51658020D01*
X72787701Y-51391273D01*
X72787699Y-51391267D01*
X72786896Y-51387228D01*
X72715646Y-51177330D01*
X72688678Y-51097886D01*
X72688678Y-51097885D01*
X72687349Y-51093971D01*
X72685526Y-51090275D01*
X72685523Y-51090267D01*
X72552201Y-50819919D01*
X72550375Y-50816216D01*
X72378319Y-50558715D01*
X72375605Y-50555621D01*
X72375601Y-50555615D01*
X72214203Y-50371577D01*
X72184326Y-50307173D01*
X72194012Y-50236840D01*
X72240185Y-50182908D01*
X72308935Y-50162499D01*
X79791065Y-50162499D01*
X79859186Y-50182501D01*
X79905679Y-50236157D01*
X79915783Y-50306431D01*
X79885797Y-50371577D01*
X79724399Y-50555615D01*
X79724395Y-50555621D01*
X79721681Y-50558715D01*
X79549625Y-50816216D01*
X79547799Y-50819919D01*
X79414477Y-51090267D01*
X79414474Y-51090275D01*
X79412651Y-51093971D01*
X79411322Y-51097885D01*
X79411322Y-51097886D01*
X79384355Y-51177330D01*
X79313104Y-51387228D01*
X79312301Y-51391267D01*
X79312299Y-51391273D01*
X79259240Y-51658020D01*
X79252686Y-51690970D01*
X79252417Y-51695081D01*
X79252416Y-51695085D01*
X79236595Y-51936475D01*
X79232431Y-52000000D01*
X79232701Y-52004119D01*
X79249723Y-52263818D01*
X79252686Y-52309030D01*
X79253490Y-52313070D01*
X79253490Y-52313073D01*
X79308545Y-52589851D01*
X79313104Y-52612772D01*
X79314429Y-52616676D01*
X79314430Y-52616679D01*
X79343548Y-52702458D01*
X79412651Y-52906029D01*
X79414474Y-52909725D01*
X79414477Y-52909733D01*
X79507221Y-53097797D01*
X79549625Y-53183784D01*
X79721681Y-53441285D01*
X79724395Y-53444379D01*
X79724399Y-53444385D01*
X79864379Y-53604000D01*
X79925876Y-53674124D01*
X79928965Y-53676833D01*
X80155615Y-53875601D01*
X80155621Y-53875605D01*
X80158715Y-53878319D01*
X80162141Y-53880608D01*
X80162146Y-53880612D01*
X80326990Y-53990757D01*
X80416215Y-54050375D01*
X80419914Y-54052199D01*
X80419919Y-54052202D01*
X80562607Y-54122567D01*
X80693971Y-54187349D01*
X80697876Y-54188674D01*
X80697877Y-54188675D01*
X80983321Y-54285570D01*
X80983324Y-54285571D01*
X80987228Y-54286896D01*
X80991267Y-54287699D01*
X80991273Y-54287701D01*
X81286927Y-54346510D01*
X81286930Y-54346510D01*
X81290970Y-54347314D01*
X81295081Y-54347583D01*
X81295085Y-54347584D01*
X81595881Y-54367299D01*
X81600000Y-54367569D01*
X81604119Y-54367299D01*
X81904915Y-54347584D01*
X81904919Y-54347583D01*
X81909030Y-54347314D01*
X81913070Y-54346510D01*
X81913073Y-54346510D01*
X82208727Y-54287701D01*
X82208733Y-54287699D01*
X82212772Y-54286896D01*
X82216676Y-54285571D01*
X82216679Y-54285570D01*
X82502123Y-54188675D01*
X82502124Y-54188674D01*
X82506029Y-54187349D01*
X82637393Y-54122567D01*
X82780081Y-54052202D01*
X82780086Y-54052199D01*
X82783785Y-54050375D01*
X82873010Y-53990757D01*
X83037854Y-53880612D01*
X83037859Y-53880608D01*
X83041285Y-53878319D01*
X83044379Y-53875605D01*
X83044385Y-53875601D01*
X83271035Y-53676833D01*
X83274124Y-53674124D01*
X83335621Y-53604000D01*
X83475601Y-53444385D01*
X83475605Y-53444379D01*
X83478319Y-53441285D01*
X83650375Y-53183784D01*
X83692779Y-53097797D01*
X83785523Y-52909733D01*
X83785526Y-52909725D01*
X83787349Y-52906029D01*
X83856452Y-52702458D01*
X83885570Y-52616679D01*
X83885571Y-52616676D01*
X83886896Y-52612772D01*
X83891456Y-52589851D01*
X83946510Y-52313073D01*
X83946510Y-52313070D01*
X83947314Y-52309030D01*
X83950278Y-52263818D01*
X83967299Y-52004119D01*
X83967569Y-52000000D01*
X83963405Y-51936475D01*
X83947584Y-51695085D01*
X83947583Y-51695081D01*
X83947314Y-51690970D01*
X83940760Y-51658020D01*
X83887701Y-51391273D01*
X83887699Y-51391267D01*
X83886896Y-51387228D01*
X83815646Y-51177330D01*
X83788678Y-51097886D01*
X83788678Y-51097885D01*
X83787349Y-51093971D01*
X83785526Y-51090275D01*
X83785523Y-51090267D01*
X83652201Y-50819919D01*
X83650375Y-50816216D01*
X83478319Y-50558715D01*
X83475605Y-50555621D01*
X83475601Y-50555615D01*
X83314203Y-50371577D01*
X83284326Y-50307173D01*
X83294012Y-50236840D01*
X83340185Y-50182908D01*
X83408935Y-50162499D01*
X86491065Y-50162499D01*
X86559186Y-50182501D01*
X86605679Y-50236157D01*
X86615783Y-50306431D01*
X86585797Y-50371577D01*
X86424399Y-50555615D01*
X86424395Y-50555621D01*
X86421681Y-50558715D01*
X86249625Y-50816216D01*
X86247799Y-50819919D01*
X86114477Y-51090267D01*
X86114474Y-51090275D01*
X86112651Y-51093971D01*
X86111322Y-51097885D01*
X86111322Y-51097886D01*
X86084355Y-51177330D01*
X86013104Y-51387228D01*
X86012301Y-51391267D01*
X86012299Y-51391273D01*
X85959240Y-51658020D01*
X85952686Y-51690970D01*
X85952417Y-51695081D01*
X85952416Y-51695085D01*
X85936595Y-51936475D01*
X85932431Y-52000000D01*
X85932701Y-52004119D01*
X85949723Y-52263818D01*
X85952686Y-52309030D01*
X85953490Y-52313070D01*
X85953490Y-52313073D01*
X86008545Y-52589851D01*
X86013104Y-52612772D01*
X86014429Y-52616676D01*
X86014430Y-52616679D01*
X86043548Y-52702458D01*
X86112651Y-52906029D01*
X86114474Y-52909725D01*
X86114477Y-52909733D01*
X86207221Y-53097797D01*
X86249625Y-53183784D01*
X86421681Y-53441285D01*
X86424395Y-53444379D01*
X86424399Y-53444385D01*
X86564379Y-53604000D01*
X86625876Y-53674124D01*
X86628965Y-53676833D01*
X86855615Y-53875601D01*
X86855621Y-53875605D01*
X86858715Y-53878319D01*
X86862141Y-53880608D01*
X86862146Y-53880612D01*
X87026990Y-53990757D01*
X87116215Y-54050375D01*
X87119914Y-54052199D01*
X87119919Y-54052202D01*
X87262607Y-54122567D01*
X87393971Y-54187349D01*
X87397876Y-54188674D01*
X87397877Y-54188675D01*
X87683321Y-54285570D01*
X87683324Y-54285571D01*
X87687228Y-54286896D01*
X87691267Y-54287699D01*
X87691273Y-54287701D01*
X87986927Y-54346510D01*
X87986930Y-54346510D01*
X87990970Y-54347314D01*
X87995081Y-54347583D01*
X87995085Y-54347584D01*
X88295881Y-54367299D01*
X88300000Y-54367569D01*
X88304119Y-54367299D01*
X88604915Y-54347584D01*
X88604919Y-54347583D01*
X88609030Y-54347314D01*
X88613070Y-54346510D01*
X88613073Y-54346510D01*
X88908727Y-54287701D01*
X88908733Y-54287699D01*
X88912772Y-54286896D01*
X88916676Y-54285571D01*
X88916679Y-54285570D01*
X89202123Y-54188675D01*
X89202124Y-54188674D01*
X89206029Y-54187349D01*
X89337393Y-54122567D01*
X89480081Y-54052202D01*
X89480086Y-54052199D01*
X89483785Y-54050375D01*
X89573010Y-53990757D01*
X89737854Y-53880612D01*
X89737859Y-53880608D01*
X89741285Y-53878319D01*
X89744379Y-53875605D01*
X89744385Y-53875601D01*
X89971035Y-53676833D01*
X89974124Y-53674124D01*
X90035621Y-53604000D01*
X90175601Y-53444385D01*
X90175605Y-53444379D01*
X90178319Y-53441285D01*
X90350375Y-53183784D01*
X90392779Y-53097797D01*
X90485523Y-52909733D01*
X90485526Y-52909725D01*
X90487349Y-52906029D01*
X90556452Y-52702458D01*
X90585570Y-52616679D01*
X90585571Y-52616676D01*
X90586896Y-52612772D01*
X90591456Y-52589851D01*
X90646510Y-52313073D01*
X90646510Y-52313070D01*
X90647314Y-52309030D01*
X90650278Y-52263818D01*
X90667299Y-52004119D01*
X90667569Y-52000000D01*
X90663405Y-51936475D01*
X90647584Y-51695085D01*
X90647583Y-51695081D01*
X90647314Y-51690970D01*
X90640760Y-51658020D01*
X90587701Y-51391273D01*
X90587699Y-51391267D01*
X90586896Y-51387228D01*
X90515646Y-51177330D01*
X90488678Y-51097886D01*
X90488678Y-51097885D01*
X90487349Y-51093971D01*
X90485526Y-51090275D01*
X90485523Y-51090267D01*
X90352201Y-50819919D01*
X90350375Y-50816216D01*
X90178319Y-50558715D01*
X90175605Y-50555621D01*
X90175601Y-50555615D01*
X90014203Y-50371577D01*
X89984326Y-50307173D01*
X89994012Y-50236840D01*
X90040185Y-50182908D01*
X90108935Y-50162499D01*
X97591065Y-50162499D01*
X97659186Y-50182501D01*
X97705679Y-50236157D01*
X97715783Y-50306431D01*
X97685797Y-50371577D01*
X97524399Y-50555615D01*
X97524395Y-50555621D01*
X97521681Y-50558715D01*
X97349625Y-50816216D01*
X97347799Y-50819919D01*
X97214477Y-51090267D01*
X97214474Y-51090275D01*
X97212651Y-51093971D01*
X97211322Y-51097885D01*
X97211322Y-51097886D01*
X97184355Y-51177330D01*
X97113104Y-51387228D01*
X97112301Y-51391267D01*
X97112299Y-51391273D01*
X97059240Y-51658020D01*
X97052686Y-51690970D01*
X97052417Y-51695081D01*
X97052416Y-51695085D01*
X97036595Y-51936475D01*
X97032431Y-52000000D01*
X97032701Y-52004119D01*
X97049723Y-52263818D01*
X97052686Y-52309030D01*
X97053490Y-52313070D01*
X97053490Y-52313073D01*
X97108545Y-52589851D01*
X97113104Y-52612772D01*
X97114429Y-52616676D01*
X97114430Y-52616679D01*
X97143548Y-52702458D01*
X97212651Y-52906029D01*
X97214474Y-52909725D01*
X97214477Y-52909733D01*
X97307221Y-53097797D01*
X97349625Y-53183784D01*
X97521681Y-53441285D01*
X97524395Y-53444379D01*
X97524399Y-53444385D01*
X97664379Y-53604000D01*
X97725876Y-53674124D01*
X97728965Y-53676833D01*
X97955615Y-53875601D01*
X97955621Y-53875605D01*
X97958715Y-53878319D01*
X97962141Y-53880608D01*
X97962146Y-53880612D01*
X98126990Y-53990757D01*
X98216215Y-54050375D01*
X98219914Y-54052199D01*
X98219919Y-54052202D01*
X98362607Y-54122567D01*
X98493971Y-54187349D01*
X98497876Y-54188674D01*
X98497877Y-54188675D01*
X98783321Y-54285570D01*
X98783324Y-54285571D01*
X98787228Y-54286896D01*
X98791267Y-54287699D01*
X98791273Y-54287701D01*
X99086927Y-54346510D01*
X99086930Y-54346510D01*
X99090970Y-54347314D01*
X99095081Y-54347583D01*
X99095085Y-54347584D01*
X99395881Y-54367299D01*
X99400000Y-54367569D01*
X99404119Y-54367299D01*
X99704915Y-54347584D01*
X99704919Y-54347583D01*
X99709030Y-54347314D01*
X99713070Y-54346510D01*
X99713073Y-54346510D01*
X100008727Y-54287701D01*
X100008733Y-54287699D01*
X100012772Y-54286896D01*
X100016676Y-54285571D01*
X100016679Y-54285570D01*
X100302123Y-54188675D01*
X100302124Y-54188674D01*
X100306029Y-54187349D01*
X100437393Y-54122567D01*
X100580081Y-54052202D01*
X100580086Y-54052199D01*
X100583785Y-54050375D01*
X100673010Y-53990757D01*
X100837854Y-53880612D01*
X100837859Y-53880608D01*
X100841285Y-53878319D01*
X100844379Y-53875605D01*
X100844385Y-53875601D01*
X101071035Y-53676833D01*
X101074124Y-53674124D01*
X101135621Y-53604000D01*
X101275601Y-53444385D01*
X101275605Y-53444379D01*
X101278319Y-53441285D01*
X101450375Y-53183784D01*
X101492779Y-53097797D01*
X101585523Y-52909733D01*
X101585526Y-52909725D01*
X101587349Y-52906029D01*
X101656452Y-52702458D01*
X101685570Y-52616679D01*
X101685571Y-52616676D01*
X101686896Y-52612772D01*
X101691456Y-52589851D01*
X101746510Y-52313073D01*
X101746510Y-52313070D01*
X101747314Y-52309030D01*
X101750278Y-52263818D01*
X101767299Y-52004119D01*
X101767569Y-52000000D01*
X101763405Y-51936475D01*
X101747584Y-51695085D01*
X101747583Y-51695081D01*
X101747314Y-51690970D01*
X101740760Y-51658020D01*
X101687701Y-51391273D01*
X101687699Y-51391267D01*
X101686896Y-51387228D01*
X101615646Y-51177330D01*
X101588678Y-51097886D01*
X101588678Y-51097885D01*
X101587349Y-51093971D01*
X101585526Y-51090275D01*
X101585523Y-51090267D01*
X101452201Y-50819919D01*
X101450375Y-50816216D01*
X101278319Y-50558715D01*
X101275605Y-50555621D01*
X101275601Y-50555615D01*
X101174443Y-50440268D01*
X101081410Y-50334184D01*
X101051534Y-50269782D01*
X101061220Y-50199449D01*
X101107392Y-50145517D01*
X101138778Y-50130776D01*
X101188698Y-50115275D01*
X101191862Y-50114338D01*
X101272821Y-50091505D01*
X101272820Y-50091505D01*
X101278388Y-50089935D01*
X101283570Y-50087380D01*
X101285651Y-50086581D01*
X101299284Y-50081142D01*
X101301262Y-50080323D01*
X101306777Y-50078610D01*
X101386414Y-50036710D01*
X101389345Y-50035217D01*
X101470008Y-49995439D01*
X101474633Y-49991985D01*
X101476486Y-49990850D01*
X101488879Y-49983031D01*
X101490745Y-49981819D01*
X101495856Y-49979130D01*
X101566507Y-49923434D01*
X101569109Y-49921437D01*
X101577394Y-49915251D01*
X101641198Y-49867606D01*
X101697984Y-49806175D01*
X101701413Y-49802610D01*
X102966220Y-48537803D01*
X103028532Y-48503777D01*
X103099347Y-48508842D01*
X103156183Y-48551389D01*
X103180994Y-48617909D01*
X103171512Y-48675624D01*
X103149860Y-48727259D01*
X103123893Y-48789182D01*
X103122742Y-48793714D01*
X103122741Y-48793717D01*
X103070009Y-49001351D01*
X103059409Y-49043087D01*
X103037500Y-49260672D01*
X103037500Y-51616502D01*
X103037673Y-51618827D01*
X103037673Y-51618833D01*
X103047714Y-51753944D01*
X103051972Y-51811245D01*
X103109787Y-52066750D01*
X103111479Y-52071102D01*
X103111480Y-52071104D01*
X103201520Y-52302640D01*
X103204733Y-52310903D01*
X103207050Y-52314957D01*
X103207051Y-52314959D01*
X103332233Y-52533982D01*
X103334724Y-52538341D01*
X103496905Y-52744067D01*
X103687713Y-52923560D01*
X103691558Y-52926227D01*
X103691560Y-52926229D01*
X103843353Y-53031532D01*
X103902955Y-53072880D01*
X103907145Y-53074946D01*
X103907148Y-53074948D01*
X104133717Y-53186679D01*
X104133720Y-53186680D01*
X104137905Y-53188744D01*
X104142348Y-53190166D01*
X104142350Y-53190167D01*
X104189723Y-53205331D01*
X104387399Y-53268607D01*
X104392006Y-53269357D01*
X104392009Y-53269358D01*
X104594999Y-53302417D01*
X104645957Y-53310716D01*
X104773142Y-53312381D01*
X104903223Y-53314084D01*
X104903226Y-53314084D01*
X104907900Y-53314145D01*
X105167472Y-53278819D01*
X105199932Y-53269358D01*
X105239080Y-53257947D01*
X105418971Y-53205514D01*
X105434850Y-53198194D01*
X105474140Y-53180081D01*
X105656873Y-53095840D01*
X105754959Y-53031532D01*
X105872038Y-52954772D01*
X105872043Y-52954768D01*
X105875951Y-52952206D01*
X106071391Y-52777768D01*
X106238902Y-52576359D01*
X106304282Y-52468617D01*
X106356720Y-52420756D01*
X106426710Y-52408844D01*
X106492030Y-52436662D01*
X106531941Y-52495378D01*
X106538000Y-52533982D01*
X106538000Y-53077885D01*
X106542475Y-53093124D01*
X106543865Y-53094329D01*
X106551548Y-53096000D01*
X109327885Y-53096000D01*
X109343124Y-53091525D01*
X109344329Y-53090135D01*
X109346000Y-53082452D01*
X109346000Y-53077885D01*
X109854000Y-53077885D01*
X109858475Y-53093124D01*
X109859865Y-53094329D01*
X109867548Y-53096000D01*
X112643885Y-53096000D01*
X112659124Y-53091525D01*
X112660329Y-53090135D01*
X112662000Y-53082452D01*
X112662000Y-52302640D01*
X112661663Y-52296124D01*
X112651686Y-52199971D01*
X112648793Y-52186574D01*
X112597059Y-52031508D01*
X112590885Y-52018330D01*
X112579542Y-52000000D01*
X116232431Y-52000000D01*
X116232701Y-52004119D01*
X116249723Y-52263818D01*
X116252686Y-52309030D01*
X116253490Y-52313070D01*
X116253490Y-52313073D01*
X116308545Y-52589851D01*
X116313104Y-52612772D01*
X116314429Y-52616676D01*
X116314430Y-52616679D01*
X116343548Y-52702458D01*
X116412651Y-52906029D01*
X116414474Y-52909725D01*
X116414477Y-52909733D01*
X116507221Y-53097797D01*
X116549625Y-53183784D01*
X116721681Y-53441285D01*
X116724395Y-53444379D01*
X116724399Y-53444385D01*
X116864379Y-53604000D01*
X116925876Y-53674124D01*
X116928965Y-53676833D01*
X117155615Y-53875601D01*
X117155621Y-53875605D01*
X117158715Y-53878319D01*
X117162141Y-53880608D01*
X117162146Y-53880612D01*
X117326990Y-53990757D01*
X117416215Y-54050375D01*
X117419914Y-54052199D01*
X117419919Y-54052202D01*
X117562607Y-54122567D01*
X117693971Y-54187349D01*
X117697876Y-54188674D01*
X117697877Y-54188675D01*
X117983321Y-54285570D01*
X117983324Y-54285571D01*
X117987228Y-54286896D01*
X117991267Y-54287699D01*
X117991273Y-54287701D01*
X118286927Y-54346510D01*
X118286930Y-54346510D01*
X118290970Y-54347314D01*
X118295081Y-54347583D01*
X118295085Y-54347584D01*
X118595881Y-54367299D01*
X118600000Y-54367569D01*
X118604119Y-54367299D01*
X118904915Y-54347584D01*
X118904919Y-54347583D01*
X118909030Y-54347314D01*
X118913070Y-54346510D01*
X118913073Y-54346510D01*
X119208727Y-54287701D01*
X119208733Y-54287699D01*
X119212772Y-54286896D01*
X119216676Y-54285571D01*
X119216679Y-54285570D01*
X119502123Y-54188675D01*
X119502124Y-54188674D01*
X119506029Y-54187349D01*
X119637393Y-54122567D01*
X119780081Y-54052202D01*
X119780086Y-54052199D01*
X119783785Y-54050375D01*
X119873010Y-53990757D01*
X120037854Y-53880612D01*
X120037859Y-53880608D01*
X120041285Y-53878319D01*
X120044379Y-53875605D01*
X120044385Y-53875601D01*
X120271035Y-53676833D01*
X120274124Y-53674124D01*
X120335621Y-53604000D01*
X120475601Y-53444385D01*
X120475605Y-53444379D01*
X120478319Y-53441285D01*
X120650375Y-53183784D01*
X120692779Y-53097797D01*
X120785523Y-52909733D01*
X120785526Y-52909725D01*
X120787349Y-52906029D01*
X120856452Y-52702458D01*
X120885570Y-52616679D01*
X120885571Y-52616676D01*
X120886896Y-52612772D01*
X120891456Y-52589851D01*
X120946510Y-52313073D01*
X120946510Y-52313070D01*
X120947314Y-52309030D01*
X120950278Y-52263818D01*
X120967299Y-52004119D01*
X120967569Y-52000000D01*
X127332431Y-52000000D01*
X127332701Y-52004119D01*
X127349723Y-52263818D01*
X127352686Y-52309030D01*
X127353490Y-52313070D01*
X127353490Y-52313073D01*
X127408545Y-52589851D01*
X127413104Y-52612772D01*
X127414429Y-52616676D01*
X127414430Y-52616679D01*
X127443548Y-52702458D01*
X127512651Y-52906029D01*
X127514474Y-52909725D01*
X127514477Y-52909733D01*
X127607221Y-53097797D01*
X127649625Y-53183784D01*
X127821681Y-53441285D01*
X127824395Y-53444379D01*
X127824399Y-53444385D01*
X127964379Y-53604000D01*
X128025876Y-53674124D01*
X128028965Y-53676833D01*
X128255615Y-53875601D01*
X128255621Y-53875605D01*
X128258715Y-53878319D01*
X128262141Y-53880608D01*
X128262146Y-53880612D01*
X128426990Y-53990757D01*
X128516215Y-54050375D01*
X128519914Y-54052199D01*
X128519919Y-54052202D01*
X128662607Y-54122567D01*
X128793971Y-54187349D01*
X128797876Y-54188674D01*
X128797877Y-54188675D01*
X129083321Y-54285570D01*
X129083324Y-54285571D01*
X129087228Y-54286896D01*
X129091267Y-54287699D01*
X129091273Y-54287701D01*
X129386927Y-54346510D01*
X129386930Y-54346510D01*
X129390970Y-54347314D01*
X129395081Y-54347583D01*
X129395085Y-54347584D01*
X129695881Y-54367299D01*
X129700000Y-54367569D01*
X129704119Y-54367299D01*
X130004915Y-54347584D01*
X130004919Y-54347583D01*
X130009030Y-54347314D01*
X130013070Y-54346510D01*
X130013073Y-54346510D01*
X130308727Y-54287701D01*
X130308733Y-54287699D01*
X130312772Y-54286896D01*
X130316676Y-54285571D01*
X130316679Y-54285570D01*
X130602123Y-54188675D01*
X130602124Y-54188674D01*
X130606029Y-54187349D01*
X130737393Y-54122567D01*
X130880081Y-54052202D01*
X130880086Y-54052199D01*
X130883785Y-54050375D01*
X130973010Y-53990757D01*
X131137854Y-53880612D01*
X131137859Y-53880608D01*
X131141285Y-53878319D01*
X131144379Y-53875605D01*
X131144385Y-53875601D01*
X131371035Y-53676833D01*
X131374124Y-53674124D01*
X131435621Y-53604000D01*
X131575601Y-53444385D01*
X131575605Y-53444379D01*
X131578319Y-53441285D01*
X131750375Y-53183784D01*
X131792779Y-53097797D01*
X131885523Y-52909733D01*
X131885526Y-52909725D01*
X131887349Y-52906029D01*
X131956452Y-52702458D01*
X131985570Y-52616679D01*
X131985571Y-52616676D01*
X131986896Y-52612772D01*
X131991456Y-52589851D01*
X132046510Y-52313073D01*
X132046510Y-52313070D01*
X132047314Y-52309030D01*
X132050278Y-52263818D01*
X132067299Y-52004119D01*
X132067569Y-52000000D01*
X132063405Y-51936475D01*
X132047584Y-51695085D01*
X132047583Y-51695081D01*
X132047314Y-51690970D01*
X132040760Y-51658020D01*
X131987701Y-51391273D01*
X131987699Y-51391267D01*
X131986896Y-51387228D01*
X131915646Y-51177330D01*
X131888678Y-51097886D01*
X131888678Y-51097885D01*
X131887349Y-51093971D01*
X131885526Y-51090275D01*
X131885523Y-51090267D01*
X131752201Y-50819919D01*
X131750375Y-50816216D01*
X131578319Y-50558715D01*
X131575605Y-50555621D01*
X131575601Y-50555615D01*
X131566036Y-50544708D01*
X148693372Y-50544708D01*
X148693953Y-50549728D01*
X148693953Y-50549732D01*
X148710347Y-50691421D01*
X148722271Y-50794478D01*
X148790733Y-51036416D01*
X148896995Y-51264295D01*
X148899836Y-51268475D01*
X148899838Y-51268479D01*
X148903791Y-51274295D01*
X149038323Y-51472253D01*
X149041798Y-51475928D01*
X149041799Y-51475929D01*
X149174732Y-51616502D01*
X149211082Y-51654941D01*
X149215108Y-51658019D01*
X149215109Y-51658020D01*
X149406807Y-51804585D01*
X149406811Y-51804588D01*
X149410827Y-51807658D01*
X149415285Y-51810048D01*
X149415286Y-51810049D01*
X149466482Y-51837500D01*
X149632420Y-51926475D01*
X149637209Y-51928124D01*
X149661462Y-51936475D01*
X149870158Y-52008334D01*
X149999228Y-52030628D01*
X150114016Y-52050456D01*
X150114022Y-52050457D01*
X150117926Y-52051131D01*
X150121887Y-52051311D01*
X150121888Y-52051311D01*
X150146653Y-52052436D01*
X150146672Y-52052436D01*
X150148072Y-52052500D01*
X150323176Y-52052500D01*
X150325684Y-52052298D01*
X150325689Y-52052298D01*
X150505585Y-52037824D01*
X150505589Y-52037823D01*
X150510627Y-52037418D01*
X150515535Y-52036212D01*
X150515538Y-52036212D01*
X150749892Y-51978649D01*
X150754806Y-51977442D01*
X150759458Y-51975467D01*
X150759462Y-51975466D01*
X150962696Y-51889198D01*
X150986255Y-51879198D01*
X151086931Y-51815799D01*
X151194740Y-51747908D01*
X151194743Y-51747906D01*
X151199019Y-51745213D01*
X151376282Y-51588935D01*
X151383832Y-51582279D01*
X151387625Y-51578935D01*
X151547220Y-51384641D01*
X151673697Y-51167330D01*
X151721980Y-51041549D01*
X151761991Y-50937318D01*
X151761992Y-50937314D01*
X151763804Y-50932594D01*
X151788117Y-50816216D01*
X151814188Y-50691421D01*
X151814188Y-50691417D01*
X151815222Y-50686470D01*
X151826628Y-50435292D01*
X151811719Y-50306431D01*
X151798311Y-50190552D01*
X151797729Y-50185522D01*
X151729267Y-49943584D01*
X151623005Y-49715705D01*
X151580178Y-49652686D01*
X151484524Y-49511936D01*
X151484523Y-49511935D01*
X151481677Y-49507747D01*
X151308918Y-49325059D01*
X151304891Y-49321980D01*
X151113193Y-49175415D01*
X151113189Y-49175412D01*
X151109173Y-49172342D01*
X150887580Y-49053525D01*
X150649842Y-48971666D01*
X150481464Y-48942582D01*
X150405984Y-48929544D01*
X150405978Y-48929543D01*
X150402074Y-48928869D01*
X150398113Y-48928689D01*
X150398112Y-48928689D01*
X150373347Y-48927564D01*
X150373328Y-48927564D01*
X150371928Y-48927500D01*
X150196824Y-48927500D01*
X150194316Y-48927702D01*
X150194311Y-48927702D01*
X150014415Y-48942176D01*
X150014411Y-48942177D01*
X150009373Y-48942582D01*
X150004465Y-48943788D01*
X150004462Y-48943788D01*
X149884254Y-48973314D01*
X149765194Y-49002558D01*
X149760542Y-49004533D01*
X149760538Y-49004534D01*
X149680402Y-49038550D01*
X149533745Y-49100802D01*
X149529461Y-49103500D01*
X149325260Y-49232092D01*
X149325257Y-49232094D01*
X149320981Y-49234787D01*
X149132375Y-49401065D01*
X148972780Y-49595359D01*
X148846303Y-49812670D01*
X148820348Y-49880285D01*
X148760595Y-50035947D01*
X148756196Y-50047406D01*
X148755162Y-50052356D01*
X148755161Y-50052359D01*
X148713477Y-50251892D01*
X148704778Y-50293530D01*
X148693372Y-50544708D01*
X131566036Y-50544708D01*
X131376833Y-50328965D01*
X131374124Y-50325876D01*
X131348643Y-50303530D01*
X131144385Y-50124399D01*
X131144379Y-50124395D01*
X131141285Y-50121681D01*
X131137855Y-50119389D01*
X131137854Y-50119388D01*
X130922589Y-49975553D01*
X130883785Y-49949625D01*
X130880086Y-49947801D01*
X130880081Y-49947798D01*
X130708877Y-49863370D01*
X130606029Y-49812651D01*
X130593194Y-49808294D01*
X130316679Y-49714430D01*
X130316676Y-49714429D01*
X130312772Y-49713104D01*
X130308733Y-49712301D01*
X130308727Y-49712299D01*
X130013073Y-49653490D01*
X130013070Y-49653490D01*
X130009030Y-49652686D01*
X130004919Y-49652417D01*
X130004915Y-49652416D01*
X129704119Y-49632701D01*
X129700000Y-49632431D01*
X129695881Y-49632701D01*
X129395085Y-49652416D01*
X129395081Y-49652417D01*
X129390970Y-49652686D01*
X129386930Y-49653490D01*
X129386927Y-49653490D01*
X129091273Y-49712299D01*
X129091267Y-49712301D01*
X129087228Y-49713104D01*
X129083324Y-49714429D01*
X129083321Y-49714430D01*
X128813046Y-49806176D01*
X128793971Y-49812651D01*
X128790275Y-49814474D01*
X128790267Y-49814477D01*
X128596273Y-49910145D01*
X128516216Y-49949625D01*
X128512783Y-49951919D01*
X128512781Y-49951920D01*
X128451736Y-49992709D01*
X128258715Y-50121681D01*
X128255621Y-50124395D01*
X128255615Y-50124399D01*
X128051357Y-50303530D01*
X128025876Y-50325876D01*
X128023167Y-50328965D01*
X127824399Y-50555615D01*
X127824395Y-50555621D01*
X127821681Y-50558715D01*
X127649625Y-50816216D01*
X127647799Y-50819919D01*
X127514477Y-51090267D01*
X127514474Y-51090275D01*
X127512651Y-51093971D01*
X127511322Y-51097885D01*
X127511322Y-51097886D01*
X127484355Y-51177330D01*
X127413104Y-51387228D01*
X127412301Y-51391267D01*
X127412299Y-51391273D01*
X127359240Y-51658020D01*
X127352686Y-51690970D01*
X127352417Y-51695081D01*
X127352416Y-51695085D01*
X127336595Y-51936475D01*
X127332431Y-52000000D01*
X120967569Y-52000000D01*
X120963405Y-51936475D01*
X120947584Y-51695085D01*
X120947583Y-51695081D01*
X120947314Y-51690970D01*
X120940760Y-51658020D01*
X120887701Y-51391273D01*
X120887699Y-51391267D01*
X120886896Y-51387228D01*
X120815646Y-51177330D01*
X120788678Y-51097886D01*
X120788678Y-51097885D01*
X120787349Y-51093971D01*
X120785526Y-51090275D01*
X120785523Y-51090267D01*
X120652201Y-50819919D01*
X120650375Y-50816216D01*
X120478319Y-50558715D01*
X120475605Y-50555621D01*
X120475601Y-50555615D01*
X120276833Y-50328965D01*
X120274124Y-50325876D01*
X120248643Y-50303530D01*
X120044385Y-50124399D01*
X120044379Y-50124395D01*
X120041285Y-50121681D01*
X120037855Y-50119389D01*
X120037854Y-50119388D01*
X119822589Y-49975553D01*
X119783785Y-49949625D01*
X119780086Y-49947801D01*
X119780081Y-49947798D01*
X119608877Y-49863370D01*
X119506029Y-49812651D01*
X119493194Y-49808294D01*
X119216679Y-49714430D01*
X119216676Y-49714429D01*
X119212772Y-49713104D01*
X119208733Y-49712301D01*
X119208727Y-49712299D01*
X118913073Y-49653490D01*
X118913070Y-49653490D01*
X118909030Y-49652686D01*
X118904919Y-49652417D01*
X118904915Y-49652416D01*
X118604119Y-49632701D01*
X118600000Y-49632431D01*
X118595881Y-49632701D01*
X118295085Y-49652416D01*
X118295081Y-49652417D01*
X118290970Y-49652686D01*
X118286930Y-49653490D01*
X118286927Y-49653490D01*
X117991273Y-49712299D01*
X117991267Y-49712301D01*
X117987228Y-49713104D01*
X117983324Y-49714429D01*
X117983321Y-49714430D01*
X117713046Y-49806176D01*
X117693971Y-49812651D01*
X117690275Y-49814474D01*
X117690267Y-49814477D01*
X117496273Y-49910145D01*
X117416216Y-49949625D01*
X117412783Y-49951919D01*
X117412781Y-49951920D01*
X117351736Y-49992709D01*
X117158715Y-50121681D01*
X117155621Y-50124395D01*
X117155615Y-50124399D01*
X116951357Y-50303530D01*
X116925876Y-50325876D01*
X116923167Y-50328965D01*
X116724399Y-50555615D01*
X116724395Y-50555621D01*
X116721681Y-50558715D01*
X116549625Y-50816216D01*
X116547799Y-50819919D01*
X116414477Y-51090267D01*
X116414474Y-51090275D01*
X116412651Y-51093971D01*
X116411322Y-51097885D01*
X116411322Y-51097886D01*
X116384355Y-51177330D01*
X116313104Y-51387228D01*
X116312301Y-51391267D01*
X116312299Y-51391273D01*
X116259240Y-51658020D01*
X116252686Y-51690970D01*
X116252417Y-51695081D01*
X116252416Y-51695085D01*
X116236595Y-51936475D01*
X116232431Y-52000000D01*
X112579542Y-52000000D01*
X112505092Y-51879689D01*
X112496056Y-51868289D01*
X112380667Y-51753102D01*
X112369256Y-51744090D01*
X112230457Y-51658532D01*
X112217279Y-51652388D01*
X112062103Y-51600918D01*
X112048737Y-51598052D01*
X111953824Y-51588328D01*
X111947409Y-51588000D01*
X109872115Y-51588000D01*
X109856876Y-51592475D01*
X109855671Y-51593865D01*
X109854000Y-51601548D01*
X109854000Y-53077885D01*
X109346000Y-53077885D01*
X109346000Y-51606115D01*
X109341525Y-51590876D01*
X109340135Y-51589671D01*
X109332452Y-51588000D01*
X107252640Y-51588000D01*
X107246124Y-51588337D01*
X107149971Y-51598314D01*
X107136574Y-51601207D01*
X106981508Y-51652941D01*
X106968330Y-51659115D01*
X106829689Y-51744908D01*
X106818289Y-51753944D01*
X106770958Y-51801358D01*
X106708676Y-51835438D01*
X106637856Y-51830435D01*
X106580983Y-51787938D01*
X106556114Y-51721440D01*
X106556419Y-51699717D01*
X106556886Y-51695085D01*
X106562500Y-51639328D01*
X106562500Y-49283498D01*
X106560804Y-49260672D01*
X106548374Y-49093407D01*
X106548373Y-49093403D01*
X106548028Y-49088755D01*
X106490213Y-48833250D01*
X106482144Y-48812500D01*
X106396960Y-48593450D01*
X106396959Y-48593448D01*
X106395267Y-48589097D01*
X106373715Y-48551389D01*
X106267595Y-48365716D01*
X106267593Y-48365714D01*
X106265276Y-48361659D01*
X106103095Y-48155933D01*
X106060937Y-48116275D01*
X106025025Y-48055031D01*
X106027925Y-47984094D01*
X106068716Y-47925985D01*
X106134447Y-47899154D01*
X106147270Y-47898500D01*
X106880614Y-47898500D01*
X106948735Y-47918502D01*
X106985985Y-47955414D01*
X107005439Y-47985086D01*
X107095228Y-48122038D01*
X107095232Y-48122043D01*
X107097794Y-48125951D01*
X107272232Y-48321391D01*
X107473641Y-48488902D01*
X107697598Y-48624802D01*
X107701912Y-48626611D01*
X107701914Y-48626612D01*
X107934867Y-48724298D01*
X107934872Y-48724300D01*
X107939182Y-48726107D01*
X107943714Y-48727258D01*
X107943717Y-48727259D01*
X108188550Y-48789439D01*
X108188553Y-48789440D01*
X108193087Y-48790591D01*
X108197743Y-48791060D01*
X108197744Y-48791060D01*
X108407533Y-48812184D01*
X108407534Y-48812184D01*
X108410672Y-48812500D01*
X110766502Y-48812500D01*
X110768827Y-48812327D01*
X110768833Y-48812327D01*
X110956593Y-48798374D01*
X110956597Y-48798373D01*
X110961245Y-48798028D01*
X111216750Y-48740213D01*
X111221104Y-48738520D01*
X111456550Y-48646960D01*
X111456552Y-48646959D01*
X111460903Y-48645267D01*
X111493543Y-48626612D01*
X111684284Y-48517595D01*
X111684286Y-48517593D01*
X111688341Y-48515276D01*
X111894067Y-48353095D01*
X112073560Y-48162287D01*
X112080188Y-48152733D01*
X112220215Y-47950887D01*
X112220217Y-47950884D01*
X112222880Y-47947045D01*
X112237775Y-47916841D01*
X112336679Y-47716283D01*
X112336680Y-47716280D01*
X112338744Y-47712095D01*
X112393015Y-47542551D01*
X117122906Y-47542551D01*
X117129366Y-47551914D01*
X117155915Y-47575198D01*
X117162452Y-47580214D01*
X117413031Y-47747646D01*
X117420169Y-47751767D01*
X117690458Y-47885060D01*
X117698077Y-47888215D01*
X117983451Y-47985086D01*
X117991403Y-47987217D01*
X118286993Y-48046013D01*
X118295151Y-48047087D01*
X118595881Y-48066798D01*
X118604119Y-48066798D01*
X118904849Y-48047087D01*
X118913007Y-48046013D01*
X119208597Y-47987217D01*
X119216549Y-47985086D01*
X119501923Y-47888215D01*
X119509542Y-47885060D01*
X119779831Y-47751767D01*
X119786969Y-47747646D01*
X120037548Y-47580214D01*
X120044085Y-47575198D01*
X120068770Y-47553549D01*
X120075746Y-47542551D01*
X128222906Y-47542551D01*
X128229366Y-47551914D01*
X128255915Y-47575198D01*
X128262452Y-47580214D01*
X128513031Y-47747646D01*
X128520169Y-47751767D01*
X128790458Y-47885060D01*
X128798077Y-47888215D01*
X129083451Y-47985086D01*
X129091403Y-47987217D01*
X129386993Y-48046013D01*
X129395151Y-48047087D01*
X129695881Y-48066798D01*
X129704119Y-48066798D01*
X130004849Y-48047087D01*
X130013007Y-48046013D01*
X130308597Y-47987217D01*
X130316549Y-47985086D01*
X130601923Y-47888215D01*
X130609542Y-47885060D01*
X130879831Y-47751767D01*
X130886969Y-47747646D01*
X131137548Y-47580214D01*
X131144085Y-47575198D01*
X131168770Y-47553549D01*
X131177167Y-47540310D01*
X131171333Y-47530544D01*
X129712810Y-46072020D01*
X129698869Y-46064408D01*
X129697034Y-46064539D01*
X129690420Y-46068790D01*
X128230420Y-47528791D01*
X128222906Y-47542551D01*
X120075746Y-47542551D01*
X120077167Y-47540310D01*
X120071333Y-47530544D01*
X118612810Y-46072020D01*
X118598869Y-46064408D01*
X118597034Y-46064539D01*
X118590420Y-46068790D01*
X117130420Y-47528791D01*
X117122906Y-47542551D01*
X112393015Y-47542551D01*
X112418607Y-47462601D01*
X112460716Y-47204043D01*
X112463814Y-46967418D01*
X112464084Y-46946777D01*
X112464084Y-46946774D01*
X112464145Y-46942100D01*
X112428819Y-46682528D01*
X112427473Y-46677908D01*
X112405325Y-46601923D01*
X112355514Y-46431029D01*
X112245840Y-46193127D01*
X112179932Y-46092601D01*
X112104772Y-45977962D01*
X112104768Y-45977957D01*
X112102206Y-45974049D01*
X111927768Y-45778609D01*
X111838204Y-45704119D01*
X116233202Y-45704119D01*
X116252913Y-46004849D01*
X116253987Y-46013007D01*
X116312783Y-46308597D01*
X116314914Y-46316549D01*
X116411785Y-46601923D01*
X116414940Y-46609542D01*
X116548233Y-46879831D01*
X116552354Y-46886969D01*
X116719786Y-47137548D01*
X116724802Y-47144085D01*
X116746451Y-47168770D01*
X116759690Y-47177167D01*
X116769456Y-47171333D01*
X118227980Y-45712810D01*
X118234357Y-45701131D01*
X118964408Y-45701131D01*
X118964539Y-45702966D01*
X118968790Y-45709580D01*
X120428791Y-47169580D01*
X120442551Y-47177094D01*
X120451914Y-47170634D01*
X120475198Y-47144085D01*
X120480214Y-47137548D01*
X120647646Y-46886969D01*
X120651767Y-46879831D01*
X120785060Y-46609542D01*
X120788215Y-46601923D01*
X120885086Y-46316549D01*
X120887217Y-46308597D01*
X120946013Y-46013007D01*
X120947087Y-46004849D01*
X120966798Y-45704119D01*
X127333202Y-45704119D01*
X127352913Y-46004849D01*
X127353987Y-46013007D01*
X127412783Y-46308597D01*
X127414914Y-46316549D01*
X127511785Y-46601923D01*
X127514940Y-46609542D01*
X127648233Y-46879831D01*
X127652354Y-46886969D01*
X127819786Y-47137548D01*
X127824802Y-47144085D01*
X127846451Y-47168770D01*
X127859690Y-47177167D01*
X127869456Y-47171333D01*
X129327980Y-45712810D01*
X129334357Y-45701131D01*
X130064408Y-45701131D01*
X130064539Y-45702966D01*
X130068790Y-45709580D01*
X131528791Y-47169580D01*
X131542551Y-47177094D01*
X131551914Y-47170634D01*
X131575198Y-47144085D01*
X131580214Y-47137548D01*
X131747646Y-46886969D01*
X131751767Y-46879831D01*
X131885060Y-46609542D01*
X131888215Y-46601923D01*
X131985086Y-46316549D01*
X131987217Y-46308597D01*
X132046013Y-46013007D01*
X132047087Y-46004849D01*
X132066798Y-45704119D01*
X132066798Y-45695881D01*
X132047087Y-45395151D01*
X132046013Y-45386993D01*
X131987217Y-45091403D01*
X131985086Y-45083451D01*
X131888215Y-44798077D01*
X131885060Y-44790458D01*
X131751767Y-44520169D01*
X131747646Y-44513031D01*
X131580214Y-44262452D01*
X131575198Y-44255915D01*
X131553549Y-44231230D01*
X131540310Y-44222833D01*
X131530544Y-44228667D01*
X130072020Y-45687190D01*
X130064408Y-45701131D01*
X129334357Y-45701131D01*
X129335592Y-45698869D01*
X129335461Y-45697034D01*
X129331210Y-45690420D01*
X127871209Y-44230420D01*
X127857449Y-44222906D01*
X127848086Y-44229366D01*
X127824802Y-44255915D01*
X127819786Y-44262452D01*
X127652354Y-44513031D01*
X127648233Y-44520169D01*
X127514940Y-44790458D01*
X127511785Y-44798077D01*
X127414914Y-45083451D01*
X127412783Y-45091403D01*
X127353987Y-45386993D01*
X127352913Y-45395151D01*
X127333202Y-45695881D01*
X127333202Y-45704119D01*
X120966798Y-45704119D01*
X120966798Y-45695881D01*
X120947087Y-45395151D01*
X120946013Y-45386993D01*
X120887217Y-45091403D01*
X120885086Y-45083451D01*
X120788215Y-44798077D01*
X120785060Y-44790458D01*
X120651767Y-44520169D01*
X120647646Y-44513031D01*
X120480214Y-44262452D01*
X120475198Y-44255915D01*
X120453549Y-44231230D01*
X120440310Y-44222833D01*
X120430544Y-44228667D01*
X118972020Y-45687190D01*
X118964408Y-45701131D01*
X118234357Y-45701131D01*
X118235592Y-45698869D01*
X118235461Y-45697034D01*
X118231210Y-45690420D01*
X116771209Y-44230420D01*
X116757449Y-44222906D01*
X116748086Y-44229366D01*
X116724802Y-44255915D01*
X116719786Y-44262452D01*
X116552354Y-44513031D01*
X116548233Y-44520169D01*
X116414940Y-44790458D01*
X116411785Y-44798077D01*
X116314914Y-45083451D01*
X116312783Y-45091403D01*
X116253987Y-45386993D01*
X116252913Y-45395151D01*
X116233202Y-45695881D01*
X116233202Y-45704119D01*
X111838204Y-45704119D01*
X111726359Y-45611098D01*
X111502402Y-45475198D01*
X111489181Y-45469654D01*
X111265133Y-45375702D01*
X111265128Y-45375700D01*
X111260818Y-45373893D01*
X111256286Y-45372742D01*
X111256283Y-45372741D01*
X111011450Y-45310561D01*
X111011447Y-45310560D01*
X111006913Y-45309409D01*
X111002257Y-45308940D01*
X111002256Y-45308940D01*
X110792467Y-45287816D01*
X110792466Y-45287816D01*
X110789328Y-45287500D01*
X108433498Y-45287500D01*
X108431173Y-45287673D01*
X108431167Y-45287673D01*
X108243407Y-45301626D01*
X108243403Y-45301627D01*
X108238755Y-45301972D01*
X107983250Y-45359787D01*
X107978898Y-45361479D01*
X107978896Y-45361480D01*
X107743450Y-45453040D01*
X107743448Y-45453041D01*
X107739097Y-45454733D01*
X107735043Y-45457050D01*
X107735041Y-45457051D01*
X107560353Y-45556893D01*
X107497830Y-45573500D01*
X103167439Y-45573500D01*
X103159201Y-45573230D01*
X103093439Y-45568920D01*
X103004045Y-45579500D01*
X103000831Y-45579837D01*
X102911244Y-45588070D01*
X102905676Y-45589640D01*
X102903519Y-45590040D01*
X102889188Y-45592890D01*
X102887009Y-45593353D01*
X102881267Y-45594033D01*
X102795290Y-45620729D01*
X102792193Y-45621645D01*
X102705613Y-45646064D01*
X102700425Y-45648622D01*
X102698366Y-45649413D01*
X102684744Y-45654847D01*
X102682746Y-45655674D01*
X102677224Y-45657389D01*
X102597596Y-45699284D01*
X102594665Y-45700777D01*
X102513993Y-45740560D01*
X102509368Y-45744014D01*
X102507515Y-45745149D01*
X102495122Y-45752968D01*
X102493256Y-45754180D01*
X102488145Y-45756869D01*
X102460568Y-45778609D01*
X102417509Y-45812554D01*
X102414908Y-45814550D01*
X102342803Y-45868393D01*
X102338889Y-45872627D01*
X102338887Y-45872629D01*
X102286018Y-45929823D01*
X102282588Y-45933389D01*
X101926257Y-46289720D01*
X101863945Y-46323746D01*
X101793130Y-46318681D01*
X101736294Y-46276134D01*
X101711483Y-46209614D01*
X101713583Y-46176044D01*
X101746013Y-46013007D01*
X101747087Y-46004849D01*
X101766798Y-45704119D01*
X101766798Y-45695881D01*
X101747087Y-45395151D01*
X101746013Y-45386993D01*
X101687217Y-45091403D01*
X101685086Y-45083451D01*
X101588215Y-44798077D01*
X101585060Y-44790458D01*
X101451767Y-44520169D01*
X101447646Y-44513031D01*
X101280214Y-44262452D01*
X101275198Y-44255915D01*
X101253549Y-44231230D01*
X101240310Y-44222833D01*
X101230544Y-44228667D01*
X99400000Y-46059210D01*
X97930418Y-47528793D01*
X97922905Y-47542551D01*
X97929364Y-47551913D01*
X97955915Y-47575198D01*
X97962452Y-47580214D01*
X98002142Y-47606734D01*
X98047669Y-47661210D01*
X98056518Y-47731653D01*
X98025877Y-47795698D01*
X97965475Y-47833009D01*
X97932140Y-47837499D01*
X89767860Y-47837499D01*
X89699739Y-47817497D01*
X89653246Y-47763841D01*
X89643142Y-47693567D01*
X89672636Y-47628987D01*
X89697858Y-47606734D01*
X89737548Y-47580214D01*
X89744085Y-47575198D01*
X89768770Y-47553549D01*
X89777167Y-47540310D01*
X89771333Y-47530544D01*
X88312810Y-46072020D01*
X88298869Y-46064408D01*
X88297034Y-46064539D01*
X88290420Y-46068790D01*
X86830420Y-47528791D01*
X86822906Y-47542551D01*
X86829366Y-47551914D01*
X86855915Y-47575198D01*
X86862452Y-47580214D01*
X86902142Y-47606734D01*
X86947669Y-47661210D01*
X86956518Y-47731653D01*
X86925877Y-47795698D01*
X86865475Y-47833009D01*
X86832140Y-47837499D01*
X83067860Y-47837499D01*
X82999739Y-47817497D01*
X82953246Y-47763841D01*
X82943142Y-47693567D01*
X82972636Y-47628987D01*
X82997858Y-47606734D01*
X83037548Y-47580214D01*
X83044085Y-47575198D01*
X83068770Y-47553549D01*
X83077167Y-47540310D01*
X83071333Y-47530544D01*
X81612810Y-46072020D01*
X81598869Y-46064408D01*
X81597034Y-46064539D01*
X81590420Y-46068790D01*
X80130420Y-47528791D01*
X80122906Y-47542551D01*
X80129366Y-47551914D01*
X80155915Y-47575198D01*
X80162452Y-47580214D01*
X80202142Y-47606734D01*
X80247669Y-47661210D01*
X80256518Y-47731653D01*
X80225877Y-47795698D01*
X80165475Y-47833009D01*
X80132140Y-47837499D01*
X71967860Y-47837499D01*
X71899739Y-47817497D01*
X71853246Y-47763841D01*
X71843142Y-47693567D01*
X71872636Y-47628987D01*
X71897858Y-47606734D01*
X71937548Y-47580214D01*
X71944085Y-47575198D01*
X71968770Y-47553549D01*
X71977167Y-47540310D01*
X71971333Y-47530544D01*
X70512810Y-46072020D01*
X70498869Y-46064408D01*
X70497034Y-46064539D01*
X70490420Y-46068790D01*
X69030420Y-47528791D01*
X69022906Y-47542551D01*
X69029366Y-47551914D01*
X69055915Y-47575198D01*
X69062452Y-47580214D01*
X69102142Y-47606734D01*
X69147669Y-47661210D01*
X69156518Y-47731653D01*
X69125877Y-47795698D01*
X69065475Y-47833009D01*
X69032140Y-47837499D01*
X40705440Y-47837499D01*
X40697202Y-47837229D01*
X40631440Y-47832919D01*
X40542054Y-47843499D01*
X40538786Y-47843841D01*
X40518623Y-47845694D01*
X40454999Y-47851540D01*
X40454996Y-47851541D01*
X40449245Y-47852069D01*
X40443682Y-47853638D01*
X40441508Y-47854041D01*
X40427154Y-47856896D01*
X40425012Y-47857351D01*
X40419269Y-47858031D01*
X40333272Y-47884734D01*
X40330176Y-47885650D01*
X40249173Y-47908495D01*
X40249171Y-47908496D01*
X40243614Y-47910063D01*
X40238438Y-47912615D01*
X40236412Y-47913393D01*
X40222713Y-47918859D01*
X40220745Y-47919674D01*
X40215226Y-47921388D01*
X40159158Y-47950887D01*
X40135608Y-47963277D01*
X40132672Y-47964774D01*
X40051994Y-48004559D01*
X40047369Y-48008012D01*
X40045524Y-48009143D01*
X40033149Y-48016950D01*
X40031263Y-48018175D01*
X40026146Y-48020867D01*
X39967883Y-48066798D01*
X39955486Y-48076571D01*
X39952868Y-48078579D01*
X39885432Y-48128935D01*
X39885425Y-48128942D01*
X39880804Y-48132392D01*
X39876890Y-48136626D01*
X39876888Y-48136628D01*
X39824030Y-48193810D01*
X39820600Y-48197376D01*
X38324718Y-49693259D01*
X38318701Y-49698896D01*
X38269140Y-49742360D01*
X38213727Y-49812651D01*
X38213451Y-49813001D01*
X38211375Y-49815564D01*
X38157547Y-49880285D01*
X38157540Y-49880295D01*
X38153850Y-49884732D01*
X38151024Y-49889777D01*
X38149774Y-49891597D01*
X38141571Y-49903874D01*
X38140441Y-49905613D01*
X38136869Y-49910145D01*
X38134185Y-49915246D01*
X38134182Y-49915251D01*
X38094956Y-49989809D01*
X38093403Y-49992669D01*
X38049455Y-50071143D01*
X38047597Y-50076616D01*
X38046709Y-50078610D01*
X38040867Y-50092209D01*
X38040078Y-50094114D01*
X38037389Y-50099225D01*
X38035680Y-50104730D01*
X38035678Y-50104734D01*
X38010698Y-50185184D01*
X38009678Y-50188322D01*
X38007813Y-50193816D01*
X37966975Y-50251892D01*
X37901222Y-50278670D01*
X37831430Y-50265648D01*
X37779757Y-50216961D01*
X37762500Y-50153314D01*
X37762500Y-43888500D01*
X37782502Y-43820379D01*
X37836158Y-43773886D01*
X37888500Y-43762500D01*
X48726514Y-43762500D01*
X48794635Y-43782502D01*
G37*
%TD.AperFunction*%
%TD*%
M02*
