%TF.GenerationSoftware,KiCad,Pcbnew,(6.0.9-0)*%
%TF.CreationDate,2024-08-25T20:51:05+02:00*%
%TF.ProjectId,preamp-test-jacks-board,70726561-6d70-42d7-9465-73742d6a6163,rev?*%
%TF.SameCoordinates,Original*%
%TF.FileFunction,Legend,Bot*%
%TF.FilePolarity,Positive*%
%FSLAX46Y46*%
G04 Gerber Fmt 4.6, Leading zero omitted, Abs format (unit mm)*
G04 Created by KiCad (PCBNEW (6.0.9-0)) date 2024-08-25 20:51:05*
%MOMM*%
%LPD*%
G01*
G04 APERTURE LIST*
%ADD10C,1.900000*%
%ADD11C,1.600000*%
%ADD12C,3.400000*%
%ADD13C,2.900000*%
%ADD14R,4.600000X2.000000*%
%ADD15O,4.200000X2.000000*%
%ADD16O,2.000000X4.200000*%
%ADD17C,3.200000*%
G04 APERTURE END LIST*
%TO.C,kibuzzard-66CA4D8D*%
G36*
X102188845Y-61568142D02*
G01*
X103623310Y-62245370D01*
X104583430Y-63322648D01*
X104903470Y-64748540D01*
X104674870Y-65951548D01*
X103989070Y-66817370D01*
X102851785Y-67437448D01*
X101268730Y-67903220D01*
X100194310Y-68131820D01*
X99037023Y-68460432D01*
X98262640Y-68851910D01*
X97679710Y-69914900D01*
X98388370Y-71069330D01*
X100171450Y-71446520D01*
X101657350Y-71225540D01*
X102609850Y-70562600D01*
X103028950Y-69457700D01*
X105292090Y-69457700D01*
X104889183Y-71015038D01*
X103909060Y-72212330D01*
X102929890Y-72777480D01*
X101684020Y-73116570D01*
X100171450Y-73229600D01*
X98348365Y-73015288D01*
X96856750Y-72372350D01*
X95862340Y-71317933D01*
X95530870Y-69869180D01*
X95762328Y-68620453D01*
X96456700Y-67663190D01*
X97625418Y-66945958D01*
X99279910Y-66417320D01*
X100240030Y-66188720D01*
X101405890Y-65891540D01*
X102160270Y-65594360D01*
X102708910Y-64634240D01*
X102068830Y-63514100D01*
X100445770Y-63125480D01*
X98811280Y-63559820D01*
X98068330Y-64679960D01*
X95805190Y-64679960D01*
X96173808Y-63391227D01*
X97096780Y-62313950D01*
X98534102Y-61585288D01*
X100445770Y-61342400D01*
X102188845Y-61568142D01*
G37*
G36*
X60132160Y-57353330D02*
G01*
X60577930Y-58393460D01*
X60132160Y-59433590D01*
X59069170Y-59879360D01*
X58040470Y-59433590D01*
X57606130Y-58393460D01*
X58040470Y-57353330D01*
X59069170Y-56930420D01*
X60132160Y-57353330D01*
G37*
G36*
X153613050Y-72498080D02*
G01*
X152612290Y-71583680D01*
X151886485Y-72646670D01*
X150486310Y-73001000D01*
X149457610Y-73001000D01*
X149457610Y-71217920D01*
X149731930Y-71217920D01*
X150600610Y-70303520D01*
X150600610Y-67766060D01*
X152932330Y-67766060D01*
X152932330Y-68611880D01*
X153169503Y-69846320D01*
X153881020Y-70715000D01*
X154901148Y-71229350D01*
X156064150Y-71400800D01*
X157470040Y-71012180D01*
X158007250Y-69823460D01*
X157745630Y-68934460D01*
X156960770Y-68340100D01*
X155652670Y-68040380D01*
X152932330Y-67766060D01*
X150600610Y-67766060D01*
X150600610Y-65617220D01*
X150917793Y-63796992D01*
X151869340Y-62451110D01*
X153329523Y-61619577D01*
X155172610Y-61342400D01*
X157027128Y-61613862D01*
X158475880Y-62428250D01*
X159450288Y-63676977D01*
X159881770Y-65251460D01*
X157572910Y-65251460D01*
X157138570Y-64121160D01*
X156353710Y-63442980D01*
X155218330Y-63216920D01*
X154261068Y-63368368D01*
X153538120Y-63822710D01*
X153083778Y-64551372D01*
X152932330Y-65525780D01*
X152932330Y-66074420D01*
X156429910Y-66440180D01*
X158018680Y-66783080D01*
X159264550Y-67491740D01*
X160070365Y-68549015D01*
X160338970Y-69937760D01*
X160067508Y-71363653D01*
X159253120Y-72395210D01*
X157998678Y-73021003D01*
X156407050Y-73229600D01*
X156064150Y-73188589D01*
X154877970Y-73046720D01*
X153613050Y-72498080D01*
G37*
G36*
X45307450Y-70577840D02*
G01*
X45467470Y-70577840D01*
X48759310Y-61571000D01*
X51159610Y-61571000D01*
X46816210Y-73001000D01*
X43981570Y-73001000D01*
X39661030Y-61571000D01*
X42038470Y-61571000D01*
X45307450Y-70577840D01*
G37*
G36*
X111235690Y-68131820D02*
G01*
X111435715Y-69491990D01*
X112035790Y-70463540D01*
X112950190Y-71046470D01*
X114093190Y-71240780D01*
X115153323Y-71057900D01*
X116002000Y-70509260D01*
X116559213Y-69594860D01*
X116744950Y-68314700D01*
X116744950Y-61571000D01*
X119076670Y-61571000D01*
X119076670Y-68726180D01*
X118788063Y-70617845D01*
X117922240Y-72040880D01*
X116576358Y-72932420D01*
X114847570Y-73229600D01*
X113437870Y-73046720D01*
X112287250Y-72498080D01*
X111395710Y-71583680D01*
X111235690Y-71583680D01*
X111007090Y-73001000D01*
X108903970Y-73001000D01*
X108903970Y-61571000D01*
X111235690Y-61571000D01*
X111235690Y-68131820D01*
G37*
G36*
X64006930Y-63376940D02*
G01*
X60257890Y-63376940D01*
X60257890Y-71195060D01*
X64235530Y-71195060D01*
X64235530Y-73001000D01*
X53994250Y-73001000D01*
X53994250Y-71195060D01*
X57949030Y-71195060D01*
X57949030Y-61571000D01*
X64006930Y-61571000D01*
X64006930Y-63376940D01*
G37*
G36*
X132586930Y-73001000D02*
G01*
X130255210Y-73001000D01*
X130255210Y-69069080D01*
X128860750Y-67766060D01*
X124791670Y-73001000D01*
X122185630Y-73001000D01*
X127237690Y-66257300D01*
X122185630Y-61571000D01*
X125020270Y-61571000D01*
X130095190Y-66211580D01*
X130255210Y-66211580D01*
X130255210Y-56770400D01*
X132586930Y-56770400D01*
X132586930Y-73001000D01*
G37*
G36*
X85033050Y-72498080D02*
G01*
X84032290Y-71583680D01*
X83306485Y-72646670D01*
X81906310Y-73001000D01*
X80877610Y-73001000D01*
X80877610Y-71217920D01*
X81151930Y-71217920D01*
X82020610Y-70303520D01*
X82020610Y-67766060D01*
X84352330Y-67766060D01*
X84352330Y-68611880D01*
X84589503Y-69846320D01*
X85301020Y-70715000D01*
X86321148Y-71229350D01*
X87484150Y-71400800D01*
X88890040Y-71012180D01*
X89427250Y-69823460D01*
X89165630Y-68934460D01*
X88380770Y-68340100D01*
X87072670Y-68040380D01*
X84352330Y-67766060D01*
X82020610Y-67766060D01*
X82020610Y-65617220D01*
X82337793Y-63796992D01*
X83289340Y-62451110D01*
X84749523Y-61619577D01*
X86592610Y-61342400D01*
X88447128Y-61613862D01*
X89895880Y-62428250D01*
X90870288Y-63676977D01*
X91301770Y-65251460D01*
X88992910Y-65251460D01*
X88558570Y-64121160D01*
X87773710Y-63442980D01*
X86638330Y-63216920D01*
X85681067Y-63368368D01*
X84958120Y-63822710D01*
X84503778Y-64551372D01*
X84352330Y-65525780D01*
X84352330Y-66074420D01*
X87849910Y-66440180D01*
X89438680Y-66783080D01*
X90684550Y-67491740D01*
X91490365Y-68549015D01*
X91758970Y-69937760D01*
X91487508Y-71363653D01*
X90673120Y-72395210D01*
X89418678Y-73021003D01*
X87827050Y-73229600D01*
X87484150Y-73188589D01*
X86297970Y-73046720D01*
X85033050Y-72498080D01*
G37*
G36*
X74271070Y-59513600D02*
G01*
X74716840Y-61113800D01*
X76259890Y-61571000D01*
X78134410Y-61571000D01*
X78134410Y-63445520D01*
X74499670Y-63445520D01*
X74499670Y-69343400D01*
X74328677Y-70742432D01*
X73815699Y-71830568D01*
X72960735Y-72607808D01*
X71763785Y-73074152D01*
X70224850Y-73229600D01*
X69184720Y-73166735D01*
X68167450Y-72978140D01*
X68167450Y-71103620D01*
X69676210Y-71286500D01*
X71060510Y-71027420D01*
X71891090Y-70250180D01*
X72167950Y-68954780D01*
X72167950Y-63445520D01*
X67527370Y-63445520D01*
X67527370Y-61571000D01*
X72167950Y-61571000D01*
X72167950Y-58462040D01*
X74271070Y-58462040D01*
X74271070Y-59513600D01*
G37*
G36*
X146302930Y-73001000D02*
G01*
X143971210Y-73001000D01*
X143971210Y-69069080D01*
X142576750Y-67766060D01*
X138507670Y-73001000D01*
X135901630Y-73001000D01*
X140953690Y-66257300D01*
X135901630Y-61571000D01*
X138736270Y-61571000D01*
X143811190Y-66211580D01*
X143971210Y-66211580D01*
X143971210Y-56770400D01*
X146302930Y-56770400D01*
X146302930Y-73001000D01*
G37*
%TO.C,kibuzzard-66CB7C17*%
G36*
X106684410Y-43943740D02*
G01*
X106703460Y-44029465D01*
X106760610Y-44080900D01*
X106855860Y-44098045D01*
X106993020Y-44098045D01*
X106993020Y-44256160D01*
X106705365Y-44256160D01*
X106705365Y-44938150D01*
X107025405Y-44938150D01*
X107025405Y-45100075D01*
X106194825Y-45100075D01*
X106194825Y-44938150D01*
X106505340Y-44938150D01*
X106505340Y-43880875D01*
X106684410Y-43880875D01*
X106684410Y-43943740D01*
G37*
G36*
X108457965Y-44610490D02*
G01*
X108465012Y-44536195D01*
X108644655Y-44536195D01*
X109160910Y-44536195D01*
X109130906Y-44438326D01*
X109071375Y-44358078D01*
X108988984Y-44304499D01*
X108890400Y-44286640D01*
X108792054Y-44304023D01*
X108714187Y-44356173D01*
X108662991Y-44435944D01*
X108644655Y-44536195D01*
X108465012Y-44536195D01*
X108471617Y-44466557D01*
X108512575Y-44347177D01*
X108580838Y-44252350D01*
X108669843Y-44183558D01*
X108773031Y-44142283D01*
X108890400Y-44128525D01*
X109014013Y-44143871D01*
X109123233Y-44189908D01*
X109218060Y-44266638D01*
X109291085Y-44368767D01*
X109334900Y-44491004D01*
X109349505Y-44633350D01*
X109334900Y-44768923D01*
X109291085Y-44886080D01*
X109218060Y-44984823D01*
X109122175Y-45059435D01*
X109009780Y-45104203D01*
X108880875Y-45119125D01*
X108728475Y-45098884D01*
X108602745Y-45038163D01*
X108510829Y-44941722D01*
X108459870Y-44814325D01*
X108646560Y-44814325D01*
X108692915Y-44895817D01*
X108771020Y-44944712D01*
X108880875Y-44961010D01*
X108991365Y-44941246D01*
X109078995Y-44881953D01*
X109138050Y-44790274D01*
X109162815Y-44673355D01*
X108461775Y-44673355D01*
X108457965Y-44610490D01*
G37*
G36*
X112317495Y-44898145D02*
G01*
X112330830Y-44898145D01*
X112605150Y-44147575D01*
X112805175Y-44147575D01*
X112443225Y-45100075D01*
X112207005Y-45100075D01*
X111846960Y-44147575D01*
X112045080Y-44147575D01*
X112317495Y-44898145D01*
G37*
G36*
X109771939Y-44139479D02*
G01*
X109869570Y-44172340D01*
X109942436Y-44227585D01*
X110001015Y-44305690D01*
X110014350Y-44305690D01*
X110033400Y-44147575D01*
X110475360Y-44147575D01*
X110475360Y-44294260D01*
X110206755Y-44294260D01*
X110206755Y-44953390D01*
X110484885Y-44953390D01*
X110484885Y-45100075D01*
X109652400Y-45100075D01*
X109652400Y-44953390D01*
X110012445Y-44953390D01*
X110012445Y-44623825D01*
X109989823Y-44496190D01*
X109921958Y-44399035D01*
X109815516Y-44337599D01*
X109677165Y-44317120D01*
X109566675Y-44322835D01*
X109566675Y-44128525D01*
X109639065Y-44128525D01*
X109771939Y-44139479D01*
G37*
G36*
X111256410Y-43943740D02*
G01*
X111275460Y-44029465D01*
X111332610Y-44080900D01*
X111427860Y-44098045D01*
X111565020Y-44098045D01*
X111565020Y-44256160D01*
X111277365Y-44256160D01*
X111277365Y-44938150D01*
X111597405Y-44938150D01*
X111597405Y-45100075D01*
X110766825Y-45100075D01*
X110766825Y-44938150D01*
X111077340Y-44938150D01*
X111077340Y-43880875D01*
X111256410Y-43880875D01*
X111256410Y-43943740D01*
G37*
G36*
X107745495Y-44898145D02*
G01*
X107758830Y-44898145D01*
X108033150Y-44147575D01*
X108233175Y-44147575D01*
X107871225Y-45100075D01*
X107635005Y-45100075D01*
X107274960Y-44147575D01*
X107473080Y-44147575D01*
X107745495Y-44898145D01*
G37*
%TD*%
%LPC*%
D10*
%TO.C,J8*%
X59870000Y-68900000D03*
X47130000Y-68900000D03*
%TD*%
D11*
%TO.C,J4*%
X57060000Y-50500000D03*
X49440000Y-45420000D03*
D12*
X57060000Y-59390000D03*
X49440000Y-59390000D03*
D13*
X53250000Y-59390000D03*
X53250000Y-54310000D03*
%TD*%
D14*
%TO.C,J1*%
X109600000Y-53350000D03*
D15*
X109600000Y-47050000D03*
D16*
X104800000Y-50450000D03*
%TD*%
D10*
%TO.C,J7*%
X140130000Y-68900000D03*
X152870000Y-68900000D03*
%TD*%
D17*
%TO.C,J6*%
X70500000Y-52000000D03*
X81600000Y-52000000D03*
X70500000Y-45700000D03*
X81600000Y-45700000D03*
X70500000Y-58350000D03*
X81600000Y-58350000D03*
%TD*%
%TO.C,J5*%
X118600000Y-52000000D03*
X129700000Y-52000000D03*
X129700000Y-45700000D03*
X118600000Y-45700000D03*
X118600000Y-58350000D03*
X129700000Y-58350000D03*
%TD*%
D11*
%TO.C,J2*%
X142640000Y-45410000D03*
X150260000Y-50490000D03*
D12*
X142640000Y-54300000D03*
X150260000Y-54935000D03*
D13*
X146450000Y-58750000D03*
%TD*%
D17*
%TO.C,J3*%
X88300000Y-52000000D03*
X99400000Y-52000000D03*
X88300000Y-45700000D03*
X99400000Y-45700000D03*
X88300000Y-58350000D03*
X99400000Y-58350000D03*
%TD*%
M02*
