%TF.GenerationSoftware,KiCad,Pcbnew,(6.0.9-0)*%
%TF.CreationDate,2024-08-25T20:50:42+02:00*%
%TF.ProjectId,preamp-test,70726561-6d70-42d7-9465-73742e6b6963,rev?*%
%TF.SameCoordinates,Original*%
%TF.FileFunction,Copper,L3,Inr*%
%TF.FilePolarity,Positive*%
%FSLAX46Y46*%
G04 Gerber Fmt 4.6, Leading zero omitted, Abs format (unit mm)*
G04 Created by KiCad (PCBNEW (6.0.9-0)) date 2024-08-25 20:50:42*
%MOMM*%
%LPD*%
G01*
G04 APERTURE LIST*
%TA.AperFunction,ComponentPad*%
%ADD10R,3.416000X3.416000*%
%TD*%
%TA.AperFunction,ComponentPad*%
%ADD11O,3.416000X3.416000*%
%TD*%
%TA.AperFunction,ComponentPad*%
%ADD12O,2.700000X5.400000*%
%TD*%
%TA.AperFunction,ComponentPad*%
%ADD13R,1.800000X1.800000*%
%TD*%
%TA.AperFunction,ComponentPad*%
%ADD14C,1.800000*%
%TD*%
%TA.AperFunction,ComponentPad*%
%ADD15C,1.500000*%
%TD*%
%TA.AperFunction,ComponentPad*%
%ADD16R,1.700000X1.700000*%
%TD*%
%TA.AperFunction,ComponentPad*%
%ADD17O,1.700000X1.700000*%
%TD*%
%TA.AperFunction,ViaPad*%
%ADD18C,0.700000*%
%TD*%
%TA.AperFunction,ViaPad*%
%ADD19C,0.800000*%
%TD*%
G04 APERTURE END LIST*
D10*
%TO.N,/GND*%
%TO.C,SW1*%
X121900000Y-73701000D03*
D11*
%TO.N,/InGND*%
X121900000Y-78400000D03*
%TO.N,unconnected-(SW1-Pad3)*%
X121900000Y-83099000D03*
%TD*%
D12*
%TO.N,/GND*%
%TO.C,RV2*%
X57800000Y-78400000D03*
X49000000Y-78400000D03*
D13*
X50900000Y-85400000D03*
D14*
%TO.N,Net-(RV2-Pad2)*%
X53400000Y-85400000D03*
%TO.N,/VolumeIn*%
X55900000Y-85400000D03*
%TD*%
D12*
%TO.N,/GND*%
%TO.C,RV1*%
X84800000Y-78400000D03*
X76000000Y-78400000D03*
D13*
%TO.N,/Preamp/Rg1*%
X77900000Y-85400000D03*
D14*
X80400000Y-85400000D03*
%TO.N,Net-(R10-Pad2)*%
X82900000Y-85400000D03*
%TD*%
D10*
%TO.N,/In+*%
%TO.C,SW2*%
X144187000Y-73566000D03*
D11*
%TO.N,/Sig+*%
X144187000Y-78396000D03*
%TO.N,/In-*%
X144187000Y-83226000D03*
X149017000Y-73566000D03*
%TO.N,/Sig-*%
X149017000Y-78396000D03*
%TO.N,/In+*%
X149017000Y-83226000D03*
%TD*%
D15*
%TO.N,/Preamp/InPre+*%
%TO.C,TP3*%
X84455000Y-92710000D03*
%TD*%
%TO.N,/-9V*%
%TO.C,TP1*%
X87307500Y-117094000D03*
%TD*%
%TO.N,/Preamp/InPre-*%
%TO.C,TP4*%
X116078000Y-92710000D03*
%TD*%
%TO.N,/Line Driver/LineOut-*%
%TO.C,TP7*%
X70104000Y-105410000D03*
%TD*%
%TO.N,Net-(C10-Pad1)*%
%TO.C,TP2*%
X97790000Y-90424000D03*
%TD*%
%TO.N,/Line Driver/LineOut+*%
%TO.C,TP6*%
X43688000Y-105410000D03*
%TD*%
D16*
%TO.N,/-9V*%
%TO.C,J1*%
X138303000Y-121500000D03*
D17*
%TO.N,/GND*%
X140843000Y-121500000D03*
%TO.N,/+9V*%
X143383000Y-121500000D03*
%TO.N,/Phantom*%
X145923000Y-121500000D03*
%TO.N,/GND*%
X148463000Y-121500000D03*
%TO.N,/PreOut*%
X151003000Y-121500000D03*
%TO.N,/Snd*%
X153543000Y-121500000D03*
%TO.N,/GND*%
X156083000Y-121500000D03*
%TD*%
D15*
%TO.N,Net-(RV2-Pad2)*%
%TO.C,TP5*%
X61722000Y-84836000D03*
%TD*%
D18*
%TO.N,/+9V*%
X97028000Y-85598000D03*
X45974000Y-80010000D03*
X49276000Y-116840000D03*
X64135000Y-73787000D03*
X102870000Y-101854000D03*
X89593500Y-114427000D03*
X66294000Y-118618000D03*
X97282000Y-101854000D03*
%TO.N,/GND*%
X101600000Y-101854000D03*
X98298000Y-101854000D03*
X39624000Y-76962000D03*
X53086000Y-124841000D03*
X65278000Y-118618000D03*
X145415000Y-86487000D03*
X76200000Y-92456000D03*
X145288000Y-98298000D03*
X85275500Y-116967000D03*
X105849500Y-118237000D03*
X56134000Y-88646000D03*
X143764000Y-98298000D03*
X89466500Y-112903000D03*
X105156000Y-89662000D03*
X89466500Y-124587000D03*
X62992000Y-73787000D03*
X49276000Y-117856000D03*
X57785000Y-115443000D03*
X67818000Y-85344000D03*
X97028000Y-84698497D03*
X50292000Y-98552000D03*
X49276000Y-108458000D03*
X150622000Y-98298000D03*
X69342000Y-92456000D03*
X94488000Y-77978000D03*
D19*
X146050000Y-115824000D03*
D18*
X63500000Y-108458000D03*
X53086000Y-120396000D03*
X143383000Y-88900000D03*
X54356000Y-88646000D03*
X99822000Y-88646000D03*
%TO.N,/-9V*%
X74803000Y-92456000D03*
X53086000Y-119253000D03*
X70739000Y-92456000D03*
X51689000Y-124841000D03*
D19*
%TO.N,/InGND*%
X146000000Y-87500000D03*
%TO.N,/Phantom*%
X135128000Y-107442000D03*
D18*
X157226000Y-107442000D03*
%TO.N,/Snd*%
X160401000Y-88773000D03*
X144526000Y-88900000D03*
%TD*%
%TA.AperFunction,Conductor*%
%TO.N,/GND*%
G36*
X162433621Y-69528502D02*
G01*
X162480114Y-69582158D01*
X162491500Y-69634500D01*
X162491500Y-129365500D01*
X162471498Y-129433621D01*
X162417842Y-129480114D01*
X162365500Y-129491500D01*
X37634500Y-129491500D01*
X37566379Y-129471498D01*
X37519886Y-129417842D01*
X37508500Y-129365500D01*
X37508500Y-124841000D01*
X50825771Y-124841000D01*
X50844635Y-125020475D01*
X50900401Y-125192107D01*
X50990633Y-125348393D01*
X51111387Y-125482504D01*
X51257385Y-125588578D01*
X51263413Y-125591262D01*
X51263415Y-125591263D01*
X51416217Y-125659295D01*
X51422248Y-125661980D01*
X51510508Y-125680740D01*
X51592311Y-125698128D01*
X51592315Y-125698128D01*
X51598768Y-125699500D01*
X51779232Y-125699500D01*
X51785685Y-125698128D01*
X51785689Y-125698128D01*
X51867492Y-125680740D01*
X51955752Y-125661980D01*
X51961783Y-125659295D01*
X52114585Y-125591263D01*
X52114587Y-125591262D01*
X52120615Y-125588578D01*
X52266613Y-125482504D01*
X52387367Y-125348393D01*
X52477599Y-125192107D01*
X52533365Y-125020475D01*
X52552229Y-124841000D01*
X52533365Y-124661525D01*
X52477599Y-124489893D01*
X52387367Y-124333607D01*
X52266613Y-124199496D01*
X52120615Y-124093422D01*
X52114587Y-124090738D01*
X52114585Y-124090737D01*
X51961783Y-124022705D01*
X51961781Y-124022705D01*
X51955752Y-124020020D01*
X51867492Y-124001260D01*
X51785689Y-123983872D01*
X51785685Y-123983872D01*
X51779232Y-123982500D01*
X51598768Y-123982500D01*
X51592315Y-123983872D01*
X51592311Y-123983872D01*
X51510508Y-124001260D01*
X51422248Y-124020020D01*
X51416219Y-124022704D01*
X51416217Y-124022705D01*
X51263416Y-124090737D01*
X51263414Y-124090738D01*
X51257386Y-124093422D01*
X51252045Y-124097302D01*
X51252044Y-124097303D01*
X51116731Y-124195613D01*
X51116729Y-124195615D01*
X51111387Y-124199496D01*
X50990633Y-124333607D01*
X50900401Y-124489893D01*
X50844635Y-124661525D01*
X50825771Y-124841000D01*
X37508500Y-124841000D01*
X37508500Y-122398134D01*
X136944500Y-122398134D01*
X136951255Y-122460316D01*
X137002385Y-122596705D01*
X137089739Y-122713261D01*
X137206295Y-122800615D01*
X137342684Y-122851745D01*
X137404866Y-122858500D01*
X139201134Y-122858500D01*
X139263316Y-122851745D01*
X139399705Y-122800615D01*
X139516261Y-122713261D01*
X139521644Y-122706079D01*
X139539217Y-122682632D01*
X139596077Y-122640117D01*
X139666895Y-122635093D01*
X139721872Y-122662387D01*
X139888795Y-122804952D01*
X139896777Y-122810752D01*
X140104684Y-122938158D01*
X140113478Y-122942639D01*
X140338751Y-123035950D01*
X140348136Y-123038999D01*
X140444383Y-123062106D01*
X140458470Y-123061401D01*
X140462000Y-123052522D01*
X140462000Y-123048220D01*
X141224000Y-123048220D01*
X141227973Y-123061751D01*
X141237431Y-123063111D01*
X141337864Y-123038999D01*
X141347249Y-123035950D01*
X141572522Y-122942639D01*
X141581316Y-122938158D01*
X141789223Y-122810752D01*
X141797205Y-122804953D01*
X141982619Y-122646594D01*
X141989594Y-122639619D01*
X142147950Y-122454208D01*
X142153757Y-122446215D01*
X142168000Y-122422973D01*
X142220647Y-122375341D01*
X142290689Y-122363735D01*
X142355886Y-122391839D01*
X142370666Y-122406307D01*
X142429250Y-122473938D01*
X142601126Y-122616632D01*
X142794000Y-122729338D01*
X143002692Y-122809030D01*
X143007760Y-122810061D01*
X143007763Y-122810062D01*
X143115017Y-122831883D01*
X143221597Y-122853567D01*
X143226772Y-122853757D01*
X143226774Y-122853757D01*
X143439673Y-122861564D01*
X143439677Y-122861564D01*
X143444837Y-122861753D01*
X143449957Y-122861097D01*
X143449959Y-122861097D01*
X143661288Y-122834025D01*
X143661289Y-122834025D01*
X143666416Y-122833368D01*
X143671366Y-122831883D01*
X143875429Y-122770661D01*
X143875434Y-122770659D01*
X143880384Y-122769174D01*
X144080994Y-122670896D01*
X144262860Y-122541173D01*
X144421096Y-122383489D01*
X144428707Y-122372898D01*
X144551453Y-122202077D01*
X144552776Y-122203028D01*
X144599645Y-122159857D01*
X144669580Y-122147625D01*
X144735026Y-122175144D01*
X144762875Y-122206994D01*
X144822987Y-122305088D01*
X144969250Y-122473938D01*
X145141126Y-122616632D01*
X145334000Y-122729338D01*
X145542692Y-122809030D01*
X145547760Y-122810061D01*
X145547763Y-122810062D01*
X145655017Y-122831883D01*
X145761597Y-122853567D01*
X145766772Y-122853757D01*
X145766774Y-122853757D01*
X145979673Y-122861564D01*
X145979677Y-122861564D01*
X145984837Y-122861753D01*
X145989957Y-122861097D01*
X145989959Y-122861097D01*
X146201288Y-122834025D01*
X146201289Y-122834025D01*
X146206416Y-122833368D01*
X146211366Y-122831883D01*
X146415429Y-122770661D01*
X146415434Y-122770659D01*
X146420384Y-122769174D01*
X146620994Y-122670896D01*
X146802860Y-122541173D01*
X146942896Y-122401625D01*
X147005267Y-122367710D01*
X147076073Y-122372898D01*
X147132835Y-122415544D01*
X147139267Y-122425042D01*
X147152241Y-122446214D01*
X147158047Y-122454205D01*
X147316406Y-122639619D01*
X147323381Y-122646594D01*
X147508795Y-122804953D01*
X147516777Y-122810752D01*
X147724684Y-122938158D01*
X147733478Y-122942639D01*
X147958751Y-123035950D01*
X147968136Y-123038999D01*
X148064383Y-123062106D01*
X148078470Y-123061401D01*
X148082000Y-123052522D01*
X148082000Y-123048220D01*
X148844000Y-123048220D01*
X148847973Y-123061751D01*
X148857431Y-123063111D01*
X148957864Y-123038999D01*
X148967249Y-123035950D01*
X149192522Y-122942639D01*
X149201316Y-122938158D01*
X149409223Y-122810752D01*
X149417205Y-122804953D01*
X149602619Y-122646594D01*
X149609594Y-122639619D01*
X149767950Y-122454208D01*
X149773757Y-122446215D01*
X149788000Y-122422973D01*
X149840647Y-122375341D01*
X149910689Y-122363735D01*
X149975886Y-122391839D01*
X149990666Y-122406307D01*
X150049250Y-122473938D01*
X150221126Y-122616632D01*
X150414000Y-122729338D01*
X150622692Y-122809030D01*
X150627760Y-122810061D01*
X150627763Y-122810062D01*
X150735017Y-122831883D01*
X150841597Y-122853567D01*
X150846772Y-122853757D01*
X150846774Y-122853757D01*
X151059673Y-122861564D01*
X151059677Y-122861564D01*
X151064837Y-122861753D01*
X151069957Y-122861097D01*
X151069959Y-122861097D01*
X151281288Y-122834025D01*
X151281289Y-122834025D01*
X151286416Y-122833368D01*
X151291366Y-122831883D01*
X151495429Y-122770661D01*
X151495434Y-122770659D01*
X151500384Y-122769174D01*
X151700994Y-122670896D01*
X151882860Y-122541173D01*
X152041096Y-122383489D01*
X152048707Y-122372898D01*
X152171453Y-122202077D01*
X152172776Y-122203028D01*
X152219645Y-122159857D01*
X152289580Y-122147625D01*
X152355026Y-122175144D01*
X152382875Y-122206994D01*
X152442987Y-122305088D01*
X152589250Y-122473938D01*
X152761126Y-122616632D01*
X152954000Y-122729338D01*
X153162692Y-122809030D01*
X153167760Y-122810061D01*
X153167763Y-122810062D01*
X153275017Y-122831883D01*
X153381597Y-122853567D01*
X153386772Y-122853757D01*
X153386774Y-122853757D01*
X153599673Y-122861564D01*
X153599677Y-122861564D01*
X153604837Y-122861753D01*
X153609957Y-122861097D01*
X153609959Y-122861097D01*
X153821288Y-122834025D01*
X153821289Y-122834025D01*
X153826416Y-122833368D01*
X153831366Y-122831883D01*
X154035429Y-122770661D01*
X154035434Y-122770659D01*
X154040384Y-122769174D01*
X154240994Y-122670896D01*
X154422860Y-122541173D01*
X154562896Y-122401625D01*
X154625267Y-122367710D01*
X154696073Y-122372898D01*
X154752835Y-122415544D01*
X154759267Y-122425042D01*
X154772241Y-122446214D01*
X154778047Y-122454205D01*
X154936406Y-122639619D01*
X154943381Y-122646594D01*
X155128795Y-122804953D01*
X155136777Y-122810752D01*
X155344684Y-122938158D01*
X155353478Y-122942639D01*
X155578751Y-123035950D01*
X155588136Y-123038999D01*
X155684383Y-123062106D01*
X155698470Y-123061401D01*
X155702000Y-123052522D01*
X155702000Y-123048220D01*
X156464000Y-123048220D01*
X156467973Y-123061751D01*
X156477431Y-123063111D01*
X156577864Y-123038999D01*
X156587249Y-123035950D01*
X156812522Y-122942639D01*
X156821316Y-122938158D01*
X157029223Y-122810752D01*
X157037205Y-122804953D01*
X157222619Y-122646594D01*
X157229594Y-122639619D01*
X157387953Y-122454205D01*
X157393752Y-122446223D01*
X157521158Y-122238316D01*
X157525639Y-122229522D01*
X157618950Y-122004249D01*
X157621999Y-121994864D01*
X157645106Y-121898617D01*
X157644401Y-121884530D01*
X157635522Y-121881000D01*
X156482115Y-121881000D01*
X156466876Y-121885475D01*
X156465671Y-121886865D01*
X156464000Y-121894548D01*
X156464000Y-123048220D01*
X155702000Y-123048220D01*
X155702000Y-121100885D01*
X156464000Y-121100885D01*
X156468475Y-121116124D01*
X156469865Y-121117329D01*
X156477548Y-121119000D01*
X157631220Y-121119000D01*
X157644751Y-121115027D01*
X157646111Y-121105569D01*
X157621999Y-121005136D01*
X157618950Y-120995751D01*
X157525639Y-120770478D01*
X157521158Y-120761684D01*
X157393752Y-120553777D01*
X157387953Y-120545795D01*
X157229594Y-120360381D01*
X157222619Y-120353406D01*
X157037205Y-120195047D01*
X157029223Y-120189248D01*
X156821316Y-120061842D01*
X156812522Y-120057361D01*
X156587249Y-119964050D01*
X156577864Y-119961001D01*
X156481617Y-119937894D01*
X156467530Y-119938599D01*
X156464000Y-119947478D01*
X156464000Y-121100885D01*
X155702000Y-121100885D01*
X155702000Y-119951780D01*
X155698027Y-119938249D01*
X155688569Y-119936889D01*
X155588136Y-119961001D01*
X155578751Y-119964050D01*
X155353478Y-120057361D01*
X155344684Y-120061842D01*
X155136777Y-120189248D01*
X155128795Y-120195047D01*
X154943381Y-120353406D01*
X154936406Y-120360381D01*
X154778047Y-120545795D01*
X154772245Y-120553781D01*
X154757945Y-120577116D01*
X154705297Y-120624747D01*
X154635256Y-120636353D01*
X154570058Y-120608249D01*
X154557319Y-120596079D01*
X154476151Y-120506875D01*
X154476142Y-120506866D01*
X154472670Y-120503051D01*
X154468619Y-120499852D01*
X154468615Y-120499848D01*
X154301414Y-120367800D01*
X154301410Y-120367798D01*
X154297359Y-120364598D01*
X154281855Y-120356039D01*
X154245136Y-120335769D01*
X154101789Y-120256638D01*
X154096920Y-120254914D01*
X154096916Y-120254912D01*
X153896087Y-120183795D01*
X153896083Y-120183794D01*
X153891212Y-120182069D01*
X153886119Y-120181162D01*
X153886116Y-120181161D01*
X153676373Y-120143800D01*
X153676367Y-120143799D01*
X153671284Y-120142894D01*
X153597452Y-120141992D01*
X153453081Y-120140228D01*
X153453079Y-120140228D01*
X153447911Y-120140165D01*
X153227091Y-120173955D01*
X153014756Y-120243357D01*
X152816607Y-120346507D01*
X152812474Y-120349610D01*
X152812471Y-120349612D01*
X152642100Y-120477530D01*
X152637965Y-120480635D01*
X152588607Y-120532285D01*
X152545766Y-120577116D01*
X152483629Y-120642138D01*
X152376201Y-120799621D01*
X152321293Y-120844621D01*
X152250768Y-120852792D01*
X152187021Y-120821538D01*
X152166324Y-120797054D01*
X152085822Y-120672617D01*
X152085820Y-120672614D01*
X152083014Y-120668277D01*
X151932670Y-120503051D01*
X151928619Y-120499852D01*
X151928615Y-120499848D01*
X151761414Y-120367800D01*
X151761410Y-120367798D01*
X151757359Y-120364598D01*
X151741855Y-120356039D01*
X151705136Y-120335769D01*
X151561789Y-120256638D01*
X151556920Y-120254914D01*
X151556916Y-120254912D01*
X151356087Y-120183795D01*
X151356083Y-120183794D01*
X151351212Y-120182069D01*
X151346119Y-120181162D01*
X151346116Y-120181161D01*
X151136373Y-120143800D01*
X151136367Y-120143799D01*
X151131284Y-120142894D01*
X151057452Y-120141992D01*
X150913081Y-120140228D01*
X150913079Y-120140228D01*
X150907911Y-120140165D01*
X150687091Y-120173955D01*
X150474756Y-120243357D01*
X150276607Y-120346507D01*
X150272474Y-120349610D01*
X150272471Y-120349612D01*
X150102100Y-120477530D01*
X150097965Y-120480635D01*
X150051875Y-120528865D01*
X149986155Y-120597637D01*
X149924630Y-120633067D01*
X149853718Y-120629610D01*
X149795932Y-120588364D01*
X149787629Y-120576422D01*
X149773754Y-120553780D01*
X149767950Y-120545792D01*
X149609594Y-120360381D01*
X149602619Y-120353406D01*
X149417205Y-120195047D01*
X149409223Y-120189248D01*
X149201316Y-120061842D01*
X149192522Y-120057361D01*
X148967249Y-119964050D01*
X148957864Y-119961001D01*
X148861617Y-119937894D01*
X148847530Y-119938599D01*
X148844000Y-119947478D01*
X148844000Y-123048220D01*
X148082000Y-123048220D01*
X148082000Y-119951780D01*
X148078027Y-119938249D01*
X148068569Y-119936889D01*
X147968136Y-119961001D01*
X147958751Y-119964050D01*
X147733478Y-120057361D01*
X147724684Y-120061842D01*
X147516777Y-120189248D01*
X147508795Y-120195047D01*
X147323381Y-120353406D01*
X147316406Y-120360381D01*
X147158047Y-120545795D01*
X147152245Y-120553781D01*
X147137945Y-120577116D01*
X147085297Y-120624747D01*
X147015256Y-120636353D01*
X146950058Y-120608249D01*
X146937319Y-120596079D01*
X146856151Y-120506875D01*
X146856142Y-120506866D01*
X146852670Y-120503051D01*
X146848619Y-120499852D01*
X146848615Y-120499848D01*
X146681414Y-120367800D01*
X146681410Y-120367798D01*
X146677359Y-120364598D01*
X146661855Y-120356039D01*
X146625136Y-120335769D01*
X146481789Y-120256638D01*
X146476920Y-120254914D01*
X146476916Y-120254912D01*
X146276087Y-120183795D01*
X146276083Y-120183794D01*
X146271212Y-120182069D01*
X146266119Y-120181162D01*
X146266116Y-120181161D01*
X146056373Y-120143800D01*
X146056367Y-120143799D01*
X146051284Y-120142894D01*
X145977452Y-120141992D01*
X145833081Y-120140228D01*
X145833079Y-120140228D01*
X145827911Y-120140165D01*
X145607091Y-120173955D01*
X145394756Y-120243357D01*
X145196607Y-120346507D01*
X145192474Y-120349610D01*
X145192471Y-120349612D01*
X145022100Y-120477530D01*
X145017965Y-120480635D01*
X144968607Y-120532285D01*
X144925766Y-120577116D01*
X144863629Y-120642138D01*
X144756201Y-120799621D01*
X144701293Y-120844621D01*
X144630768Y-120852792D01*
X144567021Y-120821538D01*
X144546324Y-120797054D01*
X144465822Y-120672617D01*
X144465820Y-120672614D01*
X144463014Y-120668277D01*
X144312670Y-120503051D01*
X144308619Y-120499852D01*
X144308615Y-120499848D01*
X144141414Y-120367800D01*
X144141410Y-120367798D01*
X144137359Y-120364598D01*
X144121855Y-120356039D01*
X144085136Y-120335769D01*
X143941789Y-120256638D01*
X143936920Y-120254914D01*
X143936916Y-120254912D01*
X143736087Y-120183795D01*
X143736083Y-120183794D01*
X143731212Y-120182069D01*
X143726119Y-120181162D01*
X143726116Y-120181161D01*
X143516373Y-120143800D01*
X143516367Y-120143799D01*
X143511284Y-120142894D01*
X143437452Y-120141992D01*
X143293081Y-120140228D01*
X143293079Y-120140228D01*
X143287911Y-120140165D01*
X143067091Y-120173955D01*
X142854756Y-120243357D01*
X142656607Y-120346507D01*
X142652474Y-120349610D01*
X142652471Y-120349612D01*
X142482100Y-120477530D01*
X142477965Y-120480635D01*
X142431875Y-120528865D01*
X142366155Y-120597637D01*
X142304630Y-120633067D01*
X142233718Y-120629610D01*
X142175932Y-120588364D01*
X142167629Y-120576422D01*
X142153754Y-120553780D01*
X142147950Y-120545792D01*
X141989594Y-120360381D01*
X141982619Y-120353406D01*
X141797205Y-120195047D01*
X141789223Y-120189248D01*
X141581316Y-120061842D01*
X141572522Y-120057361D01*
X141347249Y-119964050D01*
X141337864Y-119961001D01*
X141241617Y-119937894D01*
X141227530Y-119938599D01*
X141224000Y-119947478D01*
X141224000Y-123048220D01*
X140462000Y-123048220D01*
X140462000Y-119951780D01*
X140458027Y-119938249D01*
X140448569Y-119936889D01*
X140348136Y-119961001D01*
X140338751Y-119964050D01*
X140113478Y-120057361D01*
X140104684Y-120061842D01*
X139896777Y-120189248D01*
X139888795Y-120195048D01*
X139721872Y-120337613D01*
X139657083Y-120366644D01*
X139586883Y-120356039D01*
X139539217Y-120317368D01*
X139521644Y-120293921D01*
X139521642Y-120293919D01*
X139516261Y-120286739D01*
X139399705Y-120199385D01*
X139263316Y-120148255D01*
X139201134Y-120141500D01*
X137404866Y-120141500D01*
X137342684Y-120148255D01*
X137206295Y-120199385D01*
X137089739Y-120286739D01*
X137002385Y-120403295D01*
X136951255Y-120539684D01*
X136944500Y-120601866D01*
X136944500Y-122398134D01*
X37508500Y-122398134D01*
X37508500Y-119253000D01*
X52222771Y-119253000D01*
X52241635Y-119432475D01*
X52243675Y-119438753D01*
X52243675Y-119438754D01*
X52244194Y-119440352D01*
X52297401Y-119604107D01*
X52387633Y-119760393D01*
X52508387Y-119894504D01*
X52513729Y-119898385D01*
X52513731Y-119898387D01*
X52649043Y-119996697D01*
X52654385Y-120000578D01*
X52660413Y-120003262D01*
X52660415Y-120003263D01*
X52813217Y-120071295D01*
X52819248Y-120073980D01*
X52907508Y-120092740D01*
X52989311Y-120110128D01*
X52989315Y-120110128D01*
X52995768Y-120111500D01*
X53176232Y-120111500D01*
X53182685Y-120110128D01*
X53182689Y-120110128D01*
X53264492Y-120092740D01*
X53352752Y-120073980D01*
X53358783Y-120071295D01*
X53511585Y-120003263D01*
X53511587Y-120003262D01*
X53517615Y-120000578D01*
X53522957Y-119996697D01*
X53658269Y-119898387D01*
X53658271Y-119898385D01*
X53663613Y-119894504D01*
X53784367Y-119760393D01*
X53874599Y-119604107D01*
X53927806Y-119440352D01*
X53928325Y-119438754D01*
X53928325Y-119438753D01*
X53930365Y-119432475D01*
X53949229Y-119253000D01*
X53930365Y-119073525D01*
X53874599Y-118901893D01*
X53784367Y-118745607D01*
X53669469Y-118618000D01*
X65430771Y-118618000D01*
X65449635Y-118797475D01*
X65505401Y-118969107D01*
X65595633Y-119125393D01*
X65716387Y-119259504D01*
X65862385Y-119365578D01*
X65868413Y-119368262D01*
X65868415Y-119368263D01*
X66021217Y-119436295D01*
X66027248Y-119438980D01*
X66115508Y-119457740D01*
X66197311Y-119475128D01*
X66197315Y-119475128D01*
X66203768Y-119476500D01*
X66384232Y-119476500D01*
X66390685Y-119475128D01*
X66390689Y-119475128D01*
X66472492Y-119457740D01*
X66560752Y-119438980D01*
X66566783Y-119436295D01*
X66719585Y-119368263D01*
X66719587Y-119368262D01*
X66725615Y-119365578D01*
X66871613Y-119259504D01*
X66992367Y-119125393D01*
X67082599Y-118969107D01*
X67138365Y-118797475D01*
X67157229Y-118618000D01*
X67138365Y-118438525D01*
X67136252Y-118432020D01*
X67087684Y-118282543D01*
X67082599Y-118266893D01*
X66992367Y-118110607D01*
X66951220Y-118064908D01*
X66876035Y-117981407D01*
X66876034Y-117981406D01*
X66871613Y-117976496D01*
X66768428Y-117901527D01*
X66730957Y-117874303D01*
X66730956Y-117874302D01*
X66725615Y-117870422D01*
X66719587Y-117867738D01*
X66719585Y-117867737D01*
X66566783Y-117799705D01*
X66566781Y-117799705D01*
X66560752Y-117797020D01*
X66472492Y-117778260D01*
X66390689Y-117760872D01*
X66390685Y-117760872D01*
X66384232Y-117759500D01*
X66203768Y-117759500D01*
X66197315Y-117760872D01*
X66197311Y-117760872D01*
X66115508Y-117778260D01*
X66027248Y-117797020D01*
X66021219Y-117799704D01*
X66021217Y-117799705D01*
X65868416Y-117867737D01*
X65868414Y-117867738D01*
X65862386Y-117870422D01*
X65857045Y-117874302D01*
X65857044Y-117874303D01*
X65721731Y-117972613D01*
X65721729Y-117972615D01*
X65716387Y-117976496D01*
X65711966Y-117981406D01*
X65711965Y-117981407D01*
X65636781Y-118064908D01*
X65595633Y-118110607D01*
X65505401Y-118266893D01*
X65500316Y-118282543D01*
X65451749Y-118432020D01*
X65449635Y-118438525D01*
X65430771Y-118618000D01*
X53669469Y-118618000D01*
X53663613Y-118611496D01*
X53517615Y-118505422D01*
X53511587Y-118502738D01*
X53511585Y-118502737D01*
X53358783Y-118434705D01*
X53358781Y-118434705D01*
X53352752Y-118432020D01*
X53264492Y-118413260D01*
X53182689Y-118395872D01*
X53182685Y-118395872D01*
X53176232Y-118394500D01*
X52995768Y-118394500D01*
X52989315Y-118395872D01*
X52989311Y-118395872D01*
X52907508Y-118413260D01*
X52819248Y-118432020D01*
X52813219Y-118434704D01*
X52813217Y-118434705D01*
X52660416Y-118502737D01*
X52660414Y-118502738D01*
X52654386Y-118505422D01*
X52649045Y-118509302D01*
X52649044Y-118509303D01*
X52513731Y-118607613D01*
X52513729Y-118607615D01*
X52508387Y-118611496D01*
X52387633Y-118745607D01*
X52297401Y-118901893D01*
X52241635Y-119073525D01*
X52222771Y-119253000D01*
X37508500Y-119253000D01*
X37508500Y-116840000D01*
X48412771Y-116840000D01*
X48431635Y-117019475D01*
X48487401Y-117191107D01*
X48577633Y-117347393D01*
X48698387Y-117481504D01*
X48844385Y-117587578D01*
X48850413Y-117590262D01*
X48850415Y-117590263D01*
X49003217Y-117658295D01*
X49009248Y-117660980D01*
X49097508Y-117679740D01*
X49179311Y-117697128D01*
X49179315Y-117697128D01*
X49185768Y-117698500D01*
X49366232Y-117698500D01*
X49372685Y-117697128D01*
X49372689Y-117697128D01*
X49454492Y-117679740D01*
X49542752Y-117660980D01*
X49548783Y-117658295D01*
X49701585Y-117590263D01*
X49701587Y-117590262D01*
X49707615Y-117587578D01*
X49853613Y-117481504D01*
X49974367Y-117347393D01*
X50064599Y-117191107D01*
X50096151Y-117094000D01*
X86044193Y-117094000D01*
X86063385Y-117313371D01*
X86120380Y-117526076D01*
X86122705Y-117531061D01*
X86211118Y-117720666D01*
X86211121Y-117720671D01*
X86213444Y-117725653D01*
X86216600Y-117730160D01*
X86216601Y-117730162D01*
X86263416Y-117797020D01*
X86339751Y-117906038D01*
X86495462Y-118061749D01*
X86675846Y-118188056D01*
X86875424Y-118281120D01*
X87088129Y-118338115D01*
X87307500Y-118357307D01*
X87526871Y-118338115D01*
X87739576Y-118281120D01*
X87939154Y-118188056D01*
X88119538Y-118061749D01*
X88275249Y-117906038D01*
X88351585Y-117797020D01*
X88398399Y-117730162D01*
X88398400Y-117730160D01*
X88401556Y-117725653D01*
X88403879Y-117720671D01*
X88403882Y-117720666D01*
X88492295Y-117531061D01*
X88494620Y-117526076D01*
X88551615Y-117313371D01*
X88570807Y-117094000D01*
X88551615Y-116874629D01*
X88494620Y-116661924D01*
X88451085Y-116568562D01*
X88403882Y-116467334D01*
X88403879Y-116467329D01*
X88401556Y-116462347D01*
X88310711Y-116332607D01*
X88278408Y-116286473D01*
X88278406Y-116286470D01*
X88275249Y-116281962D01*
X88119538Y-116126251D01*
X88071226Y-116092422D01*
X88040259Y-116070739D01*
X87939154Y-115999944D01*
X87739576Y-115906880D01*
X87526871Y-115849885D01*
X87307500Y-115830693D01*
X87088129Y-115849885D01*
X86875424Y-115906880D01*
X86782062Y-115950415D01*
X86680834Y-115997618D01*
X86680829Y-115997621D01*
X86675847Y-115999944D01*
X86671340Y-116003100D01*
X86671338Y-116003101D01*
X86499973Y-116123092D01*
X86499970Y-116123094D01*
X86495462Y-116126251D01*
X86339751Y-116281962D01*
X86336594Y-116286470D01*
X86336592Y-116286473D01*
X86304289Y-116332607D01*
X86213444Y-116462347D01*
X86211121Y-116467329D01*
X86211118Y-116467334D01*
X86163915Y-116568562D01*
X86120380Y-116661924D01*
X86063385Y-116874629D01*
X86044193Y-117094000D01*
X50096151Y-117094000D01*
X50120365Y-117019475D01*
X50139229Y-116840000D01*
X50120365Y-116660525D01*
X50064599Y-116488893D01*
X49974367Y-116332607D01*
X49853613Y-116198496D01*
X49759541Y-116130148D01*
X49712957Y-116096303D01*
X49712956Y-116096302D01*
X49707615Y-116092422D01*
X49701587Y-116089738D01*
X49701585Y-116089737D01*
X49548783Y-116021705D01*
X49548781Y-116021705D01*
X49542752Y-116019020D01*
X49442067Y-115997619D01*
X49372689Y-115982872D01*
X49372685Y-115982872D01*
X49366232Y-115981500D01*
X49185768Y-115981500D01*
X49179315Y-115982872D01*
X49179311Y-115982872D01*
X49109933Y-115997619D01*
X49009248Y-116019020D01*
X49003219Y-116021704D01*
X49003217Y-116021705D01*
X48850416Y-116089737D01*
X48850414Y-116089738D01*
X48844386Y-116092422D01*
X48839045Y-116096302D01*
X48839044Y-116096303D01*
X48703731Y-116194613D01*
X48703729Y-116194615D01*
X48698387Y-116198496D01*
X48577633Y-116332607D01*
X48487401Y-116488893D01*
X48431635Y-116660525D01*
X48412771Y-116840000D01*
X37508500Y-116840000D01*
X37508500Y-114427000D01*
X88730271Y-114427000D01*
X88749135Y-114606475D01*
X88804901Y-114778107D01*
X88895133Y-114934393D01*
X89015887Y-115068504D01*
X89161885Y-115174578D01*
X89167913Y-115177262D01*
X89167915Y-115177263D01*
X89320717Y-115245295D01*
X89326748Y-115247980D01*
X89415008Y-115266740D01*
X89496811Y-115284128D01*
X89496815Y-115284128D01*
X89503268Y-115285500D01*
X89683732Y-115285500D01*
X89690185Y-115284128D01*
X89690189Y-115284128D01*
X89771992Y-115266740D01*
X89860252Y-115247980D01*
X89866283Y-115245295D01*
X90019085Y-115177263D01*
X90019087Y-115177262D01*
X90025115Y-115174578D01*
X90171113Y-115068504D01*
X90291867Y-114934393D01*
X90382099Y-114778107D01*
X90437865Y-114606475D01*
X90456729Y-114427000D01*
X90437865Y-114247525D01*
X90382099Y-114075893D01*
X90291867Y-113919607D01*
X90171113Y-113785496D01*
X90025115Y-113679422D01*
X90019087Y-113676738D01*
X90019085Y-113676737D01*
X89866283Y-113608705D01*
X89866281Y-113608705D01*
X89860252Y-113606020D01*
X89771992Y-113587260D01*
X89690189Y-113569872D01*
X89690185Y-113569872D01*
X89683732Y-113568500D01*
X89503268Y-113568500D01*
X89496815Y-113569872D01*
X89496811Y-113569872D01*
X89415008Y-113587260D01*
X89326748Y-113606020D01*
X89320719Y-113608704D01*
X89320717Y-113608705D01*
X89167916Y-113676737D01*
X89167914Y-113676738D01*
X89161886Y-113679422D01*
X89156545Y-113683302D01*
X89156544Y-113683303D01*
X89021231Y-113781613D01*
X89021229Y-113781615D01*
X89015887Y-113785496D01*
X88895133Y-113919607D01*
X88804901Y-114075893D01*
X88749135Y-114247525D01*
X88730271Y-114427000D01*
X37508500Y-114427000D01*
X37508500Y-107442000D01*
X134214496Y-107442000D01*
X134234458Y-107631928D01*
X134293473Y-107813556D01*
X134388960Y-107978944D01*
X134516747Y-108120866D01*
X134671248Y-108233118D01*
X134677276Y-108235802D01*
X134677278Y-108235803D01*
X134822591Y-108300500D01*
X134845712Y-108310794D01*
X134939113Y-108330647D01*
X135026056Y-108349128D01*
X135026061Y-108349128D01*
X135032513Y-108350500D01*
X135223487Y-108350500D01*
X135229939Y-108349128D01*
X135229944Y-108349128D01*
X135316887Y-108330647D01*
X135410288Y-108310794D01*
X135433409Y-108300500D01*
X135578722Y-108235803D01*
X135578724Y-108235802D01*
X135584752Y-108233118D01*
X135739253Y-108120866D01*
X135867040Y-107978944D01*
X135962527Y-107813556D01*
X136021542Y-107631928D01*
X136041504Y-107442000D01*
X156362771Y-107442000D01*
X156381635Y-107621475D01*
X156437401Y-107793107D01*
X156440704Y-107798829D01*
X156440705Y-107798830D01*
X156449207Y-107813556D01*
X156527633Y-107949393D01*
X156648387Y-108083504D01*
X156653729Y-108087385D01*
X156653731Y-108087387D01*
X156789043Y-108185697D01*
X156794385Y-108189578D01*
X156800413Y-108192262D01*
X156800415Y-108192263D01*
X156953217Y-108260295D01*
X156959248Y-108262980D01*
X157047508Y-108281740D01*
X157129311Y-108299128D01*
X157129315Y-108299128D01*
X157135768Y-108300500D01*
X157316232Y-108300500D01*
X157322685Y-108299128D01*
X157322689Y-108299128D01*
X157404492Y-108281740D01*
X157492752Y-108262980D01*
X157498783Y-108260295D01*
X157651585Y-108192263D01*
X157651587Y-108192262D01*
X157657615Y-108189578D01*
X157662957Y-108185697D01*
X157798269Y-108087387D01*
X157798271Y-108087385D01*
X157803613Y-108083504D01*
X157924367Y-107949393D01*
X158002793Y-107813556D01*
X158011295Y-107798830D01*
X158011296Y-107798829D01*
X158014599Y-107793107D01*
X158070365Y-107621475D01*
X158089229Y-107442000D01*
X158070365Y-107262525D01*
X158014599Y-107090893D01*
X158006422Y-107076729D01*
X157927668Y-106940325D01*
X157924367Y-106934607D01*
X157803613Y-106800496D01*
X157758949Y-106768045D01*
X157662957Y-106698303D01*
X157662956Y-106698302D01*
X157657615Y-106694422D01*
X157651587Y-106691738D01*
X157651585Y-106691737D01*
X157498783Y-106623705D01*
X157498781Y-106623705D01*
X157492752Y-106621020D01*
X157387005Y-106598543D01*
X157322689Y-106584872D01*
X157322685Y-106584872D01*
X157316232Y-106583500D01*
X157135768Y-106583500D01*
X157129315Y-106584872D01*
X157129311Y-106584872D01*
X157064995Y-106598543D01*
X156959248Y-106621020D01*
X156953219Y-106623704D01*
X156953217Y-106623705D01*
X156800416Y-106691737D01*
X156800414Y-106691738D01*
X156794386Y-106694422D01*
X156789045Y-106698302D01*
X156789044Y-106698303D01*
X156653731Y-106796613D01*
X156653729Y-106796615D01*
X156648387Y-106800496D01*
X156527633Y-106934607D01*
X156524332Y-106940325D01*
X156445579Y-107076729D01*
X156437401Y-107090893D01*
X156381635Y-107262525D01*
X156362771Y-107442000D01*
X136041504Y-107442000D01*
X136021542Y-107252072D01*
X135962527Y-107070444D01*
X135867040Y-106905056D01*
X135739253Y-106763134D01*
X135584752Y-106650882D01*
X135578724Y-106648198D01*
X135578722Y-106648197D01*
X135416319Y-106575891D01*
X135416318Y-106575891D01*
X135410288Y-106573206D01*
X135316887Y-106553353D01*
X135229944Y-106534872D01*
X135229939Y-106534872D01*
X135223487Y-106533500D01*
X135032513Y-106533500D01*
X135026061Y-106534872D01*
X135026056Y-106534872D01*
X134939112Y-106553353D01*
X134845712Y-106573206D01*
X134839682Y-106575891D01*
X134839681Y-106575891D01*
X134677278Y-106648197D01*
X134677276Y-106648198D01*
X134671248Y-106650882D01*
X134516747Y-106763134D01*
X134388960Y-106905056D01*
X134293473Y-107070444D01*
X134234458Y-107252072D01*
X134214496Y-107442000D01*
X37508500Y-107442000D01*
X37508500Y-105410000D01*
X42424693Y-105410000D01*
X42443885Y-105629371D01*
X42500880Y-105842076D01*
X42503205Y-105847061D01*
X42591618Y-106036666D01*
X42591621Y-106036671D01*
X42593944Y-106041653D01*
X42720251Y-106222038D01*
X42875962Y-106377749D01*
X43056346Y-106504056D01*
X43255924Y-106597120D01*
X43468629Y-106654115D01*
X43688000Y-106673307D01*
X43907371Y-106654115D01*
X44120076Y-106597120D01*
X44319654Y-106504056D01*
X44500038Y-106377749D01*
X44655749Y-106222038D01*
X44782056Y-106041653D01*
X44784379Y-106036671D01*
X44784382Y-106036666D01*
X44872795Y-105847061D01*
X44875120Y-105842076D01*
X44932115Y-105629371D01*
X44951307Y-105410000D01*
X68840693Y-105410000D01*
X68859885Y-105629371D01*
X68916880Y-105842076D01*
X68919205Y-105847061D01*
X69007618Y-106036666D01*
X69007621Y-106036671D01*
X69009944Y-106041653D01*
X69136251Y-106222038D01*
X69291962Y-106377749D01*
X69472346Y-106504056D01*
X69671924Y-106597120D01*
X69884629Y-106654115D01*
X70104000Y-106673307D01*
X70323371Y-106654115D01*
X70536076Y-106597120D01*
X70735654Y-106504056D01*
X70916038Y-106377749D01*
X71071749Y-106222038D01*
X71198056Y-106041653D01*
X71200379Y-106036671D01*
X71200382Y-106036666D01*
X71288795Y-105847061D01*
X71291120Y-105842076D01*
X71348115Y-105629371D01*
X71367307Y-105410000D01*
X71348115Y-105190629D01*
X71291120Y-104977924D01*
X71247585Y-104884562D01*
X71200382Y-104783334D01*
X71200379Y-104783329D01*
X71198056Y-104778347D01*
X71071749Y-104597962D01*
X70916038Y-104442251D01*
X70735654Y-104315944D01*
X70536076Y-104222880D01*
X70323371Y-104165885D01*
X70104000Y-104146693D01*
X69884629Y-104165885D01*
X69671924Y-104222880D01*
X69578562Y-104266415D01*
X69477334Y-104313618D01*
X69477329Y-104313621D01*
X69472347Y-104315944D01*
X69467840Y-104319100D01*
X69467838Y-104319101D01*
X69296473Y-104439092D01*
X69296470Y-104439094D01*
X69291962Y-104442251D01*
X69136251Y-104597962D01*
X69009944Y-104778347D01*
X69007621Y-104783329D01*
X69007618Y-104783334D01*
X68960415Y-104884562D01*
X68916880Y-104977924D01*
X68859885Y-105190629D01*
X68840693Y-105410000D01*
X44951307Y-105410000D01*
X44932115Y-105190629D01*
X44875120Y-104977924D01*
X44831585Y-104884562D01*
X44784382Y-104783334D01*
X44784379Y-104783329D01*
X44782056Y-104778347D01*
X44655749Y-104597962D01*
X44500038Y-104442251D01*
X44319654Y-104315944D01*
X44120076Y-104222880D01*
X43907371Y-104165885D01*
X43688000Y-104146693D01*
X43468629Y-104165885D01*
X43255924Y-104222880D01*
X43162562Y-104266415D01*
X43061334Y-104313618D01*
X43061329Y-104313621D01*
X43056347Y-104315944D01*
X43051840Y-104319100D01*
X43051838Y-104319101D01*
X42880473Y-104439092D01*
X42880470Y-104439094D01*
X42875962Y-104442251D01*
X42720251Y-104597962D01*
X42593944Y-104778347D01*
X42591621Y-104783329D01*
X42591618Y-104783334D01*
X42544415Y-104884562D01*
X42500880Y-104977924D01*
X42443885Y-105190629D01*
X42424693Y-105410000D01*
X37508500Y-105410000D01*
X37508500Y-101854000D01*
X96418771Y-101854000D01*
X96437635Y-102033475D01*
X96493401Y-102205107D01*
X96583633Y-102361393D01*
X96704387Y-102495504D01*
X96850385Y-102601578D01*
X96856413Y-102604262D01*
X96856415Y-102604263D01*
X97009217Y-102672295D01*
X97015248Y-102674980D01*
X97103508Y-102693740D01*
X97185311Y-102711128D01*
X97185315Y-102711128D01*
X97191768Y-102712500D01*
X97372232Y-102712500D01*
X97378685Y-102711128D01*
X97378689Y-102711128D01*
X97460492Y-102693740D01*
X97548752Y-102674980D01*
X97554783Y-102672295D01*
X97707585Y-102604263D01*
X97707587Y-102604262D01*
X97713615Y-102601578D01*
X97859613Y-102495504D01*
X97980367Y-102361393D01*
X98070599Y-102205107D01*
X98126365Y-102033475D01*
X98145229Y-101854000D01*
X102006771Y-101854000D01*
X102025635Y-102033475D01*
X102081401Y-102205107D01*
X102171633Y-102361393D01*
X102292387Y-102495504D01*
X102438385Y-102601578D01*
X102444413Y-102604262D01*
X102444415Y-102604263D01*
X102597217Y-102672295D01*
X102603248Y-102674980D01*
X102691508Y-102693740D01*
X102773311Y-102711128D01*
X102773315Y-102711128D01*
X102779768Y-102712500D01*
X102960232Y-102712500D01*
X102966685Y-102711128D01*
X102966689Y-102711128D01*
X103048492Y-102693740D01*
X103136752Y-102674980D01*
X103142783Y-102672295D01*
X103295585Y-102604263D01*
X103295587Y-102604262D01*
X103301615Y-102601578D01*
X103447613Y-102495504D01*
X103568367Y-102361393D01*
X103658599Y-102205107D01*
X103714365Y-102033475D01*
X103733229Y-101854000D01*
X103714365Y-101674525D01*
X103658599Y-101502893D01*
X103568367Y-101346607D01*
X103447613Y-101212496D01*
X103301615Y-101106422D01*
X103295587Y-101103738D01*
X103295585Y-101103737D01*
X103142783Y-101035705D01*
X103142781Y-101035705D01*
X103136752Y-101033020D01*
X103048492Y-101014260D01*
X102966689Y-100996872D01*
X102966685Y-100996872D01*
X102960232Y-100995500D01*
X102779768Y-100995500D01*
X102773315Y-100996872D01*
X102773311Y-100996872D01*
X102691508Y-101014260D01*
X102603248Y-101033020D01*
X102597219Y-101035704D01*
X102597217Y-101035705D01*
X102444416Y-101103737D01*
X102444414Y-101103738D01*
X102438386Y-101106422D01*
X102433045Y-101110302D01*
X102433044Y-101110303D01*
X102297731Y-101208613D01*
X102297729Y-101208615D01*
X102292387Y-101212496D01*
X102171633Y-101346607D01*
X102081401Y-101502893D01*
X102025635Y-101674525D01*
X102006771Y-101854000D01*
X98145229Y-101854000D01*
X98126365Y-101674525D01*
X98070599Y-101502893D01*
X97980367Y-101346607D01*
X97859613Y-101212496D01*
X97713615Y-101106422D01*
X97707587Y-101103738D01*
X97707585Y-101103737D01*
X97554783Y-101035705D01*
X97554781Y-101035705D01*
X97548752Y-101033020D01*
X97460492Y-101014260D01*
X97378689Y-100996872D01*
X97378685Y-100996872D01*
X97372232Y-100995500D01*
X97191768Y-100995500D01*
X97185315Y-100996872D01*
X97185311Y-100996872D01*
X97103508Y-101014260D01*
X97015248Y-101033020D01*
X97009219Y-101035704D01*
X97009217Y-101035705D01*
X96856416Y-101103737D01*
X96856414Y-101103738D01*
X96850386Y-101106422D01*
X96845045Y-101110302D01*
X96845044Y-101110303D01*
X96709731Y-101208613D01*
X96709729Y-101208615D01*
X96704387Y-101212496D01*
X96583633Y-101346607D01*
X96493401Y-101502893D01*
X96437635Y-101674525D01*
X96418771Y-101854000D01*
X37508500Y-101854000D01*
X37508500Y-91702089D01*
X45670066Y-91702089D01*
X45706343Y-91939163D01*
X45780854Y-92167129D01*
X45891597Y-92379864D01*
X45894700Y-92383997D01*
X45894702Y-92384000D01*
X45978874Y-92496106D01*
X46035598Y-92571655D01*
X46039336Y-92575227D01*
X46174639Y-92704525D01*
X46208990Y-92737352D01*
X46407117Y-92872505D01*
X46517824Y-92923894D01*
X46590599Y-92957675D01*
X46624656Y-92973484D01*
X46855768Y-93037576D01*
X46959479Y-93048660D01*
X47048222Y-93058144D01*
X47048230Y-93058144D01*
X47051557Y-93058500D01*
X47190803Y-93058500D01*
X47193376Y-93058288D01*
X47193387Y-93058288D01*
X47363876Y-93044271D01*
X47363882Y-93044270D01*
X47369027Y-93043847D01*
X47485331Y-93014634D01*
X47596625Y-92986679D01*
X47596629Y-92986678D01*
X47601636Y-92985420D01*
X47606366Y-92983364D01*
X47606373Y-92983361D01*
X47816841Y-92891847D01*
X47816844Y-92891845D01*
X47821578Y-92889787D01*
X47825912Y-92886983D01*
X47825916Y-92886981D01*
X48018604Y-92762325D01*
X48018607Y-92762323D01*
X48022947Y-92759515D01*
X48044101Y-92740267D01*
X48196513Y-92601582D01*
X48196514Y-92601580D01*
X48200335Y-92598104D01*
X48203534Y-92594053D01*
X48203538Y-92594049D01*
X48345774Y-92413946D01*
X48348979Y-92409888D01*
X48464887Y-92199922D01*
X48544945Y-91973845D01*
X48549441Y-91948607D01*
X48586098Y-91742816D01*
X48586099Y-91742810D01*
X48587004Y-91737727D01*
X48587439Y-91702089D01*
X58410066Y-91702089D01*
X58446343Y-91939163D01*
X58520854Y-92167129D01*
X58631597Y-92379864D01*
X58634700Y-92383997D01*
X58634702Y-92384000D01*
X58718874Y-92496106D01*
X58775598Y-92571655D01*
X58779336Y-92575227D01*
X58914639Y-92704525D01*
X58948990Y-92737352D01*
X59147117Y-92872505D01*
X59257824Y-92923894D01*
X59330599Y-92957675D01*
X59364656Y-92973484D01*
X59595768Y-93037576D01*
X59699479Y-93048660D01*
X59788222Y-93058144D01*
X59788230Y-93058144D01*
X59791557Y-93058500D01*
X59930803Y-93058500D01*
X59933376Y-93058288D01*
X59933387Y-93058288D01*
X60103876Y-93044271D01*
X60103882Y-93044270D01*
X60109027Y-93043847D01*
X60225331Y-93014634D01*
X60336625Y-92986679D01*
X60336629Y-92986678D01*
X60341636Y-92985420D01*
X60346366Y-92983364D01*
X60346373Y-92983361D01*
X60556841Y-92891847D01*
X60556844Y-92891845D01*
X60561578Y-92889787D01*
X60565912Y-92886983D01*
X60565916Y-92886981D01*
X60758604Y-92762325D01*
X60758607Y-92762323D01*
X60762947Y-92759515D01*
X60784101Y-92740267D01*
X60936513Y-92601582D01*
X60936514Y-92601580D01*
X60940335Y-92598104D01*
X60943534Y-92594053D01*
X60943538Y-92594049D01*
X61052562Y-92456000D01*
X69875771Y-92456000D01*
X69876461Y-92462565D01*
X69888303Y-92575227D01*
X69894635Y-92635475D01*
X69950401Y-92807107D01*
X70040633Y-92963393D01*
X70045051Y-92968300D01*
X70045052Y-92968301D01*
X70107921Y-93038124D01*
X70161387Y-93097504D01*
X70307385Y-93203578D01*
X70313413Y-93206262D01*
X70313415Y-93206263D01*
X70466217Y-93274295D01*
X70472248Y-93276980D01*
X70560508Y-93295740D01*
X70642311Y-93313128D01*
X70642315Y-93313128D01*
X70648768Y-93314500D01*
X70829232Y-93314500D01*
X70835685Y-93313128D01*
X70835689Y-93313128D01*
X70917492Y-93295740D01*
X71005752Y-93276980D01*
X71011783Y-93274295D01*
X71164585Y-93206263D01*
X71164587Y-93206262D01*
X71170615Y-93203578D01*
X71316613Y-93097504D01*
X71370079Y-93038124D01*
X71432948Y-92968301D01*
X71432949Y-92968300D01*
X71437367Y-92963393D01*
X71527599Y-92807107D01*
X71583365Y-92635475D01*
X71589698Y-92575227D01*
X71601539Y-92462565D01*
X71602229Y-92456000D01*
X73939771Y-92456000D01*
X73940461Y-92462565D01*
X73952303Y-92575227D01*
X73958635Y-92635475D01*
X74014401Y-92807107D01*
X74104633Y-92963393D01*
X74109051Y-92968300D01*
X74109052Y-92968301D01*
X74171921Y-93038124D01*
X74225387Y-93097504D01*
X74371385Y-93203578D01*
X74377413Y-93206262D01*
X74377415Y-93206263D01*
X74530217Y-93274295D01*
X74536248Y-93276980D01*
X74624508Y-93295740D01*
X74706311Y-93313128D01*
X74706315Y-93313128D01*
X74712768Y-93314500D01*
X74893232Y-93314500D01*
X74899685Y-93313128D01*
X74899689Y-93313128D01*
X74981492Y-93295740D01*
X75069752Y-93276980D01*
X75075783Y-93274295D01*
X75228585Y-93206263D01*
X75228587Y-93206262D01*
X75234615Y-93203578D01*
X75380613Y-93097504D01*
X75434079Y-93038124D01*
X75496948Y-92968301D01*
X75496949Y-92968300D01*
X75501367Y-92963393D01*
X75591599Y-92807107D01*
X75623151Y-92710000D01*
X83191693Y-92710000D01*
X83210885Y-92929371D01*
X83267880Y-93142076D01*
X83270205Y-93147061D01*
X83358618Y-93336666D01*
X83358621Y-93336671D01*
X83360944Y-93341653D01*
X83487251Y-93522038D01*
X83642962Y-93677749D01*
X83823346Y-93804056D01*
X84022924Y-93897120D01*
X84235629Y-93954115D01*
X84455000Y-93973307D01*
X84674371Y-93954115D01*
X84887076Y-93897120D01*
X85086654Y-93804056D01*
X85267038Y-93677749D01*
X85422749Y-93522038D01*
X85549056Y-93341653D01*
X85551379Y-93336671D01*
X85551382Y-93336666D01*
X85639795Y-93147061D01*
X85642120Y-93142076D01*
X85699115Y-92929371D01*
X85718307Y-92710000D01*
X114814693Y-92710000D01*
X114833885Y-92929371D01*
X114890880Y-93142076D01*
X114893205Y-93147061D01*
X114981618Y-93336666D01*
X114981621Y-93336671D01*
X114983944Y-93341653D01*
X115110251Y-93522038D01*
X115265962Y-93677749D01*
X115446346Y-93804056D01*
X115645924Y-93897120D01*
X115858629Y-93954115D01*
X116078000Y-93973307D01*
X116297371Y-93954115D01*
X116510076Y-93897120D01*
X116709654Y-93804056D01*
X116890038Y-93677749D01*
X117045749Y-93522038D01*
X117172056Y-93341653D01*
X117174379Y-93336671D01*
X117174382Y-93336666D01*
X117262795Y-93147061D01*
X117265120Y-93142076D01*
X117322115Y-92929371D01*
X117341307Y-92710000D01*
X117322115Y-92490629D01*
X117265120Y-92277924D01*
X117211162Y-92162211D01*
X117174382Y-92083334D01*
X117174379Y-92083329D01*
X117172056Y-92078347D01*
X117168899Y-92073838D01*
X117048908Y-91902473D01*
X117048906Y-91902470D01*
X117045749Y-91897962D01*
X116890038Y-91742251D01*
X116883578Y-91737727D01*
X116832681Y-91702089D01*
X138670066Y-91702089D01*
X138706343Y-91939163D01*
X138780854Y-92167129D01*
X138891597Y-92379864D01*
X138894700Y-92383997D01*
X138894702Y-92384000D01*
X138978874Y-92496106D01*
X139035598Y-92571655D01*
X139039336Y-92575227D01*
X139174639Y-92704525D01*
X139208990Y-92737352D01*
X139407117Y-92872505D01*
X139517824Y-92923894D01*
X139590599Y-92957675D01*
X139624656Y-92973484D01*
X139855768Y-93037576D01*
X139959479Y-93048660D01*
X140048222Y-93058144D01*
X140048230Y-93058144D01*
X140051557Y-93058500D01*
X140190803Y-93058500D01*
X140193376Y-93058288D01*
X140193387Y-93058288D01*
X140363876Y-93044271D01*
X140363882Y-93044270D01*
X140369027Y-93043847D01*
X140485331Y-93014634D01*
X140596625Y-92986679D01*
X140596629Y-92986678D01*
X140601636Y-92985420D01*
X140606366Y-92983364D01*
X140606373Y-92983361D01*
X140816841Y-92891847D01*
X140816844Y-92891845D01*
X140821578Y-92889787D01*
X140825912Y-92886983D01*
X140825916Y-92886981D01*
X141018604Y-92762325D01*
X141018607Y-92762323D01*
X141022947Y-92759515D01*
X141044101Y-92740267D01*
X141196513Y-92601582D01*
X141196514Y-92601580D01*
X141200335Y-92598104D01*
X141203534Y-92594053D01*
X141203538Y-92594049D01*
X141345774Y-92413946D01*
X141348979Y-92409888D01*
X141464887Y-92199922D01*
X141544945Y-91973845D01*
X141549441Y-91948607D01*
X141586098Y-91742816D01*
X141586099Y-91742810D01*
X141587004Y-91737727D01*
X141587439Y-91702089D01*
X151410066Y-91702089D01*
X151446343Y-91939163D01*
X151520854Y-92167129D01*
X151631597Y-92379864D01*
X151634700Y-92383997D01*
X151634702Y-92384000D01*
X151718874Y-92496106D01*
X151775598Y-92571655D01*
X151779336Y-92575227D01*
X151914639Y-92704525D01*
X151948990Y-92737352D01*
X152147117Y-92872505D01*
X152257824Y-92923894D01*
X152330599Y-92957675D01*
X152364656Y-92973484D01*
X152595768Y-93037576D01*
X152699479Y-93048660D01*
X152788222Y-93058144D01*
X152788230Y-93058144D01*
X152791557Y-93058500D01*
X152930803Y-93058500D01*
X152933376Y-93058288D01*
X152933387Y-93058288D01*
X153103876Y-93044271D01*
X153103882Y-93044270D01*
X153109027Y-93043847D01*
X153225331Y-93014634D01*
X153336625Y-92986679D01*
X153336629Y-92986678D01*
X153341636Y-92985420D01*
X153346366Y-92983364D01*
X153346373Y-92983361D01*
X153556841Y-92891847D01*
X153556844Y-92891845D01*
X153561578Y-92889787D01*
X153565912Y-92886983D01*
X153565916Y-92886981D01*
X153758604Y-92762325D01*
X153758607Y-92762323D01*
X153762947Y-92759515D01*
X153784101Y-92740267D01*
X153936513Y-92601582D01*
X153936514Y-92601580D01*
X153940335Y-92598104D01*
X153943534Y-92594053D01*
X153943538Y-92594049D01*
X154085774Y-92413946D01*
X154088979Y-92409888D01*
X154204887Y-92199922D01*
X154284945Y-91973845D01*
X154289441Y-91948607D01*
X154326098Y-91742816D01*
X154326099Y-91742810D01*
X154327004Y-91737727D01*
X154328520Y-91613618D01*
X154329871Y-91503081D01*
X154329871Y-91503079D01*
X154329934Y-91497911D01*
X154293657Y-91260837D01*
X154219146Y-91032871D01*
X154127112Y-90856076D01*
X154110792Y-90824725D01*
X154110791Y-90824724D01*
X154108403Y-90820136D01*
X154085861Y-90790112D01*
X153967507Y-90632480D01*
X153967505Y-90632477D01*
X153964402Y-90628345D01*
X153791010Y-90462648D01*
X153592883Y-90327495D01*
X153375344Y-90226516D01*
X153144232Y-90162424D01*
X153040521Y-90151340D01*
X152951778Y-90141856D01*
X152951770Y-90141856D01*
X152948443Y-90141500D01*
X152809197Y-90141500D01*
X152806624Y-90141712D01*
X152806613Y-90141712D01*
X152636124Y-90155729D01*
X152636118Y-90155730D01*
X152630973Y-90156153D01*
X152514669Y-90185366D01*
X152403375Y-90213321D01*
X152403371Y-90213322D01*
X152398364Y-90214580D01*
X152393634Y-90216636D01*
X152393627Y-90216639D01*
X152183159Y-90308153D01*
X152183156Y-90308155D01*
X152178422Y-90310213D01*
X152174088Y-90313017D01*
X152174084Y-90313019D01*
X151981396Y-90437675D01*
X151981393Y-90437677D01*
X151977053Y-90440485D01*
X151973230Y-90443964D01*
X151973227Y-90443966D01*
X151803487Y-90598418D01*
X151799665Y-90601896D01*
X151796466Y-90605947D01*
X151796462Y-90605951D01*
X151766910Y-90643371D01*
X151651021Y-90790112D01*
X151535113Y-91000078D01*
X151455055Y-91226155D01*
X151454148Y-91231248D01*
X151454147Y-91231251D01*
X151415686Y-91447172D01*
X151412996Y-91462273D01*
X151412933Y-91467437D01*
X151410247Y-91687307D01*
X151410066Y-91702089D01*
X141587439Y-91702089D01*
X141588520Y-91613618D01*
X141589871Y-91503081D01*
X141589871Y-91503079D01*
X141589934Y-91497911D01*
X141553657Y-91260837D01*
X141479146Y-91032871D01*
X141387112Y-90856076D01*
X141370792Y-90824725D01*
X141370791Y-90824724D01*
X141368403Y-90820136D01*
X141345861Y-90790112D01*
X141227507Y-90632480D01*
X141227505Y-90632477D01*
X141224402Y-90628345D01*
X141051010Y-90462648D01*
X140852883Y-90327495D01*
X140635344Y-90226516D01*
X140404232Y-90162424D01*
X140300521Y-90151340D01*
X140211778Y-90141856D01*
X140211770Y-90141856D01*
X140208443Y-90141500D01*
X140069197Y-90141500D01*
X140066624Y-90141712D01*
X140066613Y-90141712D01*
X139896124Y-90155729D01*
X139896118Y-90155730D01*
X139890973Y-90156153D01*
X139774669Y-90185366D01*
X139663375Y-90213321D01*
X139663371Y-90213322D01*
X139658364Y-90214580D01*
X139653634Y-90216636D01*
X139653627Y-90216639D01*
X139443159Y-90308153D01*
X139443156Y-90308155D01*
X139438422Y-90310213D01*
X139434088Y-90313017D01*
X139434084Y-90313019D01*
X139241396Y-90437675D01*
X139241393Y-90437677D01*
X139237053Y-90440485D01*
X139233230Y-90443964D01*
X139233227Y-90443966D01*
X139063487Y-90598418D01*
X139059665Y-90601896D01*
X139056466Y-90605947D01*
X139056462Y-90605951D01*
X139026910Y-90643371D01*
X138911021Y-90790112D01*
X138795113Y-91000078D01*
X138715055Y-91226155D01*
X138714148Y-91231248D01*
X138714147Y-91231251D01*
X138675686Y-91447172D01*
X138672996Y-91462273D01*
X138672933Y-91467437D01*
X138670247Y-91687307D01*
X138670066Y-91702089D01*
X116832681Y-91702089D01*
X116810759Y-91686739D01*
X116709654Y-91615944D01*
X116510076Y-91522880D01*
X116297371Y-91465885D01*
X116078000Y-91446693D01*
X115858629Y-91465885D01*
X115645924Y-91522880D01*
X115552562Y-91566415D01*
X115451334Y-91613618D01*
X115451329Y-91613621D01*
X115446347Y-91615944D01*
X115441840Y-91619100D01*
X115441838Y-91619101D01*
X115270473Y-91739092D01*
X115270470Y-91739094D01*
X115265962Y-91742251D01*
X115110251Y-91897962D01*
X115107094Y-91902470D01*
X115107092Y-91902473D01*
X114987101Y-92073838D01*
X114983944Y-92078347D01*
X114981621Y-92083329D01*
X114981618Y-92083334D01*
X114944838Y-92162211D01*
X114890880Y-92277924D01*
X114833885Y-92490629D01*
X114814693Y-92710000D01*
X85718307Y-92710000D01*
X85699115Y-92490629D01*
X85642120Y-92277924D01*
X85588162Y-92162211D01*
X85551382Y-92083334D01*
X85551379Y-92083329D01*
X85549056Y-92078347D01*
X85545899Y-92073838D01*
X85425908Y-91902473D01*
X85425906Y-91902470D01*
X85422749Y-91897962D01*
X85267038Y-91742251D01*
X85260578Y-91737727D01*
X85187759Y-91686739D01*
X85086654Y-91615944D01*
X84887076Y-91522880D01*
X84674371Y-91465885D01*
X84455000Y-91446693D01*
X84235629Y-91465885D01*
X84022924Y-91522880D01*
X83929562Y-91566415D01*
X83828334Y-91613618D01*
X83828329Y-91613621D01*
X83823347Y-91615944D01*
X83818840Y-91619100D01*
X83818838Y-91619101D01*
X83647473Y-91739092D01*
X83647470Y-91739094D01*
X83642962Y-91742251D01*
X83487251Y-91897962D01*
X83484094Y-91902470D01*
X83484092Y-91902473D01*
X83364101Y-92073838D01*
X83360944Y-92078347D01*
X83358621Y-92083329D01*
X83358618Y-92083334D01*
X83321838Y-92162211D01*
X83267880Y-92277924D01*
X83210885Y-92490629D01*
X83191693Y-92710000D01*
X75623151Y-92710000D01*
X75647365Y-92635475D01*
X75653698Y-92575227D01*
X75665539Y-92462565D01*
X75666229Y-92456000D01*
X75647365Y-92276525D01*
X75591599Y-92104893D01*
X75501367Y-91948607D01*
X75380613Y-91814496D01*
X75286541Y-91746148D01*
X75239957Y-91712303D01*
X75239956Y-91712302D01*
X75234615Y-91708422D01*
X75228587Y-91705738D01*
X75228585Y-91705737D01*
X75075783Y-91637705D01*
X75075781Y-91637705D01*
X75069752Y-91635020D01*
X74969067Y-91613619D01*
X74899689Y-91598872D01*
X74899685Y-91598872D01*
X74893232Y-91597500D01*
X74712768Y-91597500D01*
X74706315Y-91598872D01*
X74706311Y-91598872D01*
X74636933Y-91613619D01*
X74536248Y-91635020D01*
X74530219Y-91637704D01*
X74530217Y-91637705D01*
X74377416Y-91705737D01*
X74377414Y-91705738D01*
X74371386Y-91708422D01*
X74366045Y-91712302D01*
X74366044Y-91712303D01*
X74230731Y-91810613D01*
X74230729Y-91810615D01*
X74225387Y-91814496D01*
X74104633Y-91948607D01*
X74014401Y-92104893D01*
X73958635Y-92276525D01*
X73939771Y-92456000D01*
X71602229Y-92456000D01*
X71583365Y-92276525D01*
X71527599Y-92104893D01*
X71437367Y-91948607D01*
X71316613Y-91814496D01*
X71222541Y-91746148D01*
X71175957Y-91712303D01*
X71175956Y-91712302D01*
X71170615Y-91708422D01*
X71164587Y-91705738D01*
X71164585Y-91705737D01*
X71011783Y-91637705D01*
X71011781Y-91637705D01*
X71005752Y-91635020D01*
X70905067Y-91613619D01*
X70835689Y-91598872D01*
X70835685Y-91598872D01*
X70829232Y-91597500D01*
X70648768Y-91597500D01*
X70642315Y-91598872D01*
X70642311Y-91598872D01*
X70572933Y-91613619D01*
X70472248Y-91635020D01*
X70466219Y-91637704D01*
X70466217Y-91637705D01*
X70313416Y-91705737D01*
X70313414Y-91705738D01*
X70307386Y-91708422D01*
X70302045Y-91712302D01*
X70302044Y-91712303D01*
X70166731Y-91810613D01*
X70166729Y-91810615D01*
X70161387Y-91814496D01*
X70040633Y-91948607D01*
X69950401Y-92104893D01*
X69894635Y-92276525D01*
X69875771Y-92456000D01*
X61052562Y-92456000D01*
X61085774Y-92413946D01*
X61088979Y-92409888D01*
X61204887Y-92199922D01*
X61284945Y-91973845D01*
X61289441Y-91948607D01*
X61326098Y-91742816D01*
X61326099Y-91742810D01*
X61327004Y-91737727D01*
X61328520Y-91613618D01*
X61329871Y-91503081D01*
X61329871Y-91503079D01*
X61329934Y-91497911D01*
X61293657Y-91260837D01*
X61219146Y-91032871D01*
X61127112Y-90856076D01*
X61110792Y-90824725D01*
X61110791Y-90824724D01*
X61108403Y-90820136D01*
X61085861Y-90790112D01*
X60967507Y-90632480D01*
X60967505Y-90632477D01*
X60964402Y-90628345D01*
X60791010Y-90462648D01*
X60734354Y-90424000D01*
X96526693Y-90424000D01*
X96545885Y-90643371D01*
X96602880Y-90856076D01*
X96605205Y-90861061D01*
X96693618Y-91050666D01*
X96693621Y-91050671D01*
X96695944Y-91055653D01*
X96699100Y-91060160D01*
X96699101Y-91060162D01*
X96815331Y-91226155D01*
X96822251Y-91236038D01*
X96977962Y-91391749D01*
X97158346Y-91518056D01*
X97357924Y-91611120D01*
X97570629Y-91668115D01*
X97790000Y-91687307D01*
X98009371Y-91668115D01*
X98222076Y-91611120D01*
X98421654Y-91518056D01*
X98602038Y-91391749D01*
X98757749Y-91236038D01*
X98764670Y-91226155D01*
X98880899Y-91060162D01*
X98880900Y-91060160D01*
X98884056Y-91055653D01*
X98886379Y-91050671D01*
X98886382Y-91050666D01*
X98974795Y-90861061D01*
X98977120Y-90856076D01*
X99034115Y-90643371D01*
X99053307Y-90424000D01*
X99034115Y-90204629D01*
X98977120Y-89991924D01*
X98933585Y-89898562D01*
X98886382Y-89797334D01*
X98886379Y-89797329D01*
X98884056Y-89792347D01*
X98860356Y-89758500D01*
X98760908Y-89616473D01*
X98760906Y-89616470D01*
X98757749Y-89611962D01*
X98602038Y-89456251D01*
X98542418Y-89414504D01*
X98522759Y-89400739D01*
X98421654Y-89329944D01*
X98222076Y-89236880D01*
X98009371Y-89179885D01*
X97790000Y-89160693D01*
X97570629Y-89179885D01*
X97357924Y-89236880D01*
X97276872Y-89274675D01*
X97163334Y-89327618D01*
X97163329Y-89327621D01*
X97158347Y-89329944D01*
X97153840Y-89333100D01*
X97153838Y-89333101D01*
X96982473Y-89453092D01*
X96982470Y-89453094D01*
X96977962Y-89456251D01*
X96822251Y-89611962D01*
X96819094Y-89616470D01*
X96819092Y-89616473D01*
X96719644Y-89758500D01*
X96695944Y-89792347D01*
X96693621Y-89797329D01*
X96693618Y-89797334D01*
X96646415Y-89898562D01*
X96602880Y-89991924D01*
X96545885Y-90204629D01*
X96526693Y-90424000D01*
X60734354Y-90424000D01*
X60592883Y-90327495D01*
X60375344Y-90226516D01*
X60144232Y-90162424D01*
X60040521Y-90151340D01*
X59951778Y-90141856D01*
X59951770Y-90141856D01*
X59948443Y-90141500D01*
X59809197Y-90141500D01*
X59806624Y-90141712D01*
X59806613Y-90141712D01*
X59636124Y-90155729D01*
X59636118Y-90155730D01*
X59630973Y-90156153D01*
X59514669Y-90185366D01*
X59403375Y-90213321D01*
X59403371Y-90213322D01*
X59398364Y-90214580D01*
X59393634Y-90216636D01*
X59393627Y-90216639D01*
X59183159Y-90308153D01*
X59183156Y-90308155D01*
X59178422Y-90310213D01*
X59174088Y-90313017D01*
X59174084Y-90313019D01*
X58981396Y-90437675D01*
X58981393Y-90437677D01*
X58977053Y-90440485D01*
X58973230Y-90443964D01*
X58973227Y-90443966D01*
X58803487Y-90598418D01*
X58799665Y-90601896D01*
X58796466Y-90605947D01*
X58796462Y-90605951D01*
X58766910Y-90643371D01*
X58651021Y-90790112D01*
X58535113Y-91000078D01*
X58455055Y-91226155D01*
X58454148Y-91231248D01*
X58454147Y-91231251D01*
X58415686Y-91447172D01*
X58412996Y-91462273D01*
X58412933Y-91467437D01*
X58410247Y-91687307D01*
X58410066Y-91702089D01*
X48587439Y-91702089D01*
X48588520Y-91613618D01*
X48589871Y-91503081D01*
X48589871Y-91503079D01*
X48589934Y-91497911D01*
X48553657Y-91260837D01*
X48479146Y-91032871D01*
X48387112Y-90856076D01*
X48370792Y-90824725D01*
X48370791Y-90824724D01*
X48368403Y-90820136D01*
X48345861Y-90790112D01*
X48227507Y-90632480D01*
X48227505Y-90632477D01*
X48224402Y-90628345D01*
X48051010Y-90462648D01*
X47852883Y-90327495D01*
X47635344Y-90226516D01*
X47404232Y-90162424D01*
X47300521Y-90151340D01*
X47211778Y-90141856D01*
X47211770Y-90141856D01*
X47208443Y-90141500D01*
X47069197Y-90141500D01*
X47066624Y-90141712D01*
X47066613Y-90141712D01*
X46896124Y-90155729D01*
X46896118Y-90155730D01*
X46890973Y-90156153D01*
X46774669Y-90185366D01*
X46663375Y-90213321D01*
X46663371Y-90213322D01*
X46658364Y-90214580D01*
X46653634Y-90216636D01*
X46653627Y-90216639D01*
X46443159Y-90308153D01*
X46443156Y-90308155D01*
X46438422Y-90310213D01*
X46434088Y-90313017D01*
X46434084Y-90313019D01*
X46241396Y-90437675D01*
X46241393Y-90437677D01*
X46237053Y-90440485D01*
X46233230Y-90443964D01*
X46233227Y-90443966D01*
X46063487Y-90598418D01*
X46059665Y-90601896D01*
X46056466Y-90605947D01*
X46056462Y-90605951D01*
X46026910Y-90643371D01*
X45911021Y-90790112D01*
X45795113Y-91000078D01*
X45715055Y-91226155D01*
X45714148Y-91231248D01*
X45714147Y-91231251D01*
X45675686Y-91447172D01*
X45672996Y-91462273D01*
X45672933Y-91467437D01*
X45670247Y-91687307D01*
X45670066Y-91702089D01*
X37508500Y-91702089D01*
X37508500Y-88900000D01*
X143662771Y-88900000D01*
X143681635Y-89079475D01*
X143683675Y-89085753D01*
X143683675Y-89085754D01*
X143696137Y-89124107D01*
X143737401Y-89251107D01*
X143827633Y-89407393D01*
X143832051Y-89412300D01*
X143832052Y-89412301D01*
X143871625Y-89456251D01*
X143948387Y-89541504D01*
X143953729Y-89545385D01*
X143953731Y-89545387D01*
X144089043Y-89643697D01*
X144094385Y-89647578D01*
X144100413Y-89650262D01*
X144100415Y-89650263D01*
X144253217Y-89718295D01*
X144259248Y-89720980D01*
X144347508Y-89739740D01*
X144429311Y-89757128D01*
X144429315Y-89757128D01*
X144435768Y-89758500D01*
X144616232Y-89758500D01*
X144622685Y-89757128D01*
X144622689Y-89757128D01*
X144704492Y-89739740D01*
X144792752Y-89720980D01*
X144798783Y-89718295D01*
X144951585Y-89650263D01*
X144951587Y-89650262D01*
X144957615Y-89647578D01*
X144962957Y-89643697D01*
X145098269Y-89545387D01*
X145098271Y-89545385D01*
X145103613Y-89541504D01*
X145180375Y-89456251D01*
X145219948Y-89412301D01*
X145219949Y-89412300D01*
X145224367Y-89407393D01*
X145314599Y-89251107D01*
X145355863Y-89124107D01*
X145368325Y-89085754D01*
X145368325Y-89085753D01*
X145370365Y-89079475D01*
X145389229Y-88900000D01*
X145388539Y-88893435D01*
X145375881Y-88773000D01*
X159537771Y-88773000D01*
X159538461Y-88779565D01*
X159551810Y-88906565D01*
X159556635Y-88952475D01*
X159612401Y-89124107D01*
X159615704Y-89129829D01*
X159615705Y-89129830D01*
X159644328Y-89179406D01*
X159702633Y-89280393D01*
X159707051Y-89285300D01*
X159707052Y-89285301D01*
X159745155Y-89327619D01*
X159823387Y-89414504D01*
X159828729Y-89418385D01*
X159828731Y-89418387D01*
X159886210Y-89460148D01*
X159969385Y-89520578D01*
X159975413Y-89523262D01*
X159975415Y-89523263D01*
X160128217Y-89591295D01*
X160134248Y-89593980D01*
X160200514Y-89608065D01*
X160304311Y-89630128D01*
X160304315Y-89630128D01*
X160310768Y-89631500D01*
X160491232Y-89631500D01*
X160497685Y-89630128D01*
X160497689Y-89630128D01*
X160601486Y-89608065D01*
X160667752Y-89593980D01*
X160673783Y-89591295D01*
X160826585Y-89523263D01*
X160826587Y-89523262D01*
X160832615Y-89520578D01*
X160915790Y-89460148D01*
X160973269Y-89418387D01*
X160973271Y-89418385D01*
X160978613Y-89414504D01*
X161056845Y-89327619D01*
X161094948Y-89285301D01*
X161094949Y-89285300D01*
X161099367Y-89280393D01*
X161157672Y-89179406D01*
X161186295Y-89129830D01*
X161186296Y-89129829D01*
X161189599Y-89124107D01*
X161245365Y-88952475D01*
X161250191Y-88906565D01*
X161263539Y-88779565D01*
X161264229Y-88773000D01*
X161245365Y-88593525D01*
X161232906Y-88555178D01*
X161191641Y-88428178D01*
X161189599Y-88421893D01*
X161181075Y-88407128D01*
X161102668Y-88271325D01*
X161099367Y-88265607D01*
X161024762Y-88182749D01*
X160983035Y-88136407D01*
X160983034Y-88136406D01*
X160978613Y-88131496D01*
X160906387Y-88079020D01*
X160837957Y-88029303D01*
X160837956Y-88029302D01*
X160832615Y-88025422D01*
X160826587Y-88022738D01*
X160826585Y-88022737D01*
X160673783Y-87954705D01*
X160673781Y-87954705D01*
X160667752Y-87952020D01*
X160579492Y-87933260D01*
X160497689Y-87915872D01*
X160497685Y-87915872D01*
X160491232Y-87914500D01*
X160310768Y-87914500D01*
X160304315Y-87915872D01*
X160304311Y-87915872D01*
X160222508Y-87933260D01*
X160134248Y-87952020D01*
X160128219Y-87954704D01*
X160128217Y-87954705D01*
X159975416Y-88022737D01*
X159975414Y-88022738D01*
X159969386Y-88025422D01*
X159964045Y-88029302D01*
X159964044Y-88029303D01*
X159828731Y-88127613D01*
X159828729Y-88127615D01*
X159823387Y-88131496D01*
X159818966Y-88136406D01*
X159818965Y-88136407D01*
X159777239Y-88182749D01*
X159702633Y-88265607D01*
X159699332Y-88271325D01*
X159620926Y-88407128D01*
X159612401Y-88421893D01*
X159610359Y-88428178D01*
X159569095Y-88555178D01*
X159556635Y-88593525D01*
X159537771Y-88773000D01*
X145375881Y-88773000D01*
X145371055Y-88727089D01*
X145371055Y-88727088D01*
X145370365Y-88720525D01*
X145314599Y-88548893D01*
X145224367Y-88392607D01*
X145129492Y-88287237D01*
X145108035Y-88263407D01*
X145108034Y-88263406D01*
X145103613Y-88258496D01*
X144999357Y-88182749D01*
X144962957Y-88156303D01*
X144962956Y-88156302D01*
X144957615Y-88152422D01*
X144951587Y-88149738D01*
X144951585Y-88149737D01*
X144798783Y-88081705D01*
X144798781Y-88081705D01*
X144792752Y-88079020D01*
X144704492Y-88060260D01*
X144622689Y-88042872D01*
X144622685Y-88042872D01*
X144616232Y-88041500D01*
X144435768Y-88041500D01*
X144429315Y-88042872D01*
X144429311Y-88042872D01*
X144347508Y-88060260D01*
X144259248Y-88079020D01*
X144253219Y-88081704D01*
X144253217Y-88081705D01*
X144100416Y-88149737D01*
X144100414Y-88149738D01*
X144094386Y-88152422D01*
X144089045Y-88156302D01*
X144089044Y-88156303D01*
X143953731Y-88254613D01*
X143953729Y-88254615D01*
X143948387Y-88258496D01*
X143943966Y-88263406D01*
X143943965Y-88263407D01*
X143922509Y-88287237D01*
X143827633Y-88392607D01*
X143737401Y-88548893D01*
X143681635Y-88720525D01*
X143680945Y-88727088D01*
X143680945Y-88727089D01*
X143663461Y-88893435D01*
X143662771Y-88900000D01*
X37508500Y-88900000D01*
X37508500Y-87500000D01*
X145086496Y-87500000D01*
X145106458Y-87689928D01*
X145165473Y-87871556D01*
X145260960Y-88036944D01*
X145265378Y-88041851D01*
X145265379Y-88041852D01*
X145297610Y-88077648D01*
X145388747Y-88178866D01*
X145543248Y-88291118D01*
X145549276Y-88293802D01*
X145549278Y-88293803D01*
X145711681Y-88366109D01*
X145717712Y-88368794D01*
X145806653Y-88387699D01*
X145898056Y-88407128D01*
X145898061Y-88407128D01*
X145904513Y-88408500D01*
X146095487Y-88408500D01*
X146101939Y-88407128D01*
X146101944Y-88407128D01*
X146193347Y-88387699D01*
X146282288Y-88368794D01*
X146288319Y-88366109D01*
X146450722Y-88293803D01*
X146450724Y-88293802D01*
X146456752Y-88291118D01*
X146611253Y-88178866D01*
X146702390Y-88077648D01*
X146734621Y-88041852D01*
X146734622Y-88041851D01*
X146739040Y-88036944D01*
X146834527Y-87871556D01*
X146893542Y-87689928D01*
X146913504Y-87500000D01*
X146893542Y-87310072D01*
X146834527Y-87128444D01*
X146739040Y-86963056D01*
X146611253Y-86821134D01*
X146506779Y-86745229D01*
X146462094Y-86712763D01*
X146462093Y-86712762D01*
X146456752Y-86708882D01*
X146450724Y-86706198D01*
X146450722Y-86706197D01*
X146288319Y-86633891D01*
X146288318Y-86633891D01*
X146282288Y-86631206D01*
X146187194Y-86610993D01*
X146101944Y-86592872D01*
X146101939Y-86592872D01*
X146095487Y-86591500D01*
X145904513Y-86591500D01*
X145898061Y-86592872D01*
X145898056Y-86592872D01*
X145812806Y-86610993D01*
X145717712Y-86631206D01*
X145711682Y-86633891D01*
X145711681Y-86633891D01*
X145549278Y-86706197D01*
X145549276Y-86706198D01*
X145543248Y-86708882D01*
X145537907Y-86712762D01*
X145537906Y-86712763D01*
X145493221Y-86745229D01*
X145388747Y-86821134D01*
X145260960Y-86963056D01*
X145165473Y-87128444D01*
X145106458Y-87310072D01*
X145086496Y-87500000D01*
X37508500Y-87500000D01*
X37508500Y-86347360D01*
X49238000Y-86347360D01*
X49238337Y-86353876D01*
X49248314Y-86450029D01*
X49251207Y-86463426D01*
X49302941Y-86618492D01*
X49309115Y-86631670D01*
X49394908Y-86770311D01*
X49403944Y-86781711D01*
X49519333Y-86896898D01*
X49530744Y-86905910D01*
X49669543Y-86991468D01*
X49682721Y-86997612D01*
X49837897Y-87049082D01*
X49851263Y-87051948D01*
X49946176Y-87061672D01*
X49952591Y-87062000D01*
X50500885Y-87062000D01*
X50516124Y-87057525D01*
X50517329Y-87056135D01*
X50519000Y-87048452D01*
X50519000Y-87043885D01*
X51281000Y-87043885D01*
X51285475Y-87059124D01*
X51286865Y-87060329D01*
X51294548Y-87062000D01*
X51847360Y-87062000D01*
X51853876Y-87061663D01*
X51950029Y-87051686D01*
X51963426Y-87048793D01*
X52118492Y-86997059D01*
X52131670Y-86990885D01*
X52270311Y-86905092D01*
X52281711Y-86896056D01*
X52396898Y-86780667D01*
X52405910Y-86769256D01*
X52485770Y-86639700D01*
X52538542Y-86592207D01*
X52608614Y-86580783D01*
X52656600Y-86597028D01*
X52789322Y-86674584D01*
X53005694Y-86757209D01*
X53010760Y-86758240D01*
X53010761Y-86758240D01*
X53063846Y-86769040D01*
X53232656Y-86803385D01*
X53362089Y-86808131D01*
X53458949Y-86811683D01*
X53458953Y-86811683D01*
X53464113Y-86811872D01*
X53469233Y-86811216D01*
X53469235Y-86811216D01*
X53543166Y-86801745D01*
X53693847Y-86782442D01*
X53698795Y-86780957D01*
X53698802Y-86780956D01*
X53910747Y-86717369D01*
X53915690Y-86715886D01*
X53996236Y-86676427D01*
X54119049Y-86616262D01*
X54119052Y-86616260D01*
X54123684Y-86613991D01*
X54312243Y-86479494D01*
X54476303Y-86316005D01*
X54545370Y-86219888D01*
X54601365Y-86176240D01*
X54672068Y-86169794D01*
X54735033Y-86202597D01*
X54755128Y-86227584D01*
X54756799Y-86230311D01*
X54756804Y-86230317D01*
X54759501Y-86234719D01*
X54911147Y-86409784D01*
X55089349Y-86557730D01*
X55289322Y-86674584D01*
X55505694Y-86757209D01*
X55510760Y-86758240D01*
X55510761Y-86758240D01*
X55563846Y-86769040D01*
X55732656Y-86803385D01*
X55862089Y-86808131D01*
X55958949Y-86811683D01*
X55958953Y-86811683D01*
X55964113Y-86811872D01*
X55969233Y-86811216D01*
X55969235Y-86811216D01*
X56043166Y-86801745D01*
X56193847Y-86782442D01*
X56198795Y-86780957D01*
X56198802Y-86780956D01*
X56410747Y-86717369D01*
X56415690Y-86715886D01*
X56496236Y-86676427D01*
X56619049Y-86616262D01*
X56619052Y-86616260D01*
X56623684Y-86613991D01*
X56812243Y-86479494D01*
X56944062Y-86348134D01*
X76491500Y-86348134D01*
X76498255Y-86410316D01*
X76549385Y-86546705D01*
X76636739Y-86663261D01*
X76753295Y-86750615D01*
X76889684Y-86801745D01*
X76951866Y-86808500D01*
X78848134Y-86808500D01*
X78910316Y-86801745D01*
X79046705Y-86750615D01*
X79163261Y-86663261D01*
X79250615Y-86546705D01*
X79265686Y-86506504D01*
X79308328Y-86449739D01*
X79374890Y-86425040D01*
X79444239Y-86440248D01*
X79464150Y-86453788D01*
X79589349Y-86557730D01*
X79789322Y-86674584D01*
X80005694Y-86757209D01*
X80010760Y-86758240D01*
X80010761Y-86758240D01*
X80063846Y-86769040D01*
X80232656Y-86803385D01*
X80362089Y-86808131D01*
X80458949Y-86811683D01*
X80458953Y-86811683D01*
X80464113Y-86811872D01*
X80469233Y-86811216D01*
X80469235Y-86811216D01*
X80543166Y-86801745D01*
X80693847Y-86782442D01*
X80698795Y-86780957D01*
X80698802Y-86780956D01*
X80910747Y-86717369D01*
X80915690Y-86715886D01*
X80996236Y-86676427D01*
X81119049Y-86616262D01*
X81119052Y-86616260D01*
X81123684Y-86613991D01*
X81312243Y-86479494D01*
X81476303Y-86316005D01*
X81545370Y-86219888D01*
X81601365Y-86176240D01*
X81672068Y-86169794D01*
X81735033Y-86202597D01*
X81755128Y-86227584D01*
X81756799Y-86230311D01*
X81756804Y-86230317D01*
X81759501Y-86234719D01*
X81911147Y-86409784D01*
X82089349Y-86557730D01*
X82289322Y-86674584D01*
X82505694Y-86757209D01*
X82510760Y-86758240D01*
X82510761Y-86758240D01*
X82563846Y-86769040D01*
X82732656Y-86803385D01*
X82862089Y-86808131D01*
X82958949Y-86811683D01*
X82958953Y-86811683D01*
X82964113Y-86811872D01*
X82969233Y-86811216D01*
X82969235Y-86811216D01*
X83043166Y-86801745D01*
X83193847Y-86782442D01*
X83198795Y-86780957D01*
X83198802Y-86780956D01*
X83410747Y-86717369D01*
X83415690Y-86715886D01*
X83496236Y-86676427D01*
X83619049Y-86616262D01*
X83619052Y-86616260D01*
X83623684Y-86613991D01*
X83812243Y-86479494D01*
X83976303Y-86316005D01*
X84111458Y-86127917D01*
X84120165Y-86110301D01*
X84211784Y-85924922D01*
X84211785Y-85924920D01*
X84214078Y-85920280D01*
X84281408Y-85698671D01*
X84294662Y-85598000D01*
X96164771Y-85598000D01*
X96183635Y-85777475D01*
X96239401Y-85949107D01*
X96329633Y-86105393D01*
X96334051Y-86110300D01*
X96334052Y-86110301D01*
X96445965Y-86234593D01*
X96450387Y-86239504D01*
X96455729Y-86243385D01*
X96455731Y-86243387D01*
X96555681Y-86316005D01*
X96596385Y-86345578D01*
X96602413Y-86348262D01*
X96602415Y-86348263D01*
X96755217Y-86416295D01*
X96761248Y-86418980D01*
X96849508Y-86437740D01*
X96931311Y-86455128D01*
X96931315Y-86455128D01*
X96937768Y-86456500D01*
X97118232Y-86456500D01*
X97124685Y-86455128D01*
X97124689Y-86455128D01*
X97206492Y-86437740D01*
X97294752Y-86418980D01*
X97300783Y-86416295D01*
X97453585Y-86348263D01*
X97453587Y-86348262D01*
X97459615Y-86345578D01*
X97500319Y-86316005D01*
X97600269Y-86243387D01*
X97600271Y-86243385D01*
X97605613Y-86239504D01*
X97610035Y-86234593D01*
X97721948Y-86110301D01*
X97721949Y-86110300D01*
X97726367Y-86105393D01*
X97816599Y-85949107D01*
X97872365Y-85777475D01*
X97891229Y-85598000D01*
X97877529Y-85467653D01*
X97873055Y-85425089D01*
X97873055Y-85425088D01*
X97872365Y-85418525D01*
X97816599Y-85246893D01*
X97726367Y-85090607D01*
X97694641Y-85055371D01*
X97610035Y-84961407D01*
X97610034Y-84961406D01*
X97605613Y-84956496D01*
X97596045Y-84949544D01*
X97464957Y-84854303D01*
X97464956Y-84854302D01*
X97459615Y-84850422D01*
X97453587Y-84847738D01*
X97453585Y-84847737D01*
X97300783Y-84779705D01*
X97300781Y-84779705D01*
X97294752Y-84777020D01*
X97206492Y-84758260D01*
X97124689Y-84740872D01*
X97124685Y-84740872D01*
X97118232Y-84739500D01*
X96937768Y-84739500D01*
X96931315Y-84740872D01*
X96931311Y-84740872D01*
X96849508Y-84758260D01*
X96761248Y-84777020D01*
X96755219Y-84779704D01*
X96755217Y-84779705D01*
X96602416Y-84847737D01*
X96602414Y-84847738D01*
X96596386Y-84850422D01*
X96591045Y-84854302D01*
X96591044Y-84854303D01*
X96455731Y-84952613D01*
X96455729Y-84952615D01*
X96450387Y-84956496D01*
X96445966Y-84961406D01*
X96445965Y-84961407D01*
X96361360Y-85055371D01*
X96329633Y-85090607D01*
X96239401Y-85246893D01*
X96183635Y-85418525D01*
X96182945Y-85425088D01*
X96182945Y-85425089D01*
X96178471Y-85467653D01*
X96164771Y-85598000D01*
X84294662Y-85598000D01*
X84311640Y-85469041D01*
X84312714Y-85425089D01*
X84313245Y-85403365D01*
X84313245Y-85403361D01*
X84313327Y-85400000D01*
X84305231Y-85301523D01*
X84294773Y-85174318D01*
X84294772Y-85174312D01*
X84294349Y-85169167D01*
X84248221Y-84985523D01*
X84239184Y-84949544D01*
X84239183Y-84949540D01*
X84237925Y-84944533D01*
X84198692Y-84854303D01*
X84147630Y-84736868D01*
X84147628Y-84736865D01*
X84145570Y-84732131D01*
X84019764Y-84537665D01*
X83863887Y-84366358D01*
X83859836Y-84363159D01*
X83859832Y-84363155D01*
X83686177Y-84226011D01*
X83686172Y-84226008D01*
X83682123Y-84222810D01*
X83677607Y-84220317D01*
X83677604Y-84220315D01*
X83483879Y-84113373D01*
X83483875Y-84113371D01*
X83479355Y-84110876D01*
X83474486Y-84109152D01*
X83474482Y-84109150D01*
X83265903Y-84035288D01*
X83265899Y-84035287D01*
X83261028Y-84033562D01*
X83255935Y-84032655D01*
X83255932Y-84032654D01*
X83038095Y-83993851D01*
X83038089Y-83993850D01*
X83033006Y-83992945D01*
X82960096Y-83992054D01*
X82806581Y-83990179D01*
X82806579Y-83990179D01*
X82801411Y-83990116D01*
X82572464Y-84025150D01*
X82352314Y-84097106D01*
X82347726Y-84099494D01*
X82347722Y-84099496D01*
X82173220Y-84190336D01*
X82146872Y-84204052D01*
X82142739Y-84207155D01*
X82142736Y-84207157D01*
X81968607Y-84337897D01*
X81961655Y-84343117D01*
X81801639Y-84510564D01*
X81754836Y-84579174D01*
X81699927Y-84624175D01*
X81629402Y-84632346D01*
X81565655Y-84601092D01*
X81544959Y-84576609D01*
X81522577Y-84542013D01*
X81522574Y-84542009D01*
X81519764Y-84537665D01*
X81363887Y-84366358D01*
X81359836Y-84363159D01*
X81359832Y-84363155D01*
X81186177Y-84226011D01*
X81186172Y-84226008D01*
X81182123Y-84222810D01*
X81177607Y-84220317D01*
X81177604Y-84220315D01*
X80983879Y-84113373D01*
X80983875Y-84113371D01*
X80979355Y-84110876D01*
X80974486Y-84109152D01*
X80974482Y-84109150D01*
X80765903Y-84035288D01*
X80765899Y-84035287D01*
X80761028Y-84033562D01*
X80755935Y-84032655D01*
X80755932Y-84032654D01*
X80538095Y-83993851D01*
X80538089Y-83993850D01*
X80533006Y-83992945D01*
X80460096Y-83992054D01*
X80306581Y-83990179D01*
X80306579Y-83990179D01*
X80301411Y-83990116D01*
X80072464Y-84025150D01*
X79852314Y-84097106D01*
X79847726Y-84099494D01*
X79847722Y-84099496D01*
X79673220Y-84190336D01*
X79646872Y-84204052D01*
X79642739Y-84207155D01*
X79642736Y-84207157D01*
X79461655Y-84343117D01*
X79460976Y-84342213D01*
X79401730Y-84370131D01*
X79331341Y-84360869D01*
X79277132Y-84315022D01*
X79264325Y-84289866D01*
X79253768Y-84261705D01*
X79253767Y-84261703D01*
X79250615Y-84253295D01*
X79163261Y-84136739D01*
X79046705Y-84049385D01*
X78910316Y-83998255D01*
X78848134Y-83991500D01*
X76951866Y-83991500D01*
X76889684Y-83998255D01*
X76753295Y-84049385D01*
X76636739Y-84136739D01*
X76549385Y-84253295D01*
X76498255Y-84389684D01*
X76491500Y-84451866D01*
X76491500Y-86348134D01*
X56944062Y-86348134D01*
X56976303Y-86316005D01*
X57111458Y-86127917D01*
X57120165Y-86110301D01*
X57211784Y-85924922D01*
X57211785Y-85924920D01*
X57214078Y-85920280D01*
X57281408Y-85698671D01*
X57311640Y-85469041D01*
X57312714Y-85425089D01*
X57313245Y-85403365D01*
X57313245Y-85403361D01*
X57313327Y-85400000D01*
X57305231Y-85301523D01*
X57294773Y-85174318D01*
X57294772Y-85174312D01*
X57294349Y-85169167D01*
X57248221Y-84985523D01*
X57239184Y-84949544D01*
X57239183Y-84949540D01*
X57237925Y-84944533D01*
X57198692Y-84854303D01*
X57190734Y-84836000D01*
X60458693Y-84836000D01*
X60477885Y-85055371D01*
X60534880Y-85268076D01*
X60540207Y-85279499D01*
X60625618Y-85462666D01*
X60625621Y-85462671D01*
X60627944Y-85467653D01*
X60631100Y-85472160D01*
X60631101Y-85472162D01*
X60718302Y-85596697D01*
X60754251Y-85648038D01*
X60909962Y-85803749D01*
X60914471Y-85806906D01*
X60914473Y-85806908D01*
X60989241Y-85859261D01*
X61090346Y-85930056D01*
X61289924Y-86023120D01*
X61502629Y-86080115D01*
X61722000Y-86099307D01*
X61941371Y-86080115D01*
X62154076Y-86023120D01*
X62353654Y-85930056D01*
X62454759Y-85859261D01*
X62529527Y-85806908D01*
X62529529Y-85806906D01*
X62534038Y-85803749D01*
X62689749Y-85648038D01*
X62725699Y-85596697D01*
X62812899Y-85472162D01*
X62812900Y-85472160D01*
X62816056Y-85467653D01*
X62818379Y-85462671D01*
X62818382Y-85462666D01*
X62903793Y-85279499D01*
X62909120Y-85268076D01*
X62966115Y-85055371D01*
X62985307Y-84836000D01*
X62966115Y-84616629D01*
X62909120Y-84403924D01*
X62855934Y-84289866D01*
X62818382Y-84209334D01*
X62818379Y-84209329D01*
X62816056Y-84204347D01*
X62812899Y-84199838D01*
X62692908Y-84028473D01*
X62692906Y-84028470D01*
X62689749Y-84023962D01*
X62534038Y-83868251D01*
X62353654Y-83741944D01*
X62154076Y-83648880D01*
X61941371Y-83591885D01*
X61722000Y-83572693D01*
X61502629Y-83591885D01*
X61289924Y-83648880D01*
X61196562Y-83692415D01*
X61095334Y-83739618D01*
X61095329Y-83739621D01*
X61090347Y-83741944D01*
X61085840Y-83745100D01*
X61085838Y-83745101D01*
X60914473Y-83865092D01*
X60914470Y-83865094D01*
X60909962Y-83868251D01*
X60754251Y-84023962D01*
X60751094Y-84028470D01*
X60751092Y-84028473D01*
X60631101Y-84199838D01*
X60627944Y-84204347D01*
X60625621Y-84209329D01*
X60625618Y-84209334D01*
X60588066Y-84289866D01*
X60534880Y-84403924D01*
X60477885Y-84616629D01*
X60458693Y-84836000D01*
X57190734Y-84836000D01*
X57147630Y-84736868D01*
X57147628Y-84736865D01*
X57145570Y-84732131D01*
X57019764Y-84537665D01*
X56863887Y-84366358D01*
X56859836Y-84363159D01*
X56859832Y-84363155D01*
X56686177Y-84226011D01*
X56686172Y-84226008D01*
X56682123Y-84222810D01*
X56677607Y-84220317D01*
X56677604Y-84220315D01*
X56483879Y-84113373D01*
X56483875Y-84113371D01*
X56479355Y-84110876D01*
X56474486Y-84109152D01*
X56474482Y-84109150D01*
X56265903Y-84035288D01*
X56265899Y-84035287D01*
X56261028Y-84033562D01*
X56255935Y-84032655D01*
X56255932Y-84032654D01*
X56038095Y-83993851D01*
X56038089Y-83993850D01*
X56033006Y-83992945D01*
X55960096Y-83992054D01*
X55806581Y-83990179D01*
X55806579Y-83990179D01*
X55801411Y-83990116D01*
X55572464Y-84025150D01*
X55352314Y-84097106D01*
X55347726Y-84099494D01*
X55347722Y-84099496D01*
X55173220Y-84190336D01*
X55146872Y-84204052D01*
X55142739Y-84207155D01*
X55142736Y-84207157D01*
X54968607Y-84337897D01*
X54961655Y-84343117D01*
X54801639Y-84510564D01*
X54754836Y-84579174D01*
X54699927Y-84624175D01*
X54629402Y-84632346D01*
X54565655Y-84601092D01*
X54544959Y-84576609D01*
X54522577Y-84542013D01*
X54522574Y-84542009D01*
X54519764Y-84537665D01*
X54363887Y-84366358D01*
X54359836Y-84363159D01*
X54359832Y-84363155D01*
X54186177Y-84226011D01*
X54186172Y-84226008D01*
X54182123Y-84222810D01*
X54177607Y-84220317D01*
X54177604Y-84220315D01*
X53983879Y-84113373D01*
X53983875Y-84113371D01*
X53979355Y-84110876D01*
X53974486Y-84109152D01*
X53974482Y-84109150D01*
X53765903Y-84035288D01*
X53765899Y-84035287D01*
X53761028Y-84033562D01*
X53755935Y-84032655D01*
X53755932Y-84032654D01*
X53538095Y-83993851D01*
X53538089Y-83993850D01*
X53533006Y-83992945D01*
X53460096Y-83992054D01*
X53306581Y-83990179D01*
X53306579Y-83990179D01*
X53301411Y-83990116D01*
X53072464Y-84025150D01*
X52852314Y-84097106D01*
X52847726Y-84099494D01*
X52847722Y-84099496D01*
X52649377Y-84202748D01*
X52579717Y-84216461D01*
X52513702Y-84190336D01*
X52484053Y-84157288D01*
X52405092Y-84029689D01*
X52396056Y-84018289D01*
X52280667Y-83903102D01*
X52269256Y-83894090D01*
X52130457Y-83808532D01*
X52117279Y-83802388D01*
X51962103Y-83750918D01*
X51948737Y-83748052D01*
X51853824Y-83738328D01*
X51847409Y-83738000D01*
X51299115Y-83738000D01*
X51283876Y-83742475D01*
X51282671Y-83743865D01*
X51281000Y-83751548D01*
X51281000Y-87043885D01*
X50519000Y-87043885D01*
X50519000Y-85799115D01*
X50514525Y-85783876D01*
X50513135Y-85782671D01*
X50505452Y-85781000D01*
X49256115Y-85781000D01*
X49240876Y-85785475D01*
X49239671Y-85786865D01*
X49238000Y-85794548D01*
X49238000Y-86347360D01*
X37508500Y-86347360D01*
X37508500Y-85000885D01*
X49238000Y-85000885D01*
X49242475Y-85016124D01*
X49243865Y-85017329D01*
X49251548Y-85019000D01*
X50500885Y-85019000D01*
X50516124Y-85014525D01*
X50517329Y-85013135D01*
X50519000Y-85005452D01*
X50519000Y-83756115D01*
X50514525Y-83740876D01*
X50513135Y-83739671D01*
X50505452Y-83738000D01*
X49952640Y-83738000D01*
X49946124Y-83738337D01*
X49849971Y-83748314D01*
X49836574Y-83751207D01*
X49681508Y-83802941D01*
X49668330Y-83809115D01*
X49529689Y-83894908D01*
X49518289Y-83903944D01*
X49403102Y-84019333D01*
X49394090Y-84030744D01*
X49308532Y-84169543D01*
X49302388Y-84182721D01*
X49250918Y-84337897D01*
X49248052Y-84351263D01*
X49238328Y-84446176D01*
X49238000Y-84452591D01*
X49238000Y-85000885D01*
X37508500Y-85000885D01*
X37508500Y-83099000D01*
X119678744Y-83099000D01*
X119697747Y-83388932D01*
X119698551Y-83392972D01*
X119698551Y-83392975D01*
X119749454Y-83648880D01*
X119754431Y-83673903D01*
X119755756Y-83677806D01*
X119755757Y-83677810D01*
X119846501Y-83945132D01*
X119847827Y-83949038D01*
X119884976Y-84024368D01*
X119973732Y-84204347D01*
X119976336Y-84209628D01*
X119978630Y-84213061D01*
X120101895Y-84397540D01*
X120137759Y-84451215D01*
X120140473Y-84454309D01*
X120140477Y-84454315D01*
X120287627Y-84622106D01*
X120329335Y-84669665D01*
X120332424Y-84672374D01*
X120544685Y-84858523D01*
X120544691Y-84858527D01*
X120547785Y-84861241D01*
X120551211Y-84863530D01*
X120551216Y-84863534D01*
X120672440Y-84944533D01*
X120789372Y-85022664D01*
X120793071Y-85024488D01*
X120793076Y-85024491D01*
X120917194Y-85085699D01*
X121049962Y-85151173D01*
X121053867Y-85152499D01*
X121053868Y-85152499D01*
X121321190Y-85243243D01*
X121321194Y-85243244D01*
X121325097Y-85244569D01*
X121329136Y-85245372D01*
X121329142Y-85245374D01*
X121606025Y-85300449D01*
X121606028Y-85300449D01*
X121610068Y-85301253D01*
X121614179Y-85301522D01*
X121614183Y-85301523D01*
X121895881Y-85319986D01*
X121900000Y-85320256D01*
X121904119Y-85319986D01*
X122185817Y-85301523D01*
X122185821Y-85301522D01*
X122189932Y-85301253D01*
X122193972Y-85300449D01*
X122193975Y-85300449D01*
X122470858Y-85245374D01*
X122470864Y-85245372D01*
X122474903Y-85244569D01*
X122478806Y-85243244D01*
X122478810Y-85243243D01*
X122746132Y-85152499D01*
X122746133Y-85152499D01*
X122750038Y-85151173D01*
X122882806Y-85085699D01*
X123006924Y-85024491D01*
X123006929Y-85024488D01*
X123010628Y-85022664D01*
X123127560Y-84944533D01*
X123248784Y-84863534D01*
X123248789Y-84863530D01*
X123252215Y-84861241D01*
X123255309Y-84858527D01*
X123255315Y-84858523D01*
X123467576Y-84672374D01*
X123470665Y-84669665D01*
X123512373Y-84622106D01*
X123659523Y-84454315D01*
X123659527Y-84454309D01*
X123662241Y-84451215D01*
X123698106Y-84397540D01*
X123821370Y-84213061D01*
X123823664Y-84209628D01*
X123826269Y-84204347D01*
X123915024Y-84024368D01*
X123952173Y-83949038D01*
X123953499Y-83945132D01*
X124044243Y-83677810D01*
X124044244Y-83677806D01*
X124045569Y-83673903D01*
X124050547Y-83648880D01*
X124101449Y-83392975D01*
X124101449Y-83392972D01*
X124102253Y-83388932D01*
X124112932Y-83226000D01*
X141965744Y-83226000D01*
X141984747Y-83515932D01*
X141985551Y-83519972D01*
X141985551Y-83519975D01*
X142031614Y-83751548D01*
X142041431Y-83800903D01*
X142042756Y-83804806D01*
X142042757Y-83804810D01*
X142127608Y-84054771D01*
X142134827Y-84076038D01*
X142168302Y-84143919D01*
X142222241Y-84253295D01*
X142263336Y-84336628D01*
X142273115Y-84351263D01*
X142400570Y-84542013D01*
X142424759Y-84578215D01*
X142427473Y-84581309D01*
X142427477Y-84581315D01*
X142599107Y-84777020D01*
X142616335Y-84796665D01*
X142619424Y-84799374D01*
X142831685Y-84985523D01*
X142831691Y-84985527D01*
X142834785Y-84988241D01*
X142838211Y-84990530D01*
X142838216Y-84990534D01*
X142889037Y-85024491D01*
X143076372Y-85149664D01*
X143080071Y-85151488D01*
X143080076Y-85151491D01*
X143115920Y-85169167D01*
X143336962Y-85278173D01*
X143340867Y-85279499D01*
X143340868Y-85279499D01*
X143608190Y-85370243D01*
X143608194Y-85370244D01*
X143612097Y-85371569D01*
X143616136Y-85372372D01*
X143616142Y-85372374D01*
X143893025Y-85427449D01*
X143893028Y-85427449D01*
X143897068Y-85428253D01*
X143901179Y-85428522D01*
X143901183Y-85428523D01*
X144182881Y-85446986D01*
X144187000Y-85447256D01*
X144191119Y-85446986D01*
X144472817Y-85428523D01*
X144472821Y-85428522D01*
X144476932Y-85428253D01*
X144480972Y-85427449D01*
X144480975Y-85427449D01*
X144757858Y-85372374D01*
X144757864Y-85372372D01*
X144761903Y-85371569D01*
X144765806Y-85370244D01*
X144765810Y-85370243D01*
X145033132Y-85279499D01*
X145033133Y-85279499D01*
X145037038Y-85278173D01*
X145258080Y-85169167D01*
X145293924Y-85151491D01*
X145293929Y-85151488D01*
X145297628Y-85149664D01*
X145484963Y-85024491D01*
X145535784Y-84990534D01*
X145535789Y-84990530D01*
X145539215Y-84988241D01*
X145542309Y-84985527D01*
X145542315Y-84985523D01*
X145754576Y-84799374D01*
X145757665Y-84796665D01*
X145774893Y-84777020D01*
X145946523Y-84581315D01*
X145946527Y-84581309D01*
X145949241Y-84578215D01*
X145973431Y-84542013D01*
X146100885Y-84351263D01*
X146110664Y-84336628D01*
X146151760Y-84253295D01*
X146205698Y-84143919D01*
X146239173Y-84076038D01*
X146246392Y-84054771D01*
X146331243Y-83804810D01*
X146331244Y-83804806D01*
X146332569Y-83800903D01*
X146342387Y-83751548D01*
X146388449Y-83519975D01*
X146388449Y-83519972D01*
X146389253Y-83515932D01*
X146408256Y-83226000D01*
X146795744Y-83226000D01*
X146814747Y-83515932D01*
X146815551Y-83519972D01*
X146815551Y-83519975D01*
X146861614Y-83751548D01*
X146871431Y-83800903D01*
X146872756Y-83804806D01*
X146872757Y-83804810D01*
X146957608Y-84054771D01*
X146964827Y-84076038D01*
X146998302Y-84143919D01*
X147052241Y-84253295D01*
X147093336Y-84336628D01*
X147103115Y-84351263D01*
X147230570Y-84542013D01*
X147254759Y-84578215D01*
X147257473Y-84581309D01*
X147257477Y-84581315D01*
X147429107Y-84777020D01*
X147446335Y-84796665D01*
X147449424Y-84799374D01*
X147661685Y-84985523D01*
X147661691Y-84985527D01*
X147664785Y-84988241D01*
X147668211Y-84990530D01*
X147668216Y-84990534D01*
X147719037Y-85024491D01*
X147906372Y-85149664D01*
X147910071Y-85151488D01*
X147910076Y-85151491D01*
X147945920Y-85169167D01*
X148166962Y-85278173D01*
X148170867Y-85279499D01*
X148170868Y-85279499D01*
X148438190Y-85370243D01*
X148438194Y-85370244D01*
X148442097Y-85371569D01*
X148446136Y-85372372D01*
X148446142Y-85372374D01*
X148723025Y-85427449D01*
X148723028Y-85427449D01*
X148727068Y-85428253D01*
X148731179Y-85428522D01*
X148731183Y-85428523D01*
X149012881Y-85446986D01*
X149017000Y-85447256D01*
X149021119Y-85446986D01*
X149302817Y-85428523D01*
X149302821Y-85428522D01*
X149306932Y-85428253D01*
X149310972Y-85427449D01*
X149310975Y-85427449D01*
X149587858Y-85372374D01*
X149587864Y-85372372D01*
X149591903Y-85371569D01*
X149595806Y-85370244D01*
X149595810Y-85370243D01*
X149863132Y-85279499D01*
X149863133Y-85279499D01*
X149867038Y-85278173D01*
X150088080Y-85169167D01*
X150123924Y-85151491D01*
X150123929Y-85151488D01*
X150127628Y-85149664D01*
X150314963Y-85024491D01*
X150365784Y-84990534D01*
X150365789Y-84990530D01*
X150369215Y-84988241D01*
X150372309Y-84985527D01*
X150372315Y-84985523D01*
X150584576Y-84799374D01*
X150587665Y-84796665D01*
X150604893Y-84777020D01*
X150776523Y-84581315D01*
X150776527Y-84581309D01*
X150779241Y-84578215D01*
X150803431Y-84542013D01*
X150930885Y-84351263D01*
X150940664Y-84336628D01*
X150981760Y-84253295D01*
X151035698Y-84143919D01*
X151069173Y-84076038D01*
X151076392Y-84054771D01*
X151161243Y-83804810D01*
X151161244Y-83804806D01*
X151162569Y-83800903D01*
X151172387Y-83751548D01*
X151218449Y-83519975D01*
X151218449Y-83519972D01*
X151219253Y-83515932D01*
X151238256Y-83226000D01*
X151219253Y-82936068D01*
X151194810Y-82813183D01*
X151163374Y-82655142D01*
X151163372Y-82655136D01*
X151162569Y-82651097D01*
X151069173Y-82375962D01*
X150940664Y-82115372D01*
X150901847Y-82057279D01*
X150781534Y-81877216D01*
X150781530Y-81877211D01*
X150779241Y-81873785D01*
X150776527Y-81870691D01*
X150776523Y-81870685D01*
X150590374Y-81658424D01*
X150587665Y-81655335D01*
X150399735Y-81490524D01*
X150372315Y-81466477D01*
X150372309Y-81466473D01*
X150369215Y-81463759D01*
X150365789Y-81461470D01*
X150365784Y-81461466D01*
X150131061Y-81304630D01*
X150127628Y-81302336D01*
X150123929Y-81300512D01*
X150123924Y-81300509D01*
X149990208Y-81234568D01*
X149867038Y-81173827D01*
X149863132Y-81172501D01*
X149595810Y-81081757D01*
X149595806Y-81081756D01*
X149591903Y-81080431D01*
X149587864Y-81079628D01*
X149587858Y-81079626D01*
X149310975Y-81024551D01*
X149310972Y-81024551D01*
X149306932Y-81023747D01*
X149302821Y-81023478D01*
X149302817Y-81023477D01*
X149021119Y-81005014D01*
X149017000Y-81004744D01*
X149012881Y-81005014D01*
X148731183Y-81023477D01*
X148731179Y-81023478D01*
X148727068Y-81023747D01*
X148723028Y-81024551D01*
X148723025Y-81024551D01*
X148446142Y-81079626D01*
X148446136Y-81079628D01*
X148442097Y-81080431D01*
X148438194Y-81081756D01*
X148438190Y-81081757D01*
X148170868Y-81172501D01*
X148166962Y-81173827D01*
X148043792Y-81234568D01*
X147910076Y-81300509D01*
X147910071Y-81300512D01*
X147906372Y-81302336D01*
X147902939Y-81304630D01*
X147668216Y-81461466D01*
X147668211Y-81461470D01*
X147664785Y-81463759D01*
X147661691Y-81466473D01*
X147661685Y-81466477D01*
X147634265Y-81490524D01*
X147446335Y-81655335D01*
X147443626Y-81658424D01*
X147257477Y-81870685D01*
X147257473Y-81870691D01*
X147254759Y-81873785D01*
X147252470Y-81877211D01*
X147252466Y-81877216D01*
X147132153Y-82057279D01*
X147093336Y-82115372D01*
X146964827Y-82375962D01*
X146871431Y-82651097D01*
X146870628Y-82655136D01*
X146870626Y-82655142D01*
X146839190Y-82813183D01*
X146814747Y-82936068D01*
X146795744Y-83226000D01*
X146408256Y-83226000D01*
X146389253Y-82936068D01*
X146364810Y-82813183D01*
X146333374Y-82655142D01*
X146333372Y-82655136D01*
X146332569Y-82651097D01*
X146239173Y-82375962D01*
X146110664Y-82115372D01*
X146071847Y-82057279D01*
X145951534Y-81877216D01*
X145951530Y-81877211D01*
X145949241Y-81873785D01*
X145946527Y-81870691D01*
X145946523Y-81870685D01*
X145760374Y-81658424D01*
X145757665Y-81655335D01*
X145569735Y-81490524D01*
X145542315Y-81466477D01*
X145542309Y-81466473D01*
X145539215Y-81463759D01*
X145535789Y-81461470D01*
X145535784Y-81461466D01*
X145301061Y-81304630D01*
X145297628Y-81302336D01*
X145293929Y-81300512D01*
X145293924Y-81300509D01*
X145160208Y-81234568D01*
X145037038Y-81173827D01*
X145033132Y-81172501D01*
X144765810Y-81081757D01*
X144765806Y-81081756D01*
X144761903Y-81080431D01*
X144757864Y-81079628D01*
X144757858Y-81079626D01*
X144480975Y-81024551D01*
X144480972Y-81024551D01*
X144476932Y-81023747D01*
X144472821Y-81023478D01*
X144472817Y-81023477D01*
X144191119Y-81005014D01*
X144187000Y-81004744D01*
X144182881Y-81005014D01*
X143901183Y-81023477D01*
X143901179Y-81023478D01*
X143897068Y-81023747D01*
X143893028Y-81024551D01*
X143893025Y-81024551D01*
X143616142Y-81079626D01*
X143616136Y-81079628D01*
X143612097Y-81080431D01*
X143608194Y-81081756D01*
X143608190Y-81081757D01*
X143340868Y-81172501D01*
X143336962Y-81173827D01*
X143213792Y-81234568D01*
X143080076Y-81300509D01*
X143080071Y-81300512D01*
X143076372Y-81302336D01*
X143072939Y-81304630D01*
X142838216Y-81461466D01*
X142838211Y-81461470D01*
X142834785Y-81463759D01*
X142831691Y-81466473D01*
X142831685Y-81466477D01*
X142804265Y-81490524D01*
X142616335Y-81655335D01*
X142613626Y-81658424D01*
X142427477Y-81870685D01*
X142427473Y-81870691D01*
X142424759Y-81873785D01*
X142422470Y-81877211D01*
X142422466Y-81877216D01*
X142302153Y-82057279D01*
X142263336Y-82115372D01*
X142134827Y-82375962D01*
X142041431Y-82651097D01*
X142040628Y-82655136D01*
X142040626Y-82655142D01*
X142009190Y-82813183D01*
X141984747Y-82936068D01*
X141965744Y-83226000D01*
X124112932Y-83226000D01*
X124121256Y-83099000D01*
X124102253Y-82809068D01*
X124101449Y-82805025D01*
X124046374Y-82528142D01*
X124046372Y-82528136D01*
X124045569Y-82524097D01*
X123952173Y-82248962D01*
X123823664Y-81988372D01*
X123715530Y-81826538D01*
X123664534Y-81750216D01*
X123664530Y-81750211D01*
X123662241Y-81746785D01*
X123659527Y-81743691D01*
X123659523Y-81743685D01*
X123473374Y-81531424D01*
X123470665Y-81528335D01*
X123400130Y-81466477D01*
X123255315Y-81339477D01*
X123255309Y-81339473D01*
X123252215Y-81336759D01*
X123248789Y-81334470D01*
X123248784Y-81334466D01*
X123014061Y-81177630D01*
X123010628Y-81175336D01*
X123006929Y-81173512D01*
X123006924Y-81173509D01*
X122818180Y-81080431D01*
X122750038Y-81046827D01*
X122746132Y-81045501D01*
X122478810Y-80954757D01*
X122478806Y-80954756D01*
X122474903Y-80953431D01*
X122470864Y-80952628D01*
X122470858Y-80952626D01*
X122193975Y-80897551D01*
X122193972Y-80897551D01*
X122189932Y-80896747D01*
X122185821Y-80896478D01*
X122185817Y-80896477D01*
X121904119Y-80878014D01*
X121900000Y-80877744D01*
X121895881Y-80878014D01*
X121614183Y-80896477D01*
X121614179Y-80896478D01*
X121610068Y-80896747D01*
X121606028Y-80897551D01*
X121606025Y-80897551D01*
X121329142Y-80952626D01*
X121329136Y-80952628D01*
X121325097Y-80953431D01*
X121321194Y-80954756D01*
X121321190Y-80954757D01*
X121053868Y-81045501D01*
X121049962Y-81046827D01*
X120981820Y-81080431D01*
X120793076Y-81173509D01*
X120793071Y-81173512D01*
X120789372Y-81175336D01*
X120785939Y-81177630D01*
X120551216Y-81334466D01*
X120551211Y-81334470D01*
X120547785Y-81336759D01*
X120544691Y-81339473D01*
X120544685Y-81339477D01*
X120399870Y-81466477D01*
X120329335Y-81528335D01*
X120326626Y-81531424D01*
X120140477Y-81743685D01*
X120140473Y-81743691D01*
X120137759Y-81746785D01*
X120135470Y-81750211D01*
X120135466Y-81750216D01*
X120084470Y-81826538D01*
X119976336Y-81988372D01*
X119847827Y-82248962D01*
X119754431Y-82524097D01*
X119753628Y-82528136D01*
X119753626Y-82528142D01*
X119698551Y-82805025D01*
X119697747Y-82809068D01*
X119678744Y-83099000D01*
X37508500Y-83099000D01*
X37508500Y-80010000D01*
X45110771Y-80010000D01*
X45111461Y-80016565D01*
X45127014Y-80164534D01*
X45129635Y-80189475D01*
X45185401Y-80361107D01*
X45275633Y-80517393D01*
X45280051Y-80522300D01*
X45280052Y-80522301D01*
X45391965Y-80646593D01*
X45396387Y-80651504D01*
X45542385Y-80757578D01*
X45548413Y-80760262D01*
X45548415Y-80760263D01*
X45701217Y-80828295D01*
X45707248Y-80830980D01*
X45795508Y-80849740D01*
X45877311Y-80867128D01*
X45877315Y-80867128D01*
X45883768Y-80868500D01*
X46064232Y-80868500D01*
X46070685Y-80867128D01*
X46070689Y-80867128D01*
X46152492Y-80849740D01*
X46240752Y-80830980D01*
X46246783Y-80828295D01*
X46399585Y-80760263D01*
X46399587Y-80760262D01*
X46405615Y-80757578D01*
X46551613Y-80651504D01*
X46556035Y-80646593D01*
X46667948Y-80522301D01*
X46667949Y-80522300D01*
X46672367Y-80517393D01*
X46758125Y-80368856D01*
X46809506Y-80319864D01*
X46879220Y-80306428D01*
X46945131Y-80332814D01*
X46986016Y-80389797D01*
X47055742Y-80586695D01*
X47059139Y-80594546D01*
X47187284Y-80842823D01*
X47191712Y-80850135D01*
X47352366Y-81078720D01*
X47357752Y-81085371D01*
X47547941Y-81290040D01*
X47554177Y-81295895D01*
X47770381Y-81472857D01*
X47777353Y-81477812D01*
X48015582Y-81623798D01*
X48023152Y-81627756D01*
X48278985Y-81740058D01*
X48287045Y-81742960D01*
X48555736Y-81819499D01*
X48564111Y-81821279D01*
X48601064Y-81826538D01*
X48615051Y-81824507D01*
X48618719Y-81811983D01*
X49381000Y-81811983D01*
X49385044Y-81825754D01*
X49398582Y-81827783D01*
X49414181Y-81825729D01*
X49422563Y-81824039D01*
X49692044Y-81750317D01*
X49700139Y-81747498D01*
X49957126Y-81637884D01*
X49964749Y-81634000D01*
X50204482Y-81490524D01*
X50211511Y-81485639D01*
X50429560Y-81310947D01*
X50435849Y-81305164D01*
X50628176Y-81102494D01*
X50633629Y-81095901D01*
X50796662Y-80869018D01*
X50801174Y-80861742D01*
X50931911Y-80614822D01*
X50935390Y-80607008D01*
X51031404Y-80344637D01*
X51033793Y-80336414D01*
X51093312Y-80063434D01*
X51094561Y-80054978D01*
X51111807Y-79835854D01*
X51112000Y-79830929D01*
X51112000Y-79820242D01*
X55688000Y-79820242D01*
X55688146Y-79824537D01*
X55702359Y-80033024D01*
X55703520Y-80041498D01*
X55760178Y-80315089D01*
X55762477Y-80323324D01*
X55855742Y-80586695D01*
X55859139Y-80594546D01*
X55987284Y-80842823D01*
X55991712Y-80850135D01*
X56152366Y-81078720D01*
X56157752Y-81085371D01*
X56347941Y-81290040D01*
X56354177Y-81295895D01*
X56570381Y-81472857D01*
X56577353Y-81477812D01*
X56815582Y-81623798D01*
X56823152Y-81627756D01*
X57078985Y-81740058D01*
X57087045Y-81742960D01*
X57355736Y-81819499D01*
X57364111Y-81821279D01*
X57401064Y-81826538D01*
X57415051Y-81824507D01*
X57418719Y-81811983D01*
X58181000Y-81811983D01*
X58185044Y-81825754D01*
X58198582Y-81827783D01*
X58214181Y-81825729D01*
X58222563Y-81824039D01*
X58492044Y-81750317D01*
X58500139Y-81747498D01*
X58757126Y-81637884D01*
X58764749Y-81634000D01*
X59004482Y-81490524D01*
X59011511Y-81485639D01*
X59229560Y-81310947D01*
X59235849Y-81305164D01*
X59428176Y-81102494D01*
X59433629Y-81095901D01*
X59596662Y-80869018D01*
X59601174Y-80861742D01*
X59731911Y-80614822D01*
X59735390Y-80607008D01*
X59831404Y-80344637D01*
X59833793Y-80336414D01*
X59893312Y-80063434D01*
X59894561Y-80054978D01*
X59911807Y-79835854D01*
X59912000Y-79830929D01*
X59912000Y-79820242D01*
X73888000Y-79820242D01*
X73888146Y-79824537D01*
X73902359Y-80033024D01*
X73903520Y-80041498D01*
X73960178Y-80315089D01*
X73962477Y-80323324D01*
X74055742Y-80586695D01*
X74059139Y-80594546D01*
X74187284Y-80842823D01*
X74191712Y-80850135D01*
X74352366Y-81078720D01*
X74357752Y-81085371D01*
X74547941Y-81290040D01*
X74554177Y-81295895D01*
X74770381Y-81472857D01*
X74777353Y-81477812D01*
X75015582Y-81623798D01*
X75023152Y-81627756D01*
X75278985Y-81740058D01*
X75287045Y-81742960D01*
X75555736Y-81819499D01*
X75564111Y-81821279D01*
X75601064Y-81826538D01*
X75615051Y-81824507D01*
X75618719Y-81811983D01*
X76381000Y-81811983D01*
X76385044Y-81825754D01*
X76398582Y-81827783D01*
X76414181Y-81825729D01*
X76422563Y-81824039D01*
X76692044Y-81750317D01*
X76700139Y-81747498D01*
X76957126Y-81637884D01*
X76964749Y-81634000D01*
X77204482Y-81490524D01*
X77211511Y-81485639D01*
X77429560Y-81310947D01*
X77435849Y-81305164D01*
X77628176Y-81102494D01*
X77633629Y-81095901D01*
X77796662Y-80869018D01*
X77801174Y-80861742D01*
X77931911Y-80614822D01*
X77935390Y-80607008D01*
X78031404Y-80344637D01*
X78033793Y-80336414D01*
X78093312Y-80063434D01*
X78094561Y-80054978D01*
X78111807Y-79835854D01*
X78112000Y-79830929D01*
X78112000Y-79820242D01*
X82688000Y-79820242D01*
X82688146Y-79824537D01*
X82702359Y-80033024D01*
X82703520Y-80041498D01*
X82760178Y-80315089D01*
X82762477Y-80323324D01*
X82855742Y-80586695D01*
X82859139Y-80594546D01*
X82987284Y-80842823D01*
X82991712Y-80850135D01*
X83152366Y-81078720D01*
X83157752Y-81085371D01*
X83347941Y-81290040D01*
X83354177Y-81295895D01*
X83570381Y-81472857D01*
X83577353Y-81477812D01*
X83815582Y-81623798D01*
X83823152Y-81627756D01*
X84078985Y-81740058D01*
X84087045Y-81742960D01*
X84355736Y-81819499D01*
X84364111Y-81821279D01*
X84401064Y-81826538D01*
X84415051Y-81824507D01*
X84418719Y-81811983D01*
X85181000Y-81811983D01*
X85185044Y-81825754D01*
X85198582Y-81827783D01*
X85214181Y-81825729D01*
X85222563Y-81824039D01*
X85492044Y-81750317D01*
X85500139Y-81747498D01*
X85757126Y-81637884D01*
X85764749Y-81634000D01*
X86004482Y-81490524D01*
X86011511Y-81485639D01*
X86229560Y-81310947D01*
X86235849Y-81305164D01*
X86428176Y-81102494D01*
X86433629Y-81095901D01*
X86596662Y-80869018D01*
X86601174Y-80861742D01*
X86731911Y-80614822D01*
X86735390Y-80607008D01*
X86831404Y-80344637D01*
X86833793Y-80336414D01*
X86893312Y-80063434D01*
X86894561Y-80054978D01*
X86911807Y-79835854D01*
X86912000Y-79830929D01*
X86912000Y-78799115D01*
X86907525Y-78783876D01*
X86906135Y-78782671D01*
X86898452Y-78781000D01*
X85199115Y-78781000D01*
X85183876Y-78785475D01*
X85182671Y-78786865D01*
X85181000Y-78794548D01*
X85181000Y-81811983D01*
X84418719Y-81811983D01*
X84419000Y-81811022D01*
X84419000Y-78799115D01*
X84414525Y-78783876D01*
X84413135Y-78782671D01*
X84405452Y-78781000D01*
X82706115Y-78781000D01*
X82690876Y-78785475D01*
X82689671Y-78786865D01*
X82688000Y-78794548D01*
X82688000Y-79820242D01*
X78112000Y-79820242D01*
X78112000Y-78799115D01*
X78107525Y-78783876D01*
X78106135Y-78782671D01*
X78098452Y-78781000D01*
X76399115Y-78781000D01*
X76383876Y-78785475D01*
X76382671Y-78786865D01*
X76381000Y-78794548D01*
X76381000Y-81811983D01*
X75618719Y-81811983D01*
X75619000Y-81811022D01*
X75619000Y-78799115D01*
X75614525Y-78783876D01*
X75613135Y-78782671D01*
X75605452Y-78781000D01*
X73906115Y-78781000D01*
X73890876Y-78785475D01*
X73889671Y-78786865D01*
X73888000Y-78794548D01*
X73888000Y-79820242D01*
X59912000Y-79820242D01*
X59912000Y-78799115D01*
X59907525Y-78783876D01*
X59906135Y-78782671D01*
X59898452Y-78781000D01*
X58199115Y-78781000D01*
X58183876Y-78785475D01*
X58182671Y-78786865D01*
X58181000Y-78794548D01*
X58181000Y-81811983D01*
X57418719Y-81811983D01*
X57419000Y-81811022D01*
X57419000Y-78799115D01*
X57414525Y-78783876D01*
X57413135Y-78782671D01*
X57405452Y-78781000D01*
X55706115Y-78781000D01*
X55690876Y-78785475D01*
X55689671Y-78786865D01*
X55688000Y-78794548D01*
X55688000Y-79820242D01*
X51112000Y-79820242D01*
X51112000Y-78799115D01*
X51107525Y-78783876D01*
X51106135Y-78782671D01*
X51098452Y-78781000D01*
X49399115Y-78781000D01*
X49383876Y-78785475D01*
X49382671Y-78786865D01*
X49381000Y-78794548D01*
X49381000Y-81811983D01*
X48618719Y-81811983D01*
X48619000Y-81811022D01*
X48619000Y-78799115D01*
X48614525Y-78783876D01*
X48613135Y-78782671D01*
X48605452Y-78781000D01*
X46906115Y-78781000D01*
X46890876Y-78785475D01*
X46889671Y-78786865D01*
X46888000Y-78794548D01*
X46888000Y-79413851D01*
X46867998Y-79481972D01*
X46814342Y-79528465D01*
X46744068Y-79538569D01*
X46679488Y-79509075D01*
X46668370Y-79498168D01*
X46551613Y-79368496D01*
X46405615Y-79262422D01*
X46399587Y-79259738D01*
X46399585Y-79259737D01*
X46246783Y-79191705D01*
X46246781Y-79191705D01*
X46240752Y-79189020D01*
X46152492Y-79170260D01*
X46070689Y-79152872D01*
X46070685Y-79152872D01*
X46064232Y-79151500D01*
X45883768Y-79151500D01*
X45877315Y-79152872D01*
X45877311Y-79152872D01*
X45795508Y-79170260D01*
X45707248Y-79189020D01*
X45701219Y-79191704D01*
X45701217Y-79191705D01*
X45548416Y-79259737D01*
X45548414Y-79259738D01*
X45542386Y-79262422D01*
X45537045Y-79266302D01*
X45537044Y-79266303D01*
X45401731Y-79364613D01*
X45401729Y-79364615D01*
X45396387Y-79368496D01*
X45275633Y-79502607D01*
X45185401Y-79658893D01*
X45129635Y-79830525D01*
X45110771Y-80010000D01*
X37508500Y-80010000D01*
X37508500Y-78000885D01*
X46888000Y-78000885D01*
X46892475Y-78016124D01*
X46893865Y-78017329D01*
X46901548Y-78019000D01*
X48600885Y-78019000D01*
X48616124Y-78014525D01*
X48617329Y-78013135D01*
X48619000Y-78005452D01*
X48619000Y-78000885D01*
X49381000Y-78000885D01*
X49385475Y-78016124D01*
X49386865Y-78017329D01*
X49394548Y-78019000D01*
X51093885Y-78019000D01*
X51109124Y-78014525D01*
X51110329Y-78013135D01*
X51112000Y-78005452D01*
X51112000Y-78000885D01*
X55688000Y-78000885D01*
X55692475Y-78016124D01*
X55693865Y-78017329D01*
X55701548Y-78019000D01*
X57400885Y-78019000D01*
X57416124Y-78014525D01*
X57417329Y-78013135D01*
X57419000Y-78005452D01*
X57419000Y-78000885D01*
X58181000Y-78000885D01*
X58185475Y-78016124D01*
X58186865Y-78017329D01*
X58194548Y-78019000D01*
X59893885Y-78019000D01*
X59909124Y-78014525D01*
X59910329Y-78013135D01*
X59912000Y-78005452D01*
X59912000Y-78000885D01*
X73888000Y-78000885D01*
X73892475Y-78016124D01*
X73893865Y-78017329D01*
X73901548Y-78019000D01*
X75600885Y-78019000D01*
X75616124Y-78014525D01*
X75617329Y-78013135D01*
X75619000Y-78005452D01*
X75619000Y-78000885D01*
X76381000Y-78000885D01*
X76385475Y-78016124D01*
X76386865Y-78017329D01*
X76394548Y-78019000D01*
X78093885Y-78019000D01*
X78109124Y-78014525D01*
X78110329Y-78013135D01*
X78112000Y-78005452D01*
X78112000Y-78000885D01*
X82688000Y-78000885D01*
X82692475Y-78016124D01*
X82693865Y-78017329D01*
X82701548Y-78019000D01*
X84400885Y-78019000D01*
X84416124Y-78014525D01*
X84417329Y-78013135D01*
X84419000Y-78005452D01*
X84419000Y-78000885D01*
X85181000Y-78000885D01*
X85185475Y-78016124D01*
X85186865Y-78017329D01*
X85194548Y-78019000D01*
X86893885Y-78019000D01*
X86909124Y-78014525D01*
X86910329Y-78013135D01*
X86912000Y-78005452D01*
X86912000Y-76979759D01*
X86911854Y-76975463D01*
X86897641Y-76766976D01*
X86896480Y-76758502D01*
X86839822Y-76484911D01*
X86837523Y-76476676D01*
X86744258Y-76213305D01*
X86740861Y-76205454D01*
X86612716Y-75957177D01*
X86608288Y-75949865D01*
X86447634Y-75721280D01*
X86442248Y-75714629D01*
X86252059Y-75509960D01*
X86245823Y-75504105D01*
X86187490Y-75456360D01*
X119430000Y-75456360D01*
X119430337Y-75462876D01*
X119440314Y-75559029D01*
X119443207Y-75572426D01*
X119494941Y-75727492D01*
X119501115Y-75740670D01*
X119586908Y-75879311D01*
X119595944Y-75890711D01*
X119711333Y-76005898D01*
X119722744Y-76014910D01*
X119861543Y-76100468D01*
X119874721Y-76106612D01*
X120029897Y-76158082D01*
X120043263Y-76160948D01*
X120138176Y-76170672D01*
X120144591Y-76171000D01*
X120868148Y-76171000D01*
X120936269Y-76191002D01*
X120982762Y-76244658D01*
X120992866Y-76314932D01*
X120963372Y-76379512D01*
X120923876Y-76410006D01*
X120793076Y-76474509D01*
X120793071Y-76474512D01*
X120789372Y-76476336D01*
X120785939Y-76478630D01*
X120551216Y-76635466D01*
X120551211Y-76635470D01*
X120547785Y-76637759D01*
X120544691Y-76640473D01*
X120544685Y-76640477D01*
X120336985Y-76822626D01*
X120329335Y-76829335D01*
X120326626Y-76832424D01*
X120140477Y-77044685D01*
X120140473Y-77044691D01*
X120137759Y-77047785D01*
X119976336Y-77289372D01*
X119847827Y-77549962D01*
X119754431Y-77825097D01*
X119753628Y-77829136D01*
X119753626Y-77829142D01*
X119716194Y-78017329D01*
X119697747Y-78110068D01*
X119678744Y-78400000D01*
X119697747Y-78689932D01*
X119698551Y-78693972D01*
X119698551Y-78693975D01*
X119752831Y-78966858D01*
X119754431Y-78974903D01*
X119755756Y-78978806D01*
X119755757Y-78978810D01*
X119845143Y-79242132D01*
X119847827Y-79250038D01*
X119849651Y-79253736D01*
X119972537Y-79502924D01*
X119976336Y-79510628D01*
X119978630Y-79514061D01*
X120132794Y-79744784D01*
X120137759Y-79752215D01*
X120140473Y-79755309D01*
X120140477Y-79755315D01*
X120323118Y-79963576D01*
X120329335Y-79970665D01*
X120332424Y-79973374D01*
X120544685Y-80159523D01*
X120544691Y-80159527D01*
X120547785Y-80162241D01*
X120551211Y-80164530D01*
X120551216Y-80164534D01*
X120731279Y-80284847D01*
X120789372Y-80323664D01*
X120793071Y-80325488D01*
X120793076Y-80325491D01*
X120876904Y-80366830D01*
X121049962Y-80452173D01*
X121053867Y-80453499D01*
X121053868Y-80453499D01*
X121321190Y-80544243D01*
X121321194Y-80544244D01*
X121325097Y-80545569D01*
X121329136Y-80546372D01*
X121329142Y-80546374D01*
X121606025Y-80601449D01*
X121606028Y-80601449D01*
X121610068Y-80602253D01*
X121614179Y-80602522D01*
X121614183Y-80602523D01*
X121895881Y-80620986D01*
X121900000Y-80621256D01*
X121904119Y-80620986D01*
X122185817Y-80602523D01*
X122185821Y-80602522D01*
X122189932Y-80602253D01*
X122193972Y-80601449D01*
X122193975Y-80601449D01*
X122470858Y-80546374D01*
X122470864Y-80546372D01*
X122474903Y-80545569D01*
X122478806Y-80544244D01*
X122478810Y-80544243D01*
X122746132Y-80453499D01*
X122746133Y-80453499D01*
X122750038Y-80452173D01*
X122923096Y-80366830D01*
X123006924Y-80325491D01*
X123006929Y-80325488D01*
X123010628Y-80323664D01*
X123068721Y-80284847D01*
X123248784Y-80164534D01*
X123248789Y-80164530D01*
X123252215Y-80162241D01*
X123255309Y-80159527D01*
X123255315Y-80159523D01*
X123467576Y-79973374D01*
X123470665Y-79970665D01*
X123476882Y-79963576D01*
X123659523Y-79755315D01*
X123659527Y-79755309D01*
X123662241Y-79752215D01*
X123667207Y-79744784D01*
X123821370Y-79514061D01*
X123823664Y-79510628D01*
X123827464Y-79502924D01*
X123950349Y-79253736D01*
X123952173Y-79250038D01*
X123954857Y-79242132D01*
X124044243Y-78978810D01*
X124044244Y-78978806D01*
X124045569Y-78974903D01*
X124047170Y-78966858D01*
X124101449Y-78693975D01*
X124101449Y-78693972D01*
X124102253Y-78689932D01*
X124121256Y-78400000D01*
X124120994Y-78396000D01*
X141965744Y-78396000D01*
X141984747Y-78685932D01*
X141985551Y-78689972D01*
X141985551Y-78689975D01*
X142004824Y-78786865D01*
X142041431Y-78970903D01*
X142042756Y-78974806D01*
X142042757Y-78974810D01*
X142103201Y-79152872D01*
X142134827Y-79246038D01*
X142141583Y-79259737D01*
X142258933Y-79497699D01*
X142263336Y-79506628D01*
X142265630Y-79510061D01*
X142369276Y-79665178D01*
X142424759Y-79748215D01*
X142427473Y-79751309D01*
X142427477Y-79751315D01*
X142613626Y-79963576D01*
X142616335Y-79966665D01*
X142619424Y-79969374D01*
X142831685Y-80155523D01*
X142831691Y-80155527D01*
X142834785Y-80158241D01*
X142838211Y-80160530D01*
X142838216Y-80160534D01*
X142871706Y-80182911D01*
X143076372Y-80319664D01*
X143080071Y-80321488D01*
X143080076Y-80321491D01*
X143127012Y-80344637D01*
X143336962Y-80448173D01*
X143340867Y-80449499D01*
X143340868Y-80449499D01*
X143608190Y-80540243D01*
X143608194Y-80540244D01*
X143612097Y-80541569D01*
X143616136Y-80542372D01*
X143616142Y-80542374D01*
X143893025Y-80597449D01*
X143893028Y-80597449D01*
X143897068Y-80598253D01*
X143901179Y-80598522D01*
X143901183Y-80598523D01*
X144182881Y-80616986D01*
X144187000Y-80617256D01*
X144191119Y-80616986D01*
X144472817Y-80598523D01*
X144472821Y-80598522D01*
X144476932Y-80598253D01*
X144480972Y-80597449D01*
X144480975Y-80597449D01*
X144757858Y-80542374D01*
X144757864Y-80542372D01*
X144761903Y-80541569D01*
X144765806Y-80540244D01*
X144765810Y-80540243D01*
X145033132Y-80449499D01*
X145033133Y-80449499D01*
X145037038Y-80448173D01*
X145246988Y-80344637D01*
X145293924Y-80321491D01*
X145293929Y-80321488D01*
X145297628Y-80319664D01*
X145502294Y-80182911D01*
X145535784Y-80160534D01*
X145535789Y-80160530D01*
X145539215Y-80158241D01*
X145542309Y-80155527D01*
X145542315Y-80155523D01*
X145754576Y-79969374D01*
X145757665Y-79966665D01*
X145760374Y-79963576D01*
X145946523Y-79751315D01*
X145946527Y-79751309D01*
X145949241Y-79748215D01*
X146004725Y-79665178D01*
X146108370Y-79510061D01*
X146110664Y-79506628D01*
X146115068Y-79497699D01*
X146232417Y-79259737D01*
X146239173Y-79246038D01*
X146270799Y-79152872D01*
X146331243Y-78974810D01*
X146331244Y-78974806D01*
X146332569Y-78970903D01*
X146369177Y-78786865D01*
X146388449Y-78689975D01*
X146388449Y-78689972D01*
X146389253Y-78685932D01*
X146408256Y-78396000D01*
X146795744Y-78396000D01*
X146814747Y-78685932D01*
X146815551Y-78689972D01*
X146815551Y-78689975D01*
X146834824Y-78786865D01*
X146871431Y-78970903D01*
X146872756Y-78974806D01*
X146872757Y-78974810D01*
X146933201Y-79152872D01*
X146964827Y-79246038D01*
X146971583Y-79259737D01*
X147088933Y-79497699D01*
X147093336Y-79506628D01*
X147095630Y-79510061D01*
X147199276Y-79665178D01*
X147254759Y-79748215D01*
X147257473Y-79751309D01*
X147257477Y-79751315D01*
X147443626Y-79963576D01*
X147446335Y-79966665D01*
X147449424Y-79969374D01*
X147661685Y-80155523D01*
X147661691Y-80155527D01*
X147664785Y-80158241D01*
X147668211Y-80160530D01*
X147668216Y-80160534D01*
X147701706Y-80182911D01*
X147906372Y-80319664D01*
X147910071Y-80321488D01*
X147910076Y-80321491D01*
X147957012Y-80344637D01*
X148166962Y-80448173D01*
X148170867Y-80449499D01*
X148170868Y-80449499D01*
X148438190Y-80540243D01*
X148438194Y-80540244D01*
X148442097Y-80541569D01*
X148446136Y-80542372D01*
X148446142Y-80542374D01*
X148723025Y-80597449D01*
X148723028Y-80597449D01*
X148727068Y-80598253D01*
X148731179Y-80598522D01*
X148731183Y-80598523D01*
X149012881Y-80616986D01*
X149017000Y-80617256D01*
X149021119Y-80616986D01*
X149302817Y-80598523D01*
X149302821Y-80598522D01*
X149306932Y-80598253D01*
X149310972Y-80597449D01*
X149310975Y-80597449D01*
X149587858Y-80542374D01*
X149587864Y-80542372D01*
X149591903Y-80541569D01*
X149595806Y-80540244D01*
X149595810Y-80540243D01*
X149863132Y-80449499D01*
X149863133Y-80449499D01*
X149867038Y-80448173D01*
X150076988Y-80344637D01*
X150123924Y-80321491D01*
X150123929Y-80321488D01*
X150127628Y-80319664D01*
X150332294Y-80182911D01*
X150365784Y-80160534D01*
X150365789Y-80160530D01*
X150369215Y-80158241D01*
X150372309Y-80155527D01*
X150372315Y-80155523D01*
X150584576Y-79969374D01*
X150587665Y-79966665D01*
X150590374Y-79963576D01*
X150776523Y-79751315D01*
X150776527Y-79751309D01*
X150779241Y-79748215D01*
X150834725Y-79665178D01*
X150938370Y-79510061D01*
X150940664Y-79506628D01*
X150945068Y-79497699D01*
X151062417Y-79259737D01*
X151069173Y-79246038D01*
X151100799Y-79152872D01*
X151161243Y-78974810D01*
X151161244Y-78974806D01*
X151162569Y-78970903D01*
X151199177Y-78786865D01*
X151218449Y-78689975D01*
X151218449Y-78689972D01*
X151219253Y-78685932D01*
X151238256Y-78396000D01*
X151219253Y-78106068D01*
X151200768Y-78013135D01*
X151163374Y-77825142D01*
X151163372Y-77825136D01*
X151162569Y-77821097D01*
X151069173Y-77545962D01*
X151008432Y-77422792D01*
X150942491Y-77289076D01*
X150942488Y-77289071D01*
X150940664Y-77285372D01*
X150901847Y-77227279D01*
X150781534Y-77047216D01*
X150781530Y-77047211D01*
X150779241Y-77043785D01*
X150776527Y-77040691D01*
X150776523Y-77040685D01*
X150590374Y-76828424D01*
X150587665Y-76825335D01*
X150584576Y-76822626D01*
X150372315Y-76636477D01*
X150372309Y-76636473D01*
X150369215Y-76633759D01*
X150365789Y-76631470D01*
X150365784Y-76631466D01*
X150146448Y-76484911D01*
X150127628Y-76472336D01*
X150123929Y-76470512D01*
X150123924Y-76470509D01*
X149875149Y-76347827D01*
X149867038Y-76343827D01*
X149863132Y-76342501D01*
X149595810Y-76251757D01*
X149595806Y-76251756D01*
X149591903Y-76250431D01*
X149587864Y-76249628D01*
X149587858Y-76249626D01*
X149310975Y-76194551D01*
X149310972Y-76194551D01*
X149306932Y-76193747D01*
X149302821Y-76193478D01*
X149302817Y-76193477D01*
X149021119Y-76175014D01*
X149017000Y-76174744D01*
X149012881Y-76175014D01*
X148731183Y-76193477D01*
X148731179Y-76193478D01*
X148727068Y-76193747D01*
X148723028Y-76194551D01*
X148723025Y-76194551D01*
X148446142Y-76249626D01*
X148446136Y-76249628D01*
X148442097Y-76250431D01*
X148438194Y-76251756D01*
X148438190Y-76251757D01*
X148170868Y-76342501D01*
X148166962Y-76343827D01*
X148158851Y-76347827D01*
X147910076Y-76470509D01*
X147910071Y-76470512D01*
X147906372Y-76472336D01*
X147887552Y-76484911D01*
X147668216Y-76631466D01*
X147668211Y-76631470D01*
X147664785Y-76633759D01*
X147661691Y-76636473D01*
X147661685Y-76636477D01*
X147449424Y-76822626D01*
X147446335Y-76825335D01*
X147443626Y-76828424D01*
X147257477Y-77040685D01*
X147257473Y-77040691D01*
X147254759Y-77043785D01*
X147252470Y-77047211D01*
X147252466Y-77047216D01*
X147132153Y-77227279D01*
X147093336Y-77285372D01*
X147091512Y-77289071D01*
X147091509Y-77289076D01*
X147025568Y-77422792D01*
X146964827Y-77545962D01*
X146871431Y-77821097D01*
X146870628Y-77825136D01*
X146870626Y-77825142D01*
X146833232Y-78013135D01*
X146814747Y-78106068D01*
X146795744Y-78396000D01*
X146408256Y-78396000D01*
X146389253Y-78106068D01*
X146370768Y-78013135D01*
X146333374Y-77825142D01*
X146333372Y-77825136D01*
X146332569Y-77821097D01*
X146239173Y-77545962D01*
X146178432Y-77422792D01*
X146112491Y-77289076D01*
X146112488Y-77289071D01*
X146110664Y-77285372D01*
X146071847Y-77227279D01*
X145951534Y-77047216D01*
X145951530Y-77047211D01*
X145949241Y-77043785D01*
X145946527Y-77040691D01*
X145946523Y-77040685D01*
X145760374Y-76828424D01*
X145757665Y-76825335D01*
X145754576Y-76822626D01*
X145542315Y-76636477D01*
X145542309Y-76636473D01*
X145539215Y-76633759D01*
X145535789Y-76631470D01*
X145535784Y-76631466D01*
X145316448Y-76484911D01*
X145297628Y-76472336D01*
X145293929Y-76470512D01*
X145293924Y-76470509D01*
X145045149Y-76347827D01*
X145037038Y-76343827D01*
X145033132Y-76342501D01*
X144765810Y-76251757D01*
X144765806Y-76251756D01*
X144761903Y-76250431D01*
X144757864Y-76249628D01*
X144757858Y-76249626D01*
X144480975Y-76194551D01*
X144480972Y-76194551D01*
X144476932Y-76193747D01*
X144472821Y-76193478D01*
X144472817Y-76193477D01*
X144191119Y-76175014D01*
X144187000Y-76174744D01*
X144182881Y-76175014D01*
X143901183Y-76193477D01*
X143901179Y-76193478D01*
X143897068Y-76193747D01*
X143893028Y-76194551D01*
X143893025Y-76194551D01*
X143616142Y-76249626D01*
X143616136Y-76249628D01*
X143612097Y-76250431D01*
X143608194Y-76251756D01*
X143608190Y-76251757D01*
X143340868Y-76342501D01*
X143336962Y-76343827D01*
X143328851Y-76347827D01*
X143080076Y-76470509D01*
X143080071Y-76470512D01*
X143076372Y-76472336D01*
X143057552Y-76484911D01*
X142838216Y-76631466D01*
X142838211Y-76631470D01*
X142834785Y-76633759D01*
X142831691Y-76636473D01*
X142831685Y-76636477D01*
X142619424Y-76822626D01*
X142616335Y-76825335D01*
X142613626Y-76828424D01*
X142427477Y-77040685D01*
X142427473Y-77040691D01*
X142424759Y-77043785D01*
X142422470Y-77047211D01*
X142422466Y-77047216D01*
X142302153Y-77227279D01*
X142263336Y-77285372D01*
X142261512Y-77289071D01*
X142261509Y-77289076D01*
X142195568Y-77422792D01*
X142134827Y-77545962D01*
X142041431Y-77821097D01*
X142040628Y-77825136D01*
X142040626Y-77825142D01*
X142003232Y-78013135D01*
X141984747Y-78106068D01*
X141965744Y-78396000D01*
X124120994Y-78396000D01*
X124102253Y-78110068D01*
X124083806Y-78017329D01*
X124046374Y-77829142D01*
X124046372Y-77829136D01*
X124045569Y-77825097D01*
X123952173Y-77549962D01*
X123823664Y-77289372D01*
X123662241Y-77047785D01*
X123659527Y-77044691D01*
X123659523Y-77044685D01*
X123473374Y-76832424D01*
X123470665Y-76829335D01*
X123463015Y-76822626D01*
X123255315Y-76640477D01*
X123255309Y-76640473D01*
X123252215Y-76637759D01*
X123248789Y-76635470D01*
X123248784Y-76635466D01*
X123014061Y-76478630D01*
X123010628Y-76476336D01*
X123006929Y-76474512D01*
X123006924Y-76474509D01*
X122876124Y-76410006D01*
X122823875Y-76361938D01*
X122805908Y-76293252D01*
X122827927Y-76225756D01*
X122882942Y-76180880D01*
X122931852Y-76171000D01*
X123655360Y-76171000D01*
X123661876Y-76170663D01*
X123758029Y-76160686D01*
X123771426Y-76157793D01*
X123926492Y-76106059D01*
X123939670Y-76099885D01*
X124078311Y-76014092D01*
X124089711Y-76005056D01*
X124204898Y-75889667D01*
X124213910Y-75878256D01*
X124299468Y-75739457D01*
X124305612Y-75726279D01*
X124357082Y-75571103D01*
X124359948Y-75557737D01*
X124369672Y-75462824D01*
X124370000Y-75456409D01*
X124370000Y-75322134D01*
X141970500Y-75322134D01*
X141977255Y-75384316D01*
X142028385Y-75520705D01*
X142115739Y-75637261D01*
X142232295Y-75724615D01*
X142368684Y-75775745D01*
X142430866Y-75782500D01*
X145943134Y-75782500D01*
X146005316Y-75775745D01*
X146141705Y-75724615D01*
X146258261Y-75637261D01*
X146345615Y-75520705D01*
X146396745Y-75384316D01*
X146403500Y-75322134D01*
X146403500Y-73566000D01*
X146795744Y-73566000D01*
X146796014Y-73570119D01*
X146809799Y-73780435D01*
X146814747Y-73855932D01*
X146815551Y-73859972D01*
X146815551Y-73859975D01*
X146869625Y-74131822D01*
X146871431Y-74140903D01*
X146964827Y-74416038D01*
X147021371Y-74530697D01*
X147077309Y-74644128D01*
X147093336Y-74676628D01*
X147254759Y-74918215D01*
X147257473Y-74921309D01*
X147257477Y-74921315D01*
X147443626Y-75133576D01*
X147446335Y-75136665D01*
X147449424Y-75139374D01*
X147661685Y-75325523D01*
X147661691Y-75325527D01*
X147664785Y-75328241D01*
X147668211Y-75330530D01*
X147668216Y-75330534D01*
X147848279Y-75450847D01*
X147906372Y-75489664D01*
X147910071Y-75491488D01*
X147910076Y-75491491D01*
X148043792Y-75557432D01*
X148166962Y-75618173D01*
X148170867Y-75619499D01*
X148170868Y-75619499D01*
X148438190Y-75710243D01*
X148438194Y-75710244D01*
X148442097Y-75711569D01*
X148446136Y-75712372D01*
X148446142Y-75712374D01*
X148723025Y-75767449D01*
X148723028Y-75767449D01*
X148727068Y-75768253D01*
X148731179Y-75768522D01*
X148731183Y-75768523D01*
X149012881Y-75786986D01*
X149017000Y-75787256D01*
X149021119Y-75786986D01*
X149302817Y-75768523D01*
X149302821Y-75768522D01*
X149306932Y-75768253D01*
X149310972Y-75767449D01*
X149310975Y-75767449D01*
X149587858Y-75712374D01*
X149587864Y-75712372D01*
X149591903Y-75711569D01*
X149595806Y-75710244D01*
X149595810Y-75710243D01*
X149863132Y-75619499D01*
X149863133Y-75619499D01*
X149867038Y-75618173D01*
X149990208Y-75557432D01*
X150123924Y-75491491D01*
X150123929Y-75491488D01*
X150127628Y-75489664D01*
X150185721Y-75450847D01*
X150365784Y-75330534D01*
X150365789Y-75330530D01*
X150369215Y-75328241D01*
X150372309Y-75325527D01*
X150372315Y-75325523D01*
X150584576Y-75139374D01*
X150587665Y-75136665D01*
X150590374Y-75133576D01*
X150776523Y-74921315D01*
X150776527Y-74921309D01*
X150779241Y-74918215D01*
X150940664Y-74676628D01*
X150956692Y-74644128D01*
X151012629Y-74530697D01*
X151069173Y-74416038D01*
X151162569Y-74140903D01*
X151164376Y-74131822D01*
X151218449Y-73859975D01*
X151218449Y-73859972D01*
X151219253Y-73855932D01*
X151224202Y-73780435D01*
X151237986Y-73570119D01*
X151238256Y-73566000D01*
X151230140Y-73442178D01*
X151219523Y-73280183D01*
X151219522Y-73280179D01*
X151219253Y-73276068D01*
X151193281Y-73145496D01*
X151163374Y-72995142D01*
X151163372Y-72995136D01*
X151162569Y-72991097D01*
X151154057Y-72966020D01*
X151070499Y-72719868D01*
X151070499Y-72719867D01*
X151069173Y-72715962D01*
X150940664Y-72455372D01*
X150779241Y-72213785D01*
X150776527Y-72210691D01*
X150776523Y-72210685D01*
X150590374Y-71998424D01*
X150587665Y-71995335D01*
X150413928Y-71842971D01*
X150372315Y-71806477D01*
X150372305Y-71806469D01*
X150369215Y-71803759D01*
X150365789Y-71801470D01*
X150365784Y-71801466D01*
X150157870Y-71662543D01*
X150127628Y-71642336D01*
X150123929Y-71640512D01*
X150123924Y-71640509D01*
X149990208Y-71574568D01*
X149867038Y-71513827D01*
X149862637Y-71512333D01*
X149595810Y-71421757D01*
X149595806Y-71421756D01*
X149591903Y-71420431D01*
X149587864Y-71419628D01*
X149587858Y-71419626D01*
X149310975Y-71364551D01*
X149310972Y-71364551D01*
X149306932Y-71363747D01*
X149302821Y-71363478D01*
X149302817Y-71363477D01*
X149021119Y-71345014D01*
X149017000Y-71344744D01*
X149012881Y-71345014D01*
X148731183Y-71363477D01*
X148731179Y-71363478D01*
X148727068Y-71363747D01*
X148723028Y-71364551D01*
X148723025Y-71364551D01*
X148446142Y-71419626D01*
X148446136Y-71419628D01*
X148442097Y-71420431D01*
X148438194Y-71421756D01*
X148438190Y-71421757D01*
X148171363Y-71512333D01*
X148166962Y-71513827D01*
X148043792Y-71574568D01*
X147910076Y-71640509D01*
X147910071Y-71640512D01*
X147906372Y-71642336D01*
X147876130Y-71662543D01*
X147668216Y-71801466D01*
X147668211Y-71801470D01*
X147664785Y-71803759D01*
X147661695Y-71806469D01*
X147661685Y-71806477D01*
X147620072Y-71842971D01*
X147446335Y-71995335D01*
X147443626Y-71998424D01*
X147257477Y-72210685D01*
X147257473Y-72210691D01*
X147254759Y-72213785D01*
X147093336Y-72455372D01*
X146964827Y-72715962D01*
X146963501Y-72719867D01*
X146963501Y-72719868D01*
X146879944Y-72966020D01*
X146871431Y-72991097D01*
X146870628Y-72995136D01*
X146870626Y-72995142D01*
X146840719Y-73145496D01*
X146814747Y-73276068D01*
X146814478Y-73280179D01*
X146814477Y-73280183D01*
X146803860Y-73442178D01*
X146795744Y-73566000D01*
X146403500Y-73566000D01*
X146403500Y-71809866D01*
X146396745Y-71747684D01*
X146345615Y-71611295D01*
X146258261Y-71494739D01*
X146141705Y-71407385D01*
X146005316Y-71356255D01*
X145943134Y-71349500D01*
X142430866Y-71349500D01*
X142368684Y-71356255D01*
X142232295Y-71407385D01*
X142115739Y-71494739D01*
X142028385Y-71611295D01*
X141977255Y-71747684D01*
X141970500Y-71809866D01*
X141970500Y-75322134D01*
X124370000Y-75322134D01*
X124370000Y-74100115D01*
X124365525Y-74084876D01*
X124364135Y-74083671D01*
X124356452Y-74082000D01*
X119448115Y-74082000D01*
X119432876Y-74086475D01*
X119431671Y-74087865D01*
X119430000Y-74095548D01*
X119430000Y-75456360D01*
X86187490Y-75456360D01*
X86029619Y-75327143D01*
X86022647Y-75322188D01*
X85784418Y-75176202D01*
X85776848Y-75172244D01*
X85521015Y-75059942D01*
X85512955Y-75057040D01*
X85244264Y-74980501D01*
X85235889Y-74978721D01*
X85198936Y-74973462D01*
X85184949Y-74975493D01*
X85181000Y-74988978D01*
X85181000Y-78000885D01*
X84419000Y-78000885D01*
X84419000Y-74988017D01*
X84414956Y-74974246D01*
X84401418Y-74972217D01*
X84385819Y-74974271D01*
X84377437Y-74975961D01*
X84107956Y-75049683D01*
X84099861Y-75052502D01*
X83842874Y-75162116D01*
X83835251Y-75166000D01*
X83595518Y-75309476D01*
X83588489Y-75314361D01*
X83370440Y-75489053D01*
X83364151Y-75494836D01*
X83171824Y-75697506D01*
X83166371Y-75704099D01*
X83003338Y-75930982D01*
X82998826Y-75938258D01*
X82868089Y-76185178D01*
X82864610Y-76192992D01*
X82768596Y-76455363D01*
X82766207Y-76463586D01*
X82706688Y-76736566D01*
X82705439Y-76745022D01*
X82688193Y-76964146D01*
X82688000Y-76969072D01*
X82688000Y-78000885D01*
X78112000Y-78000885D01*
X78112000Y-76979759D01*
X78111854Y-76975463D01*
X78097641Y-76766976D01*
X78096480Y-76758502D01*
X78039822Y-76484911D01*
X78037523Y-76476676D01*
X77944258Y-76213305D01*
X77940861Y-76205454D01*
X77812716Y-75957177D01*
X77808288Y-75949865D01*
X77647634Y-75721280D01*
X77642248Y-75714629D01*
X77452059Y-75509960D01*
X77445823Y-75504105D01*
X77229619Y-75327143D01*
X77222647Y-75322188D01*
X76984418Y-75176202D01*
X76976848Y-75172244D01*
X76721015Y-75059942D01*
X76712955Y-75057040D01*
X76444264Y-74980501D01*
X76435889Y-74978721D01*
X76398936Y-74973462D01*
X76384949Y-74975493D01*
X76381000Y-74988978D01*
X76381000Y-78000885D01*
X75619000Y-78000885D01*
X75619000Y-74988017D01*
X75614956Y-74974246D01*
X75601418Y-74972217D01*
X75585819Y-74974271D01*
X75577437Y-74975961D01*
X75307956Y-75049683D01*
X75299861Y-75052502D01*
X75042874Y-75162116D01*
X75035251Y-75166000D01*
X74795518Y-75309476D01*
X74788489Y-75314361D01*
X74570440Y-75489053D01*
X74564151Y-75494836D01*
X74371824Y-75697506D01*
X74366371Y-75704099D01*
X74203338Y-75930982D01*
X74198826Y-75938258D01*
X74068089Y-76185178D01*
X74064610Y-76192992D01*
X73968596Y-76455363D01*
X73966207Y-76463586D01*
X73906688Y-76736566D01*
X73905439Y-76745022D01*
X73888193Y-76964146D01*
X73888000Y-76969072D01*
X73888000Y-78000885D01*
X59912000Y-78000885D01*
X59912000Y-76979759D01*
X59911854Y-76975463D01*
X59897641Y-76766976D01*
X59896480Y-76758502D01*
X59839822Y-76484911D01*
X59837523Y-76476676D01*
X59744258Y-76213305D01*
X59740861Y-76205454D01*
X59612716Y-75957177D01*
X59608288Y-75949865D01*
X59447634Y-75721280D01*
X59442248Y-75714629D01*
X59252059Y-75509960D01*
X59245823Y-75504105D01*
X59029619Y-75327143D01*
X59022647Y-75322188D01*
X58784418Y-75176202D01*
X58776848Y-75172244D01*
X58521015Y-75059942D01*
X58512955Y-75057040D01*
X58244264Y-74980501D01*
X58235889Y-74978721D01*
X58198936Y-74973462D01*
X58184949Y-74975493D01*
X58181000Y-74988978D01*
X58181000Y-78000885D01*
X57419000Y-78000885D01*
X57419000Y-74988017D01*
X57414956Y-74974246D01*
X57401418Y-74972217D01*
X57385819Y-74974271D01*
X57377437Y-74975961D01*
X57107956Y-75049683D01*
X57099861Y-75052502D01*
X56842874Y-75162116D01*
X56835251Y-75166000D01*
X56595518Y-75309476D01*
X56588489Y-75314361D01*
X56370440Y-75489053D01*
X56364151Y-75494836D01*
X56171824Y-75697506D01*
X56166371Y-75704099D01*
X56003338Y-75930982D01*
X55998826Y-75938258D01*
X55868089Y-76185178D01*
X55864610Y-76192992D01*
X55768596Y-76455363D01*
X55766207Y-76463586D01*
X55706688Y-76736566D01*
X55705439Y-76745022D01*
X55688193Y-76964146D01*
X55688000Y-76969072D01*
X55688000Y-78000885D01*
X51112000Y-78000885D01*
X51112000Y-76979759D01*
X51111854Y-76975463D01*
X51097641Y-76766976D01*
X51096480Y-76758502D01*
X51039822Y-76484911D01*
X51037523Y-76476676D01*
X50944258Y-76213305D01*
X50940861Y-76205454D01*
X50812716Y-75957177D01*
X50808288Y-75949865D01*
X50647634Y-75721280D01*
X50642248Y-75714629D01*
X50452059Y-75509960D01*
X50445823Y-75504105D01*
X50229619Y-75327143D01*
X50222647Y-75322188D01*
X49984418Y-75176202D01*
X49976848Y-75172244D01*
X49721015Y-75059942D01*
X49712955Y-75057040D01*
X49444264Y-74980501D01*
X49435889Y-74978721D01*
X49398936Y-74973462D01*
X49384949Y-74975493D01*
X49381000Y-74988978D01*
X49381000Y-78000885D01*
X48619000Y-78000885D01*
X48619000Y-74988017D01*
X48614956Y-74974246D01*
X48601418Y-74972217D01*
X48585819Y-74974271D01*
X48577437Y-74975961D01*
X48307956Y-75049683D01*
X48299861Y-75052502D01*
X48042874Y-75162116D01*
X48035251Y-75166000D01*
X47795518Y-75309476D01*
X47788489Y-75314361D01*
X47570440Y-75489053D01*
X47564151Y-75494836D01*
X47371824Y-75697506D01*
X47366371Y-75704099D01*
X47203338Y-75930982D01*
X47198826Y-75938258D01*
X47068089Y-76185178D01*
X47064610Y-76192992D01*
X46968596Y-76455363D01*
X46966207Y-76463586D01*
X46906688Y-76736566D01*
X46905439Y-76745022D01*
X46888193Y-76964146D01*
X46888000Y-76969072D01*
X46888000Y-78000885D01*
X37508500Y-78000885D01*
X37508500Y-73787000D01*
X63271771Y-73787000D01*
X63290635Y-73966475D01*
X63346401Y-74138107D01*
X63436633Y-74294393D01*
X63441051Y-74299300D01*
X63441052Y-74299301D01*
X63549492Y-74419736D01*
X63557387Y-74428504D01*
X63703385Y-74534578D01*
X63709413Y-74537262D01*
X63709415Y-74537263D01*
X63862217Y-74605295D01*
X63868248Y-74607980D01*
X63956508Y-74626740D01*
X64038311Y-74644128D01*
X64038315Y-74644128D01*
X64044768Y-74645500D01*
X64225232Y-74645500D01*
X64231685Y-74644128D01*
X64231689Y-74644128D01*
X64313492Y-74626740D01*
X64401752Y-74607980D01*
X64407783Y-74605295D01*
X64560585Y-74537263D01*
X64560587Y-74537262D01*
X64566615Y-74534578D01*
X64712613Y-74428504D01*
X64720508Y-74419736D01*
X64828948Y-74299301D01*
X64828949Y-74299300D01*
X64833367Y-74294393D01*
X64923599Y-74138107D01*
X64979365Y-73966475D01*
X64998229Y-73787000D01*
X64979365Y-73607525D01*
X64923599Y-73435893D01*
X64846229Y-73301885D01*
X119430000Y-73301885D01*
X119434475Y-73317124D01*
X119435865Y-73318329D01*
X119443548Y-73320000D01*
X121500885Y-73320000D01*
X121516124Y-73315525D01*
X121517329Y-73314135D01*
X121519000Y-73306452D01*
X121519000Y-73301885D01*
X122281000Y-73301885D01*
X122285475Y-73317124D01*
X122286865Y-73318329D01*
X122294548Y-73320000D01*
X124351885Y-73320000D01*
X124367124Y-73315525D01*
X124368329Y-73314135D01*
X124370000Y-73306452D01*
X124370000Y-71945640D01*
X124369663Y-71939124D01*
X124359686Y-71842971D01*
X124356793Y-71829574D01*
X124305059Y-71674508D01*
X124298885Y-71661330D01*
X124213092Y-71522689D01*
X124204056Y-71511289D01*
X124088667Y-71396102D01*
X124077256Y-71387090D01*
X123938457Y-71301532D01*
X123925279Y-71295388D01*
X123770103Y-71243918D01*
X123756737Y-71241052D01*
X123661824Y-71231328D01*
X123655409Y-71231000D01*
X122299115Y-71231000D01*
X122283876Y-71235475D01*
X122282671Y-71236865D01*
X122281000Y-71244548D01*
X122281000Y-73301885D01*
X121519000Y-73301885D01*
X121519000Y-71249115D01*
X121514525Y-71233876D01*
X121513135Y-71232671D01*
X121505452Y-71231000D01*
X120144640Y-71231000D01*
X120138124Y-71231337D01*
X120041971Y-71241314D01*
X120028574Y-71244207D01*
X119873508Y-71295941D01*
X119860330Y-71302115D01*
X119721689Y-71387908D01*
X119710289Y-71396944D01*
X119595102Y-71512333D01*
X119586090Y-71523744D01*
X119500532Y-71662543D01*
X119494388Y-71675721D01*
X119442918Y-71830897D01*
X119440052Y-71844263D01*
X119430328Y-71939176D01*
X119430000Y-71945591D01*
X119430000Y-73301885D01*
X64846229Y-73301885D01*
X64833367Y-73279607D01*
X64712613Y-73145496D01*
X64566615Y-73039422D01*
X64560587Y-73036738D01*
X64560585Y-73036737D01*
X64407783Y-72968705D01*
X64407781Y-72968705D01*
X64401752Y-72966020D01*
X64313492Y-72947260D01*
X64231689Y-72929872D01*
X64231685Y-72929872D01*
X64225232Y-72928500D01*
X64044768Y-72928500D01*
X64038315Y-72929872D01*
X64038311Y-72929872D01*
X63956508Y-72947260D01*
X63868248Y-72966020D01*
X63862219Y-72968704D01*
X63862217Y-72968705D01*
X63709416Y-73036737D01*
X63709414Y-73036738D01*
X63703386Y-73039422D01*
X63698045Y-73043302D01*
X63698044Y-73043303D01*
X63562731Y-73141613D01*
X63562729Y-73141615D01*
X63557387Y-73145496D01*
X63436633Y-73279607D01*
X63346401Y-73435893D01*
X63290635Y-73607525D01*
X63271771Y-73787000D01*
X37508500Y-73787000D01*
X37508500Y-69634500D01*
X37528502Y-69566379D01*
X37582158Y-69519886D01*
X37634500Y-69508500D01*
X162365500Y-69508500D01*
X162433621Y-69528502D01*
G37*
%TD.AperFunction*%
%TD*%
M02*
