%TF.GenerationSoftware,KiCad,Pcbnew,(6.0.9-0)*%
%TF.CreationDate,2024-08-25T20:50:42+02:00*%
%TF.ProjectId,preamp-test,70726561-6d70-42d7-9465-73742e6b6963,rev?*%
%TF.SameCoordinates,Original*%
%TF.FileFunction,Copper,L1,Top*%
%TF.FilePolarity,Positive*%
%FSLAX46Y46*%
G04 Gerber Fmt 4.6, Leading zero omitted, Abs format (unit mm)*
G04 Created by KiCad (PCBNEW (6.0.9-0)) date 2024-08-25 20:50:42*
%MOMM*%
%LPD*%
G01*
G04 APERTURE LIST*
%TA.AperFunction,ComponentPad*%
%ADD10R,3.416000X3.416000*%
%TD*%
%TA.AperFunction,ComponentPad*%
%ADD11O,3.416000X3.416000*%
%TD*%
%TA.AperFunction,ComponentPad*%
%ADD12O,2.700000X5.400000*%
%TD*%
%TA.AperFunction,ComponentPad*%
%ADD13R,1.800000X1.800000*%
%TD*%
%TA.AperFunction,ComponentPad*%
%ADD14C,1.800000*%
%TD*%
%TA.AperFunction,ComponentPad*%
%ADD15C,1.500000*%
%TD*%
%TA.AperFunction,ComponentPad*%
%ADD16R,1.700000X1.700000*%
%TD*%
%TA.AperFunction,ComponentPad*%
%ADD17O,1.700000X1.700000*%
%TD*%
%TA.AperFunction,ViaPad*%
%ADD18C,0.700000*%
%TD*%
%TA.AperFunction,ViaPad*%
%ADD19C,0.800000*%
%TD*%
%TA.AperFunction,Conductor*%
%ADD20C,0.500000*%
%TD*%
%TA.AperFunction,Conductor*%
%ADD21C,0.800000*%
%TD*%
G04 APERTURE END LIST*
D10*
%TO.P,SW1,1,A*%
%TO.N,/GND*%
X121900000Y-73701000D03*
D11*
%TO.P,SW1,2,B*%
%TO.N,/InGND*%
X121900000Y-78400000D03*
%TO.P,SW1,3,C*%
%TO.N,unconnected-(SW1-Pad3)*%
X121900000Y-83099000D03*
%TD*%
D12*
%TO.P,RV2,0,ShieldPin*%
%TO.N,/GND*%
X57800000Y-78400000D03*
X49000000Y-78400000D03*
D13*
%TO.P,RV2,1,1*%
X50900000Y-85400000D03*
D14*
%TO.P,RV2,2,2*%
%TO.N,Net-(RV2-Pad2)*%
X53400000Y-85400000D03*
%TO.P,RV2,3,3*%
%TO.N,/VolumeIn*%
X55900000Y-85400000D03*
%TD*%
D12*
%TO.P,RV1,0,ShieldPin*%
%TO.N,/GND*%
X84800000Y-78400000D03*
X76000000Y-78400000D03*
D13*
%TO.P,RV1,1,1*%
%TO.N,/Preamp/Rg1*%
X77900000Y-85400000D03*
D14*
%TO.P,RV1,2,2*%
X80400000Y-85400000D03*
%TO.P,RV1,3,3*%
%TO.N,Net-(R10-Pad2)*%
X82900000Y-85400000D03*
%TD*%
D10*
%TO.P,SW2,1,A*%
%TO.N,/In+*%
X144187000Y-73566000D03*
D11*
%TO.P,SW2,2,B*%
%TO.N,/Sig+*%
X144187000Y-78396000D03*
%TO.P,SW2,3,C*%
%TO.N,/In-*%
X144187000Y-83226000D03*
%TO.P,SW2,4,A*%
X149017000Y-73566000D03*
%TO.P,SW2,5,B*%
%TO.N,/Sig-*%
X149017000Y-78396000D03*
%TO.P,SW2,6,C*%
%TO.N,/In+*%
X149017000Y-83226000D03*
%TD*%
D15*
%TO.P,TP3,1,1*%
%TO.N,/Preamp/InPre+*%
X84455000Y-92710000D03*
%TD*%
%TO.P,TP1,1,1*%
%TO.N,/-9V*%
X87307500Y-117094000D03*
%TD*%
%TO.P,TP4,1,1*%
%TO.N,/Preamp/InPre-*%
X116078000Y-92710000D03*
%TD*%
%TO.P,TP7,1,1*%
%TO.N,/Line Driver/LineOut-*%
X70104000Y-105410000D03*
%TD*%
%TO.P,TP2,1,1*%
%TO.N,Net-(C10-Pad1)*%
X97790000Y-90424000D03*
%TD*%
%TO.P,TP6,1,1*%
%TO.N,/Line Driver/LineOut+*%
X43688000Y-105410000D03*
%TD*%
D16*
%TO.P,J1,1,Pin_1*%
%TO.N,/-9V*%
X138303000Y-121500000D03*
D17*
%TO.P,J1,2,Pin_2*%
%TO.N,/GND*%
X140843000Y-121500000D03*
%TO.P,J1,3,Pin_3*%
%TO.N,/+9V*%
X143383000Y-121500000D03*
%TO.P,J1,4,Pin_4*%
%TO.N,/Phantom*%
X145923000Y-121500000D03*
%TO.P,J1,5,Pin_5*%
%TO.N,/GND*%
X148463000Y-121500000D03*
%TO.P,J1,6,Pin_6*%
%TO.N,/PreOut*%
X151003000Y-121500000D03*
%TO.P,J1,7,Pin_7*%
%TO.N,/Snd*%
X153543000Y-121500000D03*
%TO.P,J1,8,Pin_8*%
%TO.N,/GND*%
X156083000Y-121500000D03*
%TD*%
D15*
%TO.P,TP5,1,1*%
%TO.N,Net-(RV2-Pad2)*%
X61722000Y-84836000D03*
%TD*%
D18*
%TO.N,/+9V*%
X97028000Y-85598000D03*
X45974000Y-80010000D03*
X49276000Y-116840000D03*
X64135000Y-73787000D03*
X102870000Y-101854000D03*
X89593500Y-114427000D03*
X66294000Y-118618000D03*
X97282000Y-101854000D03*
%TO.N,/GND*%
X101600000Y-101854000D03*
X98298000Y-101854000D03*
X39624000Y-76962000D03*
X53086000Y-124841000D03*
X65278000Y-118618000D03*
X145415000Y-86487000D03*
X76200000Y-92456000D03*
X145288000Y-98298000D03*
X85275500Y-116967000D03*
X105849500Y-118237000D03*
X56134000Y-88646000D03*
X143764000Y-98298000D03*
X89466500Y-112903000D03*
X105156000Y-89662000D03*
X89466500Y-124587000D03*
X62992000Y-73787000D03*
X49276000Y-117856000D03*
X57785000Y-115443000D03*
X67818000Y-85344000D03*
X97028000Y-84698497D03*
X50292000Y-98552000D03*
X49276000Y-108458000D03*
X150622000Y-98298000D03*
X69342000Y-92456000D03*
X94488000Y-77978000D03*
D19*
X146050000Y-115824000D03*
D18*
X63500000Y-108458000D03*
X53086000Y-120396000D03*
X143383000Y-88900000D03*
X54356000Y-88646000D03*
X99822000Y-88646000D03*
%TO.N,/-9V*%
X74803000Y-92456000D03*
X53086000Y-119253000D03*
X70739000Y-92456000D03*
X51689000Y-124841000D03*
D19*
%TO.N,/InGND*%
X146000000Y-87500000D03*
%TO.N,/Phantom*%
X135128000Y-107442000D03*
D18*
X157226000Y-107442000D03*
%TO.N,/Snd*%
X160401000Y-88773000D03*
X144526000Y-88900000D03*
%TD*%
D20*
%TO.N,/-9V*%
X74803000Y-92456000D02*
X70739000Y-92456000D01*
X53086000Y-119253000D02*
X51689000Y-120650000D01*
X51689000Y-120650000D02*
X51689000Y-124841000D01*
D21*
%TO.N,/InGND*%
X146000000Y-87500000D02*
X132500000Y-87500000D01*
X132500000Y-87500000D02*
X123400000Y-78400000D01*
X123400000Y-78400000D02*
X121900000Y-78400000D01*
%TO.N,/In+*%
X146500000Y-75879000D02*
X144187000Y-73566000D01*
X146500000Y-80709000D02*
X146500000Y-75879000D01*
X149017000Y-83226000D02*
X146500000Y-80709000D01*
%TO.N,/Phantom*%
X135128000Y-107442000D02*
X135128000Y-110744000D01*
X157226000Y-110154000D02*
X157226000Y-109982000D01*
X138430000Y-114046000D02*
X138430000Y-114050000D01*
X157226000Y-109982000D02*
X157226000Y-107442000D01*
X138430000Y-114050000D02*
X145880000Y-121500000D01*
X145880000Y-121500000D02*
X157226000Y-110154000D01*
X135128000Y-110744000D02*
X138430000Y-114046000D01*
D20*
%TO.N,/Snd*%
X160401000Y-88773000D02*
X144653000Y-88773000D01*
X144653000Y-88773000D02*
X144526000Y-88900000D01*
%TD*%
%TA.AperFunction,Conductor*%
%TO.N,/+9V*%
G36*
X162179621Y-69782502D02*
G01*
X162226114Y-69836158D01*
X162237500Y-69888500D01*
X162237500Y-129111500D01*
X162217498Y-129179621D01*
X162163842Y-129226114D01*
X162111500Y-129237500D01*
X37888500Y-129237500D01*
X37820379Y-129217498D01*
X37773886Y-129163842D01*
X37762500Y-129111500D01*
X37762500Y-124811753D01*
X50572117Y-124811753D01*
X50585489Y-125015779D01*
X50635819Y-125213951D01*
X50721419Y-125399633D01*
X50839424Y-125566606D01*
X50883486Y-125609529D01*
X50969616Y-125693433D01*
X50985882Y-125709279D01*
X50990678Y-125712484D01*
X50990681Y-125712486D01*
X51064743Y-125761972D01*
X51155887Y-125822872D01*
X51161190Y-125825150D01*
X51161193Y-125825152D01*
X51246198Y-125861673D01*
X51343746Y-125903583D01*
X51440772Y-125925538D01*
X51537532Y-125947433D01*
X51537535Y-125947433D01*
X51543168Y-125948708D01*
X51548939Y-125948935D01*
X51548941Y-125948935D01*
X51611646Y-125951398D01*
X51747473Y-125956735D01*
X51866344Y-125939500D01*
X51944099Y-125928226D01*
X51944103Y-125928225D01*
X51949821Y-125927396D01*
X51955293Y-125925538D01*
X51955295Y-125925538D01*
X52137965Y-125863529D01*
X52143433Y-125861673D01*
X52321698Y-125761840D01*
X52321826Y-125761768D01*
X52321866Y-125761840D01*
X52387277Y-125740416D01*
X52461173Y-125761591D01*
X52533468Y-125809896D01*
X52552887Y-125822872D01*
X52558190Y-125825150D01*
X52558193Y-125825152D01*
X52643198Y-125861673D01*
X52740746Y-125903583D01*
X52837772Y-125925538D01*
X52934532Y-125947433D01*
X52934535Y-125947433D01*
X52940168Y-125948708D01*
X52945939Y-125948935D01*
X52945941Y-125948935D01*
X53008646Y-125951398D01*
X53144473Y-125956735D01*
X53263344Y-125939500D01*
X53341099Y-125928226D01*
X53341103Y-125928225D01*
X53346821Y-125927396D01*
X53352293Y-125925538D01*
X53352295Y-125925538D01*
X53534965Y-125863529D01*
X53540433Y-125861673D01*
X53718826Y-125761768D01*
X53876026Y-125631026D01*
X54006768Y-125473826D01*
X54106673Y-125295433D01*
X54172396Y-125101821D01*
X54184872Y-125015779D01*
X54201202Y-124903147D01*
X54201735Y-124899473D01*
X54203266Y-124841000D01*
X54184557Y-124637394D01*
X54176467Y-124608707D01*
X54162096Y-124557753D01*
X88349617Y-124557753D01*
X88362989Y-124761779D01*
X88413319Y-124959951D01*
X88415736Y-124965194D01*
X88481245Y-125107295D01*
X88498919Y-125145633D01*
X88616924Y-125312606D01*
X88763382Y-125455279D01*
X88768178Y-125458484D01*
X88768181Y-125458486D01*
X88836403Y-125504070D01*
X88933387Y-125568872D01*
X88938690Y-125571150D01*
X88938693Y-125571152D01*
X89115939Y-125647303D01*
X89121246Y-125649583D01*
X89218272Y-125671538D01*
X89315032Y-125693433D01*
X89315035Y-125693433D01*
X89320668Y-125694708D01*
X89326439Y-125694935D01*
X89326441Y-125694935D01*
X89389146Y-125697398D01*
X89524973Y-125702735D01*
X89643844Y-125685500D01*
X89721599Y-125674226D01*
X89721603Y-125674225D01*
X89727321Y-125673396D01*
X89732793Y-125671538D01*
X89732795Y-125671538D01*
X89915465Y-125609529D01*
X89920933Y-125607673D01*
X90099326Y-125507768D01*
X90256526Y-125377026D01*
X90387268Y-125219826D01*
X90487173Y-125041433D01*
X90535362Y-124899473D01*
X90551038Y-124853295D01*
X90551038Y-124853293D01*
X90552896Y-124847821D01*
X90565372Y-124761779D01*
X90581702Y-124649147D01*
X90582235Y-124645473D01*
X90583766Y-124587000D01*
X90565057Y-124383394D01*
X90556967Y-124354707D01*
X90537308Y-124285001D01*
X90509558Y-124186608D01*
X90419126Y-124003230D01*
X90296790Y-123839403D01*
X90146648Y-123700613D01*
X89973728Y-123591509D01*
X89941302Y-123578572D01*
X89914593Y-123567916D01*
X89783821Y-123515743D01*
X89778153Y-123514616D01*
X89778151Y-123514615D01*
X89588954Y-123476982D01*
X89588950Y-123476982D01*
X89583286Y-123475855D01*
X89577511Y-123475779D01*
X89577507Y-123475779D01*
X89474966Y-123474437D01*
X89378840Y-123473178D01*
X89373143Y-123474157D01*
X89373142Y-123474157D01*
X89356702Y-123476982D01*
X89177330Y-123507804D01*
X88985505Y-123578572D01*
X88980544Y-123581524D01*
X88980543Y-123581524D01*
X88901270Y-123628687D01*
X88809788Y-123683113D01*
X88656064Y-123817925D01*
X88652492Y-123822456D01*
X88548308Y-123954613D01*
X88529482Y-123978493D01*
X88526794Y-123983602D01*
X88436970Y-124154329D01*
X88436968Y-124154334D01*
X88434281Y-124159441D01*
X88424118Y-124192172D01*
X88376714Y-124344837D01*
X88373649Y-124354707D01*
X88349617Y-124557753D01*
X54162096Y-124557753D01*
X54130627Y-124446172D01*
X54129058Y-124440608D01*
X54038626Y-124257230D01*
X53982020Y-124181425D01*
X53919743Y-124098027D01*
X53919743Y-124098026D01*
X53916290Y-124093403D01*
X53791981Y-123978493D01*
X53770388Y-123958532D01*
X53770385Y-123958530D01*
X53766148Y-123954613D01*
X53593228Y-123845509D01*
X53577924Y-123839403D01*
X53514552Y-123814120D01*
X53403321Y-123769743D01*
X53397653Y-123768616D01*
X53397651Y-123768615D01*
X53208454Y-123730982D01*
X53208450Y-123730982D01*
X53202786Y-123729855D01*
X53197011Y-123729779D01*
X53197007Y-123729779D01*
X53094466Y-123728437D01*
X52998340Y-123727178D01*
X52992643Y-123728157D01*
X52992642Y-123728157D01*
X52848838Y-123752867D01*
X52778314Y-123744690D01*
X52723406Y-123699683D01*
X52701500Y-123628687D01*
X52701500Y-121607399D01*
X52721502Y-121539278D01*
X52775158Y-121492785D01*
X52845432Y-121482681D01*
X52855308Y-121484506D01*
X52934532Y-121502433D01*
X52934535Y-121502433D01*
X52940168Y-121503708D01*
X52945939Y-121503935D01*
X52945941Y-121503935D01*
X53008646Y-121506398D01*
X53144473Y-121511735D01*
X53263344Y-121494500D01*
X53341099Y-121483226D01*
X53341103Y-121483225D01*
X53346821Y-121482396D01*
X53352293Y-121480538D01*
X53352295Y-121480538D01*
X53534965Y-121418529D01*
X53540433Y-121416673D01*
X53718826Y-121316768D01*
X53876026Y-121186026D01*
X54006768Y-121028826D01*
X54106673Y-120850433D01*
X54136877Y-120761457D01*
X54170538Y-120662295D01*
X54170538Y-120662293D01*
X54172396Y-120656821D01*
X54174789Y-120640322D01*
X54201202Y-120458147D01*
X54201735Y-120454473D01*
X54203266Y-120396000D01*
X54184557Y-120192394D01*
X54181184Y-120180432D01*
X54152828Y-120079891D01*
X54129058Y-119995608D01*
X54108656Y-119954236D01*
X54072328Y-119880570D01*
X54060138Y-119810628D01*
X54075399Y-119763277D01*
X54096311Y-119725935D01*
X54106673Y-119707433D01*
X54172396Y-119513821D01*
X54175925Y-119489486D01*
X54195785Y-119352508D01*
X54201735Y-119311473D01*
X54203266Y-119253000D01*
X54184557Y-119049394D01*
X54168075Y-118990951D01*
X54139010Y-118887895D01*
X54129058Y-118852608D01*
X54038626Y-118669230D01*
X54003137Y-118621704D01*
X53978531Y-118588753D01*
X64161117Y-118588753D01*
X64174489Y-118792779D01*
X64224819Y-118990951D01*
X64310419Y-119176633D01*
X64428424Y-119343606D01*
X64574882Y-119486279D01*
X64579678Y-119489484D01*
X64579681Y-119489486D01*
X64624294Y-119519295D01*
X64744887Y-119599872D01*
X64750190Y-119602150D01*
X64750193Y-119602152D01*
X64835198Y-119638673D01*
X64932746Y-119680583D01*
X65027240Y-119701965D01*
X65126532Y-119724433D01*
X65126535Y-119724433D01*
X65132168Y-119725708D01*
X65137939Y-119725935D01*
X65137941Y-119725935D01*
X65200646Y-119728398D01*
X65336473Y-119733735D01*
X65483129Y-119712471D01*
X65533099Y-119705226D01*
X65533103Y-119705225D01*
X65538821Y-119704396D01*
X65544293Y-119702538D01*
X65544295Y-119702538D01*
X65726965Y-119640529D01*
X65732433Y-119638673D01*
X65910826Y-119538768D01*
X66068026Y-119408026D01*
X66198768Y-119250826D01*
X66298673Y-119072433D01*
X66335503Y-118963935D01*
X66362538Y-118884295D01*
X66362538Y-118884293D01*
X66364396Y-118878821D01*
X66365701Y-118869826D01*
X66391566Y-118691433D01*
X66393735Y-118676473D01*
X66395266Y-118618000D01*
X66376557Y-118414394D01*
X66368467Y-118385707D01*
X66329495Y-118247524D01*
X66321058Y-118217608D01*
X66230626Y-118034230D01*
X66197254Y-117989539D01*
X66111743Y-117875027D01*
X66111743Y-117875026D01*
X66108290Y-117870403D01*
X65958148Y-117731613D01*
X65785228Y-117622509D01*
X65774408Y-117618192D01*
X65726093Y-117598916D01*
X65595321Y-117546743D01*
X65589653Y-117545616D01*
X65589651Y-117545615D01*
X65400454Y-117507982D01*
X65400450Y-117507982D01*
X65394786Y-117506855D01*
X65389011Y-117506779D01*
X65389007Y-117506779D01*
X65286466Y-117505437D01*
X65190340Y-117504178D01*
X65184643Y-117505157D01*
X65184642Y-117505157D01*
X64994527Y-117537825D01*
X64988830Y-117538804D01*
X64797005Y-117609572D01*
X64621288Y-117714113D01*
X64467564Y-117848925D01*
X64463992Y-117853456D01*
X64349103Y-117999192D01*
X64340982Y-118009493D01*
X64338294Y-118014602D01*
X64248470Y-118185329D01*
X64248468Y-118185334D01*
X64245781Y-118190441D01*
X64235618Y-118223172D01*
X64191078Y-118366613D01*
X64185149Y-118385707D01*
X64161117Y-118588753D01*
X53978531Y-118588753D01*
X53919743Y-118510027D01*
X53919743Y-118510026D01*
X53916290Y-118505403D01*
X53808770Y-118406012D01*
X53770388Y-118370532D01*
X53770385Y-118370530D01*
X53766148Y-118366613D01*
X53593228Y-118257509D01*
X53560802Y-118244572D01*
X53532561Y-118233305D01*
X53403321Y-118181743D01*
X53397653Y-118180616D01*
X53397651Y-118180615D01*
X53208454Y-118142982D01*
X53208450Y-118142982D01*
X53202786Y-118141855D01*
X53197011Y-118141779D01*
X53197007Y-118141779D01*
X53094466Y-118140437D01*
X52998340Y-118139178D01*
X52992643Y-118140157D01*
X52992642Y-118140157D01*
X52818857Y-118170019D01*
X52796830Y-118173804D01*
X52605005Y-118244572D01*
X52600044Y-118247524D01*
X52600043Y-118247524D01*
X52525683Y-118291764D01*
X52429288Y-118349113D01*
X52275564Y-118483925D01*
X52271992Y-118488456D01*
X52172080Y-118615194D01*
X52148982Y-118644493D01*
X52146294Y-118649602D01*
X52138402Y-118664603D01*
X52053781Y-118825441D01*
X52052068Y-118830958D01*
X52050451Y-118836165D01*
X52019214Y-118887895D01*
X51016946Y-119890163D01*
X51006804Y-119899264D01*
X50977163Y-119923096D01*
X50973204Y-119927814D01*
X50973198Y-119927820D01*
X50944760Y-119961711D01*
X50941574Y-119965363D01*
X50939899Y-119967210D01*
X50937725Y-119969384D01*
X50935779Y-119971753D01*
X50935770Y-119971763D01*
X50910371Y-120002684D01*
X50909555Y-120003668D01*
X50849530Y-120075203D01*
X50846953Y-120079891D01*
X50843557Y-120084025D01*
X50840648Y-120089451D01*
X50840645Y-120089455D01*
X50799474Y-120166242D01*
X50798843Y-120167404D01*
X50779044Y-120203419D01*
X50753873Y-120249204D01*
X50752255Y-120254304D01*
X50749727Y-120259019D01*
X50747926Y-120264911D01*
X50722432Y-120348295D01*
X50722040Y-120349553D01*
X50696129Y-120431237D01*
X50693834Y-120438471D01*
X50693238Y-120443786D01*
X50691673Y-120448904D01*
X50691051Y-120455029D01*
X50691050Y-120455033D01*
X50682241Y-120541758D01*
X50682108Y-120543007D01*
X50676500Y-120593003D01*
X50676500Y-120596528D01*
X50676442Y-120597567D01*
X50675994Y-120603256D01*
X50671607Y-120646448D01*
X50672187Y-120652579D01*
X50675941Y-120692296D01*
X50676500Y-120704154D01*
X50676500Y-124344837D01*
X50662009Y-124403503D01*
X50659473Y-124408324D01*
X50656781Y-124413441D01*
X50646618Y-124446172D01*
X50604037Y-124583305D01*
X50596149Y-124608707D01*
X50572117Y-124811753D01*
X37762500Y-124811753D01*
X37762500Y-117826753D01*
X48159117Y-117826753D01*
X48172489Y-118030779D01*
X48173911Y-118036378D01*
X48206081Y-118163044D01*
X48222819Y-118228951D01*
X48308419Y-118414633D01*
X48426424Y-118581606D01*
X48460903Y-118615194D01*
X48533552Y-118685965D01*
X48572882Y-118724279D01*
X48577678Y-118727484D01*
X48577681Y-118727486D01*
X48710394Y-118816161D01*
X48742887Y-118837872D01*
X48748190Y-118840150D01*
X48748193Y-118840152D01*
X48859318Y-118887895D01*
X48930746Y-118918583D01*
X49027772Y-118940538D01*
X49124532Y-118962433D01*
X49124535Y-118962433D01*
X49130168Y-118963708D01*
X49135939Y-118963935D01*
X49135941Y-118963935D01*
X49198646Y-118966398D01*
X49334473Y-118971735D01*
X49453344Y-118954500D01*
X49531099Y-118943226D01*
X49531103Y-118943225D01*
X49536821Y-118942396D01*
X49542293Y-118940538D01*
X49542295Y-118940538D01*
X49697374Y-118887895D01*
X49730433Y-118876673D01*
X49908826Y-118776768D01*
X50066026Y-118646026D01*
X50196768Y-118488826D01*
X50296673Y-118310433D01*
X50329943Y-118212425D01*
X50360538Y-118122295D01*
X50360538Y-118122293D01*
X50362396Y-118116821D01*
X50367459Y-118081906D01*
X50380852Y-117989529D01*
X50391735Y-117914473D01*
X50393266Y-117856000D01*
X50374557Y-117652394D01*
X50366467Y-117623707D01*
X50327485Y-117485487D01*
X50319058Y-117455608D01*
X50228626Y-117272230D01*
X50205686Y-117241509D01*
X50109743Y-117113027D01*
X50109743Y-117113026D01*
X50106290Y-117108403D01*
X49977176Y-116989051D01*
X49960388Y-116973532D01*
X49960385Y-116973530D01*
X49956148Y-116969613D01*
X49905653Y-116937753D01*
X84158617Y-116937753D01*
X84171989Y-117141779D01*
X84222319Y-117339951D01*
X84224736Y-117345194D01*
X84298028Y-117504178D01*
X84307919Y-117525633D01*
X84425924Y-117692606D01*
X84430058Y-117696633D01*
X84545859Y-117809441D01*
X84572382Y-117835279D01*
X84577178Y-117838484D01*
X84577181Y-117838486D01*
X84709894Y-117927161D01*
X84742387Y-117948872D01*
X84747690Y-117951150D01*
X84747693Y-117951152D01*
X84872932Y-118004959D01*
X84930246Y-118029583D01*
X85027272Y-118051538D01*
X85124032Y-118073433D01*
X85124035Y-118073433D01*
X85129668Y-118074708D01*
X85135439Y-118074935D01*
X85135441Y-118074935D01*
X85198146Y-118077398D01*
X85333973Y-118082735D01*
X85452844Y-118065500D01*
X85530599Y-118054226D01*
X85530603Y-118054225D01*
X85536321Y-118053396D01*
X85541793Y-118051538D01*
X85541795Y-118051538D01*
X85665654Y-118009493D01*
X85729933Y-117987673D01*
X85885783Y-117900393D01*
X85954991Y-117884560D01*
X86021773Y-117908657D01*
X86054781Y-117944493D01*
X86080078Y-117985774D01*
X86083289Y-117989534D01*
X86083293Y-117989539D01*
X86187116Y-118111099D01*
X86234694Y-118166806D01*
X86250862Y-118180615D01*
X86411961Y-118318207D01*
X86411966Y-118318211D01*
X86415726Y-118321422D01*
X86618716Y-118445815D01*
X86623286Y-118447708D01*
X86623290Y-118447710D01*
X86834094Y-118535027D01*
X86838667Y-118536921D01*
X86919676Y-118556370D01*
X87065348Y-118591343D01*
X87065354Y-118591344D01*
X87070161Y-118592498D01*
X87307500Y-118611177D01*
X87544839Y-118592498D01*
X87549646Y-118591344D01*
X87549652Y-118591343D01*
X87695324Y-118556370D01*
X87776333Y-118536921D01*
X87780906Y-118535027D01*
X87991710Y-118447710D01*
X87991714Y-118447708D01*
X87996284Y-118445815D01*
X88199274Y-118321422D01*
X88203034Y-118318211D01*
X88203039Y-118318207D01*
X88332364Y-118207753D01*
X104732617Y-118207753D01*
X104745989Y-118411779D01*
X104796319Y-118609951D01*
X104881919Y-118795633D01*
X104999924Y-118962606D01*
X105004058Y-118966633D01*
X105107052Y-119066965D01*
X105146382Y-119105279D01*
X105151178Y-119108484D01*
X105151181Y-119108486D01*
X105283894Y-119197161D01*
X105316387Y-119218872D01*
X105321690Y-119221150D01*
X105321693Y-119221152D01*
X105406698Y-119257673D01*
X105504246Y-119299583D01*
X105601272Y-119321538D01*
X105698032Y-119343433D01*
X105698035Y-119343433D01*
X105703668Y-119344708D01*
X105709439Y-119344935D01*
X105709441Y-119344935D01*
X105772146Y-119347398D01*
X105907973Y-119352735D01*
X106026844Y-119335500D01*
X106104599Y-119324226D01*
X106104603Y-119324225D01*
X106110321Y-119323396D01*
X106115793Y-119321538D01*
X106115795Y-119321538D01*
X106298465Y-119259529D01*
X106303933Y-119257673D01*
X106482326Y-119157768D01*
X106639526Y-119027026D01*
X106770268Y-118869826D01*
X106870173Y-118691433D01*
X106903071Y-118594519D01*
X106934038Y-118503295D01*
X106934038Y-118503293D01*
X106935896Y-118497821D01*
X106937201Y-118488826D01*
X106956905Y-118352923D01*
X106965235Y-118295473D01*
X106966766Y-118237000D01*
X106948057Y-118033394D01*
X106939967Y-118004707D01*
X106910547Y-117900393D01*
X106892558Y-117836608D01*
X106802126Y-117653230D01*
X106779186Y-117622509D01*
X106683243Y-117494027D01*
X106683243Y-117494026D01*
X106679790Y-117489403D01*
X106529648Y-117350613D01*
X106356728Y-117241509D01*
X106324302Y-117228572D01*
X106297593Y-117217916D01*
X106166821Y-117165743D01*
X106161153Y-117164616D01*
X106161151Y-117164615D01*
X105971954Y-117126982D01*
X105971950Y-117126982D01*
X105966286Y-117125855D01*
X105960511Y-117125779D01*
X105960507Y-117125779D01*
X105857966Y-117124437D01*
X105761840Y-117123178D01*
X105756143Y-117124157D01*
X105756142Y-117124157D01*
X105739702Y-117126982D01*
X105560330Y-117157804D01*
X105368505Y-117228572D01*
X105192788Y-117333113D01*
X105039064Y-117467925D01*
X105035492Y-117472456D01*
X104918886Y-117620370D01*
X104912482Y-117628493D01*
X104909794Y-117633602D01*
X104819970Y-117804329D01*
X104819968Y-117804334D01*
X104817281Y-117809441D01*
X104805021Y-117848925D01*
X104761359Y-117989539D01*
X104756649Y-118004707D01*
X104732617Y-118207753D01*
X88332364Y-118207753D01*
X88364138Y-118180615D01*
X88380306Y-118166806D01*
X88427884Y-118111099D01*
X88531707Y-117989539D01*
X88531711Y-117989534D01*
X88534922Y-117985774D01*
X88640147Y-117814063D01*
X88656729Y-117787004D01*
X88659315Y-117782784D01*
X88678888Y-117735532D01*
X88748527Y-117567406D01*
X88748528Y-117567404D01*
X88750421Y-117562833D01*
X88772119Y-117472456D01*
X88804843Y-117336152D01*
X88804844Y-117336146D01*
X88805998Y-117331339D01*
X88824677Y-117094000D01*
X88805998Y-116856661D01*
X88804844Y-116851854D01*
X88804843Y-116851848D01*
X88751576Y-116629979D01*
X88750421Y-116625167D01*
X88748527Y-116620594D01*
X88661210Y-116409790D01*
X88661208Y-116409786D01*
X88659315Y-116405216D01*
X88534922Y-116202226D01*
X88531711Y-116198466D01*
X88531707Y-116198461D01*
X88383519Y-116024956D01*
X88380306Y-116021194D01*
X88325740Y-115974590D01*
X88203039Y-115869793D01*
X88203034Y-115869789D01*
X88199274Y-115866578D01*
X87996284Y-115742185D01*
X87991714Y-115740292D01*
X87991710Y-115740290D01*
X87780906Y-115652973D01*
X87780904Y-115652972D01*
X87776333Y-115651079D01*
X87695324Y-115631630D01*
X87549652Y-115596657D01*
X87549646Y-115596656D01*
X87544839Y-115595502D01*
X87307500Y-115576823D01*
X87070161Y-115595502D01*
X87065354Y-115596656D01*
X87065348Y-115596657D01*
X86919676Y-115631630D01*
X86838667Y-115651079D01*
X86834096Y-115652972D01*
X86834094Y-115652973D01*
X86623290Y-115740290D01*
X86623286Y-115740292D01*
X86618716Y-115742185D01*
X86415726Y-115866578D01*
X86411966Y-115869789D01*
X86411961Y-115869793D01*
X86289260Y-115974590D01*
X86234694Y-116021194D01*
X86183946Y-116080613D01*
X86168333Y-116098893D01*
X86108883Y-116137703D01*
X86037888Y-116138210D01*
X85986993Y-116109588D01*
X85959888Y-116084532D01*
X85959885Y-116084530D01*
X85955648Y-116080613D01*
X85782728Y-115971509D01*
X85750302Y-115958572D01*
X85723593Y-115947916D01*
X85592821Y-115895743D01*
X85587153Y-115894616D01*
X85587151Y-115894615D01*
X85397954Y-115856982D01*
X85397950Y-115856982D01*
X85392286Y-115855855D01*
X85386511Y-115855779D01*
X85386507Y-115855779D01*
X85283966Y-115854437D01*
X85187840Y-115853178D01*
X85182143Y-115854157D01*
X85182142Y-115854157D01*
X85165702Y-115856982D01*
X84986330Y-115887804D01*
X84794505Y-115958572D01*
X84618788Y-116063113D01*
X84465064Y-116197925D01*
X84461492Y-116202456D01*
X84375703Y-116311279D01*
X84338482Y-116358493D01*
X84335794Y-116363602D01*
X84245970Y-116534329D01*
X84245968Y-116534334D01*
X84243281Y-116539441D01*
X84218082Y-116620594D01*
X84184959Y-116727269D01*
X84182649Y-116734707D01*
X84158617Y-116937753D01*
X49905653Y-116937753D01*
X49783228Y-116860509D01*
X49761520Y-116851848D01*
X49724093Y-116836916D01*
X49593321Y-116784743D01*
X49587653Y-116783616D01*
X49587651Y-116783615D01*
X49398454Y-116745982D01*
X49398450Y-116745982D01*
X49392786Y-116744855D01*
X49387011Y-116744779D01*
X49387007Y-116744779D01*
X49284466Y-116743437D01*
X49188340Y-116742178D01*
X49182643Y-116743157D01*
X49182642Y-116743157D01*
X49166202Y-116745982D01*
X48986830Y-116776804D01*
X48795005Y-116847572D01*
X48790044Y-116850524D01*
X48790043Y-116850524D01*
X48652996Y-116932059D01*
X48619288Y-116952113D01*
X48465564Y-117086925D01*
X48461992Y-117091456D01*
X48345386Y-117239370D01*
X48338982Y-117247493D01*
X48336294Y-117252602D01*
X48246470Y-117423329D01*
X48246468Y-117423334D01*
X48243781Y-117428441D01*
X48231521Y-117467925D01*
X48212138Y-117530349D01*
X48183149Y-117623707D01*
X48159117Y-117826753D01*
X37762500Y-117826753D01*
X37762500Y-115413753D01*
X56668117Y-115413753D01*
X56681489Y-115617779D01*
X56731819Y-115815951D01*
X56734236Y-115821194D01*
X56763697Y-115885101D01*
X56817419Y-116001633D01*
X56935424Y-116168606D01*
X57081882Y-116311279D01*
X57086678Y-116314484D01*
X57086681Y-116314486D01*
X57152543Y-116358493D01*
X57251887Y-116424872D01*
X57257190Y-116427150D01*
X57257193Y-116427152D01*
X57402791Y-116489706D01*
X57439746Y-116505583D01*
X57536772Y-116527538D01*
X57633532Y-116549433D01*
X57633535Y-116549433D01*
X57639168Y-116550708D01*
X57644939Y-116550935D01*
X57644941Y-116550935D01*
X57707646Y-116553398D01*
X57843473Y-116558735D01*
X57976542Y-116539441D01*
X58040099Y-116530226D01*
X58040103Y-116530225D01*
X58045821Y-116529396D01*
X58051293Y-116527538D01*
X58051295Y-116527538D01*
X58233965Y-116465529D01*
X58239433Y-116463673D01*
X58417826Y-116363768D01*
X58575026Y-116233026D01*
X58705768Y-116075826D01*
X58805673Y-115897433D01*
X58871396Y-115703821D01*
X58883872Y-115617779D01*
X58889165Y-115581267D01*
X58900735Y-115501473D01*
X58902266Y-115443000D01*
X58883557Y-115239394D01*
X58877855Y-115219174D01*
X58829627Y-115048172D01*
X58828058Y-115042608D01*
X58737626Y-114859230D01*
X58690803Y-114796526D01*
X58618743Y-114700027D01*
X58618743Y-114700026D01*
X58615290Y-114695403D01*
X58465148Y-114556613D01*
X58292228Y-114447509D01*
X58259802Y-114434572D01*
X58233093Y-114423916D01*
X58102321Y-114371743D01*
X58096653Y-114370616D01*
X58096651Y-114370615D01*
X57907454Y-114332982D01*
X57907450Y-114332982D01*
X57901786Y-114331855D01*
X57896011Y-114331779D01*
X57896007Y-114331779D01*
X57793466Y-114330437D01*
X57697340Y-114329178D01*
X57691643Y-114330157D01*
X57691642Y-114330157D01*
X57675202Y-114332982D01*
X57495830Y-114363804D01*
X57304005Y-114434572D01*
X57128288Y-114539113D01*
X56974564Y-114673925D01*
X56970992Y-114678456D01*
X56854226Y-114826573D01*
X56847982Y-114834493D01*
X56845294Y-114839602D01*
X56755470Y-115010329D01*
X56755468Y-115010334D01*
X56752781Y-115015441D01*
X56744285Y-115042803D01*
X56697567Y-115193259D01*
X56692149Y-115210707D01*
X56668117Y-115413753D01*
X37762500Y-115413753D01*
X37762500Y-112873753D01*
X88349617Y-112873753D01*
X88362989Y-113077779D01*
X88413319Y-113275951D01*
X88498919Y-113461633D01*
X88616924Y-113628606D01*
X88763382Y-113771279D01*
X88768178Y-113774484D01*
X88768181Y-113774486D01*
X88836403Y-113820070D01*
X88933387Y-113884872D01*
X88938690Y-113887150D01*
X88938693Y-113887152D01*
X89023698Y-113923673D01*
X89121246Y-113965583D01*
X89218272Y-113987538D01*
X89315032Y-114009433D01*
X89315035Y-114009433D01*
X89320668Y-114010708D01*
X89326439Y-114010935D01*
X89326441Y-114010935D01*
X89389146Y-114013398D01*
X89524973Y-114018735D01*
X89643844Y-114001500D01*
X89721599Y-113990226D01*
X89721603Y-113990225D01*
X89727321Y-113989396D01*
X89732793Y-113987538D01*
X89732795Y-113987538D01*
X89915465Y-113925529D01*
X89920933Y-113923673D01*
X90099326Y-113823768D01*
X90256526Y-113693026D01*
X90387268Y-113535826D01*
X90487173Y-113357433D01*
X90552896Y-113163821D01*
X90565372Y-113077779D01*
X90581702Y-112965147D01*
X90582235Y-112961473D01*
X90583766Y-112903000D01*
X90565057Y-112699394D01*
X90556967Y-112670707D01*
X90511127Y-112508172D01*
X90509558Y-112502608D01*
X90419126Y-112319230D01*
X90296790Y-112155403D01*
X90146648Y-112016613D01*
X89973728Y-111907509D01*
X89941302Y-111894572D01*
X89914593Y-111883916D01*
X89783821Y-111831743D01*
X89778153Y-111830616D01*
X89778151Y-111830615D01*
X89588954Y-111792982D01*
X89588950Y-111792982D01*
X89583286Y-111791855D01*
X89577511Y-111791779D01*
X89577507Y-111791779D01*
X89474966Y-111790437D01*
X89378840Y-111789178D01*
X89373143Y-111790157D01*
X89373142Y-111790157D01*
X89356702Y-111792982D01*
X89177330Y-111823804D01*
X88985505Y-111894572D01*
X88809788Y-111999113D01*
X88656064Y-112133925D01*
X88529482Y-112294493D01*
X88526794Y-112299602D01*
X88436970Y-112470329D01*
X88436968Y-112470334D01*
X88434281Y-112475441D01*
X88373649Y-112670707D01*
X88349617Y-112873753D01*
X37762500Y-112873753D01*
X37762500Y-110774561D01*
X133960920Y-110774561D01*
X133965738Y-110815268D01*
X133971499Y-110863942D01*
X133971842Y-110867216D01*
X133980070Y-110956756D01*
X133981639Y-110962318D01*
X133982059Y-110964586D01*
X133984894Y-110978837D01*
X133985353Y-110980998D01*
X133986032Y-110986733D01*
X133987745Y-110992249D01*
X133987746Y-110992255D01*
X134012724Y-111072698D01*
X134013661Y-111075861D01*
X134038064Y-111162387D01*
X134040619Y-111167569D01*
X134041418Y-111169650D01*
X134046857Y-111183283D01*
X134047676Y-111185261D01*
X134049389Y-111190776D01*
X134052079Y-111195888D01*
X134091284Y-111270404D01*
X134092777Y-111273335D01*
X134132560Y-111354007D01*
X134136014Y-111358632D01*
X134137149Y-111360485D01*
X134144968Y-111372878D01*
X134146180Y-111374744D01*
X134148869Y-111379855D01*
X134152446Y-111384392D01*
X134204554Y-111450491D01*
X134206550Y-111453092D01*
X134260393Y-111525197D01*
X134264627Y-111529111D01*
X134264629Y-111529113D01*
X134321823Y-111581982D01*
X134325389Y-111585412D01*
X137530074Y-114790097D01*
X137541937Y-114803803D01*
X137562393Y-114831197D01*
X137566627Y-114835111D01*
X137566629Y-114835113D01*
X137623823Y-114887982D01*
X137627389Y-114891412D01*
X142626617Y-119890640D01*
X142660643Y-119952952D01*
X142655578Y-120023767D01*
X142613031Y-120080603D01*
X142603357Y-120087168D01*
X142436777Y-120189248D01*
X142428795Y-120195047D01*
X142243386Y-120353401D01*
X142236404Y-120360383D01*
X142209139Y-120392306D01*
X142149688Y-120431115D01*
X142078693Y-120431621D01*
X142017517Y-120392306D01*
X141989943Y-120360021D01*
X141986735Y-120356265D01*
X141793734Y-120191426D01*
X141577323Y-120058809D01*
X141572753Y-120056916D01*
X141572749Y-120056914D01*
X141347404Y-119963573D01*
X141347402Y-119963572D01*
X141342831Y-119961679D01*
X141257854Y-119941278D01*
X141100844Y-119903583D01*
X141100838Y-119903582D01*
X141096031Y-119902428D01*
X140843000Y-119882514D01*
X140589969Y-119902428D01*
X140585162Y-119903582D01*
X140585156Y-119903583D01*
X140428146Y-119941278D01*
X140343169Y-119961679D01*
X140338598Y-119963572D01*
X140338596Y-119963573D01*
X140113251Y-120056914D01*
X140113247Y-120056916D01*
X140108677Y-120058809D01*
X139902946Y-120184881D01*
X139834414Y-120203419D01*
X139766737Y-120181963D01*
X139748094Y-120166621D01*
X139633978Y-120052704D01*
X139628799Y-120047534D01*
X139477440Y-119954236D01*
X139383558Y-119923096D01*
X139315209Y-119900425D01*
X139315207Y-119900424D01*
X139308678Y-119898259D01*
X139203666Y-119887500D01*
X137402334Y-119887500D01*
X137399088Y-119887837D01*
X137399084Y-119887837D01*
X137302868Y-119897820D01*
X137302864Y-119897821D01*
X137296010Y-119898532D01*
X137289474Y-119900713D01*
X137289472Y-119900713D01*
X137166267Y-119941818D01*
X137127346Y-119954803D01*
X136976150Y-120048366D01*
X136850534Y-120174201D01*
X136757236Y-120325560D01*
X136754931Y-120332508D01*
X136754931Y-120332509D01*
X136714477Y-120454473D01*
X136701259Y-120494322D01*
X136690500Y-120599334D01*
X136690500Y-122400666D01*
X136690837Y-122403912D01*
X136690837Y-122403916D01*
X136695258Y-122446520D01*
X136701532Y-122506990D01*
X136757803Y-122675654D01*
X136851366Y-122826850D01*
X136977201Y-122952466D01*
X137128560Y-123045764D01*
X137135508Y-123048069D01*
X137135509Y-123048069D01*
X137290791Y-123099575D01*
X137290793Y-123099576D01*
X137297322Y-123101741D01*
X137402334Y-123112500D01*
X139203666Y-123112500D01*
X139206912Y-123112163D01*
X139206916Y-123112163D01*
X139303132Y-123102180D01*
X139303136Y-123102179D01*
X139309990Y-123101468D01*
X139316526Y-123099287D01*
X139316528Y-123099287D01*
X139469593Y-123048220D01*
X139478654Y-123045197D01*
X139629850Y-122951634D01*
X139747819Y-122833460D01*
X139810100Y-122799381D01*
X139880920Y-122804384D01*
X139902825Y-122815044D01*
X140108677Y-122941191D01*
X140113247Y-122943084D01*
X140113251Y-122943086D01*
X140338596Y-123036427D01*
X140343169Y-123038321D01*
X140383773Y-123048069D01*
X140585156Y-123096417D01*
X140585162Y-123096418D01*
X140589969Y-123097572D01*
X140843000Y-123117486D01*
X141096031Y-123097572D01*
X141100838Y-123096418D01*
X141100844Y-123096417D01*
X141302227Y-123048069D01*
X141342831Y-123038321D01*
X141347404Y-123036427D01*
X141572749Y-122943086D01*
X141572753Y-122943084D01*
X141577323Y-122941191D01*
X141793734Y-122808574D01*
X141986735Y-122643735D01*
X142017517Y-122607694D01*
X142076968Y-122568885D01*
X142147962Y-122568379D01*
X142209139Y-122607694D01*
X142236404Y-122639617D01*
X142243386Y-122646599D01*
X142428795Y-122804953D01*
X142436777Y-122810752D01*
X142644684Y-122938158D01*
X142653478Y-122942639D01*
X142878751Y-123035950D01*
X142888136Y-123038999D01*
X142984383Y-123062106D01*
X142998470Y-123061401D01*
X143002000Y-123052522D01*
X143002000Y-121245000D01*
X143022002Y-121176879D01*
X143075658Y-121130386D01*
X143128000Y-121119000D01*
X143638000Y-121119000D01*
X143706121Y-121139002D01*
X143752614Y-121192658D01*
X143764000Y-121245000D01*
X143764000Y-123048220D01*
X143767973Y-123061751D01*
X143777431Y-123063111D01*
X143877864Y-123038999D01*
X143887249Y-123035950D01*
X144112522Y-122942639D01*
X144121316Y-122938158D01*
X144329223Y-122810752D01*
X144337205Y-122804953D01*
X144522614Y-122646599D01*
X144529596Y-122639617D01*
X144556861Y-122607694D01*
X144616312Y-122568885D01*
X144687307Y-122568379D01*
X144748483Y-122607694D01*
X144779265Y-122643735D01*
X144972266Y-122808574D01*
X145188677Y-122941191D01*
X145193247Y-122943084D01*
X145193251Y-122943086D01*
X145418596Y-123036427D01*
X145423169Y-123038321D01*
X145463773Y-123048069D01*
X145665156Y-123096417D01*
X145665162Y-123096418D01*
X145669969Y-123097572D01*
X145923000Y-123117486D01*
X146176031Y-123097572D01*
X146180838Y-123096418D01*
X146180844Y-123096417D01*
X146382227Y-123048069D01*
X146422831Y-123038321D01*
X146427404Y-123036427D01*
X146652749Y-122943086D01*
X146652753Y-122943084D01*
X146657323Y-122941191D01*
X146873734Y-122808574D01*
X147066735Y-122643735D01*
X147097189Y-122608078D01*
X147156640Y-122569269D01*
X147227634Y-122568763D01*
X147288811Y-122608078D01*
X147319265Y-122643735D01*
X147512266Y-122808574D01*
X147728677Y-122941191D01*
X147733247Y-122943084D01*
X147733251Y-122943086D01*
X147958596Y-123036427D01*
X147963169Y-123038321D01*
X148003773Y-123048069D01*
X148205156Y-123096417D01*
X148205162Y-123096418D01*
X148209969Y-123097572D01*
X148463000Y-123117486D01*
X148716031Y-123097572D01*
X148720838Y-123096418D01*
X148720844Y-123096417D01*
X148922227Y-123048069D01*
X148962831Y-123038321D01*
X148967404Y-123036427D01*
X149192749Y-122943086D01*
X149192753Y-122943084D01*
X149197323Y-122941191D01*
X149413734Y-122808574D01*
X149606735Y-122643735D01*
X149637189Y-122608078D01*
X149696640Y-122569269D01*
X149767634Y-122568763D01*
X149828811Y-122608078D01*
X149859265Y-122643735D01*
X150052266Y-122808574D01*
X150268677Y-122941191D01*
X150273247Y-122943084D01*
X150273251Y-122943086D01*
X150498596Y-123036427D01*
X150503169Y-123038321D01*
X150543773Y-123048069D01*
X150745156Y-123096417D01*
X150745162Y-123096418D01*
X150749969Y-123097572D01*
X151003000Y-123117486D01*
X151256031Y-123097572D01*
X151260838Y-123096418D01*
X151260844Y-123096417D01*
X151462227Y-123048069D01*
X151502831Y-123038321D01*
X151507404Y-123036427D01*
X151732749Y-122943086D01*
X151732753Y-122943084D01*
X151737323Y-122941191D01*
X151953734Y-122808574D01*
X152146735Y-122643735D01*
X152177189Y-122608078D01*
X152236640Y-122569269D01*
X152307634Y-122568763D01*
X152368811Y-122608078D01*
X152399265Y-122643735D01*
X152592266Y-122808574D01*
X152808677Y-122941191D01*
X152813247Y-122943084D01*
X152813251Y-122943086D01*
X153038596Y-123036427D01*
X153043169Y-123038321D01*
X153083773Y-123048069D01*
X153285156Y-123096417D01*
X153285162Y-123096418D01*
X153289969Y-123097572D01*
X153543000Y-123117486D01*
X153796031Y-123097572D01*
X153800838Y-123096418D01*
X153800844Y-123096417D01*
X154002227Y-123048069D01*
X154042831Y-123038321D01*
X154047404Y-123036427D01*
X154272749Y-122943086D01*
X154272753Y-122943084D01*
X154277323Y-122941191D01*
X154493734Y-122808574D01*
X154686735Y-122643735D01*
X154717189Y-122608078D01*
X154776640Y-122569269D01*
X154847634Y-122568763D01*
X154908811Y-122608078D01*
X154939265Y-122643735D01*
X155132266Y-122808574D01*
X155348677Y-122941191D01*
X155353247Y-122943084D01*
X155353251Y-122943086D01*
X155578596Y-123036427D01*
X155583169Y-123038321D01*
X155623773Y-123048069D01*
X155825156Y-123096417D01*
X155825162Y-123096418D01*
X155829969Y-123097572D01*
X156083000Y-123117486D01*
X156336031Y-123097572D01*
X156340838Y-123096418D01*
X156340844Y-123096417D01*
X156542227Y-123048069D01*
X156582831Y-123038321D01*
X156587404Y-123036427D01*
X156812749Y-122943086D01*
X156812753Y-122943084D01*
X156817323Y-122941191D01*
X157033734Y-122808574D01*
X157226735Y-122643735D01*
X157391574Y-122450734D01*
X157524191Y-122234323D01*
X157621321Y-121999831D01*
X157680572Y-121753031D01*
X157700486Y-121500000D01*
X157680572Y-121246969D01*
X157667534Y-121192658D01*
X157622476Y-121004981D01*
X157621321Y-121000169D01*
X157619427Y-120995596D01*
X157526086Y-120770251D01*
X157526084Y-120770247D01*
X157524191Y-120765677D01*
X157391574Y-120549266D01*
X157226735Y-120356265D01*
X157033734Y-120191426D01*
X156817323Y-120058809D01*
X156812753Y-120056916D01*
X156812749Y-120056914D01*
X156587404Y-119963573D01*
X156587402Y-119963572D01*
X156582831Y-119961679D01*
X156497854Y-119941278D01*
X156340844Y-119903583D01*
X156340838Y-119903582D01*
X156336031Y-119902428D01*
X156083000Y-119882514D01*
X155829969Y-119902428D01*
X155825162Y-119903582D01*
X155825156Y-119903583D01*
X155668146Y-119941278D01*
X155583169Y-119961679D01*
X155578598Y-119963572D01*
X155578596Y-119963573D01*
X155353251Y-120056914D01*
X155353247Y-120056916D01*
X155348677Y-120058809D01*
X155132266Y-120191426D01*
X154939265Y-120356265D01*
X154936057Y-120360021D01*
X154908811Y-120391922D01*
X154849360Y-120430731D01*
X154778366Y-120431237D01*
X154717189Y-120391922D01*
X154689943Y-120360021D01*
X154686735Y-120356265D01*
X154493734Y-120191426D01*
X154277323Y-120058809D01*
X154272753Y-120056916D01*
X154272749Y-120056914D01*
X154047404Y-119963573D01*
X154047402Y-119963572D01*
X154042831Y-119961679D01*
X153957854Y-119941278D01*
X153800844Y-119903583D01*
X153800838Y-119903582D01*
X153796031Y-119902428D01*
X153543000Y-119882514D01*
X153289969Y-119902428D01*
X153285162Y-119903582D01*
X153285156Y-119903583D01*
X153128146Y-119941278D01*
X153043169Y-119961679D01*
X153038598Y-119963572D01*
X153038596Y-119963573D01*
X152813251Y-120056914D01*
X152813247Y-120056916D01*
X152808677Y-120058809D01*
X152592266Y-120191426D01*
X152399265Y-120356265D01*
X152396057Y-120360021D01*
X152368811Y-120391922D01*
X152309360Y-120430731D01*
X152238366Y-120431237D01*
X152177189Y-120391922D01*
X152149943Y-120360021D01*
X152146735Y-120356265D01*
X151953734Y-120191426D01*
X151737323Y-120058809D01*
X151732753Y-120056916D01*
X151732749Y-120056914D01*
X151507404Y-119963573D01*
X151507402Y-119963572D01*
X151502831Y-119961679D01*
X151417854Y-119941278D01*
X151260844Y-119903583D01*
X151260838Y-119903582D01*
X151256031Y-119902428D01*
X151003000Y-119882514D01*
X150749969Y-119902428D01*
X150745162Y-119903582D01*
X150745156Y-119903583D01*
X150588146Y-119941278D01*
X150503169Y-119961679D01*
X150498598Y-119963572D01*
X150498596Y-119963573D01*
X150273251Y-120056914D01*
X150273247Y-120056916D01*
X150268677Y-120058809D01*
X150052266Y-120191426D01*
X149859265Y-120356265D01*
X149856057Y-120360021D01*
X149828811Y-120391922D01*
X149769360Y-120430731D01*
X149698366Y-120431237D01*
X149637189Y-120391922D01*
X149609943Y-120360021D01*
X149606735Y-120356265D01*
X149413734Y-120191426D01*
X149231726Y-120079891D01*
X149201537Y-120061391D01*
X149201534Y-120061389D01*
X149197323Y-120058809D01*
X149196886Y-120058628D01*
X149146176Y-120010733D01*
X149129112Y-119941818D01*
X149152014Y-119874617D01*
X149165901Y-119858122D01*
X158017282Y-111006741D01*
X158023299Y-111001104D01*
X158068519Y-110961447D01*
X158072860Y-110957640D01*
X158128565Y-110886979D01*
X158130625Y-110884436D01*
X158184453Y-110819715D01*
X158184460Y-110819705D01*
X158188150Y-110815268D01*
X158190976Y-110810223D01*
X158192226Y-110808403D01*
X158200429Y-110796126D01*
X158201559Y-110794387D01*
X158205131Y-110789855D01*
X158207815Y-110784754D01*
X158207818Y-110784749D01*
X158247044Y-110710191D01*
X158248597Y-110707331D01*
X158292545Y-110628857D01*
X158294404Y-110623380D01*
X158295299Y-110621371D01*
X158301133Y-110607791D01*
X158301922Y-110605886D01*
X158304611Y-110600775D01*
X158331302Y-110514816D01*
X158332322Y-110511678D01*
X158359366Y-110432010D01*
X158359366Y-110432008D01*
X158361222Y-110426542D01*
X158362051Y-110420826D01*
X158362566Y-110418680D01*
X158365808Y-110404352D01*
X158366255Y-110402251D01*
X158367968Y-110396733D01*
X158378545Y-110307367D01*
X158378975Y-110304101D01*
X158391052Y-110220814D01*
X158391052Y-110220810D01*
X158391880Y-110215101D01*
X158388597Y-110131544D01*
X158388500Y-110126597D01*
X158388500Y-107387804D01*
X158373930Y-107229244D01*
X158315936Y-107023613D01*
X158304662Y-107000750D01*
X158223995Y-106837174D01*
X158221440Y-106831993D01*
X158202139Y-106806145D01*
X158097060Y-106665427D01*
X158097059Y-106665426D01*
X158093607Y-106660803D01*
X158089371Y-106656887D01*
X157940957Y-106519695D01*
X157940954Y-106519693D01*
X157936717Y-106515776D01*
X157756025Y-106401768D01*
X157557582Y-106322597D01*
X157551925Y-106321472D01*
X157551919Y-106321470D01*
X157353703Y-106282043D01*
X157353699Y-106282043D01*
X157348035Y-106280916D01*
X157342260Y-106280840D01*
X157342256Y-106280840D01*
X157234997Y-106279436D01*
X157134401Y-106278119D01*
X157128704Y-106279098D01*
X157128703Y-106279098D01*
X156929531Y-106313322D01*
X156923834Y-106314301D01*
X156723387Y-106388250D01*
X156718426Y-106391202D01*
X156718425Y-106391202D01*
X156544740Y-106494533D01*
X156544737Y-106494535D01*
X156539772Y-106497489D01*
X156535432Y-106501295D01*
X156535428Y-106501298D01*
X156383876Y-106634207D01*
X156379140Y-106638360D01*
X156246869Y-106806145D01*
X156244180Y-106811256D01*
X156244178Y-106811259D01*
X156230544Y-106837174D01*
X156147389Y-106995225D01*
X156145675Y-107000746D01*
X156145673Y-107000750D01*
X156140183Y-107018433D01*
X156084032Y-107199267D01*
X156083354Y-107204996D01*
X156066431Y-107347982D01*
X156063500Y-107372742D01*
X156063500Y-109620287D01*
X156043498Y-109688408D01*
X156026595Y-109709382D01*
X145969095Y-119766882D01*
X145906783Y-119800908D01*
X145835968Y-119795843D01*
X145790905Y-119766882D01*
X141817462Y-115793439D01*
X144882920Y-115793439D01*
X144896894Y-116006634D01*
X144949485Y-116213713D01*
X145038933Y-116407740D01*
X145042266Y-116412456D01*
X145145485Y-116558508D01*
X145162241Y-116582218D01*
X145315281Y-116731302D01*
X145320084Y-116734512D01*
X145320085Y-116734512D01*
X145383380Y-116776804D01*
X145492927Y-116850001D01*
X145498230Y-116852279D01*
X145498233Y-116852281D01*
X145683827Y-116932018D01*
X145689229Y-116934339D01*
X145767778Y-116952113D01*
X145891977Y-116980217D01*
X145891980Y-116980217D01*
X145897613Y-116981492D01*
X145903384Y-116981719D01*
X145903386Y-116981719D01*
X145968363Y-116984272D01*
X146111101Y-116989880D01*
X146223850Y-116973532D01*
X146316829Y-116960051D01*
X146316834Y-116960050D01*
X146322543Y-116959222D01*
X146328007Y-116957367D01*
X146328012Y-116957366D01*
X146519389Y-116892402D01*
X146524857Y-116890546D01*
X146711268Y-116786151D01*
X146875533Y-116649533D01*
X147012151Y-116485268D01*
X147116546Y-116298857D01*
X147137640Y-116236717D01*
X147183366Y-116102012D01*
X147183367Y-116102007D01*
X147185222Y-116096543D01*
X147187582Y-116080272D01*
X147214337Y-115895743D01*
X147215880Y-115885101D01*
X147217480Y-115824000D01*
X147205267Y-115691094D01*
X147198459Y-115616998D01*
X147198458Y-115616995D01*
X147197930Y-115611244D01*
X147193491Y-115595502D01*
X147141504Y-115411172D01*
X147141503Y-115411170D01*
X147139936Y-115405613D01*
X147128662Y-115382750D01*
X147047995Y-115219174D01*
X147045440Y-115213993D01*
X147026139Y-115188145D01*
X146921060Y-115047427D01*
X146921059Y-115047426D01*
X146917607Y-115042803D01*
X146911789Y-115037425D01*
X146764957Y-114901695D01*
X146764954Y-114901693D01*
X146760717Y-114897776D01*
X146580025Y-114783768D01*
X146381582Y-114704597D01*
X146375925Y-114703472D01*
X146375919Y-114703470D01*
X146177703Y-114664043D01*
X146177699Y-114664043D01*
X146172035Y-114662916D01*
X146166260Y-114662840D01*
X146166256Y-114662840D01*
X146058997Y-114661436D01*
X145958401Y-114660119D01*
X145952704Y-114661098D01*
X145952703Y-114661098D01*
X145753531Y-114695322D01*
X145747834Y-114696301D01*
X145547387Y-114770250D01*
X145542426Y-114773202D01*
X145542425Y-114773202D01*
X145368740Y-114876533D01*
X145368737Y-114876535D01*
X145363772Y-114879489D01*
X145359432Y-114883295D01*
X145359428Y-114883298D01*
X145214578Y-115010329D01*
X145203140Y-115020360D01*
X145070869Y-115188145D01*
X145068180Y-115193256D01*
X145068178Y-115193259D01*
X145013830Y-115296557D01*
X144971389Y-115377225D01*
X144969675Y-115382746D01*
X144969673Y-115382750D01*
X144932809Y-115501473D01*
X144908032Y-115581267D01*
X144882920Y-115793439D01*
X141817462Y-115793439D01*
X139329926Y-113305903D01*
X139318063Y-113292197D01*
X139301060Y-113269427D01*
X139301059Y-113269426D01*
X139297607Y-113264803D01*
X139236176Y-113208017D01*
X139232611Y-113204588D01*
X136327405Y-110299382D01*
X136293379Y-110237070D01*
X136290500Y-110210287D01*
X136290500Y-107535499D01*
X136291804Y-107517419D01*
X136293347Y-107506775D01*
X136293880Y-107503101D01*
X136294999Y-107460370D01*
X136295383Y-107445713D01*
X136295383Y-107445709D01*
X136295480Y-107442000D01*
X136290403Y-107386743D01*
X136275930Y-107229244D01*
X136217936Y-107023613D01*
X136206662Y-107000750D01*
X136125995Y-106837174D01*
X136123440Y-106831993D01*
X136104139Y-106806145D01*
X135999060Y-106665427D01*
X135999059Y-106665426D01*
X135995607Y-106660803D01*
X135991371Y-106656887D01*
X135842957Y-106519695D01*
X135842954Y-106519693D01*
X135838717Y-106515776D01*
X135658025Y-106401768D01*
X135459582Y-106322597D01*
X135453925Y-106321472D01*
X135453919Y-106321470D01*
X135255703Y-106282043D01*
X135255699Y-106282043D01*
X135250035Y-106280916D01*
X135244260Y-106280840D01*
X135244256Y-106280840D01*
X135136997Y-106279436D01*
X135036401Y-106278119D01*
X135030704Y-106279098D01*
X135030703Y-106279098D01*
X134831531Y-106313322D01*
X134825834Y-106314301D01*
X134625387Y-106388250D01*
X134620426Y-106391202D01*
X134620425Y-106391202D01*
X134446740Y-106494533D01*
X134446737Y-106494535D01*
X134441772Y-106497489D01*
X134437432Y-106501295D01*
X134437428Y-106501298D01*
X134285876Y-106634207D01*
X134281140Y-106638360D01*
X134148869Y-106806145D01*
X134146180Y-106811256D01*
X134146178Y-106811259D01*
X134132544Y-106837174D01*
X134049389Y-106995225D01*
X134047675Y-107000746D01*
X134047673Y-107000750D01*
X134042183Y-107018433D01*
X133986032Y-107199267D01*
X133960920Y-107411439D01*
X133963419Y-107449572D01*
X133965230Y-107477195D01*
X133965500Y-107485436D01*
X133965500Y-110700561D01*
X133965230Y-110708799D01*
X133960920Y-110774561D01*
X37762500Y-110774561D01*
X37762500Y-108428753D01*
X48159117Y-108428753D01*
X48172489Y-108632779D01*
X48222819Y-108830951D01*
X48308419Y-109016633D01*
X48426424Y-109183606D01*
X48572882Y-109326279D01*
X48577678Y-109329484D01*
X48577681Y-109329486D01*
X48645903Y-109375070D01*
X48742887Y-109439872D01*
X48748190Y-109442150D01*
X48748193Y-109442152D01*
X48833198Y-109478673D01*
X48930746Y-109520583D01*
X49027772Y-109542538D01*
X49124532Y-109564433D01*
X49124535Y-109564433D01*
X49130168Y-109565708D01*
X49135939Y-109565935D01*
X49135941Y-109565935D01*
X49198646Y-109568398D01*
X49334473Y-109573735D01*
X49453344Y-109556500D01*
X49531099Y-109545226D01*
X49531103Y-109545225D01*
X49536821Y-109544396D01*
X49542293Y-109542538D01*
X49542295Y-109542538D01*
X49724965Y-109480529D01*
X49730433Y-109478673D01*
X49908826Y-109378768D01*
X50066026Y-109248026D01*
X50196768Y-109090826D01*
X50296673Y-108912433D01*
X50362396Y-108718821D01*
X50374872Y-108632779D01*
X50391202Y-108520147D01*
X50391735Y-108516473D01*
X50393266Y-108458000D01*
X50390579Y-108428753D01*
X62383117Y-108428753D01*
X62396489Y-108632779D01*
X62446819Y-108830951D01*
X62532419Y-109016633D01*
X62650424Y-109183606D01*
X62796882Y-109326279D01*
X62801678Y-109329484D01*
X62801681Y-109329486D01*
X62869903Y-109375070D01*
X62966887Y-109439872D01*
X62972190Y-109442150D01*
X62972193Y-109442152D01*
X63057198Y-109478673D01*
X63154746Y-109520583D01*
X63251772Y-109542538D01*
X63348532Y-109564433D01*
X63348535Y-109564433D01*
X63354168Y-109565708D01*
X63359939Y-109565935D01*
X63359941Y-109565935D01*
X63422646Y-109568398D01*
X63558473Y-109573735D01*
X63677344Y-109556500D01*
X63755099Y-109545226D01*
X63755103Y-109545225D01*
X63760821Y-109544396D01*
X63766293Y-109542538D01*
X63766295Y-109542538D01*
X63948965Y-109480529D01*
X63954433Y-109478673D01*
X64132826Y-109378768D01*
X64290026Y-109248026D01*
X64420768Y-109090826D01*
X64520673Y-108912433D01*
X64586396Y-108718821D01*
X64598872Y-108632779D01*
X64615202Y-108520147D01*
X64615735Y-108516473D01*
X64617266Y-108458000D01*
X64598557Y-108254394D01*
X64590467Y-108225707D01*
X64544627Y-108063172D01*
X64543058Y-108057608D01*
X64452626Y-107874230D01*
X64330290Y-107710403D01*
X64180148Y-107571613D01*
X64007228Y-107462509D01*
X63974802Y-107449572D01*
X63946558Y-107438304D01*
X63817321Y-107386743D01*
X63811653Y-107385616D01*
X63811651Y-107385615D01*
X63622454Y-107347982D01*
X63622450Y-107347982D01*
X63616786Y-107346855D01*
X63611011Y-107346779D01*
X63611007Y-107346779D01*
X63508466Y-107345437D01*
X63412340Y-107344178D01*
X63406643Y-107345157D01*
X63406642Y-107345157D01*
X63216527Y-107377825D01*
X63210830Y-107378804D01*
X63019005Y-107449572D01*
X62843288Y-107554113D01*
X62689564Y-107688925D01*
X62562982Y-107849493D01*
X62560294Y-107854602D01*
X62470470Y-108025329D01*
X62470468Y-108025334D01*
X62467781Y-108030441D01*
X62407149Y-108225707D01*
X62383117Y-108428753D01*
X50390579Y-108428753D01*
X50374557Y-108254394D01*
X50366467Y-108225707D01*
X50320627Y-108063172D01*
X50319058Y-108057608D01*
X50228626Y-107874230D01*
X50106290Y-107710403D01*
X49956148Y-107571613D01*
X49783228Y-107462509D01*
X49750802Y-107449572D01*
X49722558Y-107438304D01*
X49593321Y-107386743D01*
X49587653Y-107385616D01*
X49587651Y-107385615D01*
X49398454Y-107347982D01*
X49398450Y-107347982D01*
X49392786Y-107346855D01*
X49387011Y-107346779D01*
X49387007Y-107346779D01*
X49284466Y-107345437D01*
X49188340Y-107344178D01*
X49182643Y-107345157D01*
X49182642Y-107345157D01*
X48992527Y-107377825D01*
X48986830Y-107378804D01*
X48795005Y-107449572D01*
X48619288Y-107554113D01*
X48465564Y-107688925D01*
X48338982Y-107849493D01*
X48336294Y-107854602D01*
X48246470Y-108025329D01*
X48246468Y-108025334D01*
X48243781Y-108030441D01*
X48183149Y-108225707D01*
X48159117Y-108428753D01*
X37762500Y-108428753D01*
X37762500Y-105410000D01*
X42170823Y-105410000D01*
X42189502Y-105647339D01*
X42190656Y-105652146D01*
X42190657Y-105652152D01*
X42225630Y-105797824D01*
X42245079Y-105878833D01*
X42336185Y-106098784D01*
X42460578Y-106301774D01*
X42463789Y-106305534D01*
X42463793Y-106305539D01*
X42544153Y-106399628D01*
X42615194Y-106482806D01*
X42618956Y-106486019D01*
X42792461Y-106634207D01*
X42792466Y-106634211D01*
X42796226Y-106637422D01*
X42999216Y-106761815D01*
X43003786Y-106763708D01*
X43003790Y-106763710D01*
X43181150Y-106837174D01*
X43219167Y-106852921D01*
X43300176Y-106872370D01*
X43445848Y-106907343D01*
X43445854Y-106907344D01*
X43450661Y-106908498D01*
X43688000Y-106927177D01*
X43925339Y-106908498D01*
X43930146Y-106907344D01*
X43930152Y-106907343D01*
X44075824Y-106872370D01*
X44156833Y-106852921D01*
X44194850Y-106837174D01*
X44372210Y-106763710D01*
X44372214Y-106763708D01*
X44376784Y-106761815D01*
X44579774Y-106637422D01*
X44583534Y-106634211D01*
X44583539Y-106634207D01*
X44757044Y-106486019D01*
X44760806Y-106482806D01*
X44831847Y-106399628D01*
X44912207Y-106305539D01*
X44912211Y-106305534D01*
X44915422Y-106301774D01*
X45039815Y-106098784D01*
X45130921Y-105878833D01*
X45150370Y-105797824D01*
X45185343Y-105652152D01*
X45185344Y-105652146D01*
X45186498Y-105647339D01*
X45205177Y-105410000D01*
X68586823Y-105410000D01*
X68605502Y-105647339D01*
X68606656Y-105652146D01*
X68606657Y-105652152D01*
X68641630Y-105797824D01*
X68661079Y-105878833D01*
X68752185Y-106098784D01*
X68876578Y-106301774D01*
X68879789Y-106305534D01*
X68879793Y-106305539D01*
X68960153Y-106399628D01*
X69031194Y-106482806D01*
X69034956Y-106486019D01*
X69208461Y-106634207D01*
X69208466Y-106634211D01*
X69212226Y-106637422D01*
X69415216Y-106761815D01*
X69419786Y-106763708D01*
X69419790Y-106763710D01*
X69597150Y-106837174D01*
X69635167Y-106852921D01*
X69716176Y-106872370D01*
X69861848Y-106907343D01*
X69861854Y-106907344D01*
X69866661Y-106908498D01*
X70104000Y-106927177D01*
X70341339Y-106908498D01*
X70346146Y-106907344D01*
X70346152Y-106907343D01*
X70491824Y-106872370D01*
X70572833Y-106852921D01*
X70610850Y-106837174D01*
X70788210Y-106763710D01*
X70788214Y-106763708D01*
X70792784Y-106761815D01*
X70995774Y-106637422D01*
X70999534Y-106634211D01*
X70999539Y-106634207D01*
X71173044Y-106486019D01*
X71176806Y-106482806D01*
X71247847Y-106399628D01*
X71328207Y-106305539D01*
X71328211Y-106305534D01*
X71331422Y-106301774D01*
X71455815Y-106098784D01*
X71546921Y-105878833D01*
X71566370Y-105797824D01*
X71601343Y-105652152D01*
X71601344Y-105652146D01*
X71602498Y-105647339D01*
X71621177Y-105410000D01*
X71602498Y-105172661D01*
X71601344Y-105167854D01*
X71601343Y-105167848D01*
X71548076Y-104945979D01*
X71546921Y-104941167D01*
X71455815Y-104721216D01*
X71331422Y-104518226D01*
X71328211Y-104514466D01*
X71328207Y-104514461D01*
X71180019Y-104340956D01*
X71176806Y-104337194D01*
X71159305Y-104322247D01*
X70999539Y-104185793D01*
X70999534Y-104185789D01*
X70995774Y-104182578D01*
X70792784Y-104058185D01*
X70788214Y-104056292D01*
X70788210Y-104056290D01*
X70577406Y-103968973D01*
X70577404Y-103968972D01*
X70572833Y-103967079D01*
X70491824Y-103947630D01*
X70346152Y-103912657D01*
X70346146Y-103912656D01*
X70341339Y-103911502D01*
X70104000Y-103892823D01*
X69866661Y-103911502D01*
X69861854Y-103912656D01*
X69861848Y-103912657D01*
X69716176Y-103947630D01*
X69635167Y-103967079D01*
X69630596Y-103968972D01*
X69630594Y-103968973D01*
X69419790Y-104056290D01*
X69419786Y-104056292D01*
X69415216Y-104058185D01*
X69212226Y-104182578D01*
X69208466Y-104185789D01*
X69208461Y-104185793D01*
X69048695Y-104322247D01*
X69031194Y-104337194D01*
X69027981Y-104340956D01*
X68879793Y-104514461D01*
X68879789Y-104514466D01*
X68876578Y-104518226D01*
X68752185Y-104721216D01*
X68661079Y-104941167D01*
X68659924Y-104945979D01*
X68606657Y-105167848D01*
X68606656Y-105167854D01*
X68605502Y-105172661D01*
X68586823Y-105410000D01*
X45205177Y-105410000D01*
X45186498Y-105172661D01*
X45185344Y-105167854D01*
X45185343Y-105167848D01*
X45132076Y-104945979D01*
X45130921Y-104941167D01*
X45039815Y-104721216D01*
X44915422Y-104518226D01*
X44912211Y-104514466D01*
X44912207Y-104514461D01*
X44764019Y-104340956D01*
X44760806Y-104337194D01*
X44743305Y-104322247D01*
X44583539Y-104185793D01*
X44583534Y-104185789D01*
X44579774Y-104182578D01*
X44376784Y-104058185D01*
X44372214Y-104056292D01*
X44372210Y-104056290D01*
X44161406Y-103968973D01*
X44161404Y-103968972D01*
X44156833Y-103967079D01*
X44075824Y-103947630D01*
X43930152Y-103912657D01*
X43930146Y-103912656D01*
X43925339Y-103911502D01*
X43688000Y-103892823D01*
X43450661Y-103911502D01*
X43445854Y-103912656D01*
X43445848Y-103912657D01*
X43300176Y-103947630D01*
X43219167Y-103967079D01*
X43214596Y-103968972D01*
X43214594Y-103968973D01*
X43003790Y-104056290D01*
X43003786Y-104056292D01*
X42999216Y-104058185D01*
X42796226Y-104182578D01*
X42792466Y-104185789D01*
X42792461Y-104185793D01*
X42632695Y-104322247D01*
X42615194Y-104337194D01*
X42611981Y-104340956D01*
X42463793Y-104514461D01*
X42463789Y-104514466D01*
X42460578Y-104518226D01*
X42336185Y-104721216D01*
X42245079Y-104941167D01*
X42243924Y-104945979D01*
X42190657Y-105167848D01*
X42190656Y-105167854D01*
X42189502Y-105172661D01*
X42170823Y-105410000D01*
X37762500Y-105410000D01*
X37762500Y-101824753D01*
X97181117Y-101824753D01*
X97194489Y-102028779D01*
X97244819Y-102226951D01*
X97330419Y-102412633D01*
X97448424Y-102579606D01*
X97594882Y-102722279D01*
X97599678Y-102725484D01*
X97599681Y-102725486D01*
X97667903Y-102771070D01*
X97764887Y-102835872D01*
X97770190Y-102838150D01*
X97770193Y-102838152D01*
X97855198Y-102874673D01*
X97952746Y-102916583D01*
X98049772Y-102938538D01*
X98146532Y-102960433D01*
X98146535Y-102960433D01*
X98152168Y-102961708D01*
X98157939Y-102961935D01*
X98157941Y-102961935D01*
X98220646Y-102964398D01*
X98356473Y-102969735D01*
X98475344Y-102952500D01*
X98553099Y-102941226D01*
X98553103Y-102941225D01*
X98558821Y-102940396D01*
X98564293Y-102938538D01*
X98564295Y-102938538D01*
X98746965Y-102876529D01*
X98752433Y-102874673D01*
X98930826Y-102774768D01*
X99088026Y-102644026D01*
X99218768Y-102486826D01*
X99318673Y-102308433D01*
X99384396Y-102114821D01*
X99396872Y-102028779D01*
X99413202Y-101916147D01*
X99413735Y-101912473D01*
X99415266Y-101854000D01*
X99412579Y-101824753D01*
X100483117Y-101824753D01*
X100496489Y-102028779D01*
X100546819Y-102226951D01*
X100632419Y-102412633D01*
X100750424Y-102579606D01*
X100896882Y-102722279D01*
X100901678Y-102725484D01*
X100901681Y-102725486D01*
X100969903Y-102771070D01*
X101066887Y-102835872D01*
X101072190Y-102838150D01*
X101072193Y-102838152D01*
X101157198Y-102874673D01*
X101254746Y-102916583D01*
X101351772Y-102938538D01*
X101448532Y-102960433D01*
X101448535Y-102960433D01*
X101454168Y-102961708D01*
X101459939Y-102961935D01*
X101459941Y-102961935D01*
X101522646Y-102964398D01*
X101658473Y-102969735D01*
X101777344Y-102952500D01*
X101855099Y-102941226D01*
X101855103Y-102941225D01*
X101860821Y-102940396D01*
X101866293Y-102938538D01*
X101866295Y-102938538D01*
X102048965Y-102876529D01*
X102054433Y-102874673D01*
X102232826Y-102774768D01*
X102390026Y-102644026D01*
X102520768Y-102486826D01*
X102620673Y-102308433D01*
X102686396Y-102114821D01*
X102698872Y-102028779D01*
X102715202Y-101916147D01*
X102715735Y-101912473D01*
X102717266Y-101854000D01*
X102698557Y-101650394D01*
X102690467Y-101621707D01*
X102644627Y-101459172D01*
X102643058Y-101453608D01*
X102552626Y-101270230D01*
X102430290Y-101106403D01*
X102280148Y-100967613D01*
X102107228Y-100858509D01*
X102074802Y-100845572D01*
X102048093Y-100834916D01*
X101917321Y-100782743D01*
X101911653Y-100781616D01*
X101911651Y-100781615D01*
X101722454Y-100743982D01*
X101722450Y-100743982D01*
X101716786Y-100742855D01*
X101711011Y-100742779D01*
X101711007Y-100742779D01*
X101608466Y-100741437D01*
X101512340Y-100740178D01*
X101506643Y-100741157D01*
X101506642Y-100741157D01*
X101490202Y-100743982D01*
X101310830Y-100774804D01*
X101119005Y-100845572D01*
X100943288Y-100950113D01*
X100789564Y-101084925D01*
X100662982Y-101245493D01*
X100660294Y-101250602D01*
X100570470Y-101421329D01*
X100570468Y-101421334D01*
X100567781Y-101426441D01*
X100507149Y-101621707D01*
X100483117Y-101824753D01*
X99412579Y-101824753D01*
X99396557Y-101650394D01*
X99388467Y-101621707D01*
X99342627Y-101459172D01*
X99341058Y-101453608D01*
X99250626Y-101270230D01*
X99128290Y-101106403D01*
X98978148Y-100967613D01*
X98805228Y-100858509D01*
X98772802Y-100845572D01*
X98746093Y-100834916D01*
X98615321Y-100782743D01*
X98609653Y-100781616D01*
X98609651Y-100781615D01*
X98420454Y-100743982D01*
X98420450Y-100743982D01*
X98414786Y-100742855D01*
X98409011Y-100742779D01*
X98409007Y-100742779D01*
X98306466Y-100741437D01*
X98210340Y-100740178D01*
X98204643Y-100741157D01*
X98204642Y-100741157D01*
X98188202Y-100743982D01*
X98008830Y-100774804D01*
X97817005Y-100845572D01*
X97641288Y-100950113D01*
X97487564Y-101084925D01*
X97360982Y-101245493D01*
X97358294Y-101250602D01*
X97268470Y-101421329D01*
X97268468Y-101421334D01*
X97265781Y-101426441D01*
X97205149Y-101621707D01*
X97181117Y-101824753D01*
X37762500Y-101824753D01*
X37762500Y-98522753D01*
X49175117Y-98522753D01*
X49188489Y-98726779D01*
X49238819Y-98924951D01*
X49324419Y-99110633D01*
X49442424Y-99277606D01*
X49486486Y-99320529D01*
X49572616Y-99404433D01*
X49588882Y-99420279D01*
X49593678Y-99423484D01*
X49593681Y-99423486D01*
X49661903Y-99469070D01*
X49758887Y-99533872D01*
X49764190Y-99536150D01*
X49764193Y-99536152D01*
X49849198Y-99572673D01*
X49946746Y-99614583D01*
X50043772Y-99636538D01*
X50140532Y-99658433D01*
X50140535Y-99658433D01*
X50146168Y-99659708D01*
X50151939Y-99659935D01*
X50151941Y-99659935D01*
X50214646Y-99662398D01*
X50350473Y-99667735D01*
X50469344Y-99650500D01*
X50547099Y-99639226D01*
X50547103Y-99639225D01*
X50552821Y-99638396D01*
X50558293Y-99636538D01*
X50558295Y-99636538D01*
X50740965Y-99574529D01*
X50746433Y-99572673D01*
X50924826Y-99472768D01*
X51082026Y-99342026D01*
X51212768Y-99184826D01*
X51312673Y-99006433D01*
X51378396Y-98812821D01*
X51390872Y-98726779D01*
X51407202Y-98614147D01*
X51407735Y-98610473D01*
X51409266Y-98552000D01*
X51390557Y-98348394D01*
X51382467Y-98319707D01*
X51368096Y-98268753D01*
X142647117Y-98268753D01*
X142660489Y-98472779D01*
X142710819Y-98670951D01*
X142713236Y-98676194D01*
X142778745Y-98818295D01*
X142796419Y-98856633D01*
X142914424Y-99023606D01*
X143060882Y-99166279D01*
X143065678Y-99169484D01*
X143065681Y-99169486D01*
X143133903Y-99215070D01*
X143230887Y-99279872D01*
X143236190Y-99282150D01*
X143236193Y-99282152D01*
X143413439Y-99358303D01*
X143418746Y-99360583D01*
X143515772Y-99382538D01*
X143612532Y-99404433D01*
X143612535Y-99404433D01*
X143618168Y-99405708D01*
X143623939Y-99405935D01*
X143623941Y-99405935D01*
X143686646Y-99408398D01*
X143822473Y-99413735D01*
X143941344Y-99396500D01*
X144019099Y-99385226D01*
X144019103Y-99385225D01*
X144024821Y-99384396D01*
X144030293Y-99382538D01*
X144030295Y-99382538D01*
X144212965Y-99320529D01*
X144218433Y-99318673D01*
X144396826Y-99218768D01*
X144443261Y-99180148D01*
X144508423Y-99151968D01*
X144578479Y-99163491D01*
X144593826Y-99172255D01*
X144754887Y-99279872D01*
X144760190Y-99282150D01*
X144760193Y-99282152D01*
X144937439Y-99358303D01*
X144942746Y-99360583D01*
X145039772Y-99382538D01*
X145136532Y-99404433D01*
X145136535Y-99404433D01*
X145142168Y-99405708D01*
X145147939Y-99405935D01*
X145147941Y-99405935D01*
X145210646Y-99408398D01*
X145346473Y-99413735D01*
X145465344Y-99396500D01*
X145543099Y-99385226D01*
X145543103Y-99385225D01*
X145548821Y-99384396D01*
X145554293Y-99382538D01*
X145554295Y-99382538D01*
X145736965Y-99320529D01*
X145742433Y-99318673D01*
X145920826Y-99218768D01*
X146078026Y-99088026D01*
X146208768Y-98930826D01*
X146308673Y-98752433D01*
X146356862Y-98610473D01*
X146372538Y-98564295D01*
X146372538Y-98564293D01*
X146374396Y-98558821D01*
X146386872Y-98472779D01*
X146403202Y-98360147D01*
X146403735Y-98356473D01*
X146405266Y-98298000D01*
X146402579Y-98268753D01*
X149505117Y-98268753D01*
X149518489Y-98472779D01*
X149568819Y-98670951D01*
X149571236Y-98676194D01*
X149636745Y-98818295D01*
X149654419Y-98856633D01*
X149772424Y-99023606D01*
X149918882Y-99166279D01*
X149923678Y-99169484D01*
X149923681Y-99169486D01*
X149991903Y-99215070D01*
X150088887Y-99279872D01*
X150094190Y-99282150D01*
X150094193Y-99282152D01*
X150271439Y-99358303D01*
X150276746Y-99360583D01*
X150373772Y-99382538D01*
X150470532Y-99404433D01*
X150470535Y-99404433D01*
X150476168Y-99405708D01*
X150481939Y-99405935D01*
X150481941Y-99405935D01*
X150544646Y-99408398D01*
X150680473Y-99413735D01*
X150799344Y-99396500D01*
X150877099Y-99385226D01*
X150877103Y-99385225D01*
X150882821Y-99384396D01*
X150888293Y-99382538D01*
X150888295Y-99382538D01*
X151070965Y-99320529D01*
X151076433Y-99318673D01*
X151254826Y-99218768D01*
X151412026Y-99088026D01*
X151542768Y-98930826D01*
X151642673Y-98752433D01*
X151690862Y-98610473D01*
X151706538Y-98564295D01*
X151706538Y-98564293D01*
X151708396Y-98558821D01*
X151720872Y-98472779D01*
X151737202Y-98360147D01*
X151737735Y-98356473D01*
X151739266Y-98298000D01*
X151720557Y-98094394D01*
X151712467Y-98065707D01*
X151692807Y-97996001D01*
X151665058Y-97897608D01*
X151574626Y-97714230D01*
X151452290Y-97550403D01*
X151362168Y-97467095D01*
X151306388Y-97415532D01*
X151306385Y-97415530D01*
X151302148Y-97411613D01*
X151129228Y-97302509D01*
X151096802Y-97289572D01*
X151070093Y-97278916D01*
X150939321Y-97226743D01*
X150933653Y-97225616D01*
X150933651Y-97225615D01*
X150744454Y-97187982D01*
X150744450Y-97187982D01*
X150738786Y-97186855D01*
X150733011Y-97186779D01*
X150733007Y-97186779D01*
X150630466Y-97185437D01*
X150534340Y-97184178D01*
X150528643Y-97185157D01*
X150528642Y-97185157D01*
X150512202Y-97187982D01*
X150332830Y-97218804D01*
X150141005Y-97289572D01*
X149965288Y-97394113D01*
X149811564Y-97528925D01*
X149807992Y-97533456D01*
X149703808Y-97665613D01*
X149684982Y-97689493D01*
X149682294Y-97694602D01*
X149592470Y-97865329D01*
X149592468Y-97865334D01*
X149589781Y-97870441D01*
X149567098Y-97943493D01*
X149559417Y-97968230D01*
X149529149Y-98065707D01*
X149505117Y-98268753D01*
X146402579Y-98268753D01*
X146386557Y-98094394D01*
X146378467Y-98065707D01*
X146358807Y-97996001D01*
X146331058Y-97897608D01*
X146240626Y-97714230D01*
X146118290Y-97550403D01*
X146028168Y-97467095D01*
X145972388Y-97415532D01*
X145972385Y-97415530D01*
X145968148Y-97411613D01*
X145795228Y-97302509D01*
X145762802Y-97289572D01*
X145736093Y-97278916D01*
X145605321Y-97226743D01*
X145599653Y-97225616D01*
X145599651Y-97225615D01*
X145410454Y-97187982D01*
X145410450Y-97187982D01*
X145404786Y-97186855D01*
X145399011Y-97186779D01*
X145399007Y-97186779D01*
X145296466Y-97185437D01*
X145200340Y-97184178D01*
X145194643Y-97185157D01*
X145194642Y-97185157D01*
X145178202Y-97187982D01*
X144998830Y-97218804D01*
X144807005Y-97289572D01*
X144631288Y-97394113D01*
X144610653Y-97412209D01*
X144546252Y-97442085D01*
X144475919Y-97432401D01*
X144450873Y-97417440D01*
X144448393Y-97415537D01*
X144444148Y-97411613D01*
X144411731Y-97391159D01*
X144276111Y-97305590D01*
X144276112Y-97305590D01*
X144271228Y-97302509D01*
X144238802Y-97289572D01*
X144212093Y-97278916D01*
X144081321Y-97226743D01*
X144075653Y-97225616D01*
X144075651Y-97225615D01*
X143886454Y-97187982D01*
X143886450Y-97187982D01*
X143880786Y-97186855D01*
X143875011Y-97186779D01*
X143875007Y-97186779D01*
X143772466Y-97185437D01*
X143676340Y-97184178D01*
X143670643Y-97185157D01*
X143670642Y-97185157D01*
X143654202Y-97187982D01*
X143474830Y-97218804D01*
X143283005Y-97289572D01*
X143107288Y-97394113D01*
X142953564Y-97528925D01*
X142949992Y-97533456D01*
X142845808Y-97665613D01*
X142826982Y-97689493D01*
X142824294Y-97694602D01*
X142734470Y-97865329D01*
X142734468Y-97865334D01*
X142731781Y-97870441D01*
X142709098Y-97943493D01*
X142701417Y-97968230D01*
X142671149Y-98065707D01*
X142647117Y-98268753D01*
X51368096Y-98268753D01*
X51336627Y-98157172D01*
X51335058Y-98151608D01*
X51244626Y-97968230D01*
X51188020Y-97892425D01*
X51125743Y-97809027D01*
X51125743Y-97809026D01*
X51122290Y-97804403D01*
X50997981Y-97689493D01*
X50976388Y-97669532D01*
X50976385Y-97669530D01*
X50972148Y-97665613D01*
X50799228Y-97556509D01*
X50783924Y-97550403D01*
X50720552Y-97525120D01*
X50609321Y-97480743D01*
X50603653Y-97479616D01*
X50603651Y-97479615D01*
X50414454Y-97441982D01*
X50414450Y-97441982D01*
X50408786Y-97440855D01*
X50403011Y-97440779D01*
X50403007Y-97440779D01*
X50300466Y-97439437D01*
X50204340Y-97438178D01*
X50198643Y-97439157D01*
X50198642Y-97439157D01*
X50008527Y-97471825D01*
X50002830Y-97472804D01*
X49811005Y-97543572D01*
X49635288Y-97648113D01*
X49481564Y-97782925D01*
X49477992Y-97787456D01*
X49386769Y-97903172D01*
X49354982Y-97943493D01*
X49352294Y-97948602D01*
X49262470Y-98119329D01*
X49262468Y-98119334D01*
X49259781Y-98124441D01*
X49249618Y-98157172D01*
X49207037Y-98294305D01*
X49199149Y-98319707D01*
X49175117Y-98522753D01*
X37762500Y-98522753D01*
X37762500Y-91510111D01*
X45414814Y-91510111D01*
X45416642Y-91587697D01*
X45419596Y-91713027D01*
X45420952Y-91770586D01*
X45466420Y-92027135D01*
X45550170Y-92273855D01*
X45552371Y-92278091D01*
X45552373Y-92278097D01*
X45610222Y-92389461D01*
X45670275Y-92505068D01*
X45823972Y-92715453D01*
X45827346Y-92718845D01*
X45827348Y-92718847D01*
X46004348Y-92896776D01*
X46004353Y-92896780D01*
X46007724Y-92900169D01*
X46011570Y-92903010D01*
X46011575Y-92903014D01*
X46213450Y-93052121D01*
X46217302Y-93054966D01*
X46221532Y-93057192D01*
X46221536Y-93057194D01*
X46386857Y-93144173D01*
X46447883Y-93176280D01*
X46694161Y-93261321D01*
X46950468Y-93308131D01*
X47033832Y-93312500D01*
X47196257Y-93312500D01*
X47198636Y-93312319D01*
X47198637Y-93312319D01*
X47385030Y-93298141D01*
X47385035Y-93298140D01*
X47389797Y-93297778D01*
X47394450Y-93296699D01*
X47394453Y-93296699D01*
X47613070Y-93246026D01*
X47643615Y-93238946D01*
X47885613Y-93142398D01*
X48110223Y-93010357D01*
X48312277Y-92845859D01*
X48487123Y-92652692D01*
X48501600Y-92630779D01*
X48628101Y-92439293D01*
X48630739Y-92435300D01*
X48634680Y-92426753D01*
X48737813Y-92203038D01*
X48737814Y-92203035D01*
X48739819Y-92198686D01*
X48741143Y-92194084D01*
X48810533Y-91952888D01*
X48810534Y-91952884D01*
X48811854Y-91948295D01*
X48812773Y-91941177D01*
X48844575Y-91694626D01*
X48845186Y-91689889D01*
X48840950Y-91510111D01*
X58154814Y-91510111D01*
X58156642Y-91587697D01*
X58159596Y-91713027D01*
X58160952Y-91770586D01*
X58206420Y-92027135D01*
X58290170Y-92273855D01*
X58292371Y-92278091D01*
X58292373Y-92278097D01*
X58350222Y-92389461D01*
X58410275Y-92505068D01*
X58563972Y-92715453D01*
X58567346Y-92718845D01*
X58567348Y-92718847D01*
X58744348Y-92896776D01*
X58744353Y-92896780D01*
X58747724Y-92900169D01*
X58751570Y-92903010D01*
X58751575Y-92903014D01*
X58953450Y-93052121D01*
X58957302Y-93054966D01*
X58961532Y-93057192D01*
X58961536Y-93057194D01*
X59126857Y-93144173D01*
X59187883Y-93176280D01*
X59434161Y-93261321D01*
X59690468Y-93308131D01*
X59773832Y-93312500D01*
X59936257Y-93312500D01*
X59938636Y-93312319D01*
X59938637Y-93312319D01*
X60125030Y-93298141D01*
X60125035Y-93298140D01*
X60129797Y-93297778D01*
X60134450Y-93296699D01*
X60134453Y-93296699D01*
X60353070Y-93246026D01*
X60383615Y-93238946D01*
X60625613Y-93142398D01*
X60850223Y-93010357D01*
X61052277Y-92845859D01*
X61227123Y-92652692D01*
X61241600Y-92630779D01*
X61368101Y-92439293D01*
X61370739Y-92435300D01*
X61374680Y-92426753D01*
X68225117Y-92426753D01*
X68238489Y-92630779D01*
X68288819Y-92828951D01*
X68374419Y-93014633D01*
X68492424Y-93181606D01*
X68496558Y-93185633D01*
X68626791Y-93312500D01*
X68638882Y-93324279D01*
X68643678Y-93327484D01*
X68643681Y-93327486D01*
X68717743Y-93376972D01*
X68808887Y-93437872D01*
X68814190Y-93440150D01*
X68814193Y-93440152D01*
X68991439Y-93516303D01*
X68996746Y-93518583D01*
X69093772Y-93540538D01*
X69190532Y-93562433D01*
X69190535Y-93562433D01*
X69196168Y-93563708D01*
X69201939Y-93563935D01*
X69201941Y-93563935D01*
X69264646Y-93566398D01*
X69400473Y-93571735D01*
X69519344Y-93554500D01*
X69597099Y-93543226D01*
X69597103Y-93543225D01*
X69602821Y-93542396D01*
X69608293Y-93540538D01*
X69608295Y-93540538D01*
X69790965Y-93478529D01*
X69796433Y-93476673D01*
X69974698Y-93376840D01*
X69974826Y-93376768D01*
X69974866Y-93376840D01*
X70040277Y-93355416D01*
X70114173Y-93376591D01*
X70153703Y-93403004D01*
X70205887Y-93437872D01*
X70211190Y-93440150D01*
X70211193Y-93440152D01*
X70388439Y-93516303D01*
X70393746Y-93518583D01*
X70490772Y-93540538D01*
X70587532Y-93562433D01*
X70587535Y-93562433D01*
X70593168Y-93563708D01*
X70598939Y-93563935D01*
X70598941Y-93563935D01*
X70661646Y-93566398D01*
X70797473Y-93571735D01*
X70916344Y-93554500D01*
X70994099Y-93543226D01*
X70994103Y-93543225D01*
X70999821Y-93542396D01*
X71005293Y-93540538D01*
X71005295Y-93540538D01*
X71193433Y-93476673D01*
X71193795Y-93477740D01*
X71237273Y-93468500D01*
X74315253Y-93468500D01*
X74364990Y-93478732D01*
X74457746Y-93518583D01*
X74554772Y-93540538D01*
X74651532Y-93562433D01*
X74651535Y-93562433D01*
X74657168Y-93563708D01*
X74662939Y-93563935D01*
X74662941Y-93563935D01*
X74725646Y-93566398D01*
X74861473Y-93571735D01*
X74980344Y-93554500D01*
X75058099Y-93543226D01*
X75058103Y-93543225D01*
X75063821Y-93542396D01*
X75069293Y-93540538D01*
X75069295Y-93540538D01*
X75251965Y-93478529D01*
X75257433Y-93476673D01*
X75435698Y-93376840D01*
X75435826Y-93376768D01*
X75435866Y-93376840D01*
X75501277Y-93355416D01*
X75575173Y-93376591D01*
X75614703Y-93403004D01*
X75666887Y-93437872D01*
X75672190Y-93440150D01*
X75672193Y-93440152D01*
X75849439Y-93516303D01*
X75854746Y-93518583D01*
X75951772Y-93540538D01*
X76048532Y-93562433D01*
X76048535Y-93562433D01*
X76054168Y-93563708D01*
X76059939Y-93563935D01*
X76059941Y-93563935D01*
X76122646Y-93566398D01*
X76258473Y-93571735D01*
X76377344Y-93554500D01*
X76455099Y-93543226D01*
X76455103Y-93543225D01*
X76460821Y-93542396D01*
X76466293Y-93540538D01*
X76466295Y-93540538D01*
X76648965Y-93478529D01*
X76654433Y-93476673D01*
X76832826Y-93376768D01*
X76990026Y-93246026D01*
X77120768Y-93088826D01*
X77220673Y-92910433D01*
X77286396Y-92716821D01*
X77287385Y-92710000D01*
X82937823Y-92710000D01*
X82956502Y-92947339D01*
X82957656Y-92952146D01*
X82957657Y-92952152D01*
X82971631Y-93010357D01*
X83012079Y-93178833D01*
X83013972Y-93183404D01*
X83013973Y-93183406D01*
X83094375Y-93377514D01*
X83103185Y-93398784D01*
X83227578Y-93601774D01*
X83230789Y-93605534D01*
X83230793Y-93605539D01*
X83367247Y-93765305D01*
X83382194Y-93782806D01*
X83385956Y-93786019D01*
X83559461Y-93934207D01*
X83559466Y-93934211D01*
X83563226Y-93937422D01*
X83766216Y-94061815D01*
X83770786Y-94063708D01*
X83770790Y-94063710D01*
X83981594Y-94151027D01*
X83986167Y-94152921D01*
X84067176Y-94172370D01*
X84212848Y-94207343D01*
X84212854Y-94207344D01*
X84217661Y-94208498D01*
X84455000Y-94227177D01*
X84692339Y-94208498D01*
X84697146Y-94207344D01*
X84697152Y-94207343D01*
X84842824Y-94172370D01*
X84923833Y-94152921D01*
X84928406Y-94151027D01*
X85139210Y-94063710D01*
X85139214Y-94063708D01*
X85143784Y-94061815D01*
X85346774Y-93937422D01*
X85350534Y-93934211D01*
X85350539Y-93934207D01*
X85524044Y-93786019D01*
X85527806Y-93782806D01*
X85542753Y-93765305D01*
X85679207Y-93605539D01*
X85679211Y-93605534D01*
X85682422Y-93601774D01*
X85806815Y-93398784D01*
X85815626Y-93377514D01*
X85896027Y-93183406D01*
X85896028Y-93183404D01*
X85897921Y-93178833D01*
X85938369Y-93010357D01*
X85952343Y-92952152D01*
X85952344Y-92952146D01*
X85953498Y-92947339D01*
X85972177Y-92710000D01*
X114560823Y-92710000D01*
X114579502Y-92947339D01*
X114580656Y-92952146D01*
X114580657Y-92952152D01*
X114594631Y-93010357D01*
X114635079Y-93178833D01*
X114636972Y-93183404D01*
X114636973Y-93183406D01*
X114717375Y-93377514D01*
X114726185Y-93398784D01*
X114850578Y-93601774D01*
X114853789Y-93605534D01*
X114853793Y-93605539D01*
X114990247Y-93765305D01*
X115005194Y-93782806D01*
X115008956Y-93786019D01*
X115182461Y-93934207D01*
X115182466Y-93934211D01*
X115186226Y-93937422D01*
X115389216Y-94061815D01*
X115393786Y-94063708D01*
X115393790Y-94063710D01*
X115604594Y-94151027D01*
X115609167Y-94152921D01*
X115690176Y-94172370D01*
X115835848Y-94207343D01*
X115835854Y-94207344D01*
X115840661Y-94208498D01*
X116078000Y-94227177D01*
X116315339Y-94208498D01*
X116320146Y-94207344D01*
X116320152Y-94207343D01*
X116465824Y-94172370D01*
X116546833Y-94152921D01*
X116551406Y-94151027D01*
X116762210Y-94063710D01*
X116762214Y-94063708D01*
X116766784Y-94061815D01*
X116969774Y-93937422D01*
X116973534Y-93934211D01*
X116973539Y-93934207D01*
X117147044Y-93786019D01*
X117150806Y-93782806D01*
X117165753Y-93765305D01*
X117302207Y-93605539D01*
X117302211Y-93605534D01*
X117305422Y-93601774D01*
X117429815Y-93398784D01*
X117438626Y-93377514D01*
X117519027Y-93183406D01*
X117519028Y-93183404D01*
X117520921Y-93178833D01*
X117561369Y-93010357D01*
X117575343Y-92952152D01*
X117575344Y-92952146D01*
X117576498Y-92947339D01*
X117595177Y-92710000D01*
X117576498Y-92472661D01*
X117575344Y-92467854D01*
X117575343Y-92467848D01*
X117528769Y-92273855D01*
X117520921Y-92241167D01*
X117501419Y-92194084D01*
X117431710Y-92025790D01*
X117431708Y-92025786D01*
X117429815Y-92021216D01*
X117305422Y-91818226D01*
X117302211Y-91814466D01*
X117302207Y-91814461D01*
X117154019Y-91640956D01*
X117150806Y-91637194D01*
X117133305Y-91622247D01*
X117002012Y-91510111D01*
X138414814Y-91510111D01*
X138416642Y-91587697D01*
X138419596Y-91713027D01*
X138420952Y-91770586D01*
X138466420Y-92027135D01*
X138550170Y-92273855D01*
X138552371Y-92278091D01*
X138552373Y-92278097D01*
X138610223Y-92389462D01*
X138670275Y-92505068D01*
X138823972Y-92715453D01*
X138827346Y-92718845D01*
X138827348Y-92718847D01*
X139004348Y-92896776D01*
X139004353Y-92896780D01*
X139007724Y-92900169D01*
X139011570Y-92903010D01*
X139011575Y-92903014D01*
X139213450Y-93052121D01*
X139217302Y-93054966D01*
X139221532Y-93057192D01*
X139221536Y-93057194D01*
X139386857Y-93144173D01*
X139447883Y-93176280D01*
X139694161Y-93261321D01*
X139950468Y-93308131D01*
X140033832Y-93312500D01*
X140196257Y-93312500D01*
X140198636Y-93312319D01*
X140198637Y-93312319D01*
X140385030Y-93298141D01*
X140385035Y-93298140D01*
X140389797Y-93297778D01*
X140394450Y-93296699D01*
X140394453Y-93296699D01*
X140613070Y-93246026D01*
X140643615Y-93238946D01*
X140885613Y-93142398D01*
X141110223Y-93010357D01*
X141312277Y-92845859D01*
X141487123Y-92652692D01*
X141501600Y-92630779D01*
X141628101Y-92439293D01*
X141630739Y-92435300D01*
X141634680Y-92426753D01*
X141737813Y-92203038D01*
X141737814Y-92203035D01*
X141739819Y-92198686D01*
X141741143Y-92194084D01*
X141810533Y-91952888D01*
X141810534Y-91952884D01*
X141811854Y-91948295D01*
X141812773Y-91941177D01*
X141844575Y-91694626D01*
X141845186Y-91689889D01*
X141840636Y-91496806D01*
X141839161Y-91434193D01*
X141839160Y-91434188D01*
X141839048Y-91429414D01*
X141810613Y-91268973D01*
X141794414Y-91177569D01*
X141794413Y-91177565D01*
X141793580Y-91172865D01*
X141709830Y-90926145D01*
X141707629Y-90921909D01*
X141707627Y-90921903D01*
X141649778Y-90810539D01*
X141589725Y-90694932D01*
X141436028Y-90484547D01*
X141432652Y-90481153D01*
X141255652Y-90303224D01*
X141255647Y-90303220D01*
X141252276Y-90299831D01*
X141248430Y-90296990D01*
X141248425Y-90296986D01*
X141046550Y-90147879D01*
X141046549Y-90147878D01*
X141042698Y-90145034D01*
X141038468Y-90142808D01*
X141038464Y-90142806D01*
X140816354Y-90025949D01*
X140816352Y-90025948D01*
X140812117Y-90023720D01*
X140807296Y-90022055D01*
X140726083Y-89994012D01*
X140565839Y-89938679D01*
X140309532Y-89891869D01*
X140226168Y-89887500D01*
X140063743Y-89887500D01*
X140061364Y-89887681D01*
X140061363Y-89887681D01*
X139874970Y-89901859D01*
X139874965Y-89901860D01*
X139870203Y-89902222D01*
X139865550Y-89903301D01*
X139865547Y-89903301D01*
X139676184Y-89947193D01*
X139616385Y-89961054D01*
X139374387Y-90057602D01*
X139149777Y-90189643D01*
X138947723Y-90354141D01*
X138772877Y-90547308D01*
X138629261Y-90764700D01*
X138627260Y-90769040D01*
X138627258Y-90769044D01*
X138522187Y-90996962D01*
X138520181Y-91001314D01*
X138518857Y-91005915D01*
X138518857Y-91005916D01*
X138459380Y-91212657D01*
X138448146Y-91251705D01*
X138447535Y-91256440D01*
X138447534Y-91256446D01*
X138417951Y-91485793D01*
X138414814Y-91510111D01*
X117002012Y-91510111D01*
X116973539Y-91485793D01*
X116973534Y-91485789D01*
X116969774Y-91482578D01*
X116766784Y-91358185D01*
X116762214Y-91356292D01*
X116762210Y-91356290D01*
X116551406Y-91268973D01*
X116551404Y-91268972D01*
X116546833Y-91267079D01*
X116463665Y-91247112D01*
X116320152Y-91212657D01*
X116320146Y-91212656D01*
X116315339Y-91211502D01*
X116078000Y-91192823D01*
X115840661Y-91211502D01*
X115835854Y-91212656D01*
X115835848Y-91212657D01*
X115692335Y-91247112D01*
X115609167Y-91267079D01*
X115604596Y-91268972D01*
X115604594Y-91268973D01*
X115393790Y-91356290D01*
X115393786Y-91356292D01*
X115389216Y-91358185D01*
X115186226Y-91482578D01*
X115182466Y-91485789D01*
X115182461Y-91485793D01*
X115022695Y-91622247D01*
X115005194Y-91637194D01*
X115001981Y-91640956D01*
X114853793Y-91814461D01*
X114853789Y-91814466D01*
X114850578Y-91818226D01*
X114726185Y-92021216D01*
X114724292Y-92025786D01*
X114724290Y-92025790D01*
X114654581Y-92194084D01*
X114635079Y-92241167D01*
X114627231Y-92273855D01*
X114580657Y-92467848D01*
X114580656Y-92467854D01*
X114579502Y-92472661D01*
X114560823Y-92710000D01*
X85972177Y-92710000D01*
X85953498Y-92472661D01*
X85952344Y-92467854D01*
X85952343Y-92467848D01*
X85905769Y-92273855D01*
X85897921Y-92241167D01*
X85878419Y-92194084D01*
X85808710Y-92025790D01*
X85808708Y-92025786D01*
X85806815Y-92021216D01*
X85682422Y-91818226D01*
X85679211Y-91814466D01*
X85679207Y-91814461D01*
X85531019Y-91640956D01*
X85527806Y-91637194D01*
X85510305Y-91622247D01*
X85350539Y-91485793D01*
X85350534Y-91485789D01*
X85346774Y-91482578D01*
X85143784Y-91358185D01*
X85139214Y-91356292D01*
X85139210Y-91356290D01*
X84928406Y-91268973D01*
X84928404Y-91268972D01*
X84923833Y-91267079D01*
X84840665Y-91247112D01*
X84697152Y-91212657D01*
X84697146Y-91212656D01*
X84692339Y-91211502D01*
X84455000Y-91192823D01*
X84217661Y-91211502D01*
X84212854Y-91212656D01*
X84212848Y-91212657D01*
X84069335Y-91247112D01*
X83986167Y-91267079D01*
X83981596Y-91268972D01*
X83981594Y-91268973D01*
X83770790Y-91356290D01*
X83770786Y-91356292D01*
X83766216Y-91358185D01*
X83563226Y-91482578D01*
X83559466Y-91485789D01*
X83559461Y-91485793D01*
X83399695Y-91622247D01*
X83382194Y-91637194D01*
X83378981Y-91640956D01*
X83230793Y-91814461D01*
X83230789Y-91814466D01*
X83227578Y-91818226D01*
X83103185Y-92021216D01*
X83101292Y-92025786D01*
X83101290Y-92025790D01*
X83031581Y-92194084D01*
X83012079Y-92241167D01*
X83004231Y-92273855D01*
X82957657Y-92467848D01*
X82957656Y-92467854D01*
X82956502Y-92472661D01*
X82937823Y-92710000D01*
X77287385Y-92710000D01*
X77298872Y-92630779D01*
X77315202Y-92518147D01*
X77315735Y-92514473D01*
X77317266Y-92456000D01*
X77298557Y-92252394D01*
X77290467Y-92223707D01*
X77244627Y-92061172D01*
X77243058Y-92055608D01*
X77152626Y-91872230D01*
X77076725Y-91770586D01*
X77033743Y-91713027D01*
X77033743Y-91713026D01*
X77030290Y-91708403D01*
X76880148Y-91569613D01*
X76707228Y-91460509D01*
X76674802Y-91447572D01*
X76641267Y-91434193D01*
X76517321Y-91384743D01*
X76511653Y-91383616D01*
X76511651Y-91383615D01*
X76322454Y-91345982D01*
X76322450Y-91345982D01*
X76316786Y-91344855D01*
X76311011Y-91344779D01*
X76311007Y-91344779D01*
X76208466Y-91343437D01*
X76112340Y-91342178D01*
X76106643Y-91343157D01*
X76106642Y-91343157D01*
X75916527Y-91375825D01*
X75910830Y-91376804D01*
X75719005Y-91447572D01*
X75564416Y-91539543D01*
X75495647Y-91557183D01*
X75432759Y-91537820D01*
X75315111Y-91463590D01*
X75315112Y-91463590D01*
X75310228Y-91460509D01*
X75277802Y-91447572D01*
X75244267Y-91434193D01*
X75120321Y-91384743D01*
X75114653Y-91383616D01*
X75114651Y-91383615D01*
X74925454Y-91345982D01*
X74925450Y-91345982D01*
X74919786Y-91344855D01*
X74914011Y-91344779D01*
X74914007Y-91344779D01*
X74811466Y-91343437D01*
X74715340Y-91342178D01*
X74709643Y-91343157D01*
X74709642Y-91343157D01*
X74519527Y-91375825D01*
X74513830Y-91376804D01*
X74386568Y-91423753D01*
X74354153Y-91435712D01*
X74310542Y-91443500D01*
X71227803Y-91443500D01*
X71181112Y-91434530D01*
X71156072Y-91424540D01*
X71056321Y-91384743D01*
X71050653Y-91383616D01*
X71050651Y-91383615D01*
X70861454Y-91345982D01*
X70861450Y-91345982D01*
X70855786Y-91344855D01*
X70850011Y-91344779D01*
X70850007Y-91344779D01*
X70747466Y-91343437D01*
X70651340Y-91342178D01*
X70645643Y-91343157D01*
X70645642Y-91343157D01*
X70455527Y-91375825D01*
X70449830Y-91376804D01*
X70258005Y-91447572D01*
X70103416Y-91539543D01*
X70034647Y-91557183D01*
X69971759Y-91537820D01*
X69854111Y-91463590D01*
X69854112Y-91463590D01*
X69849228Y-91460509D01*
X69816802Y-91447572D01*
X69783267Y-91434193D01*
X69659321Y-91384743D01*
X69653653Y-91383616D01*
X69653651Y-91383615D01*
X69464454Y-91345982D01*
X69464450Y-91345982D01*
X69458786Y-91344855D01*
X69453011Y-91344779D01*
X69453007Y-91344779D01*
X69350466Y-91343437D01*
X69254340Y-91342178D01*
X69248643Y-91343157D01*
X69248642Y-91343157D01*
X69058527Y-91375825D01*
X69052830Y-91376804D01*
X68861005Y-91447572D01*
X68856044Y-91450524D01*
X68856043Y-91450524D01*
X68796762Y-91485793D01*
X68685288Y-91552113D01*
X68531564Y-91686925D01*
X68527992Y-91691456D01*
X68459995Y-91777710D01*
X68404982Y-91847493D01*
X68402294Y-91852602D01*
X68312470Y-92023329D01*
X68312468Y-92023334D01*
X68309781Y-92028441D01*
X68249149Y-92223707D01*
X68225117Y-92426753D01*
X61374680Y-92426753D01*
X61477813Y-92203038D01*
X61477814Y-92203035D01*
X61479819Y-92198686D01*
X61481143Y-92194084D01*
X61550533Y-91952888D01*
X61550534Y-91952884D01*
X61551854Y-91948295D01*
X61552773Y-91941177D01*
X61584575Y-91694626D01*
X61585186Y-91689889D01*
X61580636Y-91496806D01*
X61579161Y-91434193D01*
X61579160Y-91434188D01*
X61579048Y-91429414D01*
X61550613Y-91268973D01*
X61534414Y-91177569D01*
X61534413Y-91177565D01*
X61533580Y-91172865D01*
X61449830Y-90926145D01*
X61447629Y-90921909D01*
X61447627Y-90921903D01*
X61389778Y-90810539D01*
X61329725Y-90694932D01*
X61176028Y-90484547D01*
X61172652Y-90481153D01*
X61115797Y-90424000D01*
X96272823Y-90424000D01*
X96291502Y-90661339D01*
X96292656Y-90666146D01*
X96292657Y-90666152D01*
X96312602Y-90749226D01*
X96347079Y-90892833D01*
X96438185Y-91112784D01*
X96562578Y-91315774D01*
X96565789Y-91319534D01*
X96565793Y-91319539D01*
X96686193Y-91460509D01*
X96717194Y-91496806D01*
X96720956Y-91500019D01*
X96894461Y-91648207D01*
X96894466Y-91648211D01*
X96898226Y-91651422D01*
X96960998Y-91689889D01*
X97084885Y-91765807D01*
X97101216Y-91775815D01*
X97105786Y-91777708D01*
X97105790Y-91777710D01*
X97316594Y-91865027D01*
X97321167Y-91866921D01*
X97364861Y-91877411D01*
X97547848Y-91921343D01*
X97547854Y-91921344D01*
X97552661Y-91922498D01*
X97790000Y-91941177D01*
X98027339Y-91922498D01*
X98032146Y-91921344D01*
X98032152Y-91921343D01*
X98215139Y-91877411D01*
X98258833Y-91866921D01*
X98263406Y-91865027D01*
X98474210Y-91777710D01*
X98474214Y-91777708D01*
X98478784Y-91775815D01*
X98495116Y-91765807D01*
X98619002Y-91689889D01*
X98681774Y-91651422D01*
X98685534Y-91648211D01*
X98685539Y-91648207D01*
X98859044Y-91500019D01*
X98862806Y-91496806D01*
X98893807Y-91460509D01*
X99014207Y-91319539D01*
X99014211Y-91319534D01*
X99017422Y-91315774D01*
X99141815Y-91112784D01*
X99232921Y-90892833D01*
X99267398Y-90749226D01*
X99287343Y-90666152D01*
X99287344Y-90666146D01*
X99288498Y-90661339D01*
X99307177Y-90424000D01*
X99288498Y-90186661D01*
X99287344Y-90181854D01*
X99287343Y-90181848D01*
X99247263Y-90014906D01*
X99232921Y-89955167D01*
X99226092Y-89938679D01*
X99205061Y-89887906D01*
X99174485Y-89814089D01*
X99166896Y-89743500D01*
X99198675Y-89680013D01*
X99259733Y-89643786D01*
X99330685Y-89646320D01*
X99340632Y-89650104D01*
X99433656Y-89690070D01*
X99476746Y-89708583D01*
X99573772Y-89730538D01*
X99670532Y-89752433D01*
X99670535Y-89752433D01*
X99676168Y-89753708D01*
X99681939Y-89753935D01*
X99681941Y-89753935D01*
X99744646Y-89756398D01*
X99880473Y-89761735D01*
X100006238Y-89743500D01*
X100077099Y-89733226D01*
X100077103Y-89733225D01*
X100082821Y-89732396D01*
X100088293Y-89730538D01*
X100088295Y-89730538D01*
X100270965Y-89668529D01*
X100276433Y-89666673D01*
X100337001Y-89632753D01*
X104039117Y-89632753D01*
X104052489Y-89836779D01*
X104102819Y-90034951D01*
X104105236Y-90040194D01*
X104175032Y-90191595D01*
X104188419Y-90220633D01*
X104306424Y-90387606D01*
X104452882Y-90530279D01*
X104457678Y-90533484D01*
X104457681Y-90533486D01*
X104525903Y-90579070D01*
X104622887Y-90643872D01*
X104628190Y-90646150D01*
X104628193Y-90646152D01*
X104751605Y-90699174D01*
X104810746Y-90724583D01*
X104907772Y-90746538D01*
X105004532Y-90768433D01*
X105004535Y-90768433D01*
X105010168Y-90769708D01*
X105015939Y-90769935D01*
X105015941Y-90769935D01*
X105078646Y-90772398D01*
X105214473Y-90777735D01*
X105333344Y-90760500D01*
X105411099Y-90749226D01*
X105411103Y-90749225D01*
X105416821Y-90748396D01*
X105422293Y-90746538D01*
X105422295Y-90746538D01*
X105574319Y-90694932D01*
X105610433Y-90682673D01*
X105788826Y-90582768D01*
X105946026Y-90452026D01*
X106076768Y-90294826D01*
X106176673Y-90116433D01*
X106213503Y-90007935D01*
X106240538Y-89928295D01*
X106240538Y-89928293D01*
X106242396Y-89922821D01*
X106243673Y-89914018D01*
X106260852Y-89795529D01*
X106271735Y-89720473D01*
X106273266Y-89662000D01*
X106254557Y-89458394D01*
X106246467Y-89429707D01*
X106203736Y-89278194D01*
X106199058Y-89261608D01*
X106108626Y-89078230D01*
X105986290Y-88914403D01*
X105878770Y-88815012D01*
X105840388Y-88779532D01*
X105840385Y-88779530D01*
X105836148Y-88775613D01*
X105663228Y-88666509D01*
X105653180Y-88662500D01*
X105552967Y-88622519D01*
X105473321Y-88590743D01*
X105467653Y-88589616D01*
X105467651Y-88589615D01*
X105278454Y-88551982D01*
X105278450Y-88551982D01*
X105272786Y-88550855D01*
X105267011Y-88550779D01*
X105267007Y-88550779D01*
X105164466Y-88549437D01*
X105068340Y-88548178D01*
X105062643Y-88549157D01*
X105062642Y-88549157D01*
X104872527Y-88581825D01*
X104866830Y-88582804D01*
X104675005Y-88653572D01*
X104670044Y-88656524D01*
X104670043Y-88656524D01*
X104595683Y-88700764D01*
X104499288Y-88758113D01*
X104345564Y-88892925D01*
X104341992Y-88897456D01*
X104242080Y-89024194D01*
X104218982Y-89053493D01*
X104216294Y-89058602D01*
X104126470Y-89229329D01*
X104126468Y-89229334D01*
X104123781Y-89234441D01*
X104098449Y-89316024D01*
X104065830Y-89421073D01*
X104063149Y-89429707D01*
X104039117Y-89632753D01*
X100337001Y-89632753D01*
X100454826Y-89566768D01*
X100612026Y-89436026D01*
X100742768Y-89278826D01*
X100823129Y-89135331D01*
X100839850Y-89105474D01*
X100839850Y-89105473D01*
X100842673Y-89100433D01*
X100908396Y-88906821D01*
X100914458Y-88865016D01*
X100929405Y-88761923D01*
X100937735Y-88704473D01*
X100939266Y-88646000D01*
X100920557Y-88442394D01*
X100912467Y-88413707D01*
X100892390Y-88342519D01*
X100865058Y-88245608D01*
X100774626Y-88062230D01*
X100652290Y-87898403D01*
X100502148Y-87759613D01*
X100329228Y-87650509D01*
X100296802Y-87637572D01*
X100256081Y-87621326D01*
X100139321Y-87574743D01*
X100133653Y-87573616D01*
X100133651Y-87573615D01*
X99944454Y-87535982D01*
X99944450Y-87535982D01*
X99938786Y-87534855D01*
X99933011Y-87534779D01*
X99933007Y-87534779D01*
X99830466Y-87533437D01*
X99734340Y-87532178D01*
X99728643Y-87533157D01*
X99728642Y-87533157D01*
X99538527Y-87565825D01*
X99532830Y-87566804D01*
X99341005Y-87637572D01*
X99336044Y-87640524D01*
X99336043Y-87640524D01*
X99233144Y-87701743D01*
X99165288Y-87742113D01*
X99011564Y-87876925D01*
X99007992Y-87881456D01*
X98890868Y-88030027D01*
X98884982Y-88037493D01*
X98882294Y-88042602D01*
X98792470Y-88213329D01*
X98792468Y-88213334D01*
X98789781Y-88218441D01*
X98779618Y-88251172D01*
X98732297Y-88403570D01*
X98729149Y-88413707D01*
X98705117Y-88616753D01*
X98718489Y-88820779D01*
X98758908Y-88979924D01*
X98762003Y-88992112D01*
X98759385Y-89063060D01*
X98718825Y-89121330D01*
X98653200Y-89148422D01*
X98583347Y-89135733D01*
X98574045Y-89130561D01*
X98483004Y-89074771D01*
X98478784Y-89072185D01*
X98474214Y-89070292D01*
X98474210Y-89070290D01*
X98263406Y-88982973D01*
X98263404Y-88982972D01*
X98258833Y-88981079D01*
X98177824Y-88961630D01*
X98032152Y-88926657D01*
X98032146Y-88926656D01*
X98027339Y-88925502D01*
X97790000Y-88906823D01*
X97552661Y-88925502D01*
X97547854Y-88926656D01*
X97547848Y-88926657D01*
X97402176Y-88961630D01*
X97321167Y-88981079D01*
X97316596Y-88982972D01*
X97316594Y-88982973D01*
X97105790Y-89070290D01*
X97105786Y-89070292D01*
X97101216Y-89072185D01*
X97096996Y-89074771D01*
X97087846Y-89080378D01*
X96898226Y-89196578D01*
X96894466Y-89199789D01*
X96894461Y-89199793D01*
X96807835Y-89273779D01*
X96717194Y-89351194D01*
X96713981Y-89354956D01*
X96565793Y-89528461D01*
X96565789Y-89528466D01*
X96562578Y-89532226D01*
X96438185Y-89735216D01*
X96436292Y-89739786D01*
X96436290Y-89739790D01*
X96348973Y-89950594D01*
X96347079Y-89955167D01*
X96332737Y-90014906D01*
X96292657Y-90181848D01*
X96292656Y-90181854D01*
X96291502Y-90186661D01*
X96272823Y-90424000D01*
X61115797Y-90424000D01*
X60995652Y-90303224D01*
X60995647Y-90303220D01*
X60992276Y-90299831D01*
X60988430Y-90296990D01*
X60988425Y-90296986D01*
X60786550Y-90147879D01*
X60786549Y-90147878D01*
X60782698Y-90145034D01*
X60778468Y-90142808D01*
X60778464Y-90142806D01*
X60556354Y-90025949D01*
X60556352Y-90025948D01*
X60552117Y-90023720D01*
X60547296Y-90022055D01*
X60466083Y-89994012D01*
X60305839Y-89938679D01*
X60049532Y-89891869D01*
X59966168Y-89887500D01*
X59803743Y-89887500D01*
X59801364Y-89887681D01*
X59801363Y-89887681D01*
X59614970Y-89901859D01*
X59614965Y-89901860D01*
X59610203Y-89902222D01*
X59605550Y-89903301D01*
X59605547Y-89903301D01*
X59416184Y-89947193D01*
X59356385Y-89961054D01*
X59114387Y-90057602D01*
X58889777Y-90189643D01*
X58687723Y-90354141D01*
X58512877Y-90547308D01*
X58369261Y-90764700D01*
X58367260Y-90769040D01*
X58367258Y-90769044D01*
X58262187Y-90996962D01*
X58260181Y-91001314D01*
X58258857Y-91005915D01*
X58258857Y-91005916D01*
X58199380Y-91212657D01*
X58188146Y-91251705D01*
X58187535Y-91256440D01*
X58187534Y-91256446D01*
X58157951Y-91485793D01*
X58154814Y-91510111D01*
X48840950Y-91510111D01*
X48840636Y-91496806D01*
X48839161Y-91434193D01*
X48839160Y-91434188D01*
X48839048Y-91429414D01*
X48810613Y-91268973D01*
X48794414Y-91177569D01*
X48794413Y-91177565D01*
X48793580Y-91172865D01*
X48709830Y-90926145D01*
X48707629Y-90921909D01*
X48707627Y-90921903D01*
X48649778Y-90810539D01*
X48589725Y-90694932D01*
X48436028Y-90484547D01*
X48432652Y-90481153D01*
X48255652Y-90303224D01*
X48255647Y-90303220D01*
X48252276Y-90299831D01*
X48248430Y-90296990D01*
X48248425Y-90296986D01*
X48046550Y-90147879D01*
X48046549Y-90147878D01*
X48042698Y-90145034D01*
X48038468Y-90142808D01*
X48038464Y-90142806D01*
X47816354Y-90025949D01*
X47816352Y-90025948D01*
X47812117Y-90023720D01*
X47807296Y-90022055D01*
X47726083Y-89994012D01*
X47565839Y-89938679D01*
X47309532Y-89891869D01*
X47226168Y-89887500D01*
X47063743Y-89887500D01*
X47061364Y-89887681D01*
X47061363Y-89887681D01*
X46874970Y-89901859D01*
X46874965Y-89901860D01*
X46870203Y-89902222D01*
X46865550Y-89903301D01*
X46865547Y-89903301D01*
X46676184Y-89947193D01*
X46616385Y-89961054D01*
X46374387Y-90057602D01*
X46149777Y-90189643D01*
X45947723Y-90354141D01*
X45772877Y-90547308D01*
X45629261Y-90764700D01*
X45627260Y-90769040D01*
X45627258Y-90769044D01*
X45522187Y-90996962D01*
X45520181Y-91001314D01*
X45518857Y-91005915D01*
X45518857Y-91005916D01*
X45459380Y-91212657D01*
X45448146Y-91251705D01*
X45447535Y-91256440D01*
X45447534Y-91256446D01*
X45417951Y-91485793D01*
X45414814Y-91510111D01*
X37762500Y-91510111D01*
X37762500Y-88616753D01*
X53239117Y-88616753D01*
X53252489Y-88820779D01*
X53302819Y-89018951D01*
X53388419Y-89204633D01*
X53506424Y-89371606D01*
X53652882Y-89514279D01*
X53657678Y-89517484D01*
X53657681Y-89517486D01*
X53731438Y-89566768D01*
X53822887Y-89627872D01*
X53828190Y-89630150D01*
X53828193Y-89630152D01*
X53967656Y-89690070D01*
X54010746Y-89708583D01*
X54107772Y-89730538D01*
X54204532Y-89752433D01*
X54204535Y-89752433D01*
X54210168Y-89753708D01*
X54215939Y-89753935D01*
X54215941Y-89753935D01*
X54278646Y-89756398D01*
X54414473Y-89761735D01*
X54540238Y-89743500D01*
X54611099Y-89733226D01*
X54611103Y-89733225D01*
X54616821Y-89732396D01*
X54622293Y-89730538D01*
X54622295Y-89730538D01*
X54804965Y-89668529D01*
X54810433Y-89666673D01*
X54988826Y-89566768D01*
X55146026Y-89436026D01*
X55150406Y-89430760D01*
X55150830Y-89430475D01*
X55153805Y-89427500D01*
X55154389Y-89428084D01*
X55209340Y-89391175D01*
X55280322Y-89389736D01*
X55335202Y-89421073D01*
X55426742Y-89510247D01*
X55426748Y-89510252D01*
X55430882Y-89514279D01*
X55435678Y-89517484D01*
X55435681Y-89517486D01*
X55509438Y-89566768D01*
X55600887Y-89627872D01*
X55606190Y-89630150D01*
X55606193Y-89630152D01*
X55745656Y-89690070D01*
X55788746Y-89708583D01*
X55885772Y-89730538D01*
X55982532Y-89752433D01*
X55982535Y-89752433D01*
X55988168Y-89753708D01*
X55993939Y-89753935D01*
X55993941Y-89753935D01*
X56056646Y-89756398D01*
X56192473Y-89761735D01*
X56318238Y-89743500D01*
X56389099Y-89733226D01*
X56389103Y-89733225D01*
X56394821Y-89732396D01*
X56400293Y-89730538D01*
X56400295Y-89730538D01*
X56582965Y-89668529D01*
X56588433Y-89666673D01*
X56766826Y-89566768D01*
X56924026Y-89436026D01*
X57054768Y-89278826D01*
X57135129Y-89135331D01*
X57151850Y-89105474D01*
X57151850Y-89105473D01*
X57154673Y-89100433D01*
X57220396Y-88906821D01*
X57226458Y-88865016D01*
X57241405Y-88761923D01*
X57249735Y-88704473D01*
X57251266Y-88646000D01*
X57232557Y-88442394D01*
X57224467Y-88413707D01*
X57204390Y-88342519D01*
X57177058Y-88245608D01*
X57086626Y-88062230D01*
X56964290Y-87898403D01*
X56814148Y-87759613D01*
X56641228Y-87650509D01*
X56608802Y-87637572D01*
X56568081Y-87621326D01*
X56451321Y-87574743D01*
X56445653Y-87573616D01*
X56445651Y-87573615D01*
X56256454Y-87535982D01*
X56256450Y-87535982D01*
X56250786Y-87534855D01*
X56245011Y-87534779D01*
X56245007Y-87534779D01*
X56142466Y-87533437D01*
X56046340Y-87532178D01*
X56040643Y-87533157D01*
X56040642Y-87533157D01*
X55850527Y-87565825D01*
X55844830Y-87566804D01*
X55653005Y-87637572D01*
X55648044Y-87640524D01*
X55648043Y-87640524D01*
X55545144Y-87701743D01*
X55477288Y-87742113D01*
X55433413Y-87780590D01*
X55326494Y-87874355D01*
X55262090Y-87904232D01*
X55191757Y-87894546D01*
X55157888Y-87872148D01*
X55040388Y-87763532D01*
X55040385Y-87763530D01*
X55036148Y-87759613D01*
X54863228Y-87650509D01*
X54830802Y-87637572D01*
X54790081Y-87621326D01*
X54673321Y-87574743D01*
X54667653Y-87573616D01*
X54667651Y-87573615D01*
X54478454Y-87535982D01*
X54478450Y-87535982D01*
X54472786Y-87534855D01*
X54467011Y-87534779D01*
X54467007Y-87534779D01*
X54364466Y-87533437D01*
X54268340Y-87532178D01*
X54262643Y-87533157D01*
X54262642Y-87533157D01*
X54072527Y-87565825D01*
X54066830Y-87566804D01*
X53875005Y-87637572D01*
X53870044Y-87640524D01*
X53870043Y-87640524D01*
X53767144Y-87701743D01*
X53699288Y-87742113D01*
X53545564Y-87876925D01*
X53541992Y-87881456D01*
X53424868Y-88030027D01*
X53418982Y-88037493D01*
X53416294Y-88042602D01*
X53326470Y-88213329D01*
X53326468Y-88213334D01*
X53323781Y-88218441D01*
X53313618Y-88251172D01*
X53266297Y-88403570D01*
X53263149Y-88413707D01*
X53239117Y-88616753D01*
X37762500Y-88616753D01*
X37762500Y-86350666D01*
X49237500Y-86350666D01*
X49237837Y-86353912D01*
X49237837Y-86353916D01*
X49247574Y-86447754D01*
X49248532Y-86456990D01*
X49250713Y-86463526D01*
X49250713Y-86463528D01*
X49282762Y-86559590D01*
X49304803Y-86625654D01*
X49398366Y-86776850D01*
X49524201Y-86902466D01*
X49675560Y-86995764D01*
X49682508Y-86998069D01*
X49682509Y-86998069D01*
X49837791Y-87049575D01*
X49837793Y-87049576D01*
X49844322Y-87051741D01*
X49949334Y-87062500D01*
X51850666Y-87062500D01*
X51853912Y-87062163D01*
X51853916Y-87062163D01*
X51950132Y-87052180D01*
X51950136Y-87052179D01*
X51956990Y-87051468D01*
X51963526Y-87049287D01*
X51963528Y-87049287D01*
X52102865Y-87002800D01*
X52125654Y-86995197D01*
X52276850Y-86901634D01*
X52355306Y-86823041D01*
X52417588Y-86788962D01*
X52488408Y-86793965D01*
X52510313Y-86804626D01*
X52642907Y-86885879D01*
X52647477Y-86887772D01*
X52647481Y-86887774D01*
X52880098Y-86984127D01*
X52884671Y-86986021D01*
X52954560Y-87002800D01*
X53134310Y-87045955D01*
X53134316Y-87045956D01*
X53139123Y-87047110D01*
X53400000Y-87067641D01*
X53660877Y-87047110D01*
X53665684Y-87045956D01*
X53665690Y-87045955D01*
X53845440Y-87002800D01*
X53915329Y-86986021D01*
X53919902Y-86984127D01*
X54152519Y-86887774D01*
X54152523Y-86887772D01*
X54157093Y-86885879D01*
X54380215Y-86749150D01*
X54383970Y-86745943D01*
X54383974Y-86745940D01*
X54517514Y-86631885D01*
X54568170Y-86588621D01*
X54632959Y-86559590D01*
X54703159Y-86570195D01*
X54731829Y-86588620D01*
X54782486Y-86631885D01*
X54916026Y-86745940D01*
X54916030Y-86745943D01*
X54919785Y-86749150D01*
X55142907Y-86885879D01*
X55147477Y-86887772D01*
X55147481Y-86887774D01*
X55380098Y-86984127D01*
X55384671Y-86986021D01*
X55454560Y-87002800D01*
X55634310Y-87045955D01*
X55634316Y-87045956D01*
X55639123Y-87047110D01*
X55900000Y-87067641D01*
X56160877Y-87047110D01*
X56165684Y-87045956D01*
X56165690Y-87045955D01*
X56345440Y-87002800D01*
X56415329Y-86986021D01*
X56419902Y-86984127D01*
X56652519Y-86887774D01*
X56652523Y-86887772D01*
X56657093Y-86885879D01*
X56880215Y-86749150D01*
X57055199Y-86599699D01*
X57075444Y-86582408D01*
X57079200Y-86579200D01*
X57249150Y-86380215D01*
X57385879Y-86157093D01*
X57412771Y-86092172D01*
X57484127Y-85919902D01*
X57484128Y-85919900D01*
X57486021Y-85915329D01*
X57512875Y-85803474D01*
X57545955Y-85665690D01*
X57545956Y-85665684D01*
X57547110Y-85660877D01*
X57567641Y-85400000D01*
X57547110Y-85139123D01*
X57545956Y-85134316D01*
X57545955Y-85134310D01*
X57507475Y-84974034D01*
X57486021Y-84884671D01*
X57465861Y-84836000D01*
X60204823Y-84836000D01*
X60223502Y-85073339D01*
X60224656Y-85078146D01*
X60224657Y-85078152D01*
X60241297Y-85147462D01*
X60279079Y-85304833D01*
X60280972Y-85309404D01*
X60280973Y-85309406D01*
X60367698Y-85518779D01*
X60370185Y-85524784D01*
X60494578Y-85727774D01*
X60497789Y-85731534D01*
X60497793Y-85731539D01*
X60559232Y-85803474D01*
X60649194Y-85908806D01*
X60652956Y-85912019D01*
X60826461Y-86060207D01*
X60826466Y-86060211D01*
X60830226Y-86063422D01*
X61033216Y-86187815D01*
X61037786Y-86189708D01*
X61037790Y-86189710D01*
X61248594Y-86277027D01*
X61253167Y-86278921D01*
X61334176Y-86298370D01*
X61479848Y-86333343D01*
X61479854Y-86333344D01*
X61484661Y-86334498D01*
X61722000Y-86353177D01*
X61959339Y-86334498D01*
X61964146Y-86333344D01*
X61964152Y-86333343D01*
X62109824Y-86298370D01*
X62190833Y-86278921D01*
X62195406Y-86277027D01*
X62406210Y-86189710D01*
X62406214Y-86189708D01*
X62410784Y-86187815D01*
X62613774Y-86063422D01*
X62617534Y-86060211D01*
X62617539Y-86060207D01*
X62791044Y-85912019D01*
X62794806Y-85908806D01*
X62884768Y-85803474D01*
X62946207Y-85731539D01*
X62946211Y-85731534D01*
X62949422Y-85727774D01*
X63073815Y-85524784D01*
X63076303Y-85518779D01*
X63160812Y-85314753D01*
X66701117Y-85314753D01*
X66714489Y-85518779D01*
X66764819Y-85716951D01*
X66767236Y-85722194D01*
X66785163Y-85761080D01*
X66850419Y-85902633D01*
X66968424Y-86069606D01*
X67114882Y-86212279D01*
X67119678Y-86215484D01*
X67119681Y-86215486D01*
X67169637Y-86248865D01*
X67284887Y-86325872D01*
X67290190Y-86328150D01*
X67290193Y-86328152D01*
X67467439Y-86404303D01*
X67472746Y-86406583D01*
X67569772Y-86428538D01*
X67666532Y-86450433D01*
X67666535Y-86450433D01*
X67672168Y-86451708D01*
X67677939Y-86451935D01*
X67677941Y-86451935D01*
X67740646Y-86454398D01*
X67876473Y-86459735D01*
X67995344Y-86442500D01*
X68073099Y-86431226D01*
X68073103Y-86431225D01*
X68078821Y-86430396D01*
X68084293Y-86428538D01*
X68084295Y-86428538D01*
X68185460Y-86394197D01*
X68272433Y-86364673D01*
X68297444Y-86350666D01*
X76237500Y-86350666D01*
X76237837Y-86353912D01*
X76237837Y-86353916D01*
X76247574Y-86447754D01*
X76248532Y-86456990D01*
X76250713Y-86463526D01*
X76250713Y-86463528D01*
X76282762Y-86559590D01*
X76304803Y-86625654D01*
X76398366Y-86776850D01*
X76524201Y-86902466D01*
X76675560Y-86995764D01*
X76682508Y-86998069D01*
X76682509Y-86998069D01*
X76837791Y-87049575D01*
X76837793Y-87049576D01*
X76844322Y-87051741D01*
X76949334Y-87062500D01*
X78850666Y-87062500D01*
X78853912Y-87062163D01*
X78853916Y-87062163D01*
X78950132Y-87052180D01*
X78950136Y-87052179D01*
X78956990Y-87051468D01*
X78963526Y-87049287D01*
X78963528Y-87049287D01*
X79102865Y-87002800D01*
X79125654Y-86995197D01*
X79276850Y-86901634D01*
X79355306Y-86823041D01*
X79417588Y-86788962D01*
X79488408Y-86793965D01*
X79510313Y-86804626D01*
X79642907Y-86885879D01*
X79647477Y-86887772D01*
X79647481Y-86887774D01*
X79880098Y-86984127D01*
X79884671Y-86986021D01*
X79954560Y-87002800D01*
X80134310Y-87045955D01*
X80134316Y-87045956D01*
X80139123Y-87047110D01*
X80400000Y-87067641D01*
X80660877Y-87047110D01*
X80665684Y-87045956D01*
X80665690Y-87045955D01*
X80845440Y-87002800D01*
X80915329Y-86986021D01*
X80919902Y-86984127D01*
X81152519Y-86887774D01*
X81152523Y-86887772D01*
X81157093Y-86885879D01*
X81380215Y-86749150D01*
X81383970Y-86745943D01*
X81383974Y-86745940D01*
X81517514Y-86631885D01*
X81568170Y-86588621D01*
X81632959Y-86559590D01*
X81703159Y-86570195D01*
X81731829Y-86588620D01*
X81782486Y-86631885D01*
X81916026Y-86745940D01*
X81916030Y-86745943D01*
X81919785Y-86749150D01*
X82142907Y-86885879D01*
X82147477Y-86887772D01*
X82147481Y-86887774D01*
X82380098Y-86984127D01*
X82384671Y-86986021D01*
X82454560Y-87002800D01*
X82634310Y-87045955D01*
X82634316Y-87045956D01*
X82639123Y-87047110D01*
X82900000Y-87067641D01*
X83160877Y-87047110D01*
X83165684Y-87045956D01*
X83165690Y-87045955D01*
X83345440Y-87002800D01*
X83415329Y-86986021D01*
X83419902Y-86984127D01*
X83652519Y-86887774D01*
X83652523Y-86887772D01*
X83657093Y-86885879D01*
X83880215Y-86749150D01*
X84055199Y-86599699D01*
X84075444Y-86582408D01*
X84079200Y-86579200D01*
X84249150Y-86380215D01*
X84385879Y-86157093D01*
X84412771Y-86092172D01*
X84484127Y-85919902D01*
X84484128Y-85919900D01*
X84486021Y-85915329D01*
X84512875Y-85803474D01*
X84545955Y-85665690D01*
X84545956Y-85665684D01*
X84547110Y-85660877D01*
X84567641Y-85400000D01*
X84547110Y-85139123D01*
X84545956Y-85134316D01*
X84545955Y-85134310D01*
X84507475Y-84974034D01*
X84486021Y-84884671D01*
X84436622Y-84765411D01*
X84396791Y-84669250D01*
X95911117Y-84669250D01*
X95924489Y-84873276D01*
X95974819Y-85071448D01*
X95977236Y-85076691D01*
X95996020Y-85117436D01*
X96060419Y-85257130D01*
X96178424Y-85424103D01*
X96182558Y-85428130D01*
X96286672Y-85529553D01*
X96324882Y-85566776D01*
X96329678Y-85569981D01*
X96329681Y-85569983D01*
X96390013Y-85610295D01*
X96494887Y-85680369D01*
X96500190Y-85682647D01*
X96500193Y-85682649D01*
X96677439Y-85758800D01*
X96682746Y-85761080D01*
X96779772Y-85783035D01*
X96876532Y-85804930D01*
X96876535Y-85804930D01*
X96882168Y-85806205D01*
X96887939Y-85806432D01*
X96887941Y-85806432D01*
X96950646Y-85808895D01*
X97086473Y-85814232D01*
X97205344Y-85796997D01*
X97283099Y-85785723D01*
X97283103Y-85785722D01*
X97288821Y-85784893D01*
X97294293Y-85783035D01*
X97294295Y-85783035D01*
X97445995Y-85731539D01*
X97482433Y-85719170D01*
X97660826Y-85619265D01*
X97818026Y-85488523D01*
X97948768Y-85331323D01*
X98048673Y-85152930D01*
X98114396Y-84959318D01*
X98117426Y-84938425D01*
X98143202Y-84760644D01*
X98143735Y-84756970D01*
X98145266Y-84698497D01*
X98126557Y-84494891D01*
X98118467Y-84466204D01*
X98082457Y-84338524D01*
X98071058Y-84298105D01*
X97980626Y-84114727D01*
X97958671Y-84085325D01*
X97861743Y-83955524D01*
X97861743Y-83955523D01*
X97858290Y-83950900D01*
X97744138Y-83845379D01*
X97712388Y-83816029D01*
X97712385Y-83816027D01*
X97708148Y-83812110D01*
X97535228Y-83703006D01*
X97502802Y-83690069D01*
X97476093Y-83679413D01*
X97345321Y-83627240D01*
X97339653Y-83626113D01*
X97339651Y-83626112D01*
X97150454Y-83588479D01*
X97150450Y-83588479D01*
X97144786Y-83587352D01*
X97139011Y-83587276D01*
X97139007Y-83587276D01*
X97036466Y-83585934D01*
X96940340Y-83584675D01*
X96934643Y-83585654D01*
X96934642Y-83585654D01*
X96744527Y-83618322D01*
X96738830Y-83619301D01*
X96547005Y-83690069D01*
X96542044Y-83693021D01*
X96542043Y-83693021D01*
X96445474Y-83750474D01*
X96371288Y-83794610D01*
X96217564Y-83929422D01*
X96213992Y-83933953D01*
X96094660Y-84085325D01*
X96090982Y-84089990D01*
X96088294Y-84095099D01*
X95998470Y-84265826D01*
X95998468Y-84265831D01*
X95995781Y-84270938D01*
X95974795Y-84338524D01*
X95937817Y-84457613D01*
X95935149Y-84466204D01*
X95911117Y-84669250D01*
X84396791Y-84669250D01*
X84387774Y-84647481D01*
X84387772Y-84647477D01*
X84385879Y-84642907D01*
X84249150Y-84419785D01*
X84079200Y-84220800D01*
X84068170Y-84211379D01*
X83998400Y-84151790D01*
X83880215Y-84050850D01*
X83657093Y-83914121D01*
X83652523Y-83912228D01*
X83652519Y-83912226D01*
X83419902Y-83815873D01*
X83419900Y-83815872D01*
X83415329Y-83813979D01*
X83322348Y-83791656D01*
X83165690Y-83754045D01*
X83165684Y-83754044D01*
X83160877Y-83752890D01*
X82900000Y-83732359D01*
X82639123Y-83752890D01*
X82634316Y-83754044D01*
X82634310Y-83754045D01*
X82477652Y-83791656D01*
X82384671Y-83813979D01*
X82380100Y-83815872D01*
X82380098Y-83815873D01*
X82147481Y-83912226D01*
X82147477Y-83912228D01*
X82142907Y-83914121D01*
X81919785Y-84050850D01*
X81916030Y-84054057D01*
X81916026Y-84054060D01*
X81731831Y-84211379D01*
X81667041Y-84240410D01*
X81596841Y-84229805D01*
X81568169Y-84211379D01*
X81383974Y-84054060D01*
X81383970Y-84054057D01*
X81380215Y-84050850D01*
X81157093Y-83914121D01*
X81152523Y-83912228D01*
X81152519Y-83912226D01*
X80919902Y-83815873D01*
X80919900Y-83815872D01*
X80915329Y-83813979D01*
X80822348Y-83791656D01*
X80665690Y-83754045D01*
X80665684Y-83754044D01*
X80660877Y-83752890D01*
X80400000Y-83732359D01*
X80139123Y-83752890D01*
X80134316Y-83754044D01*
X80134310Y-83754045D01*
X79977652Y-83791656D01*
X79884671Y-83813979D01*
X79880100Y-83815872D01*
X79880098Y-83815873D01*
X79647481Y-83912226D01*
X79647477Y-83912228D01*
X79642907Y-83914121D01*
X79638688Y-83916707D01*
X79638681Y-83916710D01*
X79510348Y-83995352D01*
X79441815Y-84013890D01*
X79374138Y-83992433D01*
X79355496Y-83977092D01*
X79280978Y-83902704D01*
X79275799Y-83897534D01*
X79124440Y-83804236D01*
X79095419Y-83794610D01*
X78962209Y-83750425D01*
X78962207Y-83750424D01*
X78955678Y-83748259D01*
X78850666Y-83737500D01*
X76949334Y-83737500D01*
X76946088Y-83737837D01*
X76946084Y-83737837D01*
X76849868Y-83747820D01*
X76849864Y-83747821D01*
X76843010Y-83748532D01*
X76836474Y-83750713D01*
X76836472Y-83750713D01*
X76713752Y-83791656D01*
X76674346Y-83804803D01*
X76523150Y-83898366D01*
X76397534Y-84024201D01*
X76393694Y-84030431D01*
X76393693Y-84030432D01*
X76380760Y-84051414D01*
X76304236Y-84175560D01*
X76301931Y-84182508D01*
X76301931Y-84182509D01*
X76270769Y-84276459D01*
X76248259Y-84344322D01*
X76237500Y-84449334D01*
X76237500Y-86350666D01*
X68297444Y-86350666D01*
X68450826Y-86264768D01*
X68608026Y-86134026D01*
X68738768Y-85976826D01*
X68834193Y-85806432D01*
X68835850Y-85803474D01*
X68835850Y-85803473D01*
X68838673Y-85798433D01*
X68886332Y-85658036D01*
X68902538Y-85610295D01*
X68902538Y-85610293D01*
X68904396Y-85604821D01*
X68907819Y-85581218D01*
X68933202Y-85406147D01*
X68933735Y-85402473D01*
X68935266Y-85344000D01*
X68916557Y-85140394D01*
X68908467Y-85111707D01*
X68867032Y-84964792D01*
X68861058Y-84943608D01*
X68770626Y-84760230D01*
X68727294Y-84702201D01*
X68651743Y-84601027D01*
X68651743Y-84601026D01*
X68648290Y-84596403D01*
X68532456Y-84489327D01*
X68502388Y-84461532D01*
X68502385Y-84461530D01*
X68498148Y-84457613D01*
X68325228Y-84348509D01*
X68314734Y-84344322D01*
X68212904Y-84303696D01*
X68135321Y-84272743D01*
X68129653Y-84271616D01*
X68129651Y-84271615D01*
X67940454Y-84233982D01*
X67940450Y-84233982D01*
X67934786Y-84232855D01*
X67929011Y-84232779D01*
X67929007Y-84232779D01*
X67826466Y-84231437D01*
X67730340Y-84230178D01*
X67724643Y-84231157D01*
X67724642Y-84231157D01*
X67534527Y-84263825D01*
X67528830Y-84264804D01*
X67337005Y-84335572D01*
X67332044Y-84338524D01*
X67332043Y-84338524D01*
X67191947Y-84421873D01*
X67161288Y-84440113D01*
X67007564Y-84574925D01*
X67003992Y-84579456D01*
X66926587Y-84677644D01*
X66880982Y-84735493D01*
X66878294Y-84740602D01*
X66788470Y-84911329D01*
X66788468Y-84911334D01*
X66785781Y-84916441D01*
X66775618Y-84949172D01*
X66736022Y-85076691D01*
X66725149Y-85111707D01*
X66701117Y-85314753D01*
X63160812Y-85314753D01*
X63163027Y-85309406D01*
X63163028Y-85309404D01*
X63164921Y-85304833D01*
X63202703Y-85147462D01*
X63219343Y-85078152D01*
X63219344Y-85078146D01*
X63220498Y-85073339D01*
X63239177Y-84836000D01*
X63220498Y-84598661D01*
X63219344Y-84593854D01*
X63219343Y-84593848D01*
X63178055Y-84421873D01*
X63164921Y-84367167D01*
X63156307Y-84346370D01*
X63075710Y-84151790D01*
X63075708Y-84151786D01*
X63073815Y-84147216D01*
X62949422Y-83944226D01*
X62946211Y-83940466D01*
X62946207Y-83940461D01*
X62798019Y-83766956D01*
X62794806Y-83763194D01*
X62758703Y-83732359D01*
X62617539Y-83611793D01*
X62617534Y-83611789D01*
X62613774Y-83608578D01*
X62410784Y-83484185D01*
X62406214Y-83482292D01*
X62406210Y-83482290D01*
X62195406Y-83394973D01*
X62195404Y-83394972D01*
X62190833Y-83393079D01*
X62109824Y-83373630D01*
X61964152Y-83338657D01*
X61964146Y-83338656D01*
X61959339Y-83337502D01*
X61722000Y-83318823D01*
X61484661Y-83337502D01*
X61479854Y-83338656D01*
X61479848Y-83338657D01*
X61334176Y-83373630D01*
X61253167Y-83393079D01*
X61248596Y-83394972D01*
X61248594Y-83394973D01*
X61037790Y-83482290D01*
X61037786Y-83482292D01*
X61033216Y-83484185D01*
X60830226Y-83608578D01*
X60826466Y-83611789D01*
X60826461Y-83611793D01*
X60685297Y-83732359D01*
X60649194Y-83763194D01*
X60645981Y-83766956D01*
X60497793Y-83940461D01*
X60497789Y-83940466D01*
X60494578Y-83944226D01*
X60370185Y-84147216D01*
X60368292Y-84151786D01*
X60368290Y-84151790D01*
X60287693Y-84346370D01*
X60279079Y-84367167D01*
X60265945Y-84421873D01*
X60224657Y-84593848D01*
X60224656Y-84593854D01*
X60223502Y-84598661D01*
X60204823Y-84836000D01*
X57465861Y-84836000D01*
X57436622Y-84765411D01*
X57387774Y-84647481D01*
X57387772Y-84647477D01*
X57385879Y-84642907D01*
X57249150Y-84419785D01*
X57079200Y-84220800D01*
X57068170Y-84211379D01*
X56998400Y-84151790D01*
X56880215Y-84050850D01*
X56657093Y-83914121D01*
X56652523Y-83912228D01*
X56652519Y-83912226D01*
X56419902Y-83815873D01*
X56419900Y-83815872D01*
X56415329Y-83813979D01*
X56322348Y-83791656D01*
X56165690Y-83754045D01*
X56165684Y-83754044D01*
X56160877Y-83752890D01*
X55900000Y-83732359D01*
X55639123Y-83752890D01*
X55634316Y-83754044D01*
X55634310Y-83754045D01*
X55477652Y-83791656D01*
X55384671Y-83813979D01*
X55380100Y-83815872D01*
X55380098Y-83815873D01*
X55147481Y-83912226D01*
X55147477Y-83912228D01*
X55142907Y-83914121D01*
X54919785Y-84050850D01*
X54916030Y-84054057D01*
X54916026Y-84054060D01*
X54731831Y-84211379D01*
X54667041Y-84240410D01*
X54596841Y-84229805D01*
X54568169Y-84211379D01*
X54383974Y-84054060D01*
X54383970Y-84054057D01*
X54380215Y-84050850D01*
X54157093Y-83914121D01*
X54152523Y-83912228D01*
X54152519Y-83912226D01*
X53919902Y-83815873D01*
X53919900Y-83815872D01*
X53915329Y-83813979D01*
X53822348Y-83791656D01*
X53665690Y-83754045D01*
X53665684Y-83754044D01*
X53660877Y-83752890D01*
X53400000Y-83732359D01*
X53139123Y-83752890D01*
X53134316Y-83754044D01*
X53134310Y-83754045D01*
X52977652Y-83791656D01*
X52884671Y-83813979D01*
X52880100Y-83815872D01*
X52880098Y-83815873D01*
X52647481Y-83912226D01*
X52647477Y-83912228D01*
X52642907Y-83914121D01*
X52638688Y-83916707D01*
X52638681Y-83916710D01*
X52510348Y-83995352D01*
X52441815Y-84013890D01*
X52374138Y-83992433D01*
X52355496Y-83977092D01*
X52280978Y-83902704D01*
X52275799Y-83897534D01*
X52124440Y-83804236D01*
X52095419Y-83794610D01*
X51962209Y-83750425D01*
X51962207Y-83750424D01*
X51955678Y-83748259D01*
X51850666Y-83737500D01*
X49949334Y-83737500D01*
X49946088Y-83737837D01*
X49946084Y-83737837D01*
X49849868Y-83747820D01*
X49849864Y-83747821D01*
X49843010Y-83748532D01*
X49836474Y-83750713D01*
X49836472Y-83750713D01*
X49713752Y-83791656D01*
X49674346Y-83804803D01*
X49523150Y-83898366D01*
X49397534Y-84024201D01*
X49393694Y-84030431D01*
X49393693Y-84030432D01*
X49380760Y-84051414D01*
X49304236Y-84175560D01*
X49301931Y-84182508D01*
X49301931Y-84182509D01*
X49270769Y-84276459D01*
X49248259Y-84344322D01*
X49237500Y-84449334D01*
X49237500Y-86350666D01*
X37762500Y-86350666D01*
X37762500Y-83099000D01*
X119424615Y-83099000D01*
X119444134Y-83409248D01*
X119502384Y-83714603D01*
X119533064Y-83809028D01*
X119580664Y-83955524D01*
X119598445Y-84010250D01*
X119600132Y-84013836D01*
X119600134Y-84013840D01*
X119729116Y-84287940D01*
X119729120Y-84287947D01*
X119730804Y-84291526D01*
X119897371Y-84553995D01*
X120095522Y-84793518D01*
X120322130Y-85006317D01*
X120573622Y-85189037D01*
X120577091Y-85190944D01*
X120577094Y-85190946D01*
X120842570Y-85336892D01*
X120846032Y-85338795D01*
X120938051Y-85375228D01*
X121131381Y-85451773D01*
X121131384Y-85451774D01*
X121135064Y-85453231D01*
X121138898Y-85454215D01*
X121138906Y-85454218D01*
X121324994Y-85501997D01*
X121436159Y-85530539D01*
X121440087Y-85531035D01*
X121440091Y-85531036D01*
X121562377Y-85546484D01*
X121744569Y-85569500D01*
X122055431Y-85569500D01*
X122237623Y-85546484D01*
X122359909Y-85531036D01*
X122359913Y-85531035D01*
X122363841Y-85530539D01*
X122475006Y-85501997D01*
X122661094Y-85454218D01*
X122661102Y-85454215D01*
X122664936Y-85453231D01*
X122668616Y-85451774D01*
X122668619Y-85451773D01*
X122861949Y-85375228D01*
X122953968Y-85338795D01*
X122957430Y-85336892D01*
X123222906Y-85190946D01*
X123222909Y-85190944D01*
X123226378Y-85189037D01*
X123477870Y-85006317D01*
X123704478Y-84793518D01*
X123902629Y-84553995D01*
X124069196Y-84291526D01*
X124070880Y-84287947D01*
X124070884Y-84287940D01*
X124199866Y-84013840D01*
X124199868Y-84013836D01*
X124201555Y-84010250D01*
X124219337Y-83955524D01*
X124266936Y-83809028D01*
X124297616Y-83714603D01*
X124355866Y-83409248D01*
X124375385Y-83099000D01*
X124355866Y-82788752D01*
X124297616Y-82483397D01*
X124201555Y-82187750D01*
X124199866Y-82184160D01*
X124070884Y-81910060D01*
X124070880Y-81910053D01*
X124069196Y-81906474D01*
X123902629Y-81644005D01*
X123771956Y-81486049D01*
X123707003Y-81407534D01*
X123707002Y-81407533D01*
X123704478Y-81404482D01*
X123602415Y-81308638D01*
X123480757Y-81194394D01*
X123480756Y-81194393D01*
X123477870Y-81191683D01*
X123404387Y-81138294D01*
X123229586Y-81011294D01*
X123226378Y-81008963D01*
X123184982Y-80986205D01*
X123067748Y-80921756D01*
X122955258Y-80859914D01*
X122905201Y-80809570D01*
X122890307Y-80740153D01*
X122915308Y-80673704D01*
X122955259Y-80639085D01*
X122964706Y-80633892D01*
X123226378Y-80490037D01*
X123437629Y-80336554D01*
X123474666Y-80309645D01*
X123474668Y-80309644D01*
X123477870Y-80307317D01*
X123484485Y-80301105D01*
X123547835Y-80269052D01*
X123618457Y-80276338D01*
X123659835Y-80303858D01*
X127654081Y-84298105D01*
X131647266Y-88291290D01*
X131652903Y-88297307D01*
X131696360Y-88346860D01*
X131700895Y-88350435D01*
X131700897Y-88350437D01*
X131767010Y-88402557D01*
X131769571Y-88404631D01*
X131821900Y-88448151D01*
X131838732Y-88462150D01*
X131843780Y-88464977D01*
X131845606Y-88466232D01*
X131857874Y-88474429D01*
X131859613Y-88475559D01*
X131864145Y-88479131D01*
X131869246Y-88481815D01*
X131869251Y-88481818D01*
X131943809Y-88521044D01*
X131946669Y-88522597D01*
X132025143Y-88566545D01*
X132030610Y-88568401D01*
X132032591Y-88569283D01*
X132046118Y-88575095D01*
X132048111Y-88575920D01*
X132053225Y-88578611D01*
X132139142Y-88605289D01*
X132142273Y-88606306D01*
X132227457Y-88635222D01*
X132233177Y-88636051D01*
X132235329Y-88636568D01*
X132249644Y-88639807D01*
X132251749Y-88640255D01*
X132257267Y-88641968D01*
X132263000Y-88642646D01*
X132263002Y-88642647D01*
X132301741Y-88647232D01*
X132346655Y-88652548D01*
X132349867Y-88652971D01*
X132409168Y-88661569D01*
X132433187Y-88665052D01*
X132433189Y-88665052D01*
X132438899Y-88665880D01*
X132522456Y-88662597D01*
X132527403Y-88662500D01*
X142148972Y-88662500D01*
X142217093Y-88682502D01*
X142263586Y-88736158D01*
X142274099Y-88803309D01*
X142271369Y-88826378D01*
X142266117Y-88870753D01*
X142279489Y-89074779D01*
X142329819Y-89272951D01*
X142415419Y-89458633D01*
X142533424Y-89625606D01*
X142577486Y-89668529D01*
X142663616Y-89752433D01*
X142679882Y-89768279D01*
X142684678Y-89771484D01*
X142684681Y-89771486D01*
X142810596Y-89855619D01*
X142849887Y-89881872D01*
X142855190Y-89884150D01*
X142855193Y-89884152D01*
X143009841Y-89950594D01*
X143037746Y-89962583D01*
X143122345Y-89981726D01*
X143231532Y-90006433D01*
X143231535Y-90006433D01*
X143237168Y-90007708D01*
X143242939Y-90007935D01*
X143242941Y-90007935D01*
X143305646Y-90010398D01*
X143441473Y-90015735D01*
X143560344Y-89998500D01*
X143638099Y-89987226D01*
X143638103Y-89987225D01*
X143643821Y-89986396D01*
X143649293Y-89984538D01*
X143649295Y-89984538D01*
X143831969Y-89922528D01*
X143831971Y-89922527D01*
X143837433Y-89920673D01*
X143849317Y-89914018D01*
X143887572Y-89892594D01*
X143889911Y-89891284D01*
X143959120Y-89875450D01*
X144001216Y-89885451D01*
X144175430Y-89960300D01*
X144175439Y-89960303D01*
X144180746Y-89962583D01*
X144265345Y-89981726D01*
X144374532Y-90006433D01*
X144374535Y-90006433D01*
X144380168Y-90007708D01*
X144385939Y-90007935D01*
X144385941Y-90007935D01*
X144448646Y-90010398D01*
X144584473Y-90015735D01*
X144703344Y-89998500D01*
X144781099Y-89987226D01*
X144781103Y-89987225D01*
X144786821Y-89986396D01*
X144792293Y-89984538D01*
X144792295Y-89984538D01*
X144922782Y-89940243D01*
X144980433Y-89920673D01*
X145158826Y-89820768D01*
X145166211Y-89814626D01*
X145167877Y-89813906D01*
X145168029Y-89813801D01*
X145168050Y-89813831D01*
X145231375Y-89786445D01*
X145246780Y-89785500D01*
X152140566Y-89785500D01*
X152208687Y-89805502D01*
X152255180Y-89859158D01*
X152265284Y-89929432D01*
X152235790Y-89994012D01*
X152187258Y-90028529D01*
X152114387Y-90057602D01*
X151889777Y-90189643D01*
X151687723Y-90354141D01*
X151512877Y-90547308D01*
X151369261Y-90764700D01*
X151367260Y-90769040D01*
X151367258Y-90769044D01*
X151262187Y-90996962D01*
X151260181Y-91001314D01*
X151258857Y-91005915D01*
X151258857Y-91005916D01*
X151199380Y-91212657D01*
X151188146Y-91251705D01*
X151187535Y-91256440D01*
X151187534Y-91256446D01*
X151157951Y-91485793D01*
X151154814Y-91510111D01*
X151156642Y-91587697D01*
X151159596Y-91713027D01*
X151160952Y-91770586D01*
X151206420Y-92027135D01*
X151290170Y-92273855D01*
X151292371Y-92278091D01*
X151292373Y-92278097D01*
X151350223Y-92389462D01*
X151410275Y-92505068D01*
X151563972Y-92715453D01*
X151567346Y-92718845D01*
X151567348Y-92718847D01*
X151744348Y-92896776D01*
X151744353Y-92896780D01*
X151747724Y-92900169D01*
X151751570Y-92903010D01*
X151751575Y-92903014D01*
X151953450Y-93052121D01*
X151957302Y-93054966D01*
X151961532Y-93057192D01*
X151961536Y-93057194D01*
X152126857Y-93144173D01*
X152187883Y-93176280D01*
X152434161Y-93261321D01*
X152690468Y-93308131D01*
X152773832Y-93312500D01*
X152936257Y-93312500D01*
X152938636Y-93312319D01*
X152938637Y-93312319D01*
X153125030Y-93298141D01*
X153125035Y-93298140D01*
X153129797Y-93297778D01*
X153134450Y-93296699D01*
X153134453Y-93296699D01*
X153353070Y-93246026D01*
X153383615Y-93238946D01*
X153625613Y-93142398D01*
X153850223Y-93010357D01*
X154052277Y-92845859D01*
X154227123Y-92652692D01*
X154241600Y-92630779D01*
X154368101Y-92439293D01*
X154370739Y-92435300D01*
X154374680Y-92426753D01*
X154477813Y-92203038D01*
X154477814Y-92203035D01*
X154479819Y-92198686D01*
X154481143Y-92194084D01*
X154550533Y-91952888D01*
X154550534Y-91952884D01*
X154551854Y-91948295D01*
X154552773Y-91941177D01*
X154584575Y-91694626D01*
X154585186Y-91689889D01*
X154580636Y-91496806D01*
X154579161Y-91434193D01*
X154579160Y-91434188D01*
X154579048Y-91429414D01*
X154550613Y-91268973D01*
X154534414Y-91177569D01*
X154534413Y-91177565D01*
X154533580Y-91172865D01*
X154449830Y-90926145D01*
X154447629Y-90921909D01*
X154447627Y-90921903D01*
X154389778Y-90810539D01*
X154329725Y-90694932D01*
X154176028Y-90484547D01*
X154172652Y-90481153D01*
X153995652Y-90303224D01*
X153995647Y-90303220D01*
X153992276Y-90299831D01*
X153988430Y-90296990D01*
X153988425Y-90296986D01*
X153786550Y-90147879D01*
X153786549Y-90147878D01*
X153782698Y-90145034D01*
X153778468Y-90142808D01*
X153778464Y-90142806D01*
X153552117Y-90023720D01*
X153552993Y-90022055D01*
X153504526Y-89981726D01*
X153483166Y-89914018D01*
X153501803Y-89845511D01*
X153554519Y-89797955D01*
X153609141Y-89785500D01*
X159913253Y-89785500D01*
X159962990Y-89795732D01*
X160055746Y-89835583D01*
X160144292Y-89855619D01*
X160249532Y-89879433D01*
X160249535Y-89879433D01*
X160255168Y-89880708D01*
X160260939Y-89880935D01*
X160260941Y-89880935D01*
X160323646Y-89883398D01*
X160459473Y-89888735D01*
X160578344Y-89871500D01*
X160656099Y-89860226D01*
X160656103Y-89860225D01*
X160661821Y-89859396D01*
X160667293Y-89857538D01*
X160667295Y-89857538D01*
X160820586Y-89805502D01*
X160855433Y-89793673D01*
X161033826Y-89693768D01*
X161191026Y-89563026D01*
X161321768Y-89405826D01*
X161421673Y-89227433D01*
X161487396Y-89033821D01*
X161490364Y-89013356D01*
X161505016Y-88912295D01*
X161516735Y-88831473D01*
X161518266Y-88773000D01*
X161499557Y-88569394D01*
X161494647Y-88551982D01*
X161465363Y-88448151D01*
X161444058Y-88372608D01*
X161353626Y-88189230D01*
X161231290Y-88025403D01*
X161098905Y-87903027D01*
X161085388Y-87890532D01*
X161085385Y-87890530D01*
X161081148Y-87886613D01*
X160908228Y-87777509D01*
X160718321Y-87701743D01*
X160712653Y-87700616D01*
X160712651Y-87700615D01*
X160523454Y-87662982D01*
X160523450Y-87662982D01*
X160517786Y-87661855D01*
X160512011Y-87661779D01*
X160512007Y-87661779D01*
X160409466Y-87660437D01*
X160313340Y-87659178D01*
X160307643Y-87660157D01*
X160307642Y-87660157D01*
X160291202Y-87662982D01*
X160111830Y-87693804D01*
X159988890Y-87739159D01*
X159952153Y-87752712D01*
X159908542Y-87760500D01*
X147285936Y-87760500D01*
X147217815Y-87740498D01*
X147171322Y-87686842D01*
X147160897Y-87622977D01*
X147161084Y-87622035D01*
X147161377Y-87599670D01*
X147162670Y-87583242D01*
X147165347Y-87564778D01*
X147165347Y-87564776D01*
X147165880Y-87561101D01*
X147167480Y-87500000D01*
X147163884Y-87460862D01*
X147163366Y-87447691D01*
X147163805Y-87414182D01*
X147163881Y-87408401D01*
X147162903Y-87402707D01*
X147162902Y-87402700D01*
X147154363Y-87353006D01*
X147153072Y-87343199D01*
X147148458Y-87292995D01*
X147147930Y-87287244D01*
X147137264Y-87249425D01*
X147134353Y-87236560D01*
X147128679Y-87203535D01*
X147128678Y-87203530D01*
X147127699Y-87197834D01*
X147108247Y-87145106D01*
X147105190Y-87135698D01*
X147091504Y-87087172D01*
X147091503Y-87087170D01*
X147089936Y-87081613D01*
X147072555Y-87046366D01*
X147067352Y-87034257D01*
X147055747Y-87002800D01*
X147053750Y-86997387D01*
X147025011Y-86949081D01*
X147020295Y-86940394D01*
X146997997Y-86895177D01*
X146997994Y-86895172D01*
X146995440Y-86889993D01*
X146991984Y-86885365D01*
X146991981Y-86885360D01*
X146971930Y-86858508D01*
X146964603Y-86847543D01*
X146947469Y-86818743D01*
X146947466Y-86818738D01*
X146944511Y-86813772D01*
X146907451Y-86771514D01*
X146901237Y-86763840D01*
X146871059Y-86723426D01*
X146867607Y-86718803D01*
X146838744Y-86692121D01*
X146829547Y-86682680D01*
X146807455Y-86657489D01*
X146807449Y-86657484D01*
X146803640Y-86653140D01*
X146759493Y-86618337D01*
X146752008Y-86611944D01*
X146710717Y-86573776D01*
X146705829Y-86570692D01*
X146705824Y-86570688D01*
X146677485Y-86552808D01*
X146666712Y-86545195D01*
X146640390Y-86524444D01*
X146640389Y-86524444D01*
X146635855Y-86520869D01*
X146590818Y-86497174D01*
X146539845Y-86447754D01*
X146524014Y-86397194D01*
X146515817Y-86307990D01*
X146513557Y-86283394D01*
X146458058Y-86086608D01*
X146367626Y-85903230D01*
X146259775Y-85758800D01*
X146248743Y-85744027D01*
X146248743Y-85744026D01*
X146245290Y-85739403D01*
X146105622Y-85610295D01*
X146099388Y-85604532D01*
X146099385Y-85604530D01*
X146095148Y-85600613D01*
X145922228Y-85491509D01*
X145732321Y-85415743D01*
X145726651Y-85414615D01*
X145723744Y-85413754D01*
X145664109Y-85375228D01*
X145634769Y-85310578D01*
X145645040Y-85240328D01*
X145685468Y-85191006D01*
X145761666Y-85135645D01*
X145761668Y-85135644D01*
X145764870Y-85133317D01*
X145950160Y-84959318D01*
X145988587Y-84923233D01*
X145988588Y-84923232D01*
X145991478Y-84920518D01*
X146017153Y-84889483D01*
X146119794Y-84765411D01*
X146189629Y-84680995D01*
X146356196Y-84418526D01*
X146357880Y-84414947D01*
X146357884Y-84414940D01*
X146485851Y-84142996D01*
X146487992Y-84138446D01*
X146535095Y-84085325D01*
X146603440Y-84066102D01*
X146671327Y-84086881D01*
X146716008Y-84138445D01*
X146718149Y-84142996D01*
X146846116Y-84414940D01*
X146846120Y-84414947D01*
X146847804Y-84418526D01*
X147014371Y-84680995D01*
X147084206Y-84765411D01*
X147186848Y-84889483D01*
X147212522Y-84920518D01*
X147215412Y-84923232D01*
X147215413Y-84923233D01*
X147253840Y-84959318D01*
X147439130Y-85133317D01*
X147442332Y-85135644D01*
X147442334Y-85135645D01*
X147515822Y-85189037D01*
X147690622Y-85316037D01*
X147694091Y-85317944D01*
X147694094Y-85317946D01*
X147887194Y-85424103D01*
X147963032Y-85465795D01*
X148110996Y-85524378D01*
X148248381Y-85578773D01*
X148248384Y-85578774D01*
X148252064Y-85580231D01*
X148255898Y-85581215D01*
X148255906Y-85581218D01*
X148415098Y-85622091D01*
X148553159Y-85657539D01*
X148557087Y-85658035D01*
X148557091Y-85658036D01*
X148679377Y-85673484D01*
X148861569Y-85696500D01*
X149172431Y-85696500D01*
X149354623Y-85673484D01*
X149476909Y-85658036D01*
X149476913Y-85658035D01*
X149480841Y-85657539D01*
X149618902Y-85622091D01*
X149778094Y-85581218D01*
X149778102Y-85581215D01*
X149781936Y-85580231D01*
X149785616Y-85578774D01*
X149785619Y-85578773D01*
X149923004Y-85524378D01*
X150070968Y-85465795D01*
X150146806Y-85424103D01*
X150339906Y-85317946D01*
X150339909Y-85317944D01*
X150343378Y-85316037D01*
X150518178Y-85189037D01*
X150591666Y-85135645D01*
X150591668Y-85135644D01*
X150594870Y-85133317D01*
X150780160Y-84959318D01*
X150818587Y-84923233D01*
X150818588Y-84923232D01*
X150821478Y-84920518D01*
X150847153Y-84889483D01*
X150949794Y-84765411D01*
X151019629Y-84680995D01*
X151186196Y-84418526D01*
X151187880Y-84414947D01*
X151187884Y-84414940D01*
X151316866Y-84140840D01*
X151316868Y-84140836D01*
X151318555Y-84137250D01*
X151414616Y-83841603D01*
X151472866Y-83536248D01*
X151492385Y-83226000D01*
X151472866Y-82915752D01*
X151414616Y-82610397D01*
X151318555Y-82314750D01*
X151260569Y-82191523D01*
X151187884Y-82037060D01*
X151187880Y-82037053D01*
X151186196Y-82033474D01*
X151019629Y-81771005D01*
X150901496Y-81628207D01*
X150824003Y-81534534D01*
X150824002Y-81534533D01*
X150821478Y-81531482D01*
X150762376Y-81475981D01*
X150597757Y-81321394D01*
X150597756Y-81321393D01*
X150594870Y-81318683D01*
X150343378Y-81135963D01*
X150246213Y-81082546D01*
X150074430Y-80988108D01*
X150074427Y-80988107D01*
X150070968Y-80986205D01*
X149924343Y-80928152D01*
X149868369Y-80884477D01*
X149844893Y-80817474D01*
X149861369Y-80748416D01*
X149912564Y-80699227D01*
X149924343Y-80693848D01*
X150062658Y-80639085D01*
X150070968Y-80635795D01*
X150108729Y-80615036D01*
X150339906Y-80487946D01*
X150339909Y-80487944D01*
X150343378Y-80486037D01*
X150572705Y-80319421D01*
X150591666Y-80305645D01*
X150591668Y-80305644D01*
X150594870Y-80303317D01*
X150814327Y-80097233D01*
X150818587Y-80093233D01*
X150818588Y-80093232D01*
X150821478Y-80090518D01*
X150843824Y-80063507D01*
X151017104Y-79854047D01*
X151019629Y-79850995D01*
X151169401Y-79614991D01*
X151184072Y-79591873D01*
X151184072Y-79591872D01*
X151186196Y-79588526D01*
X151187880Y-79584947D01*
X151187884Y-79584940D01*
X151316866Y-79310840D01*
X151316868Y-79310836D01*
X151318555Y-79307250D01*
X151414616Y-79011603D01*
X151472866Y-78706248D01*
X151492385Y-78396000D01*
X151472866Y-78085752D01*
X151414616Y-77780397D01*
X151318555Y-77484750D01*
X151316866Y-77481160D01*
X151187884Y-77207060D01*
X151187880Y-77207053D01*
X151186196Y-77203474D01*
X151019629Y-76941005D01*
X150844828Y-76729707D01*
X150824003Y-76704534D01*
X150824002Y-76704533D01*
X150821478Y-76701482D01*
X150602017Y-76495394D01*
X150597757Y-76491394D01*
X150597756Y-76491393D01*
X150594870Y-76488683D01*
X150589493Y-76484776D01*
X150449976Y-76383411D01*
X150343378Y-76305963D01*
X150232509Y-76245012D01*
X150074430Y-76158108D01*
X150074427Y-76158107D01*
X150070968Y-76156205D01*
X149924343Y-76098152D01*
X149868369Y-76054477D01*
X149844893Y-75987474D01*
X149861369Y-75918416D01*
X149912564Y-75869227D01*
X149924343Y-75863848D01*
X149954313Y-75851982D01*
X150070968Y-75805795D01*
X150158904Y-75757452D01*
X150339906Y-75657946D01*
X150339909Y-75657944D01*
X150343378Y-75656037D01*
X150594870Y-75473317D01*
X150612885Y-75456400D01*
X150818587Y-75263233D01*
X150818588Y-75263232D01*
X150821478Y-75260518D01*
X151019629Y-75020995D01*
X151186196Y-74758526D01*
X151187880Y-74754947D01*
X151187884Y-74754940D01*
X151316866Y-74480840D01*
X151316868Y-74480836D01*
X151318555Y-74477250D01*
X151414616Y-74181603D01*
X151472866Y-73876248D01*
X151492385Y-73566000D01*
X151472866Y-73255752D01*
X151414616Y-72950397D01*
X151318555Y-72654750D01*
X151316866Y-72651160D01*
X151187884Y-72377060D01*
X151187880Y-72377053D01*
X151186196Y-72373474D01*
X151019629Y-72111005D01*
X150821478Y-71871482D01*
X150792391Y-71844167D01*
X150597757Y-71661394D01*
X150597756Y-71661393D01*
X150594870Y-71658683D01*
X150343378Y-71475963D01*
X150163405Y-71377022D01*
X150074430Y-71328108D01*
X150074427Y-71328107D01*
X150070968Y-71326205D01*
X149884841Y-71252512D01*
X149785619Y-71213227D01*
X149785616Y-71213226D01*
X149781936Y-71211769D01*
X149778102Y-71210785D01*
X149778094Y-71210782D01*
X149580040Y-71159931D01*
X149480841Y-71134461D01*
X149476913Y-71133965D01*
X149476909Y-71133964D01*
X149354623Y-71118516D01*
X149172431Y-71095500D01*
X148861569Y-71095500D01*
X148679377Y-71118516D01*
X148557091Y-71133964D01*
X148557087Y-71133965D01*
X148553159Y-71134461D01*
X148453960Y-71159931D01*
X148255906Y-71210782D01*
X148255898Y-71210785D01*
X148252064Y-71211769D01*
X148248384Y-71213226D01*
X148248381Y-71213227D01*
X148149159Y-71252512D01*
X147963032Y-71326205D01*
X147959573Y-71328107D01*
X147959570Y-71328108D01*
X147870596Y-71377022D01*
X147690622Y-71475963D01*
X147439130Y-71658683D01*
X147436244Y-71661393D01*
X147436243Y-71661394D01*
X147241610Y-71844167D01*
X147212522Y-71871482D01*
X147014371Y-72111005D01*
X146889883Y-72307167D01*
X146836496Y-72353964D01*
X146766281Y-72364469D01*
X146701533Y-72335345D01*
X146662809Y-72275840D01*
X146657500Y-72239651D01*
X146657500Y-71807334D01*
X146657163Y-71804084D01*
X146647180Y-71707868D01*
X146647179Y-71707864D01*
X146646468Y-71701010D01*
X146590197Y-71532346D01*
X146496634Y-71381150D01*
X146370799Y-71255534D01*
X146351155Y-71243425D01*
X146298197Y-71210782D01*
X146219440Y-71162236D01*
X146212491Y-71159931D01*
X146057209Y-71108425D01*
X146057207Y-71108424D01*
X146050678Y-71106259D01*
X145945666Y-71095500D01*
X142428334Y-71095500D01*
X142425088Y-71095837D01*
X142425084Y-71095837D01*
X142328868Y-71105820D01*
X142328864Y-71105821D01*
X142322010Y-71106532D01*
X142315474Y-71108713D01*
X142315472Y-71108713D01*
X142183723Y-71152668D01*
X142153346Y-71162803D01*
X142002150Y-71256366D01*
X141876534Y-71382201D01*
X141872694Y-71388431D01*
X141872693Y-71388432D01*
X141868211Y-71395704D01*
X141783236Y-71533560D01*
X141780931Y-71540508D01*
X141780931Y-71540509D01*
X141736153Y-71675509D01*
X141727259Y-71702322D01*
X141716500Y-71807334D01*
X141716500Y-75324666D01*
X141727532Y-75430990D01*
X141729713Y-75437526D01*
X141729713Y-75437528D01*
X141753758Y-75509599D01*
X141783803Y-75599654D01*
X141877366Y-75750850D01*
X141882548Y-75756023D01*
X141917251Y-75790666D01*
X142003201Y-75876466D01*
X142009431Y-75880306D01*
X142009432Y-75880307D01*
X142018425Y-75885850D01*
X142154560Y-75969764D01*
X142161508Y-75972069D01*
X142161509Y-75972069D01*
X142316791Y-76023575D01*
X142316793Y-76023576D01*
X142323322Y-76025741D01*
X142428334Y-76036500D01*
X142860035Y-76036500D01*
X142928156Y-76056502D01*
X142974649Y-76110158D01*
X142984753Y-76180432D01*
X142955259Y-76245012D01*
X142920736Y-76272915D01*
X142860622Y-76305963D01*
X142754024Y-76383411D01*
X142614508Y-76484776D01*
X142609130Y-76488683D01*
X142606244Y-76491393D01*
X142606243Y-76491394D01*
X142601984Y-76495394D01*
X142382522Y-76701482D01*
X142379998Y-76704533D01*
X142379997Y-76704534D01*
X142359172Y-76729707D01*
X142184371Y-76941005D01*
X142017804Y-77203474D01*
X142016120Y-77207053D01*
X142016116Y-77207060D01*
X141887134Y-77481160D01*
X141885445Y-77484750D01*
X141789384Y-77780397D01*
X141731134Y-78085752D01*
X141711615Y-78396000D01*
X141731134Y-78706248D01*
X141789384Y-79011603D01*
X141885445Y-79307250D01*
X141887132Y-79310836D01*
X141887134Y-79310840D01*
X142016116Y-79584940D01*
X142016120Y-79584947D01*
X142017804Y-79588526D01*
X142019928Y-79591872D01*
X142019928Y-79591873D01*
X142034599Y-79614991D01*
X142184371Y-79850995D01*
X142186896Y-79854047D01*
X142360177Y-80063507D01*
X142382522Y-80090518D01*
X142385412Y-80093232D01*
X142385413Y-80093233D01*
X142389673Y-80097233D01*
X142609130Y-80303317D01*
X142612332Y-80305644D01*
X142612334Y-80305645D01*
X142631295Y-80319421D01*
X142860622Y-80486037D01*
X142864091Y-80487944D01*
X142864094Y-80487946D01*
X143095271Y-80615036D01*
X143133032Y-80635795D01*
X143141342Y-80639085D01*
X143279657Y-80693848D01*
X143335631Y-80737523D01*
X143359107Y-80804526D01*
X143342631Y-80873584D01*
X143291436Y-80922773D01*
X143279657Y-80928152D01*
X143133032Y-80986205D01*
X143129573Y-80988107D01*
X143129570Y-80988108D01*
X142957788Y-81082546D01*
X142860622Y-81135963D01*
X142609130Y-81318683D01*
X142606244Y-81321393D01*
X142606243Y-81321394D01*
X142441625Y-81475981D01*
X142382522Y-81531482D01*
X142379998Y-81534533D01*
X142379997Y-81534534D01*
X142302504Y-81628207D01*
X142184371Y-81771005D01*
X142017804Y-82033474D01*
X142016120Y-82037053D01*
X142016116Y-82037060D01*
X141943431Y-82191523D01*
X141885445Y-82314750D01*
X141789384Y-82610397D01*
X141731134Y-82915752D01*
X141711615Y-83226000D01*
X141731134Y-83536248D01*
X141789384Y-83841603D01*
X141885445Y-84137250D01*
X141887132Y-84140836D01*
X141887134Y-84140840D01*
X142016116Y-84414940D01*
X142016120Y-84414947D01*
X142017804Y-84418526D01*
X142184371Y-84680995D01*
X142254206Y-84765411D01*
X142356848Y-84889483D01*
X142382522Y-84920518D01*
X142385412Y-84923232D01*
X142385413Y-84923233D01*
X142423840Y-84959318D01*
X142609130Y-85133317D01*
X142612332Y-85135644D01*
X142612334Y-85135645D01*
X142685822Y-85189037D01*
X142860622Y-85316037D01*
X142864091Y-85317944D01*
X142864094Y-85317946D01*
X143057194Y-85424103D01*
X143133032Y-85465795D01*
X143280996Y-85524378D01*
X143418381Y-85578773D01*
X143418384Y-85578774D01*
X143422064Y-85580231D01*
X143425898Y-85581215D01*
X143425906Y-85581218D01*
X143585098Y-85622091D01*
X143723159Y-85657539D01*
X143727087Y-85658035D01*
X143727091Y-85658036D01*
X143849377Y-85673484D01*
X144031569Y-85696500D01*
X144342431Y-85696500D01*
X144350321Y-85695503D01*
X144420411Y-85706808D01*
X144473263Y-85754213D01*
X144492096Y-85822666D01*
X144477622Y-85879176D01*
X144385474Y-86054320D01*
X144385469Y-86054331D01*
X144382781Y-86059441D01*
X144352459Y-86157093D01*
X144323963Y-86248865D01*
X144284660Y-86307990D01*
X144219631Y-86336480D01*
X144203631Y-86337500D01*
X133033713Y-86337500D01*
X132965592Y-86317498D01*
X132944618Y-86300595D01*
X124256051Y-77612028D01*
X124225313Y-77561869D01*
X124202781Y-77492523D01*
X124202781Y-77492522D01*
X124201555Y-77488750D01*
X124199673Y-77484750D01*
X124070884Y-77211060D01*
X124070880Y-77211053D01*
X124069196Y-77207474D01*
X124064534Y-77200127D01*
X123982688Y-77071159D01*
X123902629Y-76945005D01*
X123704478Y-76705482D01*
X123700219Y-76701482D01*
X123480757Y-76495394D01*
X123480756Y-76495393D01*
X123477870Y-76492683D01*
X123474666Y-76490355D01*
X123349527Y-76399436D01*
X123306173Y-76343214D01*
X123300098Y-76272477D01*
X123333230Y-76209686D01*
X123395050Y-76174774D01*
X123423588Y-76171500D01*
X123658666Y-76171500D01*
X123661912Y-76171163D01*
X123661916Y-76171163D01*
X123758132Y-76161180D01*
X123758136Y-76161179D01*
X123764990Y-76160468D01*
X123771526Y-76158287D01*
X123771528Y-76158287D01*
X123921149Y-76108369D01*
X123933654Y-76104197D01*
X124084850Y-76010634D01*
X124210466Y-75884799D01*
X124215603Y-75876466D01*
X124299921Y-75739674D01*
X124303764Y-75733440D01*
X124307904Y-75720959D01*
X124357575Y-75571209D01*
X124357576Y-75571207D01*
X124359741Y-75564678D01*
X124370500Y-75459666D01*
X124370500Y-71942334D01*
X124370163Y-71939084D01*
X124360180Y-71842868D01*
X124360179Y-71842864D01*
X124359468Y-71836010D01*
X124303197Y-71667346D01*
X124209634Y-71516150D01*
X124083799Y-71390534D01*
X124070281Y-71382201D01*
X123977078Y-71324751D01*
X123932440Y-71297236D01*
X123925491Y-71294931D01*
X123770209Y-71243425D01*
X123770207Y-71243424D01*
X123763678Y-71241259D01*
X123658666Y-71230500D01*
X120141334Y-71230500D01*
X120138088Y-71230837D01*
X120138084Y-71230837D01*
X120041868Y-71240820D01*
X120041864Y-71240821D01*
X120035010Y-71241532D01*
X120028474Y-71243713D01*
X120028472Y-71243713D01*
X119975015Y-71261548D01*
X119866346Y-71297803D01*
X119715150Y-71391366D01*
X119589534Y-71517201D01*
X119585694Y-71523431D01*
X119585693Y-71523432D01*
X119579450Y-71533560D01*
X119496236Y-71668560D01*
X119493931Y-71675508D01*
X119493931Y-71675509D01*
X119485473Y-71701010D01*
X119440259Y-71837322D01*
X119429500Y-71942334D01*
X119429500Y-75459666D01*
X119429837Y-75462912D01*
X119429837Y-75462916D01*
X119439686Y-75557833D01*
X119440532Y-75565990D01*
X119442713Y-75572526D01*
X119442713Y-75572528D01*
X119484303Y-75697186D01*
X119496803Y-75734654D01*
X119590366Y-75885850D01*
X119716201Y-76011466D01*
X119722431Y-76015306D01*
X119722432Y-76015307D01*
X119740497Y-76026442D01*
X119867560Y-76104764D01*
X119874508Y-76107069D01*
X119874509Y-76107069D01*
X120029791Y-76158575D01*
X120029793Y-76158576D01*
X120036322Y-76160741D01*
X120141334Y-76171500D01*
X120376412Y-76171500D01*
X120444533Y-76191502D01*
X120491026Y-76245158D01*
X120501130Y-76315432D01*
X120471636Y-76380012D01*
X120450473Y-76399436D01*
X120325334Y-76490355D01*
X120322130Y-76492683D01*
X120319244Y-76495393D01*
X120319243Y-76495394D01*
X120099782Y-76701482D01*
X120095522Y-76705482D01*
X119897371Y-76945005D01*
X119817312Y-77071159D01*
X119735467Y-77200127D01*
X119730804Y-77207474D01*
X119729120Y-77211053D01*
X119729116Y-77211060D01*
X119600327Y-77484750D01*
X119598445Y-77488750D01*
X119502384Y-77784397D01*
X119444134Y-78089752D01*
X119424615Y-78400000D01*
X119444134Y-78710248D01*
X119502384Y-79015603D01*
X119598445Y-79311250D01*
X119600132Y-79314836D01*
X119600134Y-79314840D01*
X119729116Y-79588940D01*
X119729120Y-79588947D01*
X119730804Y-79592526D01*
X119897371Y-79854995D01*
X120095522Y-80094518D01*
X120098412Y-80097232D01*
X120098413Y-80097233D01*
X120319243Y-80304606D01*
X120322130Y-80307317D01*
X120325332Y-80309644D01*
X120325334Y-80309645D01*
X120362371Y-80336554D01*
X120573622Y-80490037D01*
X120835295Y-80633892D01*
X120844741Y-80639085D01*
X120894799Y-80689430D01*
X120909693Y-80758847D01*
X120884692Y-80825296D01*
X120844742Y-80859914D01*
X120732252Y-80921756D01*
X120615019Y-80986205D01*
X120573622Y-81008963D01*
X120570414Y-81011294D01*
X120395614Y-81138294D01*
X120322130Y-81191683D01*
X120319244Y-81194393D01*
X120319243Y-81194394D01*
X120197586Y-81308638D01*
X120095522Y-81404482D01*
X120092998Y-81407533D01*
X120092997Y-81407534D01*
X120028044Y-81486049D01*
X119897371Y-81644005D01*
X119730804Y-81906474D01*
X119729120Y-81910053D01*
X119729116Y-81910060D01*
X119600134Y-82184160D01*
X119598445Y-82187750D01*
X119502384Y-82483397D01*
X119444134Y-82788752D01*
X119424615Y-83099000D01*
X37762500Y-83099000D01*
X37762500Y-82700000D01*
X51400000Y-82700000D01*
X55400000Y-82700000D01*
X78400000Y-82700000D01*
X82400000Y-82700000D01*
X82400000Y-81700000D01*
X78400000Y-81700000D01*
X78400000Y-82700000D01*
X55400000Y-82700000D01*
X55400000Y-81700000D01*
X51400000Y-81700000D01*
X51400000Y-82700000D01*
X37762500Y-82700000D01*
X37762500Y-79822403D01*
X46887500Y-79822403D01*
X46887646Y-79824539D01*
X46887646Y-79824550D01*
X46889221Y-79847644D01*
X46902155Y-80037369D01*
X46903024Y-80041564D01*
X46903024Y-80041566D01*
X46913358Y-80091466D01*
X46960565Y-80319421D01*
X47056713Y-80590935D01*
X47188821Y-80846889D01*
X47191282Y-80850390D01*
X47191284Y-80850394D01*
X47215238Y-80884477D01*
X47354443Y-81082546D01*
X47550515Y-81293544D01*
X47553830Y-81296258D01*
X47553834Y-81296261D01*
X47584541Y-81321394D01*
X47773409Y-81475981D01*
X48019000Y-81626479D01*
X48022933Y-81628206D01*
X48022936Y-81628207D01*
X48278816Y-81740531D01*
X48278820Y-81740532D01*
X48282744Y-81742255D01*
X48559760Y-81821165D01*
X48564002Y-81821769D01*
X48564008Y-81821770D01*
X48840672Y-81861145D01*
X48844923Y-81861750D01*
X48996799Y-81862545D01*
X49128669Y-81863236D01*
X49128675Y-81863236D01*
X49132955Y-81863258D01*
X49137200Y-81862699D01*
X49137202Y-81862699D01*
X49201992Y-81854169D01*
X49418527Y-81825661D01*
X49696354Y-81749657D01*
X49781010Y-81713548D01*
X49957344Y-81638335D01*
X49957348Y-81638333D01*
X49961296Y-81636649D01*
X50131918Y-81534534D01*
X50204767Y-81490935D01*
X50204771Y-81490932D01*
X50208449Y-81488731D01*
X50433242Y-81308638D01*
X50550459Y-81185117D01*
X50628562Y-81102814D01*
X50628564Y-81102811D01*
X50631512Y-81099705D01*
X50799593Y-80865795D01*
X50934374Y-80611239D01*
X51033360Y-80340746D01*
X51094721Y-80059321D01*
X51110802Y-79854995D01*
X51112307Y-79835874D01*
X51112307Y-79835865D01*
X51112500Y-79833417D01*
X51112500Y-79822403D01*
X55687500Y-79822403D01*
X55687646Y-79824539D01*
X55687646Y-79824550D01*
X55689221Y-79847644D01*
X55702155Y-80037369D01*
X55703024Y-80041564D01*
X55703024Y-80041566D01*
X55713358Y-80091466D01*
X55760565Y-80319421D01*
X55856713Y-80590935D01*
X55988821Y-80846889D01*
X55991282Y-80850390D01*
X55991284Y-80850394D01*
X56015238Y-80884477D01*
X56154443Y-81082546D01*
X56350515Y-81293544D01*
X56353830Y-81296258D01*
X56353834Y-81296261D01*
X56384541Y-81321394D01*
X56573409Y-81475981D01*
X56819000Y-81626479D01*
X56822933Y-81628206D01*
X56822936Y-81628207D01*
X57078816Y-81740531D01*
X57078820Y-81740532D01*
X57082744Y-81742255D01*
X57359760Y-81821165D01*
X57364002Y-81821769D01*
X57364008Y-81821770D01*
X57640672Y-81861145D01*
X57644923Y-81861750D01*
X57796799Y-81862545D01*
X57928669Y-81863236D01*
X57928675Y-81863236D01*
X57932955Y-81863258D01*
X57937200Y-81862699D01*
X57937202Y-81862699D01*
X58001992Y-81854169D01*
X58218527Y-81825661D01*
X58496354Y-81749657D01*
X58581010Y-81713548D01*
X58757344Y-81638335D01*
X58757348Y-81638333D01*
X58761296Y-81636649D01*
X58931918Y-81534534D01*
X59004767Y-81490935D01*
X59004771Y-81490932D01*
X59008449Y-81488731D01*
X59233242Y-81308638D01*
X59350459Y-81185117D01*
X59428562Y-81102814D01*
X59428564Y-81102811D01*
X59431512Y-81099705D01*
X59599593Y-80865795D01*
X59734374Y-80611239D01*
X59833360Y-80340746D01*
X59894721Y-80059321D01*
X59910802Y-79854995D01*
X59912307Y-79835874D01*
X59912307Y-79835865D01*
X59912500Y-79833417D01*
X59912500Y-79822403D01*
X73887500Y-79822403D01*
X73887646Y-79824539D01*
X73887646Y-79824550D01*
X73889221Y-79847644D01*
X73902155Y-80037369D01*
X73903024Y-80041564D01*
X73903024Y-80041566D01*
X73913358Y-80091466D01*
X73960565Y-80319421D01*
X74056713Y-80590935D01*
X74188821Y-80846889D01*
X74191282Y-80850390D01*
X74191284Y-80850394D01*
X74215238Y-80884477D01*
X74354443Y-81082546D01*
X74550515Y-81293544D01*
X74553830Y-81296258D01*
X74553834Y-81296261D01*
X74584541Y-81321394D01*
X74773409Y-81475981D01*
X75019000Y-81626479D01*
X75022933Y-81628206D01*
X75022936Y-81628207D01*
X75278816Y-81740531D01*
X75278820Y-81740532D01*
X75282744Y-81742255D01*
X75559760Y-81821165D01*
X75564002Y-81821769D01*
X75564008Y-81821770D01*
X75840672Y-81861145D01*
X75844923Y-81861750D01*
X75996799Y-81862545D01*
X76128669Y-81863236D01*
X76128675Y-81863236D01*
X76132955Y-81863258D01*
X76137200Y-81862699D01*
X76137202Y-81862699D01*
X76201992Y-81854169D01*
X76418527Y-81825661D01*
X76696354Y-81749657D01*
X76781010Y-81713548D01*
X76957344Y-81638335D01*
X76957348Y-81638333D01*
X76961296Y-81636649D01*
X77131918Y-81534534D01*
X77204767Y-81490935D01*
X77204771Y-81490932D01*
X77208449Y-81488731D01*
X77433242Y-81308638D01*
X77550459Y-81185117D01*
X77628562Y-81102814D01*
X77628564Y-81102811D01*
X77631512Y-81099705D01*
X77799593Y-80865795D01*
X77934374Y-80611239D01*
X78033360Y-80340746D01*
X78094721Y-80059321D01*
X78110802Y-79854995D01*
X78112307Y-79835874D01*
X78112307Y-79835865D01*
X78112500Y-79833417D01*
X78112500Y-79822403D01*
X82687500Y-79822403D01*
X82687646Y-79824539D01*
X82687646Y-79824550D01*
X82689221Y-79847644D01*
X82702155Y-80037369D01*
X82703024Y-80041564D01*
X82703024Y-80041566D01*
X82713358Y-80091466D01*
X82760565Y-80319421D01*
X82856713Y-80590935D01*
X82988821Y-80846889D01*
X82991282Y-80850390D01*
X82991284Y-80850394D01*
X83015238Y-80884477D01*
X83154443Y-81082546D01*
X83350515Y-81293544D01*
X83353830Y-81296258D01*
X83353834Y-81296261D01*
X83384541Y-81321394D01*
X83573409Y-81475981D01*
X83819000Y-81626479D01*
X83822933Y-81628206D01*
X83822936Y-81628207D01*
X84078816Y-81740531D01*
X84078820Y-81740532D01*
X84082744Y-81742255D01*
X84359760Y-81821165D01*
X84364002Y-81821769D01*
X84364008Y-81821770D01*
X84640672Y-81861145D01*
X84644923Y-81861750D01*
X84796799Y-81862545D01*
X84928669Y-81863236D01*
X84928675Y-81863236D01*
X84932955Y-81863258D01*
X84937200Y-81862699D01*
X84937202Y-81862699D01*
X85001992Y-81854169D01*
X85218527Y-81825661D01*
X85496354Y-81749657D01*
X85581010Y-81713548D01*
X85757344Y-81638335D01*
X85757348Y-81638333D01*
X85761296Y-81636649D01*
X85931918Y-81534534D01*
X86004767Y-81490935D01*
X86004771Y-81490932D01*
X86008449Y-81488731D01*
X86233242Y-81308638D01*
X86350459Y-81185117D01*
X86428562Y-81102814D01*
X86428564Y-81102811D01*
X86431512Y-81099705D01*
X86599593Y-80865795D01*
X86734374Y-80611239D01*
X86833360Y-80340746D01*
X86894721Y-80059321D01*
X86910802Y-79854995D01*
X86912307Y-79835874D01*
X86912307Y-79835865D01*
X86912500Y-79833417D01*
X86912500Y-77948753D01*
X93371117Y-77948753D01*
X93384489Y-78152779D01*
X93434819Y-78350951D01*
X93520419Y-78536633D01*
X93638424Y-78703606D01*
X93784882Y-78846279D01*
X93789678Y-78849484D01*
X93789681Y-78849486D01*
X93857903Y-78895070D01*
X93954887Y-78959872D01*
X93960190Y-78962150D01*
X93960193Y-78962152D01*
X94137439Y-79038303D01*
X94142746Y-79040583D01*
X94239772Y-79062538D01*
X94336532Y-79084433D01*
X94336535Y-79084433D01*
X94342168Y-79085708D01*
X94347939Y-79085935D01*
X94347941Y-79085935D01*
X94410646Y-79088398D01*
X94546473Y-79093735D01*
X94665344Y-79076500D01*
X94743099Y-79065226D01*
X94743103Y-79065225D01*
X94748821Y-79064396D01*
X94754293Y-79062538D01*
X94754295Y-79062538D01*
X94855460Y-79028197D01*
X94942433Y-78998673D01*
X95120826Y-78898768D01*
X95278026Y-78768026D01*
X95408768Y-78610826D01*
X95508673Y-78432433D01*
X95574396Y-78238821D01*
X95586872Y-78152779D01*
X95597785Y-78077508D01*
X95603735Y-78036473D01*
X95605266Y-77978000D01*
X95586557Y-77774394D01*
X95578467Y-77745707D01*
X95535914Y-77594826D01*
X95531058Y-77577608D01*
X95440626Y-77394230D01*
X95318290Y-77230403D01*
X95168148Y-77091613D01*
X94995228Y-76982509D01*
X94962802Y-76969572D01*
X94901224Y-76945005D01*
X94805321Y-76906743D01*
X94799653Y-76905616D01*
X94799651Y-76905615D01*
X94610454Y-76867982D01*
X94610450Y-76867982D01*
X94604786Y-76866855D01*
X94599011Y-76866779D01*
X94599007Y-76866779D01*
X94496466Y-76865437D01*
X94400340Y-76864178D01*
X94394643Y-76865157D01*
X94394642Y-76865157D01*
X94378202Y-76867982D01*
X94198830Y-76898804D01*
X94007005Y-76969572D01*
X94002044Y-76972524D01*
X94002043Y-76972524D01*
X93927683Y-77016764D01*
X93831288Y-77074113D01*
X93677564Y-77208925D01*
X93673992Y-77213456D01*
X93574080Y-77340194D01*
X93550982Y-77369493D01*
X93548294Y-77374602D01*
X93458470Y-77545329D01*
X93458468Y-77545334D01*
X93455781Y-77550441D01*
X93438595Y-77605790D01*
X93411940Y-77691633D01*
X93395149Y-77745707D01*
X93371117Y-77948753D01*
X86912500Y-77948753D01*
X86912500Y-76977597D01*
X86912354Y-76975450D01*
X86898137Y-76766908D01*
X86898136Y-76766902D01*
X86897845Y-76762631D01*
X86884620Y-76698767D01*
X86842503Y-76495394D01*
X86839435Y-76480579D01*
X86743287Y-76209065D01*
X86619774Y-75969764D01*
X86613144Y-75956918D01*
X86613144Y-75956917D01*
X86611179Y-75953111D01*
X86589623Y-75922439D01*
X86473668Y-75757452D01*
X86445557Y-75717454D01*
X86310883Y-75572528D01*
X86252406Y-75509599D01*
X86252403Y-75509597D01*
X86249485Y-75506456D01*
X86246170Y-75503742D01*
X86246166Y-75503739D01*
X86029909Y-75326735D01*
X86026591Y-75324019D01*
X85781000Y-75173521D01*
X85762860Y-75165558D01*
X85521184Y-75059469D01*
X85521180Y-75059468D01*
X85517256Y-75057745D01*
X85240240Y-74978835D01*
X85235998Y-74978231D01*
X85235992Y-74978230D01*
X84959328Y-74938855D01*
X84955077Y-74938250D01*
X84803201Y-74937455D01*
X84671331Y-74936764D01*
X84671325Y-74936764D01*
X84667045Y-74936742D01*
X84662800Y-74937301D01*
X84662798Y-74937301D01*
X84650995Y-74938855D01*
X84381473Y-74974339D01*
X84103646Y-75050343D01*
X84099698Y-75052027D01*
X83842656Y-75161665D01*
X83842652Y-75161667D01*
X83838704Y-75163351D01*
X83817962Y-75175765D01*
X83595233Y-75309065D01*
X83595229Y-75309068D01*
X83591551Y-75311269D01*
X83366758Y-75491362D01*
X83168488Y-75700295D01*
X83000407Y-75934205D01*
X82865626Y-76188761D01*
X82766640Y-76459254D01*
X82705279Y-76740679D01*
X82704943Y-76744949D01*
X82687861Y-76962000D01*
X82687500Y-76966583D01*
X82687500Y-79822403D01*
X78112500Y-79822403D01*
X78112500Y-76977597D01*
X78112354Y-76975450D01*
X78098137Y-76766908D01*
X78098136Y-76766902D01*
X78097845Y-76762631D01*
X78084620Y-76698767D01*
X78042503Y-76495394D01*
X78039435Y-76480579D01*
X77943287Y-76209065D01*
X77819774Y-75969764D01*
X77813144Y-75956918D01*
X77813144Y-75956917D01*
X77811179Y-75953111D01*
X77789623Y-75922439D01*
X77673668Y-75757452D01*
X77645557Y-75717454D01*
X77510883Y-75572528D01*
X77452406Y-75509599D01*
X77452403Y-75509597D01*
X77449485Y-75506456D01*
X77446170Y-75503742D01*
X77446166Y-75503739D01*
X77229909Y-75326735D01*
X77226591Y-75324019D01*
X76981000Y-75173521D01*
X76962860Y-75165558D01*
X76721184Y-75059469D01*
X76721180Y-75059468D01*
X76717256Y-75057745D01*
X76440240Y-74978835D01*
X76435998Y-74978231D01*
X76435992Y-74978230D01*
X76159328Y-74938855D01*
X76155077Y-74938250D01*
X76003201Y-74937455D01*
X75871331Y-74936764D01*
X75871325Y-74936764D01*
X75867045Y-74936742D01*
X75862800Y-74937301D01*
X75862798Y-74937301D01*
X75850995Y-74938855D01*
X75581473Y-74974339D01*
X75303646Y-75050343D01*
X75299698Y-75052027D01*
X75042656Y-75161665D01*
X75042652Y-75161667D01*
X75038704Y-75163351D01*
X75017962Y-75175765D01*
X74795233Y-75309065D01*
X74795229Y-75309068D01*
X74791551Y-75311269D01*
X74566758Y-75491362D01*
X74368488Y-75700295D01*
X74200407Y-75934205D01*
X74065626Y-76188761D01*
X73966640Y-76459254D01*
X73905279Y-76740679D01*
X73904943Y-76744949D01*
X73887861Y-76962000D01*
X73887500Y-76966583D01*
X73887500Y-79822403D01*
X59912500Y-79822403D01*
X59912500Y-76977597D01*
X59912354Y-76975450D01*
X59898137Y-76766908D01*
X59898136Y-76766902D01*
X59897845Y-76762631D01*
X59884620Y-76698767D01*
X59842503Y-76495394D01*
X59839435Y-76480579D01*
X59743287Y-76209065D01*
X59619774Y-75969764D01*
X59613144Y-75956918D01*
X59613144Y-75956917D01*
X59611179Y-75953111D01*
X59589623Y-75922439D01*
X59473668Y-75757452D01*
X59445557Y-75717454D01*
X59310883Y-75572528D01*
X59252406Y-75509599D01*
X59252403Y-75509597D01*
X59249485Y-75506456D01*
X59246170Y-75503742D01*
X59246166Y-75503739D01*
X59029909Y-75326735D01*
X59026591Y-75324019D01*
X58781000Y-75173521D01*
X58762860Y-75165558D01*
X58521184Y-75059469D01*
X58521180Y-75059468D01*
X58517256Y-75057745D01*
X58240240Y-74978835D01*
X58235998Y-74978231D01*
X58235992Y-74978230D01*
X57959328Y-74938855D01*
X57955077Y-74938250D01*
X57803201Y-74937455D01*
X57671331Y-74936764D01*
X57671325Y-74936764D01*
X57667045Y-74936742D01*
X57662800Y-74937301D01*
X57662798Y-74937301D01*
X57650995Y-74938855D01*
X57381473Y-74974339D01*
X57103646Y-75050343D01*
X57099698Y-75052027D01*
X56842656Y-75161665D01*
X56842652Y-75161667D01*
X56838704Y-75163351D01*
X56817962Y-75175765D01*
X56595233Y-75309065D01*
X56595229Y-75309068D01*
X56591551Y-75311269D01*
X56366758Y-75491362D01*
X56168488Y-75700295D01*
X56000407Y-75934205D01*
X55865626Y-76188761D01*
X55766640Y-76459254D01*
X55705279Y-76740679D01*
X55704943Y-76744949D01*
X55687861Y-76962000D01*
X55687500Y-76966583D01*
X55687500Y-79822403D01*
X51112500Y-79822403D01*
X51112500Y-76977597D01*
X51112354Y-76975450D01*
X51098137Y-76766908D01*
X51098136Y-76766902D01*
X51097845Y-76762631D01*
X51084620Y-76698767D01*
X51042503Y-76495394D01*
X51039435Y-76480579D01*
X50943287Y-76209065D01*
X50819774Y-75969764D01*
X50813144Y-75956918D01*
X50813144Y-75956917D01*
X50811179Y-75953111D01*
X50789623Y-75922439D01*
X50673668Y-75757452D01*
X50645557Y-75717454D01*
X50510883Y-75572528D01*
X50452406Y-75509599D01*
X50452403Y-75509597D01*
X50449485Y-75506456D01*
X50446170Y-75503742D01*
X50446166Y-75503739D01*
X50229909Y-75326735D01*
X50226591Y-75324019D01*
X49981000Y-75173521D01*
X49962860Y-75165558D01*
X49721184Y-75059469D01*
X49721180Y-75059468D01*
X49717256Y-75057745D01*
X49440240Y-74978835D01*
X49435998Y-74978231D01*
X49435992Y-74978230D01*
X49159328Y-74938855D01*
X49155077Y-74938250D01*
X49003201Y-74937455D01*
X48871331Y-74936764D01*
X48871325Y-74936764D01*
X48867045Y-74936742D01*
X48862800Y-74937301D01*
X48862798Y-74937301D01*
X48850995Y-74938855D01*
X48581473Y-74974339D01*
X48303646Y-75050343D01*
X48299698Y-75052027D01*
X48042656Y-75161665D01*
X48042652Y-75161667D01*
X48038704Y-75163351D01*
X48017962Y-75175765D01*
X47795233Y-75309065D01*
X47795229Y-75309068D01*
X47791551Y-75311269D01*
X47566758Y-75491362D01*
X47368488Y-75700295D01*
X47200407Y-75934205D01*
X47065626Y-76188761D01*
X46966640Y-76459254D01*
X46905279Y-76740679D01*
X46904943Y-76744949D01*
X46887861Y-76962000D01*
X46887500Y-76966583D01*
X46887500Y-79822403D01*
X37762500Y-79822403D01*
X37762500Y-76932753D01*
X38507117Y-76932753D01*
X38520489Y-77136779D01*
X38521911Y-77142378D01*
X38538444Y-77207474D01*
X38570819Y-77334951D01*
X38656419Y-77520633D01*
X38774424Y-77687606D01*
X38920882Y-77830279D01*
X38925678Y-77833484D01*
X38925681Y-77833486D01*
X38993903Y-77879070D01*
X39090887Y-77943872D01*
X39096190Y-77946150D01*
X39096193Y-77946152D01*
X39181198Y-77982673D01*
X39278746Y-78024583D01*
X39375772Y-78046538D01*
X39472532Y-78068433D01*
X39472535Y-78068433D01*
X39478168Y-78069708D01*
X39483939Y-78069935D01*
X39483941Y-78069935D01*
X39546646Y-78072398D01*
X39682473Y-78077735D01*
X39801344Y-78060500D01*
X39879099Y-78049226D01*
X39879103Y-78049225D01*
X39884821Y-78048396D01*
X39890293Y-78046538D01*
X39890295Y-78046538D01*
X40072965Y-77984529D01*
X40078433Y-77982673D01*
X40256826Y-77882768D01*
X40414026Y-77752026D01*
X40544768Y-77594826D01*
X40644673Y-77416433D01*
X40710396Y-77222821D01*
X40712102Y-77211060D01*
X40731405Y-77077923D01*
X40739735Y-77020473D01*
X40741266Y-76962000D01*
X40722557Y-76758394D01*
X40714467Y-76729707D01*
X40668627Y-76567172D01*
X40667058Y-76561608D01*
X40576626Y-76378230D01*
X40525649Y-76309963D01*
X40457743Y-76219027D01*
X40457743Y-76219026D01*
X40454290Y-76214403D01*
X40337578Y-76106515D01*
X40308388Y-76079532D01*
X40308385Y-76079530D01*
X40304148Y-76075613D01*
X40131228Y-75966509D01*
X40098802Y-75953572D01*
X40050258Y-75934205D01*
X39941321Y-75890743D01*
X39935653Y-75889616D01*
X39935651Y-75889615D01*
X39746454Y-75851982D01*
X39746450Y-75851982D01*
X39740786Y-75850855D01*
X39735011Y-75850779D01*
X39735007Y-75850779D01*
X39632466Y-75849437D01*
X39536340Y-75848178D01*
X39530643Y-75849157D01*
X39530642Y-75849157D01*
X39340527Y-75881825D01*
X39334830Y-75882804D01*
X39143005Y-75953572D01*
X39138044Y-75956524D01*
X39138043Y-75956524D01*
X38973400Y-76054477D01*
X38967288Y-76058113D01*
X38813564Y-76192925D01*
X38809992Y-76197456D01*
X38725957Y-76304054D01*
X38686982Y-76353493D01*
X38684294Y-76358602D01*
X38594470Y-76529329D01*
X38594468Y-76529334D01*
X38591781Y-76534441D01*
X38531149Y-76729707D01*
X38507117Y-76932753D01*
X37762500Y-76932753D01*
X37762500Y-74100000D01*
X51400000Y-74100000D01*
X55400000Y-74100000D01*
X55400000Y-73757753D01*
X61875117Y-73757753D01*
X61888489Y-73961779D01*
X61938819Y-74159951D01*
X62024419Y-74345633D01*
X62142424Y-74512606D01*
X62288882Y-74655279D01*
X62293678Y-74658484D01*
X62293681Y-74658486D01*
X62361903Y-74704070D01*
X62458887Y-74768872D01*
X62464190Y-74771150D01*
X62464193Y-74771152D01*
X62549198Y-74807673D01*
X62646746Y-74849583D01*
X62743772Y-74871538D01*
X62840532Y-74893433D01*
X62840535Y-74893433D01*
X62846168Y-74894708D01*
X62851939Y-74894935D01*
X62851941Y-74894935D01*
X62914646Y-74897398D01*
X63050473Y-74902735D01*
X63169344Y-74885500D01*
X63247099Y-74874226D01*
X63247103Y-74874225D01*
X63252821Y-74873396D01*
X63258293Y-74871538D01*
X63258295Y-74871538D01*
X63440965Y-74809529D01*
X63446433Y-74807673D01*
X63624826Y-74707768D01*
X63782026Y-74577026D01*
X63912768Y-74419826D01*
X64012673Y-74241433D01*
X64042232Y-74154356D01*
X64060684Y-74100000D01*
X78400000Y-74100000D01*
X82400000Y-74100000D01*
X82400000Y-73100000D01*
X78400000Y-73100000D01*
X78400000Y-74100000D01*
X64060684Y-74100000D01*
X64076538Y-74053295D01*
X64076538Y-74053293D01*
X64078396Y-74047821D01*
X64090872Y-73961779D01*
X64107202Y-73849147D01*
X64107735Y-73845473D01*
X64109266Y-73787000D01*
X64090557Y-73583394D01*
X64085652Y-73566000D01*
X64036627Y-73392172D01*
X64035058Y-73386608D01*
X63944626Y-73203230D01*
X63822290Y-73039403D01*
X63672148Y-72900613D01*
X63499228Y-72791509D01*
X63466802Y-72778572D01*
X63440093Y-72767916D01*
X63309321Y-72715743D01*
X63303653Y-72714616D01*
X63303651Y-72714615D01*
X63114454Y-72676982D01*
X63114450Y-72676982D01*
X63108786Y-72675855D01*
X63103011Y-72675779D01*
X63103007Y-72675779D01*
X63000466Y-72674437D01*
X62904340Y-72673178D01*
X62898643Y-72674157D01*
X62898642Y-72674157D01*
X62882202Y-72676982D01*
X62702830Y-72707804D01*
X62511005Y-72778572D01*
X62335288Y-72883113D01*
X62181564Y-73017925D01*
X62177992Y-73022456D01*
X62106181Y-73113548D01*
X62054982Y-73178493D01*
X62052294Y-73183602D01*
X61962470Y-73354329D01*
X61962468Y-73354334D01*
X61959781Y-73359441D01*
X61899149Y-73554707D01*
X61875117Y-73757753D01*
X55400000Y-73757753D01*
X55400000Y-73100000D01*
X51400000Y-73100000D01*
X51400000Y-74100000D01*
X37762500Y-74100000D01*
X37762500Y-69888500D01*
X37782502Y-69820379D01*
X37836158Y-69773886D01*
X37888500Y-69762500D01*
X162111500Y-69762500D01*
X162179621Y-69782502D01*
G37*
%TD.AperFunction*%
%TD*%
M02*
