M48
; DRILL file {KiCad (6.0.9-0)} date 2024 August 25, Sunday 20:50:42
; FORMAT={-:-/ absolute / inch / decimal}
; #@! TF.CreationDate,2024-08-25T20:50:42+02:00
; #@! TF.GenerationSoftware,Kicad,Pcbnew,(6.0.9-0)
; #@! TF.FileFunction,Plated,1,4,PTH
FMAT,2
INCH
; #@! TA.AperFunction,Plated,PTH,ViaDrill
T1C0.0118
; #@! TA.AperFunction,Plated,PTH,ViaDrill
T2C0.0157
; #@! TA.AperFunction,Plated,PTH,ComponentDrill
T3C0.0276
; #@! TA.AperFunction,Plated,PTH,ComponentDrill
T4C0.0394
; #@! TA.AperFunction,Plated,PTH,ComponentDrill
T5C0.0472
; #@! TA.AperFunction,Plated,PTH,ComponentDrill
T6C0.0709
; #@! TA.AperFunction,Plated,PTH,ComponentDrill
T7C0.0945
%
G90
G05
T1
X1.56Y-3.03
X1.81Y-3.15
X1.94Y-4.27
X1.94Y-4.6
X1.94Y-4.64
X1.98Y-3.88
X2.035Y-4.915
X2.09Y-4.695
X2.09Y-4.74
X2.09Y-4.915
X2.14Y-3.49
X2.21Y-3.49
X2.275Y-4.545
X2.48Y-2.905
X2.5Y-4.27
X2.525Y-2.905
X2.57Y-4.67
X2.61Y-4.67
X2.67Y-3.36
X2.73Y-3.64
X2.785Y-3.64
X2.945Y-3.64
X3.0Y-3.64
X3.3573Y-4.605
X3.5223Y-4.445
X3.5223Y-4.905
X3.5273Y-4.505
X3.72Y-3.07
X3.82Y-3.3346
X3.82Y-3.37
X3.83Y-4.01
X3.87Y-4.01
X3.93Y-3.49
X4.0Y-4.01
X4.05Y-4.01
X4.14Y-3.53
X4.1673Y-4.655
X5.645Y-3.5
X5.66Y-3.87
X5.69Y-3.5
X5.72Y-3.87
X5.725Y-3.405
X5.93Y-3.87
X6.19Y-4.23
X6.315Y-3.495
T2
X5.32Y-4.23
X5.748Y-3.4449
X5.75Y-4.56
T3
X1.72Y-4.15
X2.43Y-3.34
X2.76Y-4.15
X3.325Y-3.65
X3.4373Y-4.61
X3.85Y-3.56
X4.57Y-3.65
T4
X5.445Y-4.7835
X5.545Y-4.7835
X5.645Y-4.7835
X5.745Y-4.7835
X5.845Y-4.7835
X5.945Y-4.7835
X6.045Y-4.7835
X6.145Y-4.7835
T5
X2.0039Y-3.3622
X2.1024Y-3.3622
X2.2008Y-3.3622
X3.0669Y-3.3622
X3.1654Y-3.3622
X3.2638Y-3.3622
T7
X4.7992Y-2.9016
X4.7992Y-3.0866
X4.7992Y-3.2716
X5.6767Y-2.8963
X5.6767Y-3.0865
X5.6767Y-3.2766
X5.8668Y-2.8963
X5.8668Y-3.0865
X5.8668Y-3.2766
T6
G00X1.9291Y-3.0807
M15
G01X1.9291Y-3.0925
M16
G05
G00X2.2756Y-3.0807
M15
G01X2.2756Y-3.0925
M16
G05
G00X2.9921Y-3.0807
M15
G01X2.9921Y-3.0925
M16
G05
G00X3.3386Y-3.0807
M15
G01X3.3386Y-3.0925
M16
G05
T0
M30
