%TF.GenerationSoftware,KiCad,Pcbnew,(6.0.9-0)*%
%TF.CreationDate,2024-08-25T20:50:42+02:00*%
%TF.ProjectId,preamp-test,70726561-6d70-42d7-9465-73742e6b6963,rev?*%
%TF.SameCoordinates,Original*%
%TF.FileFunction,Legend,Top*%
%TF.FilePolarity,Positive*%
%FSLAX46Y46*%
G04 Gerber Fmt 4.6, Leading zero omitted, Abs format (unit mm)*
G04 Created by KiCad (PCBNEW (6.0.9-0)) date 2024-08-25 20:50:42*
%MOMM*%
%LPD*%
G01*
G04 APERTURE LIST*
%ADD10C,0.120000*%
%ADD11C,0.150000*%
%ADD12C,0.127000*%
%ADD13C,0.152400*%
%ADD14C,0.200000*%
%ADD15R,3.416000X3.416000*%
%ADD16O,3.416000X3.416000*%
%ADD17O,2.700000X5.400000*%
%ADD18R,1.800000X1.800000*%
%ADD19C,1.800000*%
%ADD20C,1.900000*%
%ADD21C,1.500000*%
%ADD22R,1.700000X1.700000*%
%ADD23O,1.700000X1.700000*%
G04 APERTURE END LIST*
D10*
X80061904Y-81695238D02*
X80633333Y-81695238D01*
X80747619Y-81733333D01*
X80823809Y-81809523D01*
X80861904Y-81923809D01*
X80861904Y-82000000D01*
X80861904Y-80933333D02*
X80861904Y-81314285D01*
X80061904Y-81314285D01*
X80785714Y-80209523D02*
X80823809Y-80247619D01*
X80861904Y-80361904D01*
X80861904Y-80438095D01*
X80823809Y-80552380D01*
X80747619Y-80628571D01*
X80671428Y-80666666D01*
X80519047Y-80704761D01*
X80404761Y-80704761D01*
X80252380Y-80666666D01*
X80176190Y-80628571D01*
X80100000Y-80552380D01*
X80061904Y-80438095D01*
X80061904Y-80361904D01*
X80100000Y-80247619D01*
X80138095Y-80209523D01*
X80061904Y-79638095D02*
X80633333Y-79638095D01*
X80747619Y-79676190D01*
X80823809Y-79752380D01*
X80861904Y-79866666D01*
X80861904Y-79942857D01*
X80861904Y-78876190D02*
X80861904Y-79257142D01*
X80061904Y-79257142D01*
X80785714Y-78152380D02*
X80823809Y-78190476D01*
X80861904Y-78304761D01*
X80861904Y-78380952D01*
X80823809Y-78495238D01*
X80747619Y-78571428D01*
X80671428Y-78609523D01*
X80519047Y-78647619D01*
X80404761Y-78647619D01*
X80252380Y-78609523D01*
X80176190Y-78571428D01*
X80100000Y-78495238D01*
X80061904Y-78380952D01*
X80061904Y-78304761D01*
X80100000Y-78190476D01*
X80138095Y-78152380D01*
X80061904Y-77580952D02*
X80633333Y-77580952D01*
X80747619Y-77619047D01*
X80823809Y-77695238D01*
X80861904Y-77809523D01*
X80861904Y-77885714D01*
X80861904Y-76819047D02*
X80861904Y-77200000D01*
X80061904Y-77200000D01*
X80785714Y-76095238D02*
X80823809Y-76133333D01*
X80861904Y-76247619D01*
X80861904Y-76323809D01*
X80823809Y-76438095D01*
X80747619Y-76514285D01*
X80671428Y-76552380D01*
X80519047Y-76590476D01*
X80404761Y-76590476D01*
X80252380Y-76552380D01*
X80176190Y-76514285D01*
X80100000Y-76438095D01*
X80061904Y-76323809D01*
X80061904Y-76247619D01*
X80100000Y-76133333D01*
X80138095Y-76095238D01*
X80061904Y-75523809D02*
X80633333Y-75523809D01*
X80747619Y-75561904D01*
X80823809Y-75638095D01*
X80861904Y-75752380D01*
X80861904Y-75828571D01*
X80861904Y-74761904D02*
X80861904Y-75142857D01*
X80061904Y-75142857D01*
X80785714Y-74038095D02*
X80823809Y-74076190D01*
X80861904Y-74190476D01*
X80861904Y-74266666D01*
X80823809Y-74380952D01*
X80747619Y-74457142D01*
X80671428Y-74495238D01*
X80519047Y-74533333D01*
X80404761Y-74533333D01*
X80252380Y-74495238D01*
X80176190Y-74457142D01*
X80100000Y-74380952D01*
X80061904Y-74266666D01*
X80061904Y-74190476D01*
X80100000Y-74076190D01*
X80138095Y-74038095D01*
D11*
%TO.C,RV2*%
X52161666Y-72094333D02*
X51695000Y-71427666D01*
X51361666Y-72094333D02*
X51361666Y-70694333D01*
X51895000Y-70694333D01*
X52028333Y-70761000D01*
X52095000Y-70827666D01*
X52161666Y-70961000D01*
X52161666Y-71161000D01*
X52095000Y-71294333D01*
X52028333Y-71361000D01*
X51895000Y-71427666D01*
X51361666Y-71427666D01*
X52561666Y-70694333D02*
X53028333Y-72094333D01*
X53495000Y-70694333D01*
X53895000Y-70827666D02*
X53961666Y-70761000D01*
X54095000Y-70694333D01*
X54428333Y-70694333D01*
X54561666Y-70761000D01*
X54628333Y-70827666D01*
X54695000Y-70961000D01*
X54695000Y-71094333D01*
X54628333Y-71294333D01*
X53828333Y-72094333D01*
X54695000Y-72094333D01*
%TO.C,RV1*%
X79161666Y-72094333D02*
X78695000Y-71427666D01*
X78361666Y-72094333D02*
X78361666Y-70694333D01*
X78895000Y-70694333D01*
X79028333Y-70761000D01*
X79095000Y-70827666D01*
X79161666Y-70961000D01*
X79161666Y-71161000D01*
X79095000Y-71294333D01*
X79028333Y-71361000D01*
X78895000Y-71427666D01*
X78361666Y-71427666D01*
X79561666Y-70694333D02*
X80028333Y-72094333D01*
X80495000Y-70694333D01*
X81695000Y-72094333D02*
X80895000Y-72094333D01*
X81295000Y-72094333D02*
X81295000Y-70694333D01*
X81161666Y-70894333D01*
X81028333Y-71027666D01*
X80895000Y-71094333D01*
%TO.C,kibuzzard-66CA6E97*%
G36*
X45011975Y-96710500D02*
G01*
X47158275Y-96710500D01*
X47158275Y-97313750D01*
X44332525Y-97313750D01*
X44332525Y-92868750D01*
X45011975Y-92868750D01*
X45011975Y-96710500D01*
G37*
G36*
X53330475Y-96640650D02*
G01*
X53374925Y-96640650D01*
X54282975Y-94138750D01*
X54943375Y-94138750D01*
X53743225Y-97313750D01*
X52955825Y-97313750D01*
X51749325Y-94138750D01*
X52416075Y-94138750D01*
X53330475Y-96640650D01*
G37*
G36*
X56353075Y-96281081D02*
G01*
X56549925Y-96586675D01*
X56842025Y-96784319D01*
X57210325Y-96850200D01*
X57576508Y-96795872D01*
X57836858Y-96632889D01*
X57991375Y-96361250D01*
X58613675Y-96361250D01*
X58443813Y-96785906D01*
X58137425Y-97107375D01*
X57718325Y-97309781D01*
X57210325Y-97377250D01*
X56780642Y-97327508D01*
X56405992Y-97178283D01*
X56086375Y-96929575D01*
X55842958Y-96600433D01*
X55696908Y-96209908D01*
X55648225Y-95758000D01*
X55681453Y-95434150D01*
X56276875Y-95434150D01*
X57997725Y-95434150D01*
X57936606Y-95099981D01*
X57765950Y-94834075D01*
X57506394Y-94660244D01*
X57178575Y-94602300D01*
X56849962Y-94661831D01*
X56575325Y-94840425D01*
X56376888Y-95107919D01*
X56276875Y-95434150D01*
X55681453Y-95434150D01*
X55696908Y-95283514D01*
X55842958Y-94876056D01*
X56086375Y-94535625D01*
X56402464Y-94279861D01*
X56766531Y-94126403D01*
X57178575Y-94075250D01*
X57569806Y-94121111D01*
X57913764Y-94258694D01*
X58210450Y-94488000D01*
X58437992Y-94804089D01*
X58574517Y-95202022D01*
X58620025Y-95681800D01*
X58607325Y-95891350D01*
X56270525Y-95891350D01*
X56353075Y-96281081D01*
G37*
G36*
X48733075Y-96281081D02*
G01*
X48929925Y-96586675D01*
X49222025Y-96784319D01*
X49590325Y-96850200D01*
X49956508Y-96795872D01*
X50216858Y-96632889D01*
X50371375Y-96361250D01*
X50993675Y-96361250D01*
X50823813Y-96785906D01*
X50517425Y-97107375D01*
X50098325Y-97309781D01*
X49590325Y-97377250D01*
X49160642Y-97327508D01*
X48785992Y-97178283D01*
X48466375Y-96929575D01*
X48222958Y-96600433D01*
X48076908Y-96209908D01*
X48028225Y-95758000D01*
X48061453Y-95434150D01*
X48656875Y-95434150D01*
X50377725Y-95434150D01*
X50316606Y-95099981D01*
X50145950Y-94834075D01*
X49886394Y-94660244D01*
X49558575Y-94602300D01*
X49229962Y-94661831D01*
X48955325Y-94840425D01*
X48756888Y-95107919D01*
X48656875Y-95434150D01*
X48061453Y-95434150D01*
X48076908Y-95283514D01*
X48222958Y-94876056D01*
X48466375Y-94535625D01*
X48782464Y-94279861D01*
X49146531Y-94126403D01*
X49558575Y-94075250D01*
X49949806Y-94121111D01*
X50293764Y-94258694D01*
X50590450Y-94488000D01*
X50817992Y-94804089D01*
X50954517Y-95202022D01*
X51000025Y-95681800D01*
X50987325Y-95891350D01*
X48650525Y-95891350D01*
X48733075Y-96281081D01*
G37*
G36*
X61248925Y-96812100D02*
G01*
X62347475Y-96812100D01*
X62347475Y-97313750D01*
X59502675Y-97313750D01*
X59502675Y-96812100D01*
X60601225Y-96812100D01*
X60601225Y-93370400D01*
X59566175Y-93370400D01*
X59566175Y-92868750D01*
X61248925Y-92868750D01*
X61248925Y-96812100D01*
G37*
D12*
%TO.C,SW1*%
X121900000Y-75860000D02*
X122154000Y-76114000D01*
D13*
X120249000Y-72050000D02*
X120249000Y-71415000D01*
X120249000Y-85385000D02*
X120249000Y-84750000D01*
D12*
X121900000Y-80940000D02*
X121646000Y-80686000D01*
D13*
X120249000Y-71415000D02*
X123551000Y-71415000D01*
D12*
X121900000Y-80940000D02*
X122154000Y-80686000D01*
D13*
X124186000Y-72050000D02*
X124186000Y-84750000D01*
X123551000Y-72050000D02*
X124186000Y-72050000D01*
X119614000Y-72050000D02*
X120249000Y-72050000D01*
X123551000Y-84750000D02*
X123551000Y-85385000D01*
X119614000Y-84750000D02*
X119614000Y-72050000D01*
D12*
X121900000Y-76368000D02*
X121900000Y-75860000D01*
D13*
X123551000Y-71415000D02*
X123551000Y-72050000D01*
D12*
X121900000Y-80432000D02*
X121900000Y-80940000D01*
D13*
X124186000Y-84750000D02*
X123551000Y-84750000D01*
X123551000Y-85385000D02*
X120249000Y-85385000D01*
D12*
X121900000Y-75860000D02*
X121646000Y-76114000D01*
D13*
X120249000Y-84750000D02*
X119614000Y-84750000D01*
D12*
%TO.C,RV2*%
X48550000Y-75380000D02*
X48550000Y-72900000D01*
X48550000Y-83900000D02*
X58250000Y-83900000D01*
X48550000Y-72900000D02*
X58250000Y-72900000D01*
X58250000Y-72900000D02*
X58250000Y-75380000D01*
X58250000Y-83900000D02*
X58250000Y-81420000D01*
X48550000Y-81420000D02*
X48550000Y-83900000D01*
D14*
X49100000Y-85400000D02*
G75*
G03*
X49100000Y-85400000I-100000J0D01*
G01*
D12*
%TO.C,RV1*%
X75550000Y-72900000D02*
X85250000Y-72900000D01*
X85250000Y-83900000D02*
X85250000Y-81420000D01*
X75550000Y-81420000D02*
X75550000Y-83900000D01*
X85250000Y-72900000D02*
X85250000Y-75380000D01*
X75550000Y-83900000D02*
X85250000Y-83900000D01*
X75550000Y-75380000D02*
X75550000Y-72900000D01*
D14*
X76100000Y-85400000D02*
G75*
G03*
X76100000Y-85400000I-100000J0D01*
G01*
%TO.C,kibuzzard-66CA6F40*%
G36*
X146329400Y-97409000D02*
G01*
X145887281Y-97351056D01*
X145538825Y-97177225D01*
X145312606Y-96890681D01*
X145237200Y-96494600D01*
X145243341Y-96462850D01*
X145884900Y-96462850D01*
X146034125Y-96793050D01*
X146424650Y-96901000D01*
X146747706Y-96853375D01*
X147031075Y-96710500D01*
X147228719Y-96469200D01*
X147294600Y-96126300D01*
X147294600Y-95891350D01*
X146538950Y-95967550D01*
X146175589Y-96050806D01*
X145957572Y-96215906D01*
X145884900Y-96462850D01*
X145243341Y-96462850D01*
X145311813Y-96108838D01*
X145535650Y-95815150D01*
X145881725Y-95618300D01*
X146323050Y-95523050D01*
X147294600Y-95421450D01*
X147294600Y-95269050D01*
X147252531Y-94998381D01*
X147126325Y-94795975D01*
X146925506Y-94669769D01*
X146659600Y-94627700D01*
X146344217Y-94690494D01*
X146126200Y-94878878D01*
X146005550Y-95192850D01*
X145364200Y-95192850D01*
X145484056Y-94755494D01*
X145754725Y-94408625D01*
X146157156Y-94182406D01*
X146672300Y-94107000D01*
X147184269Y-94183994D01*
X147589875Y-94414975D01*
X147854194Y-94788831D01*
X147942300Y-95294450D01*
X147942300Y-96596200D01*
X148183600Y-96850200D01*
X148259800Y-96850200D01*
X148259800Y-97345500D01*
X147974050Y-97345500D01*
X147585113Y-97247075D01*
X147383500Y-96951800D01*
X147105511Y-97205800D01*
X146754144Y-97358200D01*
X146424650Y-97397608D01*
X146329400Y-97409000D01*
G37*
G36*
X153498550Y-96312831D02*
G01*
X153695400Y-96618425D01*
X153987500Y-96816069D01*
X154355800Y-96881950D01*
X154721983Y-96827622D01*
X154982333Y-96664639D01*
X155136850Y-96393000D01*
X155759150Y-96393000D01*
X155589288Y-96817656D01*
X155282900Y-97139125D01*
X154863800Y-97341531D01*
X154355800Y-97409000D01*
X153926117Y-97359258D01*
X153551467Y-97210033D01*
X153231850Y-96961325D01*
X152988433Y-96632183D01*
X152842383Y-96241658D01*
X152793700Y-95789750D01*
X152826928Y-95465900D01*
X153422350Y-95465900D01*
X155143200Y-95465900D01*
X155082081Y-95131731D01*
X154911425Y-94865825D01*
X154651869Y-94691994D01*
X154324050Y-94634050D01*
X153995438Y-94693581D01*
X153720800Y-94872175D01*
X153522362Y-95139669D01*
X153422350Y-95465900D01*
X152826928Y-95465900D01*
X152842383Y-95315264D01*
X152988433Y-94907806D01*
X153231850Y-94567375D01*
X153547939Y-94311611D01*
X153912006Y-94158153D01*
X154324050Y-94107000D01*
X154715281Y-94152861D01*
X155059239Y-94290444D01*
X155355925Y-94519750D01*
X155583467Y-94835839D01*
X155719992Y-95233772D01*
X155765500Y-95713550D01*
X155752800Y-95923100D01*
X153416000Y-95923100D01*
X153498550Y-96312831D01*
G37*
G36*
X138252200Y-97345500D02*
G01*
X137604500Y-97345500D01*
X137604500Y-95046800D01*
X138252200Y-95046800D01*
X139084050Y-95046800D01*
X139443619Y-94994413D01*
X139709525Y-94837250D01*
X139873831Y-94588012D01*
X139928600Y-94259400D01*
X139873831Y-93941106D01*
X139709525Y-93697425D01*
X139453144Y-93542644D01*
X139122150Y-93491050D01*
X138252200Y-93491050D01*
X138252200Y-95046800D01*
X137604500Y-95046800D01*
X137604500Y-92900500D01*
X139236450Y-92900500D01*
X139627328Y-92942128D01*
X139961761Y-93067011D01*
X140239750Y-93275150D01*
X140447889Y-93551022D01*
X140572772Y-93879106D01*
X140614400Y-94259400D01*
X140572067Y-94650278D01*
X140445067Y-94984711D01*
X140233400Y-95262700D01*
X139949061Y-95470839D01*
X139604044Y-95595722D01*
X139198350Y-95637350D01*
X138252200Y-95637350D01*
X138252200Y-97345500D01*
G37*
G36*
X150975219Y-94174469D02*
G01*
X151374475Y-94376875D01*
X151630856Y-94676119D01*
X151733250Y-95034100D01*
X151104600Y-95034100D01*
X150898225Y-94722950D01*
X150444200Y-94602300D01*
X149993350Y-94710250D01*
X149815550Y-95021400D01*
X149967950Y-95288100D01*
X150177500Y-95370650D01*
X150501350Y-95453200D01*
X150768050Y-95516700D01*
X151227631Y-95663544D01*
X151552275Y-95862775D01*
X151745156Y-96128681D01*
X151809450Y-96475550D01*
X151717375Y-96877981D01*
X151441150Y-97170875D01*
X151026813Y-97349469D01*
X150520400Y-97409000D01*
X150100242Y-97377603D01*
X149754167Y-97283411D01*
X149482175Y-97126425D01*
X149209919Y-96793844D01*
X149098000Y-96361250D01*
X149726650Y-96361250D01*
X149843067Y-96668167D01*
X150107650Y-96852317D01*
X150520400Y-96913700D01*
X151015700Y-96808925D01*
X151212550Y-96488250D01*
X151050625Y-96192975D01*
X150835519Y-96084231D01*
X150514050Y-95992950D01*
X150215600Y-95929450D01*
X149775863Y-95800069D01*
X149459950Y-95627825D01*
X149269450Y-95387319D01*
X149205950Y-95053150D01*
X149294850Y-94657069D01*
X149561550Y-94357825D01*
X149960013Y-94169706D01*
X150444200Y-94107000D01*
X150975219Y-94174469D01*
G37*
G36*
X142113000Y-94564200D02*
G01*
X142157450Y-94564200D01*
X142405100Y-94310200D01*
X142724717Y-94157800D01*
X143116300Y-94107000D01*
X143596519Y-94189550D01*
X143970375Y-94437200D01*
X144210881Y-94832487D01*
X144291050Y-95357950D01*
X144291050Y-97345500D01*
X143643350Y-97345500D01*
X143643350Y-95472250D01*
X143591756Y-95116650D01*
X143436975Y-94862650D01*
X143201231Y-94710250D01*
X142906750Y-94659450D01*
X142589250Y-94713425D01*
X142335250Y-94875350D01*
X142168562Y-95145225D01*
X142113000Y-95523050D01*
X142113000Y-97345500D01*
X141465300Y-97345500D01*
X141465300Y-92837000D01*
X142113000Y-92837000D01*
X142113000Y-94564200D01*
G37*
%TO.C,kibuzzard-66CA6F29*%
G36*
X118553089Y-92876864D02*
G01*
X118876939Y-92996456D01*
X119151400Y-93195775D01*
X119368006Y-93466356D01*
X119518289Y-93799731D01*
X119602250Y-94195900D01*
X118903750Y-94195900D01*
X118752761Y-93783150D01*
X118511461Y-93535500D01*
X118179850Y-93452950D01*
X117773450Y-93564869D01*
X117468650Y-93900625D01*
X117327539Y-94243878D01*
X117242872Y-94676736D01*
X117214650Y-95199200D01*
X117253004Y-95782130D01*
X117368066Y-96235520D01*
X117559836Y-96559370D01*
X117828314Y-96753680D01*
X118173500Y-96818450D01*
X118509256Y-96758125D01*
X118767225Y-96577150D01*
X118931531Y-96283463D01*
X118986300Y-95885000D01*
X118986300Y-95529400D01*
X118141750Y-95529400D01*
X118141750Y-94996000D01*
X119634000Y-94996000D01*
X119634000Y-97345500D01*
X119119650Y-97345500D01*
X119043450Y-96964500D01*
X118999000Y-96964500D01*
X118684675Y-97262950D01*
X118407656Y-97372487D01*
X118052850Y-97409000D01*
X117603058Y-97345147D01*
X117227350Y-97153589D01*
X116925725Y-96834325D01*
X116752092Y-96516627D01*
X116628069Y-96138206D01*
X116553655Y-95699064D01*
X116528850Y-95199200D01*
X116556234Y-94673936D01*
X116638388Y-94209394D01*
X116775309Y-93805573D01*
X116967000Y-93462475D01*
X117296494Y-93114989D01*
X117700778Y-92906497D01*
X118179850Y-92837000D01*
X118553089Y-92876864D01*
G37*
G36*
X122726450Y-96081850D02*
G01*
X122770900Y-96081850D01*
X122770900Y-92900500D01*
X123393200Y-92900500D01*
X123393200Y-97345500D01*
X122720100Y-97345500D01*
X121138950Y-94170500D01*
X121094500Y-94170500D01*
X121094500Y-97345500D01*
X120472200Y-97345500D01*
X120472200Y-92900500D01*
X121145300Y-92900500D01*
X122726450Y-96081850D01*
G37*
G36*
X124282200Y-92900500D02*
G01*
X125406150Y-92900500D01*
X125842316Y-92937608D01*
X126223713Y-93048931D01*
X126550341Y-93234470D01*
X126822200Y-93494225D01*
X127036116Y-93817877D01*
X127188913Y-94195106D01*
X127280591Y-94625914D01*
X127311150Y-95110300D01*
X127280789Y-95600639D01*
X127189706Y-96036606D01*
X127037902Y-96418202D01*
X126825375Y-96745425D01*
X126554508Y-97007958D01*
X126227681Y-97195481D01*
X125844895Y-97307995D01*
X125406150Y-97345500D01*
X124282200Y-97345500D01*
X124282200Y-96742250D01*
X124948950Y-96742250D01*
X125368050Y-96742250D01*
X125749403Y-96696036D01*
X126063728Y-96557394D01*
X126311025Y-96326325D01*
X126489178Y-96006356D01*
X126596069Y-95601014D01*
X126631700Y-95110300D01*
X126596599Y-94619410D01*
X126491294Y-94217772D01*
X126315788Y-93905388D01*
X126070078Y-93682256D01*
X125754165Y-93548376D01*
X125368050Y-93503750D01*
X124948950Y-93503750D01*
X124948950Y-96742250D01*
X124282200Y-96742250D01*
X124282200Y-92900500D01*
G37*
%TO.C,kibuzzard-66CA6ECA*%
G36*
X86789419Y-94189550D02*
G01*
X87163275Y-94437200D01*
X87403781Y-94832487D01*
X87483950Y-95357950D01*
X87483950Y-97345500D01*
X86836250Y-97345500D01*
X86836250Y-95472250D01*
X86784656Y-95116650D01*
X86629875Y-94862650D01*
X86394131Y-94710250D01*
X86099650Y-94659450D01*
X85782150Y-94713425D01*
X85528150Y-94875350D01*
X85361463Y-95145225D01*
X85305900Y-95523050D01*
X85305900Y-97345500D01*
X84658200Y-97345500D01*
X84658200Y-94170500D01*
X85242400Y-94170500D01*
X85305900Y-94564200D01*
X85350350Y-94564200D01*
X85598000Y-94310200D01*
X85917617Y-94157800D01*
X86309200Y-94107000D01*
X86789419Y-94189550D01*
G37*
G36*
X82581750Y-96843850D02*
G01*
X83680300Y-96843850D01*
X83680300Y-97345500D01*
X80835500Y-97345500D01*
X80835500Y-96843850D01*
X81940400Y-96843850D01*
X81940400Y-94672150D01*
X80899000Y-94672150D01*
X80899000Y-94170500D01*
X82581750Y-94170500D01*
X82581750Y-96843850D01*
G37*
G36*
X75068289Y-92876864D02*
G01*
X75392139Y-92996456D01*
X75666600Y-93195775D01*
X75883206Y-93466356D01*
X76033489Y-93799731D01*
X76117450Y-94195900D01*
X75418950Y-94195900D01*
X75267961Y-93783150D01*
X75026661Y-93535500D01*
X74695050Y-93452950D01*
X74288650Y-93564869D01*
X73983850Y-93900625D01*
X73842739Y-94243878D01*
X73758072Y-94676736D01*
X73729850Y-95199200D01*
X73768204Y-95782130D01*
X73883266Y-96235520D01*
X74075036Y-96559370D01*
X74343514Y-96753680D01*
X74688700Y-96818450D01*
X75024456Y-96758125D01*
X75282425Y-96577150D01*
X75446731Y-96283463D01*
X75501500Y-95885000D01*
X75501500Y-95529400D01*
X74656950Y-95529400D01*
X74656950Y-94996000D01*
X76149200Y-94996000D01*
X76149200Y-97345500D01*
X75634850Y-97345500D01*
X75558650Y-96964500D01*
X75514200Y-96964500D01*
X75199875Y-97262950D01*
X74922856Y-97372487D01*
X74568050Y-97409000D01*
X74118258Y-97345147D01*
X73742550Y-97153589D01*
X73440925Y-96834325D01*
X73267292Y-96516627D01*
X73143269Y-96138206D01*
X73068855Y-95699064D01*
X73044050Y-95199200D01*
X73071434Y-94673936D01*
X73153587Y-94209394D01*
X73290509Y-93805573D01*
X73482200Y-93462475D01*
X73811694Y-93114989D01*
X74215978Y-92906497D01*
X74695050Y-92837000D01*
X75068289Y-92876864D01*
G37*
G36*
X78092300Y-97409000D02*
G01*
X77650181Y-97351056D01*
X77301725Y-97177225D01*
X77075506Y-96890681D01*
X77000100Y-96494600D01*
X77006241Y-96462850D01*
X77647800Y-96462850D01*
X77797025Y-96793050D01*
X78187550Y-96901000D01*
X78510606Y-96853375D01*
X78793975Y-96710500D01*
X78991619Y-96469200D01*
X79057500Y-96126300D01*
X79057500Y-95891350D01*
X78301850Y-95967550D01*
X77938489Y-96050806D01*
X77720472Y-96215906D01*
X77647800Y-96462850D01*
X77006241Y-96462850D01*
X77074712Y-96108838D01*
X77298550Y-95815150D01*
X77644625Y-95618300D01*
X78085950Y-95523050D01*
X79057500Y-95421450D01*
X79057500Y-95269050D01*
X79015431Y-94998381D01*
X78889225Y-94795975D01*
X78688406Y-94669769D01*
X78422500Y-94627700D01*
X78107117Y-94690494D01*
X77889100Y-94878878D01*
X77768450Y-95192850D01*
X77127100Y-95192850D01*
X77246956Y-94755494D01*
X77517625Y-94408625D01*
X77920056Y-94182406D01*
X78435200Y-94107000D01*
X78947169Y-94183994D01*
X79352775Y-94414975D01*
X79617094Y-94788831D01*
X79705200Y-95294450D01*
X79705200Y-96596200D01*
X79946500Y-96850200D01*
X80022700Y-96850200D01*
X80022700Y-97345500D01*
X79736950Y-97345500D01*
X79348013Y-97247075D01*
X79146400Y-96951800D01*
X78868411Y-97205800D01*
X78517044Y-97358200D01*
X78187550Y-97397608D01*
X78092300Y-97409000D01*
G37*
G36*
X82556350Y-92998925D02*
G01*
X82677000Y-93287850D01*
X82556350Y-93576775D01*
X82270600Y-93700600D01*
X81975325Y-93576775D01*
X81851500Y-93287850D01*
X81975325Y-92998925D01*
X82270600Y-92881450D01*
X82556350Y-92998925D01*
G37*
D12*
%TO.C,SW2*%
X146600000Y-79670000D02*
X146600000Y-80940000D01*
D13*
X142028000Y-85004000D02*
X142028000Y-71796000D01*
X150664000Y-71796000D02*
X151172000Y-71796000D01*
X151172000Y-71796000D02*
X151172000Y-85004000D01*
X142536000Y-71796000D02*
X142536000Y-71288000D01*
X150664000Y-85512000D02*
X142536000Y-85512000D01*
X150664000Y-71288000D02*
X150664000Y-71796000D01*
D12*
X146600000Y-77130000D02*
X146600000Y-75860000D01*
X146600000Y-80940000D02*
X145965000Y-80305000D01*
D13*
X151172000Y-85004000D02*
X150664000Y-85004000D01*
X142536000Y-85512000D02*
X142536000Y-85004000D01*
X142536000Y-85004000D02*
X142028000Y-85004000D01*
X150664000Y-85004000D02*
X150664000Y-85512000D01*
X142536000Y-71288000D02*
X150664000Y-71288000D01*
X142028000Y-71796000D02*
X142536000Y-71796000D01*
D12*
X146600000Y-80940000D02*
X147235000Y-80305000D01*
X146600000Y-75860000D02*
X145965000Y-76495000D01*
X146600000Y-75860000D02*
X147235000Y-76495000D01*
%TD*%
%LPC*%
D15*
%TO.C,SW1*%
X121900000Y-73701000D03*
D16*
X121900000Y-78400000D03*
X121900000Y-83099000D03*
%TD*%
D17*
%TO.C,RV2*%
X57800000Y-78400000D03*
X49000000Y-78400000D03*
D18*
X50900000Y-85400000D03*
D19*
X53400000Y-85400000D03*
X55900000Y-85400000D03*
%TD*%
D17*
%TO.C,RV1*%
X84800000Y-78400000D03*
X76000000Y-78400000D03*
D18*
X77900000Y-85400000D03*
D19*
X80400000Y-85400000D03*
X82900000Y-85400000D03*
%TD*%
D15*
%TO.C,SW2*%
X144187000Y-73566000D03*
D16*
X144187000Y-78396000D03*
X144187000Y-83226000D03*
X149017000Y-73566000D03*
X149017000Y-78396000D03*
X149017000Y-83226000D03*
%TD*%
D20*
%TO.C,J8*%
X152870000Y-91600000D03*
X140130000Y-91600000D03*
%TD*%
D21*
%TO.C,TP3*%
X84455000Y-92710000D03*
%TD*%
%TO.C,TP1*%
X87307500Y-117094000D03*
%TD*%
%TO.C,TP4*%
X116078000Y-92710000D03*
%TD*%
D20*
%TO.C,J9*%
X59870000Y-91600000D03*
X47130000Y-91600000D03*
%TD*%
D21*
%TO.C,TP7*%
X70104000Y-105410000D03*
%TD*%
%TO.C,TP2*%
X97790000Y-90424000D03*
%TD*%
%TO.C,TP6*%
X43688000Y-105410000D03*
%TD*%
D22*
%TO.C,J1*%
X138303000Y-121500000D03*
D23*
X140843000Y-121500000D03*
X143383000Y-121500000D03*
X145923000Y-121500000D03*
X148463000Y-121500000D03*
X151003000Y-121500000D03*
X153543000Y-121500000D03*
X156083000Y-121500000D03*
%TD*%
D21*
%TO.C,TP5*%
X61722000Y-84836000D03*
%TD*%
M02*
