%TF.GenerationSoftware,KiCad,Pcbnew,(6.0.9-0)*%
%TF.CreationDate,2024-08-25T20:50:42+02:00*%
%TF.ProjectId,preamp-test,70726561-6d70-42d7-9465-73742e6b6963,rev?*%
%TF.SameCoordinates,Original*%
%TF.FileFunction,Soldermask,Bot*%
%TF.FilePolarity,Negative*%
%FSLAX46Y46*%
G04 Gerber Fmt 4.6, Leading zero omitted, Abs format (unit mm)*
G04 Created by KiCad (PCBNEW (6.0.9-0)) date 2024-08-25 20:50:42*
%MOMM*%
%LPD*%
G01*
G04 APERTURE LIST*
G04 Aperture macros list*
%AMRoundRect*
0 Rectangle with rounded corners*
0 $1 Rounding radius*
0 $2 $3 $4 $5 $6 $7 $8 $9 X,Y pos of 4 corners*
0 Add a 4 corners polygon primitive as box body*
4,1,4,$2,$3,$4,$5,$6,$7,$8,$9,$2,$3,0*
0 Add four circle primitives for the rounded corners*
1,1,$1+$1,$2,$3*
1,1,$1+$1,$4,$5*
1,1,$1+$1,$6,$7*
1,1,$1+$1,$8,$9*
0 Add four rect primitives between the rounded corners*
20,1,$1+$1,$2,$3,$4,$5,0*
20,1,$1+$1,$4,$5,$6,$7,0*
20,1,$1+$1,$6,$7,$8,$9,0*
20,1,$1+$1,$8,$9,$2,$3,0*%
G04 Aperture macros list end*
%ADD10R,3.416000X3.416000*%
%ADD11O,3.416000X3.416000*%
%ADD12O,2.700000X5.400000*%
%ADD13R,1.800000X1.800000*%
%ADD14C,1.800000*%
%ADD15RoundRect,0.237500X0.237500X-0.250000X0.237500X0.250000X-0.237500X0.250000X-0.237500X-0.250000X0*%
%ADD16RoundRect,0.237500X-0.237500X0.250000X-0.237500X-0.250000X0.237500X-0.250000X0.237500X0.250000X0*%
%ADD17RoundRect,0.237500X0.237500X-0.300000X0.237500X0.300000X-0.237500X0.300000X-0.237500X-0.300000X0*%
%ADD18RoundRect,0.237500X0.250000X0.237500X-0.250000X0.237500X-0.250000X-0.237500X0.250000X-0.237500X0*%
%ADD19RoundRect,0.150000X-0.150000X0.587500X-0.150000X-0.587500X0.150000X-0.587500X0.150000X0.587500X0*%
%ADD20C,1.900000*%
%ADD21R,1.200000X2.000000*%
%ADD22R,1.000000X1.000000*%
%ADD23C,1.500000*%
%ADD24R,1.800000X3.500000*%
%ADD25RoundRect,0.237500X-0.237500X0.300000X-0.237500X-0.300000X0.237500X-0.300000X0.237500X0.300000X0*%
%ADD26RoundRect,0.237500X-0.300000X-0.237500X0.300000X-0.237500X0.300000X0.237500X-0.300000X0.237500X0*%
%ADD27RoundRect,0.150000X0.825000X0.150000X-0.825000X0.150000X-0.825000X-0.150000X0.825000X-0.150000X0*%
%ADD28R,0.800000X1.900000*%
%ADD29RoundRect,0.250000X0.650000X-0.412500X0.650000X0.412500X-0.650000X0.412500X-0.650000X-0.412500X0*%
%ADD30RoundRect,0.250000X-0.412500X-0.650000X0.412500X-0.650000X0.412500X0.650000X-0.412500X0.650000X0*%
%ADD31RoundRect,0.250000X0.550000X-1.050000X0.550000X1.050000X-0.550000X1.050000X-0.550000X-1.050000X0*%
%ADD32RoundRect,0.250000X-0.550000X1.500000X-0.550000X-1.500000X0.550000X-1.500000X0.550000X1.500000X0*%
%ADD33RoundRect,0.250000X-0.925000X0.875000X-0.925000X-0.875000X0.925000X-0.875000X0.925000X0.875000X0*%
%ADD34R,1.700000X1.700000*%
%ADD35O,1.700000X1.700000*%
%ADD36RoundRect,0.237500X-0.250000X-0.237500X0.250000X-0.237500X0.250000X0.237500X-0.250000X0.237500X0*%
%ADD37RoundRect,0.250000X0.925000X-0.875000X0.925000X0.875000X-0.925000X0.875000X-0.925000X-0.875000X0*%
G04 APERTURE END LIST*
D10*
%TO.C,SW1*%
X121900000Y-73701000D03*
D11*
X121900000Y-78400000D03*
X121900000Y-83099000D03*
%TD*%
D12*
%TO.C,RV2*%
X57800000Y-78400000D03*
X49000000Y-78400000D03*
D13*
X50900000Y-85400000D03*
D14*
X53400000Y-85400000D03*
X55900000Y-85400000D03*
%TD*%
D12*
%TO.C,RV1*%
X84800000Y-78400000D03*
X76000000Y-78400000D03*
D13*
X77900000Y-85400000D03*
D14*
X80400000Y-85400000D03*
X82900000Y-85400000D03*
%TD*%
D10*
%TO.C,SW2*%
X144187000Y-73566000D03*
D11*
X144187000Y-78396000D03*
X144187000Y-83226000D03*
X149017000Y-73566000D03*
X149017000Y-78396000D03*
X149017000Y-83226000D03*
%TD*%
D15*
%TO.C,R2*%
X83751500Y-120038500D03*
X83751500Y-118213500D03*
%TD*%
D16*
%TO.C,R7*%
X98552000Y-94845500D03*
X98552000Y-96670500D03*
%TD*%
D17*
%TO.C,C17*%
X50546000Y-118210500D03*
X50546000Y-116485500D03*
%TD*%
D18*
%TO.C,R5*%
X111783500Y-85471000D03*
X109958500Y-85471000D03*
%TD*%
D19*
%TO.C,Q1*%
X42484000Y-80088500D03*
X44384000Y-80088500D03*
X43434000Y-81963500D03*
%TD*%
D20*
%TO.C,J8*%
X152870000Y-91600000D03*
X140130000Y-91600000D03*
D21*
X142050000Y-90500000D03*
X143320000Y-96500000D03*
X144590000Y-90500000D03*
X145860000Y-96500000D03*
X147130000Y-90500000D03*
X148400000Y-96500000D03*
X149670000Y-90500000D03*
X150940000Y-96500000D03*
%TD*%
D22*
%TO.C,D1*%
X44684000Y-76454000D03*
X42184000Y-76454000D03*
%TD*%
D23*
%TO.C,TP3*%
X84455000Y-92710000D03*
%TD*%
D16*
%TO.C,R12*%
X72644000Y-79097500D03*
X72644000Y-80922500D03*
%TD*%
D24*
%TO.C,D3*%
X105410000Y-99274000D03*
X105410000Y-94274000D03*
%TD*%
D18*
%TO.C,R6*%
X111783500Y-87884000D03*
X109958500Y-87884000D03*
%TD*%
D25*
%TO.C,C6*%
X146177000Y-112675500D03*
X146177000Y-114400500D03*
%TD*%
D16*
%TO.C,R9*%
X99949000Y-99163500D03*
X99949000Y-100988500D03*
%TD*%
D23*
%TO.C,TP1*%
X87307500Y-117094000D03*
%TD*%
D26*
%TO.C,C20*%
X67463500Y-84074000D03*
X69188500Y-84074000D03*
%TD*%
D23*
%TO.C,TP4*%
X116078000Y-92710000D03*
%TD*%
D24*
%TO.C,D10*%
X41148000Y-110784000D03*
X41148000Y-115784000D03*
%TD*%
D20*
%TO.C,J9*%
X59870000Y-91600000D03*
X47130000Y-91600000D03*
D21*
X49050000Y-90500000D03*
X50320000Y-96500000D03*
X51590000Y-90500000D03*
X52860000Y-96500000D03*
X54130000Y-90500000D03*
X55400000Y-96500000D03*
X56670000Y-90500000D03*
X57940000Y-96500000D03*
%TD*%
D27*
%TO.C,U2*%
X106615000Y-84836000D03*
X106615000Y-86106000D03*
X106615000Y-87376000D03*
X106615000Y-88646000D03*
X101665000Y-88646000D03*
X101665000Y-87376000D03*
X101665000Y-86106000D03*
X101665000Y-84836000D03*
%TD*%
D24*
%TO.C,D5*%
X110490000Y-94274000D03*
X110490000Y-99274000D03*
%TD*%
D27*
%TO.C,U1*%
X101466500Y-115697000D03*
X101466500Y-116967000D03*
X101466500Y-118237000D03*
X101466500Y-119507000D03*
X96516500Y-119507000D03*
X96516500Y-118237000D03*
X96516500Y-116967000D03*
X96516500Y-115697000D03*
%TD*%
D23*
%TO.C,TP7*%
X70104000Y-105410000D03*
%TD*%
D28*
%TO.C,Q2*%
X86357500Y-120166000D03*
X88257500Y-120166000D03*
X87307500Y-123166000D03*
%TD*%
D24*
%TO.C,D8*%
X46228000Y-115824000D03*
X46228000Y-110824000D03*
%TD*%
D29*
%TO.C,C14*%
X63246000Y-114084500D03*
X63246000Y-110959500D03*
%TD*%
D22*
%TO.C,D6*%
X109073000Y-78740000D03*
X106573000Y-78740000D03*
%TD*%
D23*
%TO.C,TP2*%
X97790000Y-90424000D03*
%TD*%
D30*
%TO.C,C9*%
X98513500Y-78740000D03*
X101638500Y-78740000D03*
%TD*%
D25*
%TO.C,C16*%
X62230000Y-106833500D03*
X62230000Y-108558500D03*
%TD*%
D31*
%TO.C,C1*%
X91625500Y-115719000D03*
X91625500Y-112119000D03*
%TD*%
D15*
%TO.C,R8*%
X101473000Y-96670500D03*
X101473000Y-94845500D03*
%TD*%
D29*
%TO.C,C13*%
X50546000Y-114084500D03*
X50546000Y-110959500D03*
%TD*%
D23*
%TO.C,TP6*%
X43688000Y-105410000D03*
%TD*%
D32*
%TO.C,C8*%
X149860000Y-105101000D03*
X149860000Y-110501000D03*
%TD*%
%TO.C,C7*%
X142494000Y-105101000D03*
X142494000Y-110501000D03*
%TD*%
D17*
%TO.C,C19*%
X54356000Y-120750500D03*
X54356000Y-119025500D03*
%TD*%
D33*
%TO.C,C2*%
X105849500Y-115433000D03*
X105849500Y-120533000D03*
%TD*%
D34*
%TO.C,J1*%
X138303000Y-121500000D03*
D35*
X140843000Y-121500000D03*
X143383000Y-121500000D03*
X145923000Y-121500000D03*
X148463000Y-121500000D03*
X151003000Y-121500000D03*
X153543000Y-121500000D03*
X156083000Y-121500000D03*
%TD*%
D24*
%TO.C,D9*%
X67818000Y-115784000D03*
X67818000Y-110784000D03*
%TD*%
D15*
%TO.C,FB2*%
X59436000Y-108608500D03*
X59436000Y-106783500D03*
%TD*%
%TO.C,R4*%
X157226000Y-106173500D03*
X157226000Y-104348500D03*
%TD*%
D26*
%TO.C,C12*%
X104928500Y-91059000D03*
X106653500Y-91059000D03*
%TD*%
D24*
%TO.C,D2*%
X94615000Y-99274000D03*
X94615000Y-94274000D03*
%TD*%
D25*
%TO.C,C11*%
X98298000Y-84354500D03*
X98298000Y-86079500D03*
%TD*%
D36*
%TO.C,R10*%
X99671500Y-75692000D03*
X101496500Y-75692000D03*
%TD*%
D17*
%TO.C,C15*%
X50546000Y-108558500D03*
X50546000Y-106833500D03*
%TD*%
D25*
%TO.C,C4*%
X137922000Y-104398500D03*
X137922000Y-106123500D03*
%TD*%
D15*
%TO.C,R11*%
X94488000Y-81430500D03*
X94488000Y-79605500D03*
%TD*%
D27*
%TO.C,U4*%
X59371000Y-112903000D03*
X59371000Y-114173000D03*
X59371000Y-115443000D03*
X59371000Y-116713000D03*
X54421000Y-116713000D03*
X54421000Y-115443000D03*
X54421000Y-114173000D03*
X54421000Y-112903000D03*
%TD*%
D26*
%TO.C,C18*%
X62637500Y-75184000D03*
X64362500Y-75184000D03*
%TD*%
D22*
%TO.C,D7*%
X104120000Y-81407000D03*
X101620000Y-81407000D03*
%TD*%
D16*
%TO.C,R3*%
X135128000Y-104348500D03*
X135128000Y-106173500D03*
%TD*%
D27*
%TO.C,U3*%
X69277000Y-77851000D03*
X69277000Y-79121000D03*
X69277000Y-80391000D03*
X69277000Y-81661000D03*
X64327000Y-81661000D03*
X64327000Y-80391000D03*
X64327000Y-79121000D03*
X64327000Y-77851000D03*
%TD*%
D15*
%TO.C,R13*%
X60960000Y-79906500D03*
X60960000Y-78081500D03*
%TD*%
%TO.C,FB1*%
X54356000Y-108608500D03*
X54356000Y-106783500D03*
%TD*%
D24*
%TO.C,D4*%
X89408000Y-94274000D03*
X89408000Y-99274000D03*
%TD*%
D23*
%TO.C,TP5*%
X61722000Y-84836000D03*
%TD*%
D37*
%TO.C,C3*%
X91625500Y-124597000D03*
X91625500Y-119497000D03*
%TD*%
D24*
%TO.C,D11*%
X72898000Y-110784000D03*
X72898000Y-115784000D03*
%TD*%
D17*
%TO.C,C5*%
X154432000Y-106123500D03*
X154432000Y-104398500D03*
%TD*%
D16*
%TO.C,R1*%
X39624000Y-78439000D03*
X39624000Y-80264000D03*
%TD*%
D29*
%TO.C,C10*%
X94488000Y-87414500D03*
X94488000Y-84289500D03*
%TD*%
M02*
