%TF.GenerationSoftware,KiCad,Pcbnew,(6.0.9-0)*%
%TF.CreationDate,2024-08-25T20:50:42+02:00*%
%TF.ProjectId,preamp-test,70726561-6d70-42d7-9465-73742e6b6963,rev?*%
%TF.SameCoordinates,Original*%
%TF.FileFunction,Legend,Bot*%
%TF.FilePolarity,Positive*%
%FSLAX46Y46*%
G04 Gerber Fmt 4.6, Leading zero omitted, Abs format (unit mm)*
G04 Created by KiCad (PCBNEW (6.0.9-0)) date 2024-08-25 20:50:42*
%MOMM*%
%LPD*%
G01*
G04 APERTURE LIST*
G04 Aperture macros list*
%AMRoundRect*
0 Rectangle with rounded corners*
0 $1 Rounding radius*
0 $2 $3 $4 $5 $6 $7 $8 $9 X,Y pos of 4 corners*
0 Add a 4 corners polygon primitive as box body*
4,1,4,$2,$3,$4,$5,$6,$7,$8,$9,$2,$3,0*
0 Add four circle primitives for the rounded corners*
1,1,$1+$1,$2,$3*
1,1,$1+$1,$4,$5*
1,1,$1+$1,$6,$7*
1,1,$1+$1,$8,$9*
0 Add four rect primitives between the rounded corners*
20,1,$1+$1,$2,$3,$4,$5,0*
20,1,$1+$1,$4,$5,$6,$7,0*
20,1,$1+$1,$6,$7,$8,$9,0*
20,1,$1+$1,$8,$9,$2,$3,0*%
G04 Aperture macros list end*
%ADD10C,0.150000*%
%ADD11C,0.152400*%
%ADD12C,0.127000*%
%ADD13C,0.120000*%
%ADD14R,3.416000X3.416000*%
%ADD15O,3.416000X3.416000*%
%ADD16O,2.700000X5.400000*%
%ADD17R,1.800000X1.800000*%
%ADD18C,1.800000*%
%ADD19RoundRect,0.237500X0.237500X-0.250000X0.237500X0.250000X-0.237500X0.250000X-0.237500X-0.250000X0*%
%ADD20RoundRect,0.237500X-0.237500X0.250000X-0.237500X-0.250000X0.237500X-0.250000X0.237500X0.250000X0*%
%ADD21RoundRect,0.237500X0.237500X-0.300000X0.237500X0.300000X-0.237500X0.300000X-0.237500X-0.300000X0*%
%ADD22RoundRect,0.237500X0.250000X0.237500X-0.250000X0.237500X-0.250000X-0.237500X0.250000X-0.237500X0*%
%ADD23RoundRect,0.150000X-0.150000X0.587500X-0.150000X-0.587500X0.150000X-0.587500X0.150000X0.587500X0*%
%ADD24C,1.900000*%
%ADD25R,1.200000X2.000000*%
%ADD26R,1.000000X1.000000*%
%ADD27C,1.500000*%
%ADD28R,1.800000X3.500000*%
%ADD29RoundRect,0.237500X-0.237500X0.300000X-0.237500X-0.300000X0.237500X-0.300000X0.237500X0.300000X0*%
%ADD30RoundRect,0.237500X-0.300000X-0.237500X0.300000X-0.237500X0.300000X0.237500X-0.300000X0.237500X0*%
%ADD31RoundRect,0.150000X0.825000X0.150000X-0.825000X0.150000X-0.825000X-0.150000X0.825000X-0.150000X0*%
%ADD32R,0.800000X1.900000*%
%ADD33RoundRect,0.250000X0.650000X-0.412500X0.650000X0.412500X-0.650000X0.412500X-0.650000X-0.412500X0*%
%ADD34RoundRect,0.250000X-0.412500X-0.650000X0.412500X-0.650000X0.412500X0.650000X-0.412500X0.650000X0*%
%ADD35RoundRect,0.250000X0.550000X-1.050000X0.550000X1.050000X-0.550000X1.050000X-0.550000X-1.050000X0*%
%ADD36RoundRect,0.250000X-0.550000X1.500000X-0.550000X-1.500000X0.550000X-1.500000X0.550000X1.500000X0*%
%ADD37RoundRect,0.250000X-0.925000X0.875000X-0.925000X-0.875000X0.925000X-0.875000X0.925000X0.875000X0*%
%ADD38R,1.700000X1.700000*%
%ADD39O,1.700000X1.700000*%
%ADD40RoundRect,0.237500X-0.250000X-0.237500X0.250000X-0.237500X0.250000X0.237500X-0.250000X0.237500X0*%
%ADD41RoundRect,0.250000X0.925000X-0.875000X0.925000X0.875000X-0.925000X0.875000X-0.925000X-0.875000X0*%
G04 APERTURE END LIST*
D10*
%TO.C,R2*%
X82748380Y-118959333D02*
X82272190Y-118626000D01*
X82748380Y-118387904D02*
X81748380Y-118387904D01*
X81748380Y-118768857D01*
X81796000Y-118864095D01*
X81843619Y-118911714D01*
X81938857Y-118959333D01*
X82081714Y-118959333D01*
X82176952Y-118911714D01*
X82224571Y-118864095D01*
X82272190Y-118768857D01*
X82272190Y-118387904D01*
X81843619Y-119340285D02*
X81796000Y-119387904D01*
X81748380Y-119483142D01*
X81748380Y-119721238D01*
X81796000Y-119816476D01*
X81843619Y-119864095D01*
X81938857Y-119911714D01*
X82034095Y-119911714D01*
X82176952Y-119864095D01*
X82748380Y-119292666D01*
X82748380Y-119911714D01*
%TO.C,R7*%
X97574380Y-95591333D02*
X97098190Y-95258000D01*
X97574380Y-95019904D02*
X96574380Y-95019904D01*
X96574380Y-95400857D01*
X96622000Y-95496095D01*
X96669619Y-95543714D01*
X96764857Y-95591333D01*
X96907714Y-95591333D01*
X97002952Y-95543714D01*
X97050571Y-95496095D01*
X97098190Y-95400857D01*
X97098190Y-95019904D01*
X96574380Y-95924666D02*
X96574380Y-96591333D01*
X97574380Y-96162761D01*
%TO.C,C17*%
X48871142Y-118483142D02*
X48918761Y-118435523D01*
X48966380Y-118292666D01*
X48966380Y-118197428D01*
X48918761Y-118054571D01*
X48823523Y-117959333D01*
X48728285Y-117911714D01*
X48537809Y-117864095D01*
X48394952Y-117864095D01*
X48204476Y-117911714D01*
X48109238Y-117959333D01*
X48014000Y-118054571D01*
X47966380Y-118197428D01*
X47966380Y-118292666D01*
X48014000Y-118435523D01*
X48061619Y-118483142D01*
X48966380Y-119435523D02*
X48966380Y-118864095D01*
X48966380Y-119149809D02*
X47966380Y-119149809D01*
X48109238Y-119054571D01*
X48204476Y-118959333D01*
X48252095Y-118864095D01*
X47966380Y-119768857D02*
X47966380Y-120435523D01*
X48966380Y-120006952D01*
%TO.C,R5*%
X111037666Y-84653380D02*
X111371000Y-84177190D01*
X111609095Y-84653380D02*
X111609095Y-83653380D01*
X111228142Y-83653380D01*
X111132904Y-83701000D01*
X111085285Y-83748619D01*
X111037666Y-83843857D01*
X111037666Y-83986714D01*
X111085285Y-84081952D01*
X111132904Y-84129571D01*
X111228142Y-84177190D01*
X111609095Y-84177190D01*
X110132904Y-83653380D02*
X110609095Y-83653380D01*
X110656714Y-84129571D01*
X110609095Y-84081952D01*
X110513857Y-84034333D01*
X110275761Y-84034333D01*
X110180523Y-84081952D01*
X110132904Y-84129571D01*
X110085285Y-84224809D01*
X110085285Y-84462904D01*
X110132904Y-84558142D01*
X110180523Y-84605761D01*
X110275761Y-84653380D01*
X110513857Y-84653380D01*
X110609095Y-84605761D01*
X110656714Y-84558142D01*
%TO.C,Q1*%
X41581619Y-80930761D02*
X41534000Y-80835523D01*
X41438761Y-80740285D01*
X41295904Y-80597428D01*
X41248285Y-80502190D01*
X41248285Y-80406952D01*
X41486380Y-80454571D02*
X41438761Y-80359333D01*
X41343523Y-80264095D01*
X41153047Y-80216476D01*
X40819714Y-80216476D01*
X40629238Y-80264095D01*
X40534000Y-80359333D01*
X40486380Y-80454571D01*
X40486380Y-80645047D01*
X40534000Y-80740285D01*
X40629238Y-80835523D01*
X40819714Y-80883142D01*
X41153047Y-80883142D01*
X41343523Y-80835523D01*
X41438761Y-80740285D01*
X41486380Y-80645047D01*
X41486380Y-80454571D01*
X41486380Y-81835523D02*
X41486380Y-81264095D01*
X41486380Y-81549809D02*
X40486380Y-81549809D01*
X40629238Y-81454571D01*
X40724476Y-81359333D01*
X40772095Y-81264095D01*
%TO.C,J8*%
X140160333Y-87844380D02*
X140160333Y-88558666D01*
X140207952Y-88701523D01*
X140303190Y-88796761D01*
X140446047Y-88844380D01*
X140541285Y-88844380D01*
X139541285Y-88272952D02*
X139636523Y-88225333D01*
X139684142Y-88177714D01*
X139731761Y-88082476D01*
X139731761Y-88034857D01*
X139684142Y-87939619D01*
X139636523Y-87892000D01*
X139541285Y-87844380D01*
X139350809Y-87844380D01*
X139255571Y-87892000D01*
X139207952Y-87939619D01*
X139160333Y-88034857D01*
X139160333Y-88082476D01*
X139207952Y-88177714D01*
X139255571Y-88225333D01*
X139350809Y-88272952D01*
X139541285Y-88272952D01*
X139636523Y-88320571D01*
X139684142Y-88368190D01*
X139731761Y-88463428D01*
X139731761Y-88653904D01*
X139684142Y-88749142D01*
X139636523Y-88796761D01*
X139541285Y-88844380D01*
X139350809Y-88844380D01*
X139255571Y-88796761D01*
X139207952Y-88749142D01*
X139160333Y-88653904D01*
X139160333Y-88463428D01*
X139207952Y-88368190D01*
X139255571Y-88320571D01*
X139350809Y-88272952D01*
%TO.C,D1*%
X44172095Y-75056380D02*
X44172095Y-74056380D01*
X43934000Y-74056380D01*
X43791142Y-74104000D01*
X43695904Y-74199238D01*
X43648285Y-74294476D01*
X43600666Y-74484952D01*
X43600666Y-74627809D01*
X43648285Y-74818285D01*
X43695904Y-74913523D01*
X43791142Y-75008761D01*
X43934000Y-75056380D01*
X44172095Y-75056380D01*
X42648285Y-75056380D02*
X43219714Y-75056380D01*
X42934000Y-75056380D02*
X42934000Y-74056380D01*
X43029238Y-74199238D01*
X43124476Y-74294476D01*
X43219714Y-74342095D01*
%TO.C,TP3*%
X87288333Y-91003380D02*
X87859761Y-91003380D01*
X87574047Y-91003380D02*
X87574047Y-90003380D01*
X87669285Y-90146238D01*
X87764523Y-90241476D01*
X87859761Y-90289095D01*
X86383571Y-90003380D02*
X86859761Y-90003380D01*
X86907380Y-90479571D01*
X86859761Y-90431952D01*
X86764523Y-90384333D01*
X86526428Y-90384333D01*
X86431190Y-90431952D01*
X86383571Y-90479571D01*
X86335952Y-90574809D01*
X86335952Y-90812904D01*
X86383571Y-90908142D01*
X86431190Y-90955761D01*
X86526428Y-91003380D01*
X86764523Y-91003380D01*
X86859761Y-90955761D01*
X86907380Y-90908142D01*
X85383571Y-91003380D02*
X85955000Y-91003380D01*
X85669285Y-91003380D02*
X85669285Y-90003380D01*
X85764523Y-90146238D01*
X85859761Y-90241476D01*
X85955000Y-90289095D01*
X84764523Y-90003380D02*
X84669285Y-90003380D01*
X84574047Y-90051000D01*
X84526428Y-90098619D01*
X84478809Y-90193857D01*
X84431190Y-90384333D01*
X84431190Y-90622428D01*
X84478809Y-90812904D01*
X84526428Y-90908142D01*
X84574047Y-90955761D01*
X84669285Y-91003380D01*
X84764523Y-91003380D01*
X84859761Y-90955761D01*
X84907380Y-90908142D01*
X84955000Y-90812904D01*
X85002619Y-90622428D01*
X85002619Y-90384333D01*
X84955000Y-90193857D01*
X84907380Y-90098619D01*
X84859761Y-90051000D01*
X84764523Y-90003380D01*
X84240714Y-91098619D02*
X83478809Y-91098619D01*
X83240714Y-91003380D02*
X83240714Y-90003380D01*
X82764523Y-90336714D02*
X82764523Y-91003380D01*
X82764523Y-90431952D02*
X82716904Y-90384333D01*
X82621666Y-90336714D01*
X82478809Y-90336714D01*
X82383571Y-90384333D01*
X82335952Y-90479571D01*
X82335952Y-91003380D01*
X81859761Y-90622428D02*
X81097857Y-90622428D01*
X81478809Y-91003380D02*
X81478809Y-90241476D01*
%TO.C,R12*%
X71666380Y-79367142D02*
X71190190Y-79033809D01*
X71666380Y-78795714D02*
X70666380Y-78795714D01*
X70666380Y-79176666D01*
X70714000Y-79271904D01*
X70761619Y-79319523D01*
X70856857Y-79367142D01*
X70999714Y-79367142D01*
X71094952Y-79319523D01*
X71142571Y-79271904D01*
X71190190Y-79176666D01*
X71190190Y-78795714D01*
X71666380Y-80319523D02*
X71666380Y-79748095D01*
X71666380Y-80033809D02*
X70666380Y-80033809D01*
X70809238Y-79938571D01*
X70904476Y-79843333D01*
X70952095Y-79748095D01*
X70761619Y-80700476D02*
X70714000Y-80748095D01*
X70666380Y-80843333D01*
X70666380Y-81081428D01*
X70714000Y-81176666D01*
X70761619Y-81224285D01*
X70856857Y-81271904D01*
X70952095Y-81271904D01*
X71094952Y-81224285D01*
X71666380Y-80652857D01*
X71666380Y-81271904D01*
%TO.C,D3*%
X103449380Y-96035904D02*
X102449380Y-96035904D01*
X102449380Y-96274000D01*
X102497000Y-96416857D01*
X102592238Y-96512095D01*
X102687476Y-96559714D01*
X102877952Y-96607333D01*
X103020809Y-96607333D01*
X103211285Y-96559714D01*
X103306523Y-96512095D01*
X103401761Y-96416857D01*
X103449380Y-96274000D01*
X103449380Y-96035904D01*
X102449380Y-96940666D02*
X102449380Y-97559714D01*
X102830333Y-97226380D01*
X102830333Y-97369238D01*
X102877952Y-97464476D01*
X102925571Y-97512095D01*
X103020809Y-97559714D01*
X103258904Y-97559714D01*
X103354142Y-97512095D01*
X103401761Y-97464476D01*
X103449380Y-97369238D01*
X103449380Y-97083523D01*
X103401761Y-96988285D01*
X103354142Y-96940666D01*
%TO.C,R6*%
X111037666Y-87193380D02*
X111371000Y-86717190D01*
X111609095Y-87193380D02*
X111609095Y-86193380D01*
X111228142Y-86193380D01*
X111132904Y-86241000D01*
X111085285Y-86288619D01*
X111037666Y-86383857D01*
X111037666Y-86526714D01*
X111085285Y-86621952D01*
X111132904Y-86669571D01*
X111228142Y-86717190D01*
X111609095Y-86717190D01*
X110180523Y-86193380D02*
X110371000Y-86193380D01*
X110466238Y-86241000D01*
X110513857Y-86288619D01*
X110609095Y-86431476D01*
X110656714Y-86621952D01*
X110656714Y-87002904D01*
X110609095Y-87098142D01*
X110561476Y-87145761D01*
X110466238Y-87193380D01*
X110275761Y-87193380D01*
X110180523Y-87145761D01*
X110132904Y-87098142D01*
X110085285Y-87002904D01*
X110085285Y-86764809D01*
X110132904Y-86669571D01*
X110180523Y-86621952D01*
X110275761Y-86574333D01*
X110466238Y-86574333D01*
X110561476Y-86621952D01*
X110609095Y-86669571D01*
X110656714Y-86764809D01*
%TO.C,C6*%
X145104142Y-113371333D02*
X145151761Y-113323714D01*
X145199380Y-113180857D01*
X145199380Y-113085619D01*
X145151761Y-112942761D01*
X145056523Y-112847523D01*
X144961285Y-112799904D01*
X144770809Y-112752285D01*
X144627952Y-112752285D01*
X144437476Y-112799904D01*
X144342238Y-112847523D01*
X144247000Y-112942761D01*
X144199380Y-113085619D01*
X144199380Y-113180857D01*
X144247000Y-113323714D01*
X144294619Y-113371333D01*
X144199380Y-114228476D02*
X144199380Y-114038000D01*
X144247000Y-113942761D01*
X144294619Y-113895142D01*
X144437476Y-113799904D01*
X144627952Y-113752285D01*
X145008904Y-113752285D01*
X145104142Y-113799904D01*
X145151761Y-113847523D01*
X145199380Y-113942761D01*
X145199380Y-114133238D01*
X145151761Y-114228476D01*
X145104142Y-114276095D01*
X145008904Y-114323714D01*
X144770809Y-114323714D01*
X144675571Y-114276095D01*
X144627952Y-114228476D01*
X144580333Y-114133238D01*
X144580333Y-113942761D01*
X144627952Y-113847523D01*
X144675571Y-113799904D01*
X144770809Y-113752285D01*
%TO.C,R9*%
X98971380Y-99909333D02*
X98495190Y-99576000D01*
X98971380Y-99337904D02*
X97971380Y-99337904D01*
X97971380Y-99718857D01*
X98019000Y-99814095D01*
X98066619Y-99861714D01*
X98161857Y-99909333D01*
X98304714Y-99909333D01*
X98399952Y-99861714D01*
X98447571Y-99814095D01*
X98495190Y-99718857D01*
X98495190Y-99337904D01*
X98971380Y-100385523D02*
X98971380Y-100576000D01*
X98923761Y-100671238D01*
X98876142Y-100718857D01*
X98733285Y-100814095D01*
X98542809Y-100861714D01*
X98161857Y-100861714D01*
X98066619Y-100814095D01*
X98019000Y-100766476D01*
X97971380Y-100671238D01*
X97971380Y-100480761D01*
X98019000Y-100385523D01*
X98066619Y-100337904D01*
X98161857Y-100290285D01*
X98399952Y-100290285D01*
X98495190Y-100337904D01*
X98542809Y-100385523D01*
X98590428Y-100480761D01*
X98590428Y-100671238D01*
X98542809Y-100766476D01*
X98495190Y-100814095D01*
X98399952Y-100861714D01*
%TO.C,TP1*%
X88847214Y-115133428D02*
X88085309Y-115133428D01*
X87561500Y-115514380D02*
X87371023Y-115514380D01*
X87275785Y-115466761D01*
X87228166Y-115419142D01*
X87132928Y-115276285D01*
X87085309Y-115085809D01*
X87085309Y-114704857D01*
X87132928Y-114609619D01*
X87180547Y-114562000D01*
X87275785Y-114514380D01*
X87466261Y-114514380D01*
X87561500Y-114562000D01*
X87609119Y-114609619D01*
X87656738Y-114704857D01*
X87656738Y-114942952D01*
X87609119Y-115038190D01*
X87561500Y-115085809D01*
X87466261Y-115133428D01*
X87275785Y-115133428D01*
X87180547Y-115085809D01*
X87132928Y-115038190D01*
X87085309Y-114942952D01*
X86799595Y-114514380D02*
X86466261Y-115514380D01*
X86132928Y-114514380D01*
%TO.C,C20*%
X66397142Y-83558142D02*
X66444761Y-83510523D01*
X66492380Y-83367666D01*
X66492380Y-83272428D01*
X66444761Y-83129571D01*
X66349523Y-83034333D01*
X66254285Y-82986714D01*
X66063809Y-82939095D01*
X65920952Y-82939095D01*
X65730476Y-82986714D01*
X65635238Y-83034333D01*
X65540000Y-83129571D01*
X65492380Y-83272428D01*
X65492380Y-83367666D01*
X65540000Y-83510523D01*
X65587619Y-83558142D01*
X65587619Y-83939095D02*
X65540000Y-83986714D01*
X65492380Y-84081952D01*
X65492380Y-84320047D01*
X65540000Y-84415285D01*
X65587619Y-84462904D01*
X65682857Y-84510523D01*
X65778095Y-84510523D01*
X65920952Y-84462904D01*
X66492380Y-83891476D01*
X66492380Y-84510523D01*
X65492380Y-85129571D02*
X65492380Y-85224809D01*
X65540000Y-85320047D01*
X65587619Y-85367666D01*
X65682857Y-85415285D01*
X65873333Y-85462904D01*
X66111428Y-85462904D01*
X66301904Y-85415285D01*
X66397142Y-85367666D01*
X66444761Y-85320047D01*
X66492380Y-85224809D01*
X66492380Y-85129571D01*
X66444761Y-85034333D01*
X66397142Y-84986714D01*
X66301904Y-84939095D01*
X66111428Y-84891476D01*
X65873333Y-84891476D01*
X65682857Y-84939095D01*
X65587619Y-84986714D01*
X65540000Y-85034333D01*
X65492380Y-85129571D01*
%TO.C,TP4*%
X117339904Y-90514380D02*
X116768476Y-90514380D01*
X117054190Y-91514380D02*
X117054190Y-90514380D01*
X116435142Y-91514380D02*
X116435142Y-90514380D01*
X116054190Y-90514380D01*
X115958952Y-90562000D01*
X115911333Y-90609619D01*
X115863714Y-90704857D01*
X115863714Y-90847714D01*
X115911333Y-90942952D01*
X115958952Y-90990571D01*
X116054190Y-91038190D01*
X116435142Y-91038190D01*
X115006571Y-90847714D02*
X115006571Y-91514380D01*
X115244666Y-90466761D02*
X115482761Y-91181047D01*
X114863714Y-91181047D01*
X118911333Y-94912380D02*
X119482761Y-94912380D01*
X119197047Y-94912380D02*
X119197047Y-93912380D01*
X119292285Y-94055238D01*
X119387523Y-94150476D01*
X119482761Y-94198095D01*
X118006571Y-93912380D02*
X118482761Y-93912380D01*
X118530380Y-94388571D01*
X118482761Y-94340952D01*
X118387523Y-94293333D01*
X118149428Y-94293333D01*
X118054190Y-94340952D01*
X118006571Y-94388571D01*
X117958952Y-94483809D01*
X117958952Y-94721904D01*
X118006571Y-94817142D01*
X118054190Y-94864761D01*
X118149428Y-94912380D01*
X118387523Y-94912380D01*
X118482761Y-94864761D01*
X118530380Y-94817142D01*
X117006571Y-94912380D02*
X117578000Y-94912380D01*
X117292285Y-94912380D02*
X117292285Y-93912380D01*
X117387523Y-94055238D01*
X117482761Y-94150476D01*
X117578000Y-94198095D01*
X116387523Y-93912380D02*
X116292285Y-93912380D01*
X116197047Y-93960000D01*
X116149428Y-94007619D01*
X116101809Y-94102857D01*
X116054190Y-94293333D01*
X116054190Y-94531428D01*
X116101809Y-94721904D01*
X116149428Y-94817142D01*
X116197047Y-94864761D01*
X116292285Y-94912380D01*
X116387523Y-94912380D01*
X116482761Y-94864761D01*
X116530380Y-94817142D01*
X116578000Y-94721904D01*
X116625619Y-94531428D01*
X116625619Y-94293333D01*
X116578000Y-94102857D01*
X116530380Y-94007619D01*
X116482761Y-93960000D01*
X116387523Y-93912380D01*
X115863714Y-95007619D02*
X115101809Y-95007619D01*
X114863714Y-94912380D02*
X114863714Y-93912380D01*
X114387523Y-94245714D02*
X114387523Y-94912380D01*
X114387523Y-94340952D02*
X114339904Y-94293333D01*
X114244666Y-94245714D01*
X114101809Y-94245714D01*
X114006571Y-94293333D01*
X113958952Y-94388571D01*
X113958952Y-94912380D01*
X113482761Y-94531428D02*
X112720857Y-94531428D01*
%TO.C,D10*%
X39100380Y-112069714D02*
X38100380Y-112069714D01*
X38100380Y-112307809D01*
X38148000Y-112450666D01*
X38243238Y-112545904D01*
X38338476Y-112593523D01*
X38528952Y-112641142D01*
X38671809Y-112641142D01*
X38862285Y-112593523D01*
X38957523Y-112545904D01*
X39052761Y-112450666D01*
X39100380Y-112307809D01*
X39100380Y-112069714D01*
X39100380Y-113593523D02*
X39100380Y-113022095D01*
X39100380Y-113307809D02*
X38100380Y-113307809D01*
X38243238Y-113212571D01*
X38338476Y-113117333D01*
X38386095Y-113022095D01*
X38100380Y-114212571D02*
X38100380Y-114307809D01*
X38148000Y-114403047D01*
X38195619Y-114450666D01*
X38290857Y-114498285D01*
X38481333Y-114545904D01*
X38719428Y-114545904D01*
X38909904Y-114498285D01*
X39005142Y-114450666D01*
X39052761Y-114403047D01*
X39100380Y-114307809D01*
X39100380Y-114212571D01*
X39052761Y-114117333D01*
X39005142Y-114069714D01*
X38909904Y-114022095D01*
X38719428Y-113974476D01*
X38481333Y-113974476D01*
X38290857Y-114022095D01*
X38195619Y-114069714D01*
X38148000Y-114117333D01*
X38100380Y-114212571D01*
%TO.C,J9*%
X47196333Y-87590380D02*
X47196333Y-88304666D01*
X47243952Y-88447523D01*
X47339190Y-88542761D01*
X47482047Y-88590380D01*
X47577285Y-88590380D01*
X46672523Y-88590380D02*
X46482047Y-88590380D01*
X46386809Y-88542761D01*
X46339190Y-88495142D01*
X46243952Y-88352285D01*
X46196333Y-88161809D01*
X46196333Y-87780857D01*
X46243952Y-87685619D01*
X46291571Y-87638000D01*
X46386809Y-87590380D01*
X46577285Y-87590380D01*
X46672523Y-87638000D01*
X46720142Y-87685619D01*
X46767761Y-87780857D01*
X46767761Y-88018952D01*
X46720142Y-88114190D01*
X46672523Y-88161809D01*
X46577285Y-88209428D01*
X46386809Y-88209428D01*
X46291571Y-88161809D01*
X46243952Y-88114190D01*
X46196333Y-88018952D01*
%TO.C,U2*%
X104901904Y-82793380D02*
X104901904Y-83602904D01*
X104854285Y-83698142D01*
X104806666Y-83745761D01*
X104711428Y-83793380D01*
X104520952Y-83793380D01*
X104425714Y-83745761D01*
X104378095Y-83698142D01*
X104330476Y-83602904D01*
X104330476Y-82793380D01*
X103901904Y-82888619D02*
X103854285Y-82841000D01*
X103759047Y-82793380D01*
X103520952Y-82793380D01*
X103425714Y-82841000D01*
X103378095Y-82888619D01*
X103330476Y-82983857D01*
X103330476Y-83079095D01*
X103378095Y-83221952D01*
X103949523Y-83793380D01*
X103330476Y-83793380D01*
%TO.C,D5*%
X108442380Y-96035904D02*
X107442380Y-96035904D01*
X107442380Y-96274000D01*
X107490000Y-96416857D01*
X107585238Y-96512095D01*
X107680476Y-96559714D01*
X107870952Y-96607333D01*
X108013809Y-96607333D01*
X108204285Y-96559714D01*
X108299523Y-96512095D01*
X108394761Y-96416857D01*
X108442380Y-96274000D01*
X108442380Y-96035904D01*
X107442380Y-97512095D02*
X107442380Y-97035904D01*
X107918571Y-96988285D01*
X107870952Y-97035904D01*
X107823333Y-97131142D01*
X107823333Y-97369238D01*
X107870952Y-97464476D01*
X107918571Y-97512095D01*
X108013809Y-97559714D01*
X108251904Y-97559714D01*
X108347142Y-97512095D01*
X108394761Y-97464476D01*
X108442380Y-97369238D01*
X108442380Y-97131142D01*
X108394761Y-97035904D01*
X108347142Y-96988285D01*
%TO.C,U1*%
X99753404Y-113654380D02*
X99753404Y-114463904D01*
X99705785Y-114559142D01*
X99658166Y-114606761D01*
X99562928Y-114654380D01*
X99372452Y-114654380D01*
X99277214Y-114606761D01*
X99229595Y-114559142D01*
X99181976Y-114463904D01*
X99181976Y-113654380D01*
X98181976Y-114654380D02*
X98753404Y-114654380D01*
X98467690Y-114654380D02*
X98467690Y-113654380D01*
X98562928Y-113797238D01*
X98658166Y-113892476D01*
X98753404Y-113940095D01*
%TO.C,TP7*%
X73254761Y-103830380D02*
X73826190Y-103830380D01*
X73540476Y-103830380D02*
X73540476Y-102830380D01*
X73635714Y-102973238D01*
X73730952Y-103068476D01*
X73826190Y-103116095D01*
X72397619Y-102830380D02*
X72588095Y-102830380D01*
X72683333Y-102878000D01*
X72730952Y-102925619D01*
X72826190Y-103068476D01*
X72873809Y-103258952D01*
X72873809Y-103639904D01*
X72826190Y-103735142D01*
X72778571Y-103782761D01*
X72683333Y-103830380D01*
X72492857Y-103830380D01*
X72397619Y-103782761D01*
X72350000Y-103735142D01*
X72302380Y-103639904D01*
X72302380Y-103401809D01*
X72350000Y-103306571D01*
X72397619Y-103258952D01*
X72492857Y-103211333D01*
X72683333Y-103211333D01*
X72778571Y-103258952D01*
X72826190Y-103306571D01*
X72873809Y-103401809D01*
X71445238Y-103163714D02*
X71445238Y-103830380D01*
X71683333Y-102782761D02*
X71921428Y-103497047D01*
X71302380Y-103497047D01*
X70492857Y-102830380D02*
X70683333Y-102830380D01*
X70778571Y-102878000D01*
X70826190Y-102925619D01*
X70921428Y-103068476D01*
X70969047Y-103258952D01*
X70969047Y-103639904D01*
X70921428Y-103735142D01*
X70873809Y-103782761D01*
X70778571Y-103830380D01*
X70588095Y-103830380D01*
X70492857Y-103782761D01*
X70445238Y-103735142D01*
X70397619Y-103639904D01*
X70397619Y-103401809D01*
X70445238Y-103306571D01*
X70492857Y-103258952D01*
X70588095Y-103211333D01*
X70778571Y-103211333D01*
X70873809Y-103258952D01*
X70921428Y-103306571D01*
X70969047Y-103401809D01*
X70207142Y-103925619D02*
X69445238Y-103925619D01*
X69016666Y-102830380D02*
X68826190Y-102830380D01*
X68730952Y-102878000D01*
X68635714Y-102973238D01*
X68588095Y-103163714D01*
X68588095Y-103497047D01*
X68635714Y-103687523D01*
X68730952Y-103782761D01*
X68826190Y-103830380D01*
X69016666Y-103830380D01*
X69111904Y-103782761D01*
X69207142Y-103687523D01*
X69254761Y-103497047D01*
X69254761Y-103163714D01*
X69207142Y-102973238D01*
X69111904Y-102878000D01*
X69016666Y-102830380D01*
X67730952Y-103163714D02*
X67730952Y-103830380D01*
X68159523Y-103163714D02*
X68159523Y-103687523D01*
X68111904Y-103782761D01*
X68016666Y-103830380D01*
X67873809Y-103830380D01*
X67778571Y-103782761D01*
X67730952Y-103735142D01*
X67397619Y-103163714D02*
X67016666Y-103163714D01*
X67254761Y-102830380D02*
X67254761Y-103687523D01*
X67207142Y-103782761D01*
X67111904Y-103830380D01*
X67016666Y-103830380D01*
X66683333Y-103449428D02*
X65921428Y-103449428D01*
%TO.C,Q2*%
X85355119Y-121570761D02*
X85307500Y-121475523D01*
X85212261Y-121380285D01*
X85069404Y-121237428D01*
X85021785Y-121142190D01*
X85021785Y-121046952D01*
X85259880Y-121094571D02*
X85212261Y-120999333D01*
X85117023Y-120904095D01*
X84926547Y-120856476D01*
X84593214Y-120856476D01*
X84402738Y-120904095D01*
X84307500Y-120999333D01*
X84259880Y-121094571D01*
X84259880Y-121285047D01*
X84307500Y-121380285D01*
X84402738Y-121475523D01*
X84593214Y-121523142D01*
X84926547Y-121523142D01*
X85117023Y-121475523D01*
X85212261Y-121380285D01*
X85259880Y-121285047D01*
X85259880Y-121094571D01*
X84355119Y-121904095D02*
X84307500Y-121951714D01*
X84259880Y-122046952D01*
X84259880Y-122285047D01*
X84307500Y-122380285D01*
X84355119Y-122427904D01*
X84450357Y-122475523D01*
X84545595Y-122475523D01*
X84688452Y-122427904D01*
X85259880Y-121856476D01*
X85259880Y-122475523D01*
%TO.C,D8*%
X44140380Y-112545904D02*
X43140380Y-112545904D01*
X43140380Y-112784000D01*
X43188000Y-112926857D01*
X43283238Y-113022095D01*
X43378476Y-113069714D01*
X43568952Y-113117333D01*
X43711809Y-113117333D01*
X43902285Y-113069714D01*
X43997523Y-113022095D01*
X44092761Y-112926857D01*
X44140380Y-112784000D01*
X44140380Y-112545904D01*
X43568952Y-113688761D02*
X43521333Y-113593523D01*
X43473714Y-113545904D01*
X43378476Y-113498285D01*
X43330857Y-113498285D01*
X43235619Y-113545904D01*
X43188000Y-113593523D01*
X43140380Y-113688761D01*
X43140380Y-113879238D01*
X43188000Y-113974476D01*
X43235619Y-114022095D01*
X43330857Y-114069714D01*
X43378476Y-114069714D01*
X43473714Y-114022095D01*
X43521333Y-113974476D01*
X43568952Y-113879238D01*
X43568952Y-113688761D01*
X43616571Y-113593523D01*
X43664190Y-113545904D01*
X43759428Y-113498285D01*
X43949904Y-113498285D01*
X44045142Y-113545904D01*
X44092761Y-113593523D01*
X44140380Y-113688761D01*
X44140380Y-113879238D01*
X44092761Y-113974476D01*
X44045142Y-114022095D01*
X43949904Y-114069714D01*
X43759428Y-114069714D01*
X43664190Y-114022095D01*
X43616571Y-113974476D01*
X43568952Y-113879238D01*
%TO.C,C14*%
X61825142Y-111879142D02*
X61872761Y-111831523D01*
X61920380Y-111688666D01*
X61920380Y-111593428D01*
X61872761Y-111450571D01*
X61777523Y-111355333D01*
X61682285Y-111307714D01*
X61491809Y-111260095D01*
X61348952Y-111260095D01*
X61158476Y-111307714D01*
X61063238Y-111355333D01*
X60968000Y-111450571D01*
X60920380Y-111593428D01*
X60920380Y-111688666D01*
X60968000Y-111831523D01*
X61015619Y-111879142D01*
X61920380Y-112831523D02*
X61920380Y-112260095D01*
X61920380Y-112545809D02*
X60920380Y-112545809D01*
X61063238Y-112450571D01*
X61158476Y-112355333D01*
X61206095Y-112260095D01*
X61253714Y-113688666D02*
X61920380Y-113688666D01*
X60872761Y-113450571D02*
X61587047Y-113212476D01*
X61587047Y-113831523D01*
%TO.C,D6*%
X108561095Y-77342380D02*
X108561095Y-76342380D01*
X108323000Y-76342380D01*
X108180142Y-76390000D01*
X108084904Y-76485238D01*
X108037285Y-76580476D01*
X107989666Y-76770952D01*
X107989666Y-76913809D01*
X108037285Y-77104285D01*
X108084904Y-77199523D01*
X108180142Y-77294761D01*
X108323000Y-77342380D01*
X108561095Y-77342380D01*
X107132523Y-76342380D02*
X107323000Y-76342380D01*
X107418238Y-76390000D01*
X107465857Y-76437619D01*
X107561095Y-76580476D01*
X107608714Y-76770952D01*
X107608714Y-77151904D01*
X107561095Y-77247142D01*
X107513476Y-77294761D01*
X107418238Y-77342380D01*
X107227761Y-77342380D01*
X107132523Y-77294761D01*
X107084904Y-77247142D01*
X107037285Y-77151904D01*
X107037285Y-76913809D01*
X107084904Y-76818571D01*
X107132523Y-76770952D01*
X107227761Y-76723333D01*
X107418238Y-76723333D01*
X107513476Y-76770952D01*
X107561095Y-76818571D01*
X107608714Y-76913809D01*
%TO.C,TP2*%
X95749714Y-90876380D02*
X96321142Y-90876380D01*
X96035428Y-90876380D02*
X96035428Y-89876380D01*
X96130666Y-90019238D01*
X96225904Y-90114476D01*
X96321142Y-90162095D01*
X94844952Y-89876380D02*
X95321142Y-89876380D01*
X95368761Y-90352571D01*
X95321142Y-90304952D01*
X95225904Y-90257333D01*
X94987809Y-90257333D01*
X94892571Y-90304952D01*
X94844952Y-90352571D01*
X94797333Y-90447809D01*
X94797333Y-90685904D01*
X94844952Y-90781142D01*
X94892571Y-90828761D01*
X94987809Y-90876380D01*
X95225904Y-90876380D01*
X95321142Y-90828761D01*
X95368761Y-90781142D01*
X93844952Y-90876380D02*
X94416380Y-90876380D01*
X94130666Y-90876380D02*
X94130666Y-89876380D01*
X94225904Y-90019238D01*
X94321142Y-90114476D01*
X94416380Y-90162095D01*
X93225904Y-89876380D02*
X93130666Y-89876380D01*
X93035428Y-89924000D01*
X92987809Y-89971619D01*
X92940190Y-90066857D01*
X92892571Y-90257333D01*
X92892571Y-90495428D01*
X92940190Y-90685904D01*
X92987809Y-90781142D01*
X93035428Y-90828761D01*
X93130666Y-90876380D01*
X93225904Y-90876380D01*
X93321142Y-90828761D01*
X93368761Y-90781142D01*
X93416380Y-90685904D01*
X93464000Y-90495428D01*
X93464000Y-90257333D01*
X93416380Y-90066857D01*
X93368761Y-89971619D01*
X93321142Y-89924000D01*
X93225904Y-89876380D01*
X92702095Y-90971619D02*
X91940190Y-90971619D01*
X91511619Y-89876380D02*
X91321142Y-89876380D01*
X91225904Y-89924000D01*
X91130666Y-90019238D01*
X91083047Y-90209714D01*
X91083047Y-90543047D01*
X91130666Y-90733523D01*
X91225904Y-90828761D01*
X91321142Y-90876380D01*
X91511619Y-90876380D01*
X91606857Y-90828761D01*
X91702095Y-90733523D01*
X91749714Y-90543047D01*
X91749714Y-90209714D01*
X91702095Y-90019238D01*
X91606857Y-89924000D01*
X91511619Y-89876380D01*
X90225904Y-90209714D02*
X90225904Y-90876380D01*
X90654476Y-90209714D02*
X90654476Y-90733523D01*
X90606857Y-90828761D01*
X90511619Y-90876380D01*
X90368761Y-90876380D01*
X90273523Y-90828761D01*
X90225904Y-90781142D01*
X89892571Y-90209714D02*
X89511619Y-90209714D01*
X89749714Y-89876380D02*
X89749714Y-90733523D01*
X89702095Y-90828761D01*
X89606857Y-90876380D01*
X89511619Y-90876380D01*
%TO.C,C9*%
X100242666Y-77446142D02*
X100290285Y-77493761D01*
X100433142Y-77541380D01*
X100528380Y-77541380D01*
X100671238Y-77493761D01*
X100766476Y-77398523D01*
X100814095Y-77303285D01*
X100861714Y-77112809D01*
X100861714Y-76969952D01*
X100814095Y-76779476D01*
X100766476Y-76684238D01*
X100671238Y-76589000D01*
X100528380Y-76541380D01*
X100433142Y-76541380D01*
X100290285Y-76589000D01*
X100242666Y-76636619D01*
X99766476Y-77541380D02*
X99576000Y-77541380D01*
X99480761Y-77493761D01*
X99433142Y-77446142D01*
X99337904Y-77303285D01*
X99290285Y-77112809D01*
X99290285Y-76731857D01*
X99337904Y-76636619D01*
X99385523Y-76589000D01*
X99480761Y-76541380D01*
X99671238Y-76541380D01*
X99766476Y-76589000D01*
X99814095Y-76636619D01*
X99861714Y-76731857D01*
X99861714Y-76969952D01*
X99814095Y-77065190D01*
X99766476Y-77112809D01*
X99671238Y-77160428D01*
X99480761Y-77160428D01*
X99385523Y-77112809D01*
X99337904Y-77065190D01*
X99290285Y-76969952D01*
%TO.C,C16*%
X61157142Y-107053142D02*
X61204761Y-107005523D01*
X61252380Y-106862666D01*
X61252380Y-106767428D01*
X61204761Y-106624571D01*
X61109523Y-106529333D01*
X61014285Y-106481714D01*
X60823809Y-106434095D01*
X60680952Y-106434095D01*
X60490476Y-106481714D01*
X60395238Y-106529333D01*
X60300000Y-106624571D01*
X60252380Y-106767428D01*
X60252380Y-106862666D01*
X60300000Y-107005523D01*
X60347619Y-107053142D01*
X61252380Y-108005523D02*
X61252380Y-107434095D01*
X61252380Y-107719809D02*
X60252380Y-107719809D01*
X60395238Y-107624571D01*
X60490476Y-107529333D01*
X60538095Y-107434095D01*
X60252380Y-108862666D02*
X60252380Y-108672190D01*
X60300000Y-108576952D01*
X60347619Y-108529333D01*
X60490476Y-108434095D01*
X60680952Y-108386476D01*
X61061904Y-108386476D01*
X61157142Y-108434095D01*
X61204761Y-108481714D01*
X61252380Y-108576952D01*
X61252380Y-108767428D01*
X61204761Y-108862666D01*
X61157142Y-108910285D01*
X61061904Y-108957904D01*
X60823809Y-108957904D01*
X60728571Y-108910285D01*
X60680952Y-108862666D01*
X60633333Y-108767428D01*
X60633333Y-108576952D01*
X60680952Y-108481714D01*
X60728571Y-108434095D01*
X60823809Y-108386476D01*
%TO.C,C1*%
X94019666Y-111101142D02*
X94067285Y-111148761D01*
X94210142Y-111196380D01*
X94305380Y-111196380D01*
X94448238Y-111148761D01*
X94543476Y-111053523D01*
X94591095Y-110958285D01*
X94638714Y-110767809D01*
X94638714Y-110624952D01*
X94591095Y-110434476D01*
X94543476Y-110339238D01*
X94448238Y-110244000D01*
X94305380Y-110196380D01*
X94210142Y-110196380D01*
X94067285Y-110244000D01*
X94019666Y-110291619D01*
X93067285Y-111196380D02*
X93638714Y-111196380D01*
X93353000Y-111196380D02*
X93353000Y-110196380D01*
X93448238Y-110339238D01*
X93543476Y-110434476D01*
X93638714Y-110482095D01*
%TO.C,R8*%
X100528380Y-95591333D02*
X100052190Y-95258000D01*
X100528380Y-95019904D02*
X99528380Y-95019904D01*
X99528380Y-95400857D01*
X99576000Y-95496095D01*
X99623619Y-95543714D01*
X99718857Y-95591333D01*
X99861714Y-95591333D01*
X99956952Y-95543714D01*
X100004571Y-95496095D01*
X100052190Y-95400857D01*
X100052190Y-95019904D01*
X99956952Y-96162761D02*
X99909333Y-96067523D01*
X99861714Y-96019904D01*
X99766476Y-95972285D01*
X99718857Y-95972285D01*
X99623619Y-96019904D01*
X99576000Y-96067523D01*
X99528380Y-96162761D01*
X99528380Y-96353238D01*
X99576000Y-96448476D01*
X99623619Y-96496095D01*
X99718857Y-96543714D01*
X99766476Y-96543714D01*
X99861714Y-96496095D01*
X99909333Y-96448476D01*
X99956952Y-96353238D01*
X99956952Y-96162761D01*
X100004571Y-96067523D01*
X100052190Y-96019904D01*
X100147428Y-95972285D01*
X100337904Y-95972285D01*
X100433142Y-96019904D01*
X100480761Y-96067523D01*
X100528380Y-96162761D01*
X100528380Y-96353238D01*
X100480761Y-96448476D01*
X100433142Y-96496095D01*
X100337904Y-96543714D01*
X100147428Y-96543714D01*
X100052190Y-96496095D01*
X100004571Y-96448476D01*
X99956952Y-96353238D01*
%TO.C,C13*%
X49252142Y-111879142D02*
X49299761Y-111831523D01*
X49347380Y-111688666D01*
X49347380Y-111593428D01*
X49299761Y-111450571D01*
X49204523Y-111355333D01*
X49109285Y-111307714D01*
X48918809Y-111260095D01*
X48775952Y-111260095D01*
X48585476Y-111307714D01*
X48490238Y-111355333D01*
X48395000Y-111450571D01*
X48347380Y-111593428D01*
X48347380Y-111688666D01*
X48395000Y-111831523D01*
X48442619Y-111879142D01*
X49347380Y-112831523D02*
X49347380Y-112260095D01*
X49347380Y-112545809D02*
X48347380Y-112545809D01*
X48490238Y-112450571D01*
X48585476Y-112355333D01*
X48633095Y-112260095D01*
X48347380Y-113164857D02*
X48347380Y-113783904D01*
X48728333Y-113450571D01*
X48728333Y-113593428D01*
X48775952Y-113688666D01*
X48823571Y-113736285D01*
X48918809Y-113783904D01*
X49156904Y-113783904D01*
X49252142Y-113736285D01*
X49299761Y-113688666D01*
X49347380Y-113593428D01*
X49347380Y-113307714D01*
X49299761Y-113212476D01*
X49252142Y-113164857D01*
%TO.C,TP6*%
X47092761Y-103830380D02*
X47664190Y-103830380D01*
X47378476Y-103830380D02*
X47378476Y-102830380D01*
X47473714Y-102973238D01*
X47568952Y-103068476D01*
X47664190Y-103116095D01*
X46235619Y-102830380D02*
X46426095Y-102830380D01*
X46521333Y-102878000D01*
X46568952Y-102925619D01*
X46664190Y-103068476D01*
X46711809Y-103258952D01*
X46711809Y-103639904D01*
X46664190Y-103735142D01*
X46616571Y-103782761D01*
X46521333Y-103830380D01*
X46330857Y-103830380D01*
X46235619Y-103782761D01*
X46188000Y-103735142D01*
X46140380Y-103639904D01*
X46140380Y-103401809D01*
X46188000Y-103306571D01*
X46235619Y-103258952D01*
X46330857Y-103211333D01*
X46521333Y-103211333D01*
X46616571Y-103258952D01*
X46664190Y-103306571D01*
X46711809Y-103401809D01*
X45283238Y-103163714D02*
X45283238Y-103830380D01*
X45521333Y-102782761D02*
X45759428Y-103497047D01*
X45140380Y-103497047D01*
X44330857Y-102830380D02*
X44521333Y-102830380D01*
X44616571Y-102878000D01*
X44664190Y-102925619D01*
X44759428Y-103068476D01*
X44807047Y-103258952D01*
X44807047Y-103639904D01*
X44759428Y-103735142D01*
X44711809Y-103782761D01*
X44616571Y-103830380D01*
X44426095Y-103830380D01*
X44330857Y-103782761D01*
X44283238Y-103735142D01*
X44235619Y-103639904D01*
X44235619Y-103401809D01*
X44283238Y-103306571D01*
X44330857Y-103258952D01*
X44426095Y-103211333D01*
X44616571Y-103211333D01*
X44711809Y-103258952D01*
X44759428Y-103306571D01*
X44807047Y-103401809D01*
X44045142Y-103925619D02*
X43283238Y-103925619D01*
X42854666Y-102830380D02*
X42664190Y-102830380D01*
X42568952Y-102878000D01*
X42473714Y-102973238D01*
X42426095Y-103163714D01*
X42426095Y-103497047D01*
X42473714Y-103687523D01*
X42568952Y-103782761D01*
X42664190Y-103830380D01*
X42854666Y-103830380D01*
X42949904Y-103782761D01*
X43045142Y-103687523D01*
X43092761Y-103497047D01*
X43092761Y-103163714D01*
X43045142Y-102973238D01*
X42949904Y-102878000D01*
X42854666Y-102830380D01*
X41568952Y-103163714D02*
X41568952Y-103830380D01*
X41997523Y-103163714D02*
X41997523Y-103687523D01*
X41949904Y-103782761D01*
X41854666Y-103830380D01*
X41711809Y-103830380D01*
X41616571Y-103782761D01*
X41568952Y-103735142D01*
X41235619Y-103163714D02*
X40854666Y-103163714D01*
X41092761Y-102830380D02*
X41092761Y-103687523D01*
X41045142Y-103782761D01*
X40949904Y-103830380D01*
X40854666Y-103830380D01*
X40521333Y-103449428D02*
X39759428Y-103449428D01*
X40140380Y-103830380D02*
X40140380Y-103068476D01*
%TO.C,C8*%
X150026666Y-102465142D02*
X150074285Y-102512761D01*
X150217142Y-102560380D01*
X150312380Y-102560380D01*
X150455238Y-102512761D01*
X150550476Y-102417523D01*
X150598095Y-102322285D01*
X150645714Y-102131809D01*
X150645714Y-101988952D01*
X150598095Y-101798476D01*
X150550476Y-101703238D01*
X150455238Y-101608000D01*
X150312380Y-101560380D01*
X150217142Y-101560380D01*
X150074285Y-101608000D01*
X150026666Y-101655619D01*
X149455238Y-101988952D02*
X149550476Y-101941333D01*
X149598095Y-101893714D01*
X149645714Y-101798476D01*
X149645714Y-101750857D01*
X149598095Y-101655619D01*
X149550476Y-101608000D01*
X149455238Y-101560380D01*
X149264761Y-101560380D01*
X149169523Y-101608000D01*
X149121904Y-101655619D01*
X149074285Y-101750857D01*
X149074285Y-101798476D01*
X149121904Y-101893714D01*
X149169523Y-101941333D01*
X149264761Y-101988952D01*
X149455238Y-101988952D01*
X149550476Y-102036571D01*
X149598095Y-102084190D01*
X149645714Y-102179428D01*
X149645714Y-102369904D01*
X149598095Y-102465142D01*
X149550476Y-102512761D01*
X149455238Y-102560380D01*
X149264761Y-102560380D01*
X149169523Y-102512761D01*
X149121904Y-102465142D01*
X149074285Y-102369904D01*
X149074285Y-102179428D01*
X149121904Y-102084190D01*
X149169523Y-102036571D01*
X149264761Y-101988952D01*
%TO.C,C7*%
X142787666Y-102465142D02*
X142835285Y-102512761D01*
X142978142Y-102560380D01*
X143073380Y-102560380D01*
X143216238Y-102512761D01*
X143311476Y-102417523D01*
X143359095Y-102322285D01*
X143406714Y-102131809D01*
X143406714Y-101988952D01*
X143359095Y-101798476D01*
X143311476Y-101703238D01*
X143216238Y-101608000D01*
X143073380Y-101560380D01*
X142978142Y-101560380D01*
X142835285Y-101608000D01*
X142787666Y-101655619D01*
X142454333Y-101560380D02*
X141787666Y-101560380D01*
X142216238Y-102560380D01*
%TO.C,C19*%
X52427142Y-119118142D02*
X52474761Y-119070523D01*
X52522380Y-118927666D01*
X52522380Y-118832428D01*
X52474761Y-118689571D01*
X52379523Y-118594333D01*
X52284285Y-118546714D01*
X52093809Y-118499095D01*
X51950952Y-118499095D01*
X51760476Y-118546714D01*
X51665238Y-118594333D01*
X51570000Y-118689571D01*
X51522380Y-118832428D01*
X51522380Y-118927666D01*
X51570000Y-119070523D01*
X51617619Y-119118142D01*
X52522380Y-120070523D02*
X52522380Y-119499095D01*
X52522380Y-119784809D02*
X51522380Y-119784809D01*
X51665238Y-119689571D01*
X51760476Y-119594333D01*
X51808095Y-119499095D01*
X52522380Y-120546714D02*
X52522380Y-120737190D01*
X52474761Y-120832428D01*
X52427142Y-120880047D01*
X52284285Y-120975285D01*
X52093809Y-121022904D01*
X51712857Y-121022904D01*
X51617619Y-120975285D01*
X51570000Y-120927666D01*
X51522380Y-120832428D01*
X51522380Y-120641952D01*
X51570000Y-120546714D01*
X51617619Y-120499095D01*
X51712857Y-120451476D01*
X51950952Y-120451476D01*
X52046190Y-120499095D01*
X52093809Y-120546714D01*
X52141428Y-120641952D01*
X52141428Y-120832428D01*
X52093809Y-120927666D01*
X52046190Y-120975285D01*
X51950952Y-121022904D01*
%TO.C,C2*%
X106084666Y-113387142D02*
X106132285Y-113434761D01*
X106275142Y-113482380D01*
X106370380Y-113482380D01*
X106513238Y-113434761D01*
X106608476Y-113339523D01*
X106656095Y-113244285D01*
X106703714Y-113053809D01*
X106703714Y-112910952D01*
X106656095Y-112720476D01*
X106608476Y-112625238D01*
X106513238Y-112530000D01*
X106370380Y-112482380D01*
X106275142Y-112482380D01*
X106132285Y-112530000D01*
X106084666Y-112577619D01*
X105703714Y-112577619D02*
X105656095Y-112530000D01*
X105560857Y-112482380D01*
X105322761Y-112482380D01*
X105227523Y-112530000D01*
X105179904Y-112577619D01*
X105132285Y-112672857D01*
X105132285Y-112768095D01*
X105179904Y-112910952D01*
X105751333Y-113482380D01*
X105132285Y-113482380D01*
%TO.C,J1*%
X147653333Y-118832380D02*
X147653333Y-119546666D01*
X147700952Y-119689523D01*
X147796190Y-119784761D01*
X147939047Y-119832380D01*
X148034285Y-119832380D01*
X146653333Y-119832380D02*
X147224761Y-119832380D01*
X146939047Y-119832380D02*
X146939047Y-118832380D01*
X147034285Y-118975238D01*
X147129523Y-119070476D01*
X147224761Y-119118095D01*
%TO.C,D9*%
X65730380Y-112545904D02*
X64730380Y-112545904D01*
X64730380Y-112784000D01*
X64778000Y-112926857D01*
X64873238Y-113022095D01*
X64968476Y-113069714D01*
X65158952Y-113117333D01*
X65301809Y-113117333D01*
X65492285Y-113069714D01*
X65587523Y-113022095D01*
X65682761Y-112926857D01*
X65730380Y-112784000D01*
X65730380Y-112545904D01*
X65730380Y-113593523D02*
X65730380Y-113784000D01*
X65682761Y-113879238D01*
X65635142Y-113926857D01*
X65492285Y-114022095D01*
X65301809Y-114069714D01*
X64920857Y-114069714D01*
X64825619Y-114022095D01*
X64778000Y-113974476D01*
X64730380Y-113879238D01*
X64730380Y-113688761D01*
X64778000Y-113593523D01*
X64825619Y-113545904D01*
X64920857Y-113498285D01*
X65158952Y-113498285D01*
X65254190Y-113545904D01*
X65301809Y-113593523D01*
X65349428Y-113688761D01*
X65349428Y-113879238D01*
X65301809Y-113974476D01*
X65254190Y-114022095D01*
X65158952Y-114069714D01*
%TO.C,FB2*%
X57840571Y-106862666D02*
X57840571Y-106529333D01*
X58364380Y-106529333D02*
X57364380Y-106529333D01*
X57364380Y-107005523D01*
X57840571Y-107719809D02*
X57888190Y-107862666D01*
X57935809Y-107910285D01*
X58031047Y-107957904D01*
X58173904Y-107957904D01*
X58269142Y-107910285D01*
X58316761Y-107862666D01*
X58364380Y-107767428D01*
X58364380Y-107386476D01*
X57364380Y-107386476D01*
X57364380Y-107719809D01*
X57412000Y-107815047D01*
X57459619Y-107862666D01*
X57554857Y-107910285D01*
X57650095Y-107910285D01*
X57745333Y-107862666D01*
X57792952Y-107815047D01*
X57840571Y-107719809D01*
X57840571Y-107386476D01*
X57459619Y-108338857D02*
X57412000Y-108386476D01*
X57364380Y-108481714D01*
X57364380Y-108719809D01*
X57412000Y-108815047D01*
X57459619Y-108862666D01*
X57554857Y-108910285D01*
X57650095Y-108910285D01*
X57792952Y-108862666D01*
X58364380Y-108291238D01*
X58364380Y-108910285D01*
%TO.C,R4*%
X157265666Y-103195380D02*
X157599000Y-102719190D01*
X157837095Y-103195380D02*
X157837095Y-102195380D01*
X157456142Y-102195380D01*
X157360904Y-102243000D01*
X157313285Y-102290619D01*
X157265666Y-102385857D01*
X157265666Y-102528714D01*
X157313285Y-102623952D01*
X157360904Y-102671571D01*
X157456142Y-102719190D01*
X157837095Y-102719190D01*
X156408523Y-102528714D02*
X156408523Y-103195380D01*
X156646619Y-102147761D02*
X156884714Y-102862047D01*
X156265666Y-102862047D01*
%TO.C,C12*%
X103735142Y-90416142D02*
X103782761Y-90368523D01*
X103830380Y-90225666D01*
X103830380Y-90130428D01*
X103782761Y-89987571D01*
X103687523Y-89892333D01*
X103592285Y-89844714D01*
X103401809Y-89797095D01*
X103258952Y-89797095D01*
X103068476Y-89844714D01*
X102973238Y-89892333D01*
X102878000Y-89987571D01*
X102830380Y-90130428D01*
X102830380Y-90225666D01*
X102878000Y-90368523D01*
X102925619Y-90416142D01*
X103830380Y-91368523D02*
X103830380Y-90797095D01*
X103830380Y-91082809D02*
X102830380Y-91082809D01*
X102973238Y-90987571D01*
X103068476Y-90892333D01*
X103116095Y-90797095D01*
X102925619Y-91749476D02*
X102878000Y-91797095D01*
X102830380Y-91892333D01*
X102830380Y-92130428D01*
X102878000Y-92225666D01*
X102925619Y-92273285D01*
X103020857Y-92320904D01*
X103116095Y-92320904D01*
X103258952Y-92273285D01*
X103830380Y-91701857D01*
X103830380Y-92320904D01*
%TO.C,D2*%
X92527380Y-96035904D02*
X91527380Y-96035904D01*
X91527380Y-96274000D01*
X91575000Y-96416857D01*
X91670238Y-96512095D01*
X91765476Y-96559714D01*
X91955952Y-96607333D01*
X92098809Y-96607333D01*
X92289285Y-96559714D01*
X92384523Y-96512095D01*
X92479761Y-96416857D01*
X92527380Y-96274000D01*
X92527380Y-96035904D01*
X91622619Y-96988285D02*
X91575000Y-97035904D01*
X91527380Y-97131142D01*
X91527380Y-97369238D01*
X91575000Y-97464476D01*
X91622619Y-97512095D01*
X91717857Y-97559714D01*
X91813095Y-97559714D01*
X91955952Y-97512095D01*
X92527380Y-96940666D01*
X92527380Y-97559714D01*
%TO.C,C11*%
X98940857Y-83288142D02*
X98988476Y-83335761D01*
X99131333Y-83383380D01*
X99226571Y-83383380D01*
X99369428Y-83335761D01*
X99464666Y-83240523D01*
X99512285Y-83145285D01*
X99559904Y-82954809D01*
X99559904Y-82811952D01*
X99512285Y-82621476D01*
X99464666Y-82526238D01*
X99369428Y-82431000D01*
X99226571Y-82383380D01*
X99131333Y-82383380D01*
X98988476Y-82431000D01*
X98940857Y-82478619D01*
X97988476Y-83383380D02*
X98559904Y-83383380D01*
X98274190Y-83383380D02*
X98274190Y-82383380D01*
X98369428Y-82526238D01*
X98464666Y-82621476D01*
X98559904Y-82669095D01*
X97036095Y-83383380D02*
X97607523Y-83383380D01*
X97321809Y-83383380D02*
X97321809Y-82383380D01*
X97417047Y-82526238D01*
X97512285Y-82621476D01*
X97607523Y-82669095D01*
%TO.C,R10*%
X101226857Y-74620380D02*
X101560190Y-74144190D01*
X101798285Y-74620380D02*
X101798285Y-73620380D01*
X101417333Y-73620380D01*
X101322095Y-73668000D01*
X101274476Y-73715619D01*
X101226857Y-73810857D01*
X101226857Y-73953714D01*
X101274476Y-74048952D01*
X101322095Y-74096571D01*
X101417333Y-74144190D01*
X101798285Y-74144190D01*
X100274476Y-74620380D02*
X100845904Y-74620380D01*
X100560190Y-74620380D02*
X100560190Y-73620380D01*
X100655428Y-73763238D01*
X100750666Y-73858476D01*
X100845904Y-73906095D01*
X99655428Y-73620380D02*
X99560190Y-73620380D01*
X99464952Y-73668000D01*
X99417333Y-73715619D01*
X99369714Y-73810857D01*
X99322095Y-74001333D01*
X99322095Y-74239428D01*
X99369714Y-74429904D01*
X99417333Y-74525142D01*
X99464952Y-74572761D01*
X99560190Y-74620380D01*
X99655428Y-74620380D01*
X99750666Y-74572761D01*
X99798285Y-74525142D01*
X99845904Y-74429904D01*
X99893523Y-74239428D01*
X99893523Y-74001333D01*
X99845904Y-73810857D01*
X99798285Y-73715619D01*
X99750666Y-73668000D01*
X99655428Y-73620380D01*
%TO.C,C15*%
X48744142Y-107053142D02*
X48791761Y-107005523D01*
X48839380Y-106862666D01*
X48839380Y-106767428D01*
X48791761Y-106624571D01*
X48696523Y-106529333D01*
X48601285Y-106481714D01*
X48410809Y-106434095D01*
X48267952Y-106434095D01*
X48077476Y-106481714D01*
X47982238Y-106529333D01*
X47887000Y-106624571D01*
X47839380Y-106767428D01*
X47839380Y-106862666D01*
X47887000Y-107005523D01*
X47934619Y-107053142D01*
X48839380Y-108005523D02*
X48839380Y-107434095D01*
X48839380Y-107719809D02*
X47839380Y-107719809D01*
X47982238Y-107624571D01*
X48077476Y-107529333D01*
X48125095Y-107434095D01*
X47839380Y-108910285D02*
X47839380Y-108434095D01*
X48315571Y-108386476D01*
X48267952Y-108434095D01*
X48220333Y-108529333D01*
X48220333Y-108767428D01*
X48267952Y-108862666D01*
X48315571Y-108910285D01*
X48410809Y-108957904D01*
X48648904Y-108957904D01*
X48744142Y-108910285D01*
X48791761Y-108862666D01*
X48839380Y-108767428D01*
X48839380Y-108529333D01*
X48791761Y-108434095D01*
X48744142Y-108386476D01*
%TO.C,C4*%
X138088666Y-103100142D02*
X138136285Y-103147761D01*
X138279142Y-103195380D01*
X138374380Y-103195380D01*
X138517238Y-103147761D01*
X138612476Y-103052523D01*
X138660095Y-102957285D01*
X138707714Y-102766809D01*
X138707714Y-102623952D01*
X138660095Y-102433476D01*
X138612476Y-102338238D01*
X138517238Y-102243000D01*
X138374380Y-102195380D01*
X138279142Y-102195380D01*
X138136285Y-102243000D01*
X138088666Y-102290619D01*
X137231523Y-102528714D02*
X137231523Y-103195380D01*
X137469619Y-102147761D02*
X137707714Y-102862047D01*
X137088666Y-102862047D01*
%TO.C,R11*%
X93543380Y-79875142D02*
X93067190Y-79541809D01*
X93543380Y-79303714D02*
X92543380Y-79303714D01*
X92543380Y-79684666D01*
X92591000Y-79779904D01*
X92638619Y-79827523D01*
X92733857Y-79875142D01*
X92876714Y-79875142D01*
X92971952Y-79827523D01*
X93019571Y-79779904D01*
X93067190Y-79684666D01*
X93067190Y-79303714D01*
X93543380Y-80827523D02*
X93543380Y-80256095D01*
X93543380Y-80541809D02*
X92543380Y-80541809D01*
X92686238Y-80446571D01*
X92781476Y-80351333D01*
X92829095Y-80256095D01*
X93543380Y-81779904D02*
X93543380Y-81208476D01*
X93543380Y-81494190D02*
X92543380Y-81494190D01*
X92686238Y-81398952D01*
X92781476Y-81303714D01*
X92829095Y-81208476D01*
%TO.C,U4*%
X57657904Y-110860380D02*
X57657904Y-111669904D01*
X57610285Y-111765142D01*
X57562666Y-111812761D01*
X57467428Y-111860380D01*
X57276952Y-111860380D01*
X57181714Y-111812761D01*
X57134095Y-111765142D01*
X57086476Y-111669904D01*
X57086476Y-110860380D01*
X56181714Y-111193714D02*
X56181714Y-111860380D01*
X56419809Y-110812761D02*
X56657904Y-111527047D01*
X56038857Y-111527047D01*
%TO.C,C18*%
X64142857Y-73001142D02*
X64190476Y-73048761D01*
X64333333Y-73096380D01*
X64428571Y-73096380D01*
X64571428Y-73048761D01*
X64666666Y-72953523D01*
X64714285Y-72858285D01*
X64761904Y-72667809D01*
X64761904Y-72524952D01*
X64714285Y-72334476D01*
X64666666Y-72239238D01*
X64571428Y-72144000D01*
X64428571Y-72096380D01*
X64333333Y-72096380D01*
X64190476Y-72144000D01*
X64142857Y-72191619D01*
X63190476Y-73096380D02*
X63761904Y-73096380D01*
X63476190Y-73096380D02*
X63476190Y-72096380D01*
X63571428Y-72239238D01*
X63666666Y-72334476D01*
X63761904Y-72382095D01*
X62619047Y-72524952D02*
X62714285Y-72477333D01*
X62761904Y-72429714D01*
X62809523Y-72334476D01*
X62809523Y-72286857D01*
X62761904Y-72191619D01*
X62714285Y-72144000D01*
X62619047Y-72096380D01*
X62428571Y-72096380D01*
X62333333Y-72144000D01*
X62285714Y-72191619D01*
X62238095Y-72286857D01*
X62238095Y-72334476D01*
X62285714Y-72429714D01*
X62333333Y-72477333D01*
X62428571Y-72524952D01*
X62619047Y-72524952D01*
X62714285Y-72572571D01*
X62761904Y-72620190D01*
X62809523Y-72715428D01*
X62809523Y-72905904D01*
X62761904Y-73001142D01*
X62714285Y-73048761D01*
X62619047Y-73096380D01*
X62428571Y-73096380D01*
X62333333Y-73048761D01*
X62285714Y-73001142D01*
X62238095Y-72905904D01*
X62238095Y-72715428D01*
X62285714Y-72620190D01*
X62333333Y-72572571D01*
X62428571Y-72524952D01*
%TO.C,D7*%
X104624095Y-80208380D02*
X104624095Y-79208380D01*
X104386000Y-79208380D01*
X104243142Y-79256000D01*
X104147904Y-79351238D01*
X104100285Y-79446476D01*
X104052666Y-79636952D01*
X104052666Y-79779809D01*
X104100285Y-79970285D01*
X104147904Y-80065523D01*
X104243142Y-80160761D01*
X104386000Y-80208380D01*
X104624095Y-80208380D01*
X103719333Y-79208380D02*
X103052666Y-79208380D01*
X103481238Y-80208380D01*
%TO.C,R3*%
X135294666Y-103195380D02*
X135628000Y-102719190D01*
X135866095Y-103195380D02*
X135866095Y-102195380D01*
X135485142Y-102195380D01*
X135389904Y-102243000D01*
X135342285Y-102290619D01*
X135294666Y-102385857D01*
X135294666Y-102528714D01*
X135342285Y-102623952D01*
X135389904Y-102671571D01*
X135485142Y-102719190D01*
X135866095Y-102719190D01*
X134961333Y-102195380D02*
X134342285Y-102195380D01*
X134675619Y-102576333D01*
X134532761Y-102576333D01*
X134437523Y-102623952D01*
X134389904Y-102671571D01*
X134342285Y-102766809D01*
X134342285Y-103004904D01*
X134389904Y-103100142D01*
X134437523Y-103147761D01*
X134532761Y-103195380D01*
X134818476Y-103195380D01*
X134913714Y-103147761D01*
X134961333Y-103100142D01*
%TO.C,U3*%
X67563904Y-75808380D02*
X67563904Y-76617904D01*
X67516285Y-76713142D01*
X67468666Y-76760761D01*
X67373428Y-76808380D01*
X67182952Y-76808380D01*
X67087714Y-76760761D01*
X67040095Y-76713142D01*
X66992476Y-76617904D01*
X66992476Y-75808380D01*
X66611523Y-75808380D02*
X65992476Y-75808380D01*
X66325809Y-76189333D01*
X66182952Y-76189333D01*
X66087714Y-76236952D01*
X66040095Y-76284571D01*
X65992476Y-76379809D01*
X65992476Y-76617904D01*
X66040095Y-76713142D01*
X66087714Y-76760761D01*
X66182952Y-76808380D01*
X66468666Y-76808380D01*
X66563904Y-76760761D01*
X66611523Y-76713142D01*
%TO.C,R13*%
X60269380Y-78351142D02*
X59793190Y-78017809D01*
X60269380Y-77779714D02*
X59269380Y-77779714D01*
X59269380Y-78160666D01*
X59317000Y-78255904D01*
X59364619Y-78303523D01*
X59459857Y-78351142D01*
X59602714Y-78351142D01*
X59697952Y-78303523D01*
X59745571Y-78255904D01*
X59793190Y-78160666D01*
X59793190Y-77779714D01*
X60269380Y-79303523D02*
X60269380Y-78732095D01*
X60269380Y-79017809D02*
X59269380Y-79017809D01*
X59412238Y-78922571D01*
X59507476Y-78827333D01*
X59555095Y-78732095D01*
X59269380Y-79636857D02*
X59269380Y-80255904D01*
X59650333Y-79922571D01*
X59650333Y-80065428D01*
X59697952Y-80160666D01*
X59745571Y-80208285D01*
X59840809Y-80255904D01*
X60078904Y-80255904D01*
X60174142Y-80208285D01*
X60221761Y-80160666D01*
X60269380Y-80065428D01*
X60269380Y-79779714D01*
X60221761Y-79684476D01*
X60174142Y-79636857D01*
%TO.C,FB1*%
X52887571Y-106989666D02*
X52887571Y-106656333D01*
X53411380Y-106656333D02*
X52411380Y-106656333D01*
X52411380Y-107132523D01*
X52887571Y-107846809D02*
X52935190Y-107989666D01*
X52982809Y-108037285D01*
X53078047Y-108084904D01*
X53220904Y-108084904D01*
X53316142Y-108037285D01*
X53363761Y-107989666D01*
X53411380Y-107894428D01*
X53411380Y-107513476D01*
X52411380Y-107513476D01*
X52411380Y-107846809D01*
X52459000Y-107942047D01*
X52506619Y-107989666D01*
X52601857Y-108037285D01*
X52697095Y-108037285D01*
X52792333Y-107989666D01*
X52839952Y-107942047D01*
X52887571Y-107846809D01*
X52887571Y-107513476D01*
X53411380Y-109037285D02*
X53411380Y-108465857D01*
X53411380Y-108751571D02*
X52411380Y-108751571D01*
X52554238Y-108656333D01*
X52649476Y-108561095D01*
X52697095Y-108465857D01*
%TO.C,D4*%
X87360380Y-96035904D02*
X86360380Y-96035904D01*
X86360380Y-96274000D01*
X86408000Y-96416857D01*
X86503238Y-96512095D01*
X86598476Y-96559714D01*
X86788952Y-96607333D01*
X86931809Y-96607333D01*
X87122285Y-96559714D01*
X87217523Y-96512095D01*
X87312761Y-96416857D01*
X87360380Y-96274000D01*
X87360380Y-96035904D01*
X86693714Y-97464476D02*
X87360380Y-97464476D01*
X86312761Y-97226380D02*
X87027047Y-96988285D01*
X87027047Y-97607333D01*
%TO.C,TP5*%
X64412476Y-82510380D02*
X64079142Y-83510380D01*
X63745809Y-82510380D01*
X63269619Y-83510380D02*
X63364857Y-83462761D01*
X63412476Y-83415142D01*
X63460095Y-83319904D01*
X63460095Y-83034190D01*
X63412476Y-82938952D01*
X63364857Y-82891333D01*
X63269619Y-82843714D01*
X63126761Y-82843714D01*
X63031523Y-82891333D01*
X62983904Y-82938952D01*
X62936285Y-83034190D01*
X62936285Y-83319904D01*
X62983904Y-83415142D01*
X63031523Y-83462761D01*
X63126761Y-83510380D01*
X63269619Y-83510380D01*
X62364857Y-83510380D02*
X62460095Y-83462761D01*
X62507714Y-83367523D01*
X62507714Y-82510380D01*
X62222000Y-83605619D02*
X61460095Y-83605619D01*
X61031523Y-82510380D02*
X60841047Y-82510380D01*
X60745809Y-82558000D01*
X60650571Y-82653238D01*
X60602952Y-82843714D01*
X60602952Y-83177047D01*
X60650571Y-83367523D01*
X60745809Y-83462761D01*
X60841047Y-83510380D01*
X61031523Y-83510380D01*
X61126761Y-83462761D01*
X61222000Y-83367523D01*
X61269619Y-83177047D01*
X61269619Y-82843714D01*
X61222000Y-82653238D01*
X61126761Y-82558000D01*
X61031523Y-82510380D01*
X59745809Y-82843714D02*
X59745809Y-83510380D01*
X60174380Y-82843714D02*
X60174380Y-83367523D01*
X60126761Y-83462761D01*
X60031523Y-83510380D01*
X59888666Y-83510380D01*
X59793428Y-83462761D01*
X59745809Y-83415142D01*
X59412476Y-82843714D02*
X59031523Y-82843714D01*
X59269619Y-82510380D02*
X59269619Y-83367523D01*
X59222000Y-83462761D01*
X59126761Y-83510380D01*
X59031523Y-83510380D01*
%TO.C,C3*%
X89955666Y-117832142D02*
X90003285Y-117879761D01*
X90146142Y-117927380D01*
X90241380Y-117927380D01*
X90384238Y-117879761D01*
X90479476Y-117784523D01*
X90527095Y-117689285D01*
X90574714Y-117498809D01*
X90574714Y-117355952D01*
X90527095Y-117165476D01*
X90479476Y-117070238D01*
X90384238Y-116975000D01*
X90241380Y-116927380D01*
X90146142Y-116927380D01*
X90003285Y-116975000D01*
X89955666Y-117022619D01*
X89622333Y-116927380D02*
X89003285Y-116927380D01*
X89336619Y-117308333D01*
X89193761Y-117308333D01*
X89098523Y-117355952D01*
X89050904Y-117403571D01*
X89003285Y-117498809D01*
X89003285Y-117736904D01*
X89050904Y-117832142D01*
X89098523Y-117879761D01*
X89193761Y-117927380D01*
X89479476Y-117927380D01*
X89574714Y-117879761D01*
X89622333Y-117832142D01*
%TO.C,D11*%
X70850380Y-112069714D02*
X69850380Y-112069714D01*
X69850380Y-112307809D01*
X69898000Y-112450666D01*
X69993238Y-112545904D01*
X70088476Y-112593523D01*
X70278952Y-112641142D01*
X70421809Y-112641142D01*
X70612285Y-112593523D01*
X70707523Y-112545904D01*
X70802761Y-112450666D01*
X70850380Y-112307809D01*
X70850380Y-112069714D01*
X70850380Y-113593523D02*
X70850380Y-113022095D01*
X70850380Y-113307809D02*
X69850380Y-113307809D01*
X69993238Y-113212571D01*
X70088476Y-113117333D01*
X70136095Y-113022095D01*
X70850380Y-114545904D02*
X70850380Y-113974476D01*
X70850380Y-114260190D02*
X69850380Y-114260190D01*
X69993238Y-114164952D01*
X70088476Y-114069714D01*
X70136095Y-113974476D01*
%TO.C,C5*%
X154598666Y-103100142D02*
X154646285Y-103147761D01*
X154789142Y-103195380D01*
X154884380Y-103195380D01*
X155027238Y-103147761D01*
X155122476Y-103052523D01*
X155170095Y-102957285D01*
X155217714Y-102766809D01*
X155217714Y-102623952D01*
X155170095Y-102433476D01*
X155122476Y-102338238D01*
X155027238Y-102243000D01*
X154884380Y-102195380D01*
X154789142Y-102195380D01*
X154646285Y-102243000D01*
X154598666Y-102290619D01*
X153693904Y-102195380D02*
X154170095Y-102195380D01*
X154217714Y-102671571D01*
X154170095Y-102623952D01*
X154074857Y-102576333D01*
X153836761Y-102576333D01*
X153741523Y-102623952D01*
X153693904Y-102671571D01*
X153646285Y-102766809D01*
X153646285Y-103004904D01*
X153693904Y-103100142D01*
X153741523Y-103147761D01*
X153836761Y-103195380D01*
X154074857Y-103195380D01*
X154170095Y-103147761D01*
X154217714Y-103100142D01*
%TO.C,R1*%
X38646380Y-79184833D02*
X38170190Y-78851500D01*
X38646380Y-78613404D02*
X37646380Y-78613404D01*
X37646380Y-78994357D01*
X37694000Y-79089595D01*
X37741619Y-79137214D01*
X37836857Y-79184833D01*
X37979714Y-79184833D01*
X38074952Y-79137214D01*
X38122571Y-79089595D01*
X38170190Y-78994357D01*
X38170190Y-78613404D01*
X38646380Y-80137214D02*
X38646380Y-79565785D01*
X38646380Y-79851500D02*
X37646380Y-79851500D01*
X37789238Y-79756261D01*
X37884476Y-79661023D01*
X37932095Y-79565785D01*
%TO.C,C10*%
X93067142Y-85209142D02*
X93114761Y-85161523D01*
X93162380Y-85018666D01*
X93162380Y-84923428D01*
X93114761Y-84780571D01*
X93019523Y-84685333D01*
X92924285Y-84637714D01*
X92733809Y-84590095D01*
X92590952Y-84590095D01*
X92400476Y-84637714D01*
X92305238Y-84685333D01*
X92210000Y-84780571D01*
X92162380Y-84923428D01*
X92162380Y-85018666D01*
X92210000Y-85161523D01*
X92257619Y-85209142D01*
X93162380Y-86161523D02*
X93162380Y-85590095D01*
X93162380Y-85875809D02*
X92162380Y-85875809D01*
X92305238Y-85780571D01*
X92400476Y-85685333D01*
X92448095Y-85590095D01*
X92162380Y-86780571D02*
X92162380Y-86875809D01*
X92210000Y-86971047D01*
X92257619Y-87018666D01*
X92352857Y-87066285D01*
X92543333Y-87113904D01*
X92781428Y-87113904D01*
X92971904Y-87066285D01*
X93067142Y-87018666D01*
X93114761Y-86971047D01*
X93162380Y-86875809D01*
X93162380Y-86780571D01*
X93114761Y-86685333D01*
X93067142Y-86637714D01*
X92971904Y-86590095D01*
X92781428Y-86542476D01*
X92543333Y-86542476D01*
X92352857Y-86590095D01*
X92257619Y-86637714D01*
X92210000Y-86685333D01*
X92162380Y-86780571D01*
%TO.C,kibuzzard-66CB7C93*%
G36*
X101756410Y-127943740D02*
G01*
X101775460Y-128029465D01*
X101832610Y-128080900D01*
X101927860Y-128098045D01*
X102065020Y-128098045D01*
X102065020Y-128256160D01*
X101777365Y-128256160D01*
X101777365Y-128938150D01*
X102097405Y-128938150D01*
X102097405Y-129100075D01*
X101266825Y-129100075D01*
X101266825Y-128938150D01*
X101577340Y-128938150D01*
X101577340Y-127880875D01*
X101756410Y-127880875D01*
X101756410Y-127943740D01*
G37*
G36*
X97184410Y-127943740D02*
G01*
X97203460Y-128029465D01*
X97260610Y-128080900D01*
X97355860Y-128098045D01*
X97493020Y-128098045D01*
X97493020Y-128256160D01*
X97205365Y-128256160D01*
X97205365Y-128938150D01*
X97525405Y-128938150D01*
X97525405Y-129100075D01*
X96694825Y-129100075D01*
X96694825Y-128938150D01*
X97005340Y-128938150D01*
X97005340Y-127880875D01*
X97184410Y-127880875D01*
X97184410Y-127943740D01*
G37*
G36*
X102817495Y-128898145D02*
G01*
X102830830Y-128898145D01*
X103105150Y-128147575D01*
X103305175Y-128147575D01*
X102943225Y-129100075D01*
X102707005Y-129100075D01*
X102346960Y-128147575D01*
X102545080Y-128147575D01*
X102817495Y-128898145D01*
G37*
G36*
X98245495Y-128898145D02*
G01*
X98258830Y-128898145D01*
X98533150Y-128147575D01*
X98733175Y-128147575D01*
X98371225Y-129100075D01*
X98135005Y-129100075D01*
X97774960Y-128147575D01*
X97973080Y-128147575D01*
X98245495Y-128898145D01*
G37*
G36*
X100271939Y-128139479D02*
G01*
X100369570Y-128172340D01*
X100442436Y-128227585D01*
X100501015Y-128305690D01*
X100514350Y-128305690D01*
X100533400Y-128147575D01*
X100975360Y-128147575D01*
X100975360Y-128294260D01*
X100706755Y-128294260D01*
X100706755Y-128953390D01*
X100984885Y-128953390D01*
X100984885Y-129100075D01*
X100152400Y-129100075D01*
X100152400Y-128953390D01*
X100512445Y-128953390D01*
X100512445Y-128623825D01*
X100489823Y-128496190D01*
X100421958Y-128399035D01*
X100315516Y-128337599D01*
X100177165Y-128317120D01*
X100066675Y-128322835D01*
X100066675Y-128128525D01*
X100139065Y-128128525D01*
X100271939Y-128139479D01*
G37*
G36*
X98957965Y-128610490D02*
G01*
X98965012Y-128536195D01*
X99144655Y-128536195D01*
X99660910Y-128536195D01*
X99630906Y-128438326D01*
X99571375Y-128358078D01*
X99488984Y-128304499D01*
X99390400Y-128286640D01*
X99292054Y-128304023D01*
X99214187Y-128356173D01*
X99162991Y-128435944D01*
X99144655Y-128536195D01*
X98965012Y-128536195D01*
X98971617Y-128466557D01*
X99012575Y-128347177D01*
X99080838Y-128252350D01*
X99169843Y-128183558D01*
X99273031Y-128142283D01*
X99390400Y-128128525D01*
X99514013Y-128143871D01*
X99623233Y-128189908D01*
X99718060Y-128266638D01*
X99791085Y-128368767D01*
X99834900Y-128491004D01*
X99849505Y-128633350D01*
X99834900Y-128768923D01*
X99791085Y-128886080D01*
X99718060Y-128984823D01*
X99622175Y-129059435D01*
X99509780Y-129104203D01*
X99380875Y-129119125D01*
X99228475Y-129098884D01*
X99102745Y-129038163D01*
X99010829Y-128941722D01*
X98959870Y-128814325D01*
X99146560Y-128814325D01*
X99192915Y-128895817D01*
X99271020Y-128944712D01*
X99380875Y-128961010D01*
X99491365Y-128941246D01*
X99578995Y-128881953D01*
X99638050Y-128790274D01*
X99662815Y-128673355D01*
X98961775Y-128673355D01*
X98957965Y-128610490D01*
G37*
D11*
%TO.C,SW1*%
X119614000Y-72050000D02*
X119614000Y-84750000D01*
X120249000Y-84750000D02*
X120249000Y-85385000D01*
X123551000Y-71415000D02*
X120249000Y-71415000D01*
X124186000Y-72050000D02*
X123551000Y-72050000D01*
X123551000Y-72050000D02*
X123551000Y-71415000D01*
X120249000Y-71415000D02*
X120249000Y-72050000D01*
X123551000Y-84750000D02*
X124186000Y-84750000D01*
X120249000Y-85385000D02*
X123551000Y-85385000D01*
X123551000Y-85385000D02*
X123551000Y-84750000D01*
D12*
X121265000Y-78400000D02*
X122535000Y-78400000D01*
D11*
X119614000Y-84750000D02*
X120249000Y-84750000D01*
X120249000Y-72050000D02*
X119614000Y-72050000D01*
X124186000Y-84750000D02*
X124186000Y-72050000D01*
D12*
X121900000Y-77765000D02*
X121900000Y-79035000D01*
X122535000Y-78400000D02*
G75*
G03*
X122535000Y-78400000I-635000J0D01*
G01*
D11*
%TO.C,SW2*%
X150664000Y-71288000D02*
X150664000Y-71796000D01*
X142536000Y-71288000D02*
X150664000Y-71288000D01*
X150664000Y-71796000D02*
X151172000Y-71796000D01*
X142536000Y-85512000D02*
X142536000Y-85004000D01*
X142028000Y-85004000D02*
X142028000Y-71796000D01*
X142028000Y-71796000D02*
X142536000Y-71796000D01*
X142536000Y-85004000D02*
X142028000Y-85004000D01*
D12*
X146600000Y-77765000D02*
X146600000Y-79035000D01*
D11*
X150664000Y-85512000D02*
X142536000Y-85512000D01*
X150664000Y-85004000D02*
X150664000Y-85512000D01*
X142536000Y-71796000D02*
X142536000Y-71288000D01*
X151172000Y-71796000D02*
X151172000Y-85004000D01*
X151172000Y-85004000D02*
X150664000Y-85004000D01*
D12*
X145965000Y-78400000D02*
X147235000Y-78400000D01*
X147235000Y-78400000D02*
G75*
G03*
X147235000Y-78400000I-635000J0D01*
G01*
D13*
%TO.C,R2*%
X84274000Y-119380724D02*
X84274000Y-118871276D01*
X83229000Y-119380724D02*
X83229000Y-118871276D01*
%TO.C,R7*%
X99074500Y-95503276D02*
X99074500Y-96012724D01*
X98029500Y-95503276D02*
X98029500Y-96012724D01*
%TO.C,kibuzzard-66CB7A30*%
G36*
X149352000Y-125008640D02*
G01*
X148079460Y-125008640D01*
X148079460Y-125026420D01*
X149352000Y-125658880D01*
X149352000Y-125928120D01*
X147574000Y-125928120D01*
X147574000Y-125679200D01*
X148844000Y-125679200D01*
X148844000Y-125661420D01*
X147574000Y-125028960D01*
X147574000Y-124759720D01*
X149352000Y-124759720D01*
X149352000Y-125008640D01*
G37*
G36*
X148513800Y-126860300D02*
G01*
X148300440Y-126860300D01*
X148300440Y-126522480D01*
X148158200Y-126522480D01*
X147998815Y-126544387D01*
X147881340Y-126610110D01*
X147808950Y-126713297D01*
X147784820Y-126847600D01*
X147810728Y-126985674D01*
X147888452Y-127093066D01*
X148017992Y-127169774D01*
X148199348Y-127215798D01*
X148432520Y-127231140D01*
X148641506Y-127219851D01*
X148814649Y-127185984D01*
X148951950Y-127129540D01*
X149086253Y-127007620D01*
X149131020Y-126845060D01*
X149098000Y-126712416D01*
X148998940Y-126615896D01*
X148833840Y-126555500D01*
X148833840Y-126276100D01*
X148992308Y-126309684D01*
X149125658Y-126369798D01*
X149233890Y-126456440D01*
X149313618Y-126566224D01*
X149361454Y-126695764D01*
X149377400Y-126845060D01*
X149349601Y-127036689D01*
X149266204Y-127198402D01*
X149127210Y-127330200D01*
X148989971Y-127406876D01*
X148828442Y-127461645D01*
X148642626Y-127494506D01*
X148432520Y-127505460D01*
X148232574Y-127495538D01*
X148056918Y-127465772D01*
X147905549Y-127416163D01*
X147778470Y-127346710D01*
X147650764Y-127226060D01*
X147574141Y-127075777D01*
X147548600Y-126895860D01*
X147563205Y-126753937D01*
X147607020Y-126643130D01*
X147726400Y-126517400D01*
X147726400Y-126499620D01*
X147574000Y-126469140D01*
X147574000Y-126263400D01*
X148513800Y-126263400D01*
X148513800Y-126860300D01*
G37*
G36*
X147589002Y-123779042D02*
G01*
X147634007Y-123625927D01*
X147709017Y-123495197D01*
X147814030Y-123386850D01*
X147944919Y-123301839D01*
X148097558Y-123241118D01*
X148271944Y-123204684D01*
X148468080Y-123192540D01*
X148661834Y-123204764D01*
X148834158Y-123241435D01*
X148985049Y-123302554D01*
X149114510Y-123388120D01*
X149218412Y-123496864D01*
X149292628Y-123627515D01*
X149337157Y-123780074D01*
X149352000Y-123954540D01*
X149352000Y-124404120D01*
X147574000Y-124404120D01*
X147574000Y-124137420D01*
X147815300Y-124137420D01*
X149110700Y-124137420D01*
X149110700Y-123969780D01*
X149092849Y-123815334D01*
X149039298Y-123688969D01*
X148950045Y-123590685D01*
X148825091Y-123520482D01*
X148664436Y-123478361D01*
X148468080Y-123464320D01*
X148271794Y-123478572D01*
X148109658Y-123521329D01*
X147981670Y-123592590D01*
X147889242Y-123691509D01*
X147833786Y-123817239D01*
X147815300Y-123969780D01*
X147815300Y-124137420D01*
X147574000Y-124137420D01*
X147574000Y-123954540D01*
X147589002Y-123779042D01*
G37*
%TO.C,C17*%
X50036000Y-117494267D02*
X50036000Y-117201733D01*
X51056000Y-117494267D02*
X51056000Y-117201733D01*
%TO.C,R5*%
X111125724Y-84948500D02*
X110616276Y-84948500D01*
X111125724Y-85993500D02*
X110616276Y-85993500D01*
%TO.C,Q1*%
X44994000Y-81026000D02*
X44994000Y-81676000D01*
X44994000Y-81026000D02*
X44994000Y-80376000D01*
X41874000Y-81026000D02*
X41874000Y-79351000D01*
X41874000Y-81026000D02*
X41874000Y-81676000D01*
%TO.C,J8*%
X141030000Y-90690000D02*
X141160000Y-90690000D01*
X146200000Y-91320000D02*
X145540000Y-91320000D01*
X151840000Y-95680000D02*
X153600000Y-95680000D01*
X148680000Y-91320000D02*
X148140000Y-91320000D01*
X144320000Y-95680000D02*
X144860000Y-95680000D01*
X153600000Y-95680000D02*
X153600000Y-92650000D01*
X146920000Y-95680000D02*
X147340000Y-95680000D01*
X141160000Y-90690000D02*
X141160000Y-89500000D01*
X143660000Y-91320000D02*
X143000000Y-91320000D01*
X139400000Y-95680000D02*
X139400000Y-92680000D01*
X149460000Y-95680000D02*
X149880000Y-95680000D01*
X151620000Y-91320000D02*
X150580000Y-91320000D01*
X139400000Y-95680000D02*
X142420000Y-95680000D01*
X141030000Y-90690000D02*
G75*
G03*
X139420172Y-92665009I-900000J-910000D01*
G01*
X153600000Y-92650000D02*
G75*
G03*
X151620964Y-91325576I-730000J1050000D01*
G01*
%TO.C,D1*%
X45334000Y-75604000D02*
X45334000Y-77304000D01*
X45334000Y-77304000D02*
X42184000Y-77304000D01*
X45334000Y-75604000D02*
X42184000Y-75604000D01*
%TO.C,TP3*%
X85405000Y-92710000D02*
G75*
G03*
X85405000Y-92710000I-950000J0D01*
G01*
%TO.C,R12*%
X72121500Y-79755276D02*
X72121500Y-80264724D01*
X73166500Y-79755276D02*
X73166500Y-80264724D01*
%TO.C,D3*%
X107060000Y-101174000D02*
X103760000Y-101174000D01*
X103760000Y-101174000D02*
X103760000Y-94274000D01*
X107060000Y-101174000D02*
X107060000Y-94274000D01*
%TO.C,R6*%
X111125724Y-88406500D02*
X110616276Y-88406500D01*
X111125724Y-87361500D02*
X110616276Y-87361500D01*
%TO.C,C6*%
X145667000Y-113391733D02*
X145667000Y-113684267D01*
X146687000Y-113391733D02*
X146687000Y-113684267D01*
%TO.C,R9*%
X99426500Y-99821276D02*
X99426500Y-100330724D01*
X100471500Y-99821276D02*
X100471500Y-100330724D01*
%TO.C,TP1*%
X88257500Y-117094000D02*
G75*
G03*
X88257500Y-117094000I-950000J0D01*
G01*
%TO.C,C20*%
X68179733Y-83564000D02*
X68472267Y-83564000D01*
X68179733Y-84584000D02*
X68472267Y-84584000D01*
%TO.C,TP4*%
X117028000Y-92710000D02*
G75*
G03*
X117028000Y-92710000I-950000J0D01*
G01*
%TO.C,D10*%
X39498000Y-108884000D02*
X39498000Y-115784000D01*
X42798000Y-108884000D02*
X42798000Y-115784000D01*
X39498000Y-108884000D02*
X42798000Y-108884000D01*
%TO.C,J9*%
X56460000Y-95680000D02*
X56880000Y-95680000D01*
X53200000Y-91320000D02*
X52540000Y-91320000D01*
X46400000Y-95680000D02*
X49420000Y-95680000D01*
X46400000Y-95680000D02*
X46400000Y-92680000D01*
X60600000Y-95680000D02*
X60600000Y-92650000D01*
X53920000Y-95680000D02*
X54340000Y-95680000D01*
X48030000Y-90690000D02*
X48160000Y-90690000D01*
X50660000Y-91320000D02*
X50000000Y-91320000D01*
X48160000Y-90690000D02*
X48160000Y-89500000D01*
X58620000Y-91320000D02*
X57580000Y-91320000D01*
X55680000Y-91320000D02*
X55140000Y-91320000D01*
X58840000Y-95680000D02*
X60600000Y-95680000D01*
X51320000Y-95680000D02*
X51860000Y-95680000D01*
X48030000Y-90690000D02*
G75*
G03*
X46420172Y-92665009I-900000J-910000D01*
G01*
X60600000Y-92650000D02*
G75*
G03*
X58620964Y-91325576I-730000J1050000D01*
G01*
%TO.C,U2*%
X104140000Y-84181000D02*
X102190000Y-84181000D01*
X104140000Y-89301000D02*
X102190000Y-89301000D01*
X104140000Y-89301000D02*
X106090000Y-89301000D01*
X104140000Y-84181000D02*
X107590000Y-84181000D01*
%TO.C,D5*%
X108840000Y-92374000D02*
X108840000Y-99274000D01*
X108840000Y-92374000D02*
X112140000Y-92374000D01*
X112140000Y-92374000D02*
X112140000Y-99274000D01*
%TO.C,U1*%
X98991500Y-120162000D02*
X100941500Y-120162000D01*
X98991500Y-115042000D02*
X102441500Y-115042000D01*
X98991500Y-120162000D02*
X97041500Y-120162000D01*
X98991500Y-115042000D02*
X97041500Y-115042000D01*
%TO.C,TP7*%
X71054000Y-105410000D02*
G75*
G03*
X71054000Y-105410000I-950000J0D01*
G01*
%TO.C,Q2*%
X85727500Y-122426000D02*
X85727500Y-119266000D01*
X88887500Y-122426000D02*
X87957500Y-122426000D01*
X85727500Y-122426000D02*
X86657500Y-122426000D01*
X88887500Y-122426000D02*
X88887500Y-120966000D01*
%TO.C,D8*%
X47878000Y-117724000D02*
X44578000Y-117724000D01*
X47878000Y-117724000D02*
X47878000Y-110824000D01*
X44578000Y-117724000D02*
X44578000Y-110824000D01*
%TO.C,C14*%
X64156000Y-113233252D02*
X64156000Y-111810748D01*
X62336000Y-113233252D02*
X62336000Y-111810748D01*
%TO.C,D6*%
X109723000Y-77890000D02*
X109723000Y-79590000D01*
X109723000Y-77890000D02*
X106573000Y-77890000D01*
X109723000Y-79590000D02*
X106573000Y-79590000D01*
%TO.C,TP2*%
X98740000Y-90424000D02*
G75*
G03*
X98740000Y-90424000I-950000J0D01*
G01*
%TO.C,C9*%
X99364748Y-79650000D02*
X100787252Y-79650000D01*
X99364748Y-77830000D02*
X100787252Y-77830000D01*
%TO.C,C16*%
X62740000Y-107549733D02*
X62740000Y-107842267D01*
X61720000Y-107549733D02*
X61720000Y-107842267D01*
%TO.C,C1*%
X93885500Y-111659000D02*
X92685500Y-111659000D01*
X90429937Y-116179000D02*
X89365500Y-115114563D01*
X93435500Y-116669000D02*
X92935500Y-116669000D01*
X92821063Y-116179000D02*
X93885500Y-115114563D01*
X89365500Y-115114563D02*
X89365500Y-111659000D01*
X93185500Y-116919000D02*
X93185500Y-116419000D01*
X92821063Y-116179000D02*
X92685500Y-116179000D01*
X89365500Y-111659000D02*
X90565500Y-111659000D01*
X90429937Y-116179000D02*
X90565500Y-116179000D01*
X93885500Y-115114563D02*
X93885500Y-111659000D01*
%TO.C,R8*%
X100950500Y-96012724D02*
X100950500Y-95503276D01*
X101995500Y-96012724D02*
X101995500Y-95503276D01*
%TO.C,kibuzzard-66CB7AA6*%
G36*
X150114000Y-124957840D02*
G01*
X150114000Y-124670820D01*
X150886160Y-125112780D01*
X150958232Y-124958792D01*
X151067770Y-124842270D01*
X151210328Y-124768928D01*
X151381460Y-124744480D01*
X151525393Y-124761413D01*
X151649007Y-124812213D01*
X151752300Y-124896880D01*
X151829911Y-125010051D01*
X151876478Y-125146364D01*
X151892000Y-125305820D01*
X151892000Y-125917960D01*
X150114000Y-125917960D01*
X150114000Y-125656340D01*
X150840440Y-125656340D01*
X151071580Y-125656340D01*
X151660860Y-125656340D01*
X151660860Y-125341380D01*
X151641492Y-125205173D01*
X151583390Y-125101350D01*
X151490998Y-125035627D01*
X151368760Y-125013720D01*
X151247475Y-125035627D01*
X151152860Y-125101350D01*
X151091900Y-125205173D01*
X151071580Y-125341380D01*
X151071580Y-125656340D01*
X150840440Y-125656340D01*
X150840440Y-125371860D01*
X150114000Y-124957840D01*
G37*
G36*
X150350220Y-124094240D02*
G01*
X150898860Y-124094240D01*
X150898860Y-123390660D01*
X151132540Y-123390660D01*
X151132540Y-124094240D01*
X151655780Y-124094240D01*
X151655780Y-123281440D01*
X151892000Y-123281440D01*
X151892000Y-124355860D01*
X150114000Y-124355860D01*
X150114000Y-123256040D01*
X150350220Y-123256040D01*
X150350220Y-124094240D01*
G37*
G36*
X150813911Y-126642142D02*
G01*
X150863864Y-126504136D01*
X150947120Y-126390400D01*
X151058316Y-126305733D01*
X151192089Y-126254933D01*
X151348440Y-126238000D01*
X151500558Y-126254651D01*
X151631791Y-126304604D01*
X151742140Y-126387860D01*
X151825396Y-126499056D01*
X151875349Y-126632829D01*
X151892000Y-126789180D01*
X151892000Y-127441960D01*
X150114000Y-127441960D01*
X150114000Y-127182880D01*
X150797260Y-127182880D01*
X151033480Y-127182880D01*
X151655780Y-127182880D01*
X151655780Y-126834900D01*
X151635143Y-126702502D01*
X151573230Y-126599950D01*
X151475758Y-126534227D01*
X151348440Y-126512320D01*
X151216995Y-126534227D01*
X151117300Y-126599950D01*
X151054435Y-126706313D01*
X151033480Y-126850140D01*
X151033480Y-127182880D01*
X150797260Y-127182880D01*
X150797260Y-126804420D01*
X150813911Y-126642142D01*
G37*
%TO.C,C13*%
X49636000Y-113233252D02*
X49636000Y-111810748D01*
X51456000Y-113233252D02*
X51456000Y-111810748D01*
%TO.C,TP6*%
X44638000Y-105410000D02*
G75*
G03*
X44638000Y-105410000I-950000J0D01*
G01*
%TO.C,C8*%
X148012500Y-103363500D02*
X148012500Y-104151000D01*
X152205563Y-104391000D02*
X153270000Y-105455437D01*
X153270000Y-105455437D02*
X153270000Y-111211000D01*
X152205563Y-104391000D02*
X150920000Y-104391000D01*
X146450000Y-111211000D02*
X148800000Y-111211000D01*
X147514437Y-104391000D02*
X146450000Y-105455437D01*
X153270000Y-111211000D02*
X150920000Y-111211000D01*
X146450000Y-105455437D02*
X146450000Y-111211000D01*
X147618750Y-103757250D02*
X148406250Y-103757250D01*
X147514437Y-104391000D02*
X148800000Y-104391000D01*
%TO.C,C7*%
X140148437Y-104391000D02*
X141434000Y-104391000D01*
X145904000Y-111211000D02*
X143554000Y-111211000D01*
X144839563Y-104391000D02*
X145904000Y-105455437D01*
X145904000Y-105455437D02*
X145904000Y-111211000D01*
X139084000Y-105455437D02*
X139084000Y-111211000D01*
X140252750Y-103757250D02*
X141040250Y-103757250D01*
X140148437Y-104391000D02*
X139084000Y-105455437D01*
X139084000Y-111211000D02*
X141434000Y-111211000D01*
X144839563Y-104391000D02*
X143554000Y-104391000D01*
X140646500Y-103363500D02*
X140646500Y-104151000D01*
%TO.C,C19*%
X54866000Y-120034267D02*
X54866000Y-119741733D01*
X53846000Y-120034267D02*
X53846000Y-119741733D01*
%TO.C,kibuzzard-66CB7A30*%
G36*
X141732000Y-125008640D02*
G01*
X140459460Y-125008640D01*
X140459460Y-125026420D01*
X141732000Y-125658880D01*
X141732000Y-125928120D01*
X139954000Y-125928120D01*
X139954000Y-125679200D01*
X141224000Y-125679200D01*
X141224000Y-125661420D01*
X139954000Y-125028960D01*
X139954000Y-124759720D01*
X141732000Y-124759720D01*
X141732000Y-125008640D01*
G37*
G36*
X140893800Y-126860300D02*
G01*
X140680440Y-126860300D01*
X140680440Y-126522480D01*
X140538200Y-126522480D01*
X140378815Y-126544387D01*
X140261340Y-126610110D01*
X140188950Y-126713297D01*
X140164820Y-126847600D01*
X140190728Y-126985674D01*
X140268452Y-127093066D01*
X140397992Y-127169774D01*
X140579348Y-127215798D01*
X140812520Y-127231140D01*
X141021506Y-127219851D01*
X141194649Y-127185984D01*
X141331950Y-127129540D01*
X141466253Y-127007620D01*
X141511020Y-126845060D01*
X141478000Y-126712416D01*
X141378940Y-126615896D01*
X141213840Y-126555500D01*
X141213840Y-126276100D01*
X141372308Y-126309684D01*
X141505658Y-126369798D01*
X141613890Y-126456440D01*
X141693618Y-126566224D01*
X141741454Y-126695764D01*
X141757400Y-126845060D01*
X141729601Y-127036689D01*
X141646204Y-127198402D01*
X141507210Y-127330200D01*
X141369971Y-127406876D01*
X141208442Y-127461645D01*
X141022626Y-127494506D01*
X140812520Y-127505460D01*
X140612574Y-127495538D01*
X140436918Y-127465772D01*
X140285549Y-127416163D01*
X140158470Y-127346710D01*
X140030764Y-127226060D01*
X139954141Y-127075777D01*
X139928600Y-126895860D01*
X139943205Y-126753937D01*
X139987020Y-126643130D01*
X140106400Y-126517400D01*
X140106400Y-126499620D01*
X139954000Y-126469140D01*
X139954000Y-126263400D01*
X140893800Y-126263400D01*
X140893800Y-126860300D01*
G37*
G36*
X139969002Y-123779042D02*
G01*
X140014007Y-123625927D01*
X140089017Y-123495197D01*
X140194030Y-123386850D01*
X140324919Y-123301839D01*
X140477558Y-123241118D01*
X140651944Y-123204684D01*
X140848080Y-123192540D01*
X141041834Y-123204764D01*
X141214158Y-123241435D01*
X141365049Y-123302554D01*
X141494510Y-123388120D01*
X141598412Y-123496864D01*
X141672628Y-123627515D01*
X141717157Y-123780074D01*
X141732000Y-123954540D01*
X141732000Y-124404120D01*
X139954000Y-124404120D01*
X139954000Y-124137420D01*
X140195300Y-124137420D01*
X141490700Y-124137420D01*
X141490700Y-123969780D01*
X141472849Y-123815334D01*
X141419298Y-123688969D01*
X141330045Y-123590685D01*
X141205091Y-123520482D01*
X141044436Y-123478361D01*
X140848080Y-123464320D01*
X140651794Y-123478572D01*
X140489658Y-123521329D01*
X140361670Y-123592590D01*
X140269242Y-123691509D01*
X140213786Y-123817239D01*
X140195300Y-123969780D01*
X140195300Y-124137420D01*
X139954000Y-124137420D01*
X139954000Y-123954540D01*
X139969002Y-123779042D01*
G37*
%TO.C,C2*%
X104139500Y-120983000D02*
X104139500Y-114048000D01*
X107559500Y-114048000D02*
X107559500Y-120983000D01*
X104139500Y-114048000D02*
X107559500Y-114048000D01*
%TO.C,J1*%
X136973000Y-122830000D02*
X138303000Y-122830000D01*
X139573000Y-120170000D02*
X157413000Y-120170000D01*
X136973000Y-121500000D02*
X136973000Y-122830000D01*
X139573000Y-122830000D02*
X157413000Y-122830000D01*
X157413000Y-120170000D02*
X157413000Y-122830000D01*
X139573000Y-120170000D02*
X139573000Y-122830000D01*
%TO.C,D9*%
X69468000Y-117684000D02*
X69468000Y-110784000D01*
X66168000Y-117684000D02*
X66168000Y-110784000D01*
X69468000Y-117684000D02*
X66168000Y-117684000D01*
%TO.C,FB2*%
X59958500Y-107950724D02*
X59958500Y-107441276D01*
X58913500Y-107950724D02*
X58913500Y-107441276D01*
%TO.C,R4*%
X156703500Y-105515724D02*
X156703500Y-105006276D01*
X157748500Y-105515724D02*
X157748500Y-105006276D01*
%TO.C,C12*%
X105644733Y-91569000D02*
X105937267Y-91569000D01*
X105644733Y-90549000D02*
X105937267Y-90549000D01*
%TO.C,kibuzzard-66CB7AAB*%
G36*
X154432000Y-125013720D02*
G01*
X153159460Y-125013720D01*
X153159460Y-125031500D01*
X154432000Y-125663960D01*
X154432000Y-125933200D01*
X152654000Y-125933200D01*
X152654000Y-125684280D01*
X153924000Y-125684280D01*
X153924000Y-125666500D01*
X152654000Y-125034040D01*
X152654000Y-124764800D01*
X154432000Y-124764800D01*
X154432000Y-125013720D01*
G37*
G36*
X152669002Y-123784122D02*
G01*
X152714007Y-123631007D01*
X152789017Y-123500277D01*
X152894030Y-123391930D01*
X153024919Y-123306919D01*
X153177558Y-123246198D01*
X153351944Y-123209764D01*
X153548080Y-123197620D01*
X153741834Y-123209844D01*
X153914158Y-123246515D01*
X154065049Y-123307634D01*
X154194510Y-123393200D01*
X154298412Y-123501944D01*
X154372628Y-123632595D01*
X154417157Y-123785154D01*
X154432000Y-123959620D01*
X154432000Y-124409200D01*
X152654000Y-124409200D01*
X152654000Y-124142500D01*
X152895300Y-124142500D01*
X154190700Y-124142500D01*
X154190700Y-123974860D01*
X154172849Y-123820414D01*
X154119298Y-123694049D01*
X154030045Y-123595765D01*
X153905091Y-123525562D01*
X153744436Y-123483441D01*
X153548080Y-123469400D01*
X153351794Y-123483652D01*
X153189658Y-123526409D01*
X153061670Y-123597670D01*
X152969242Y-123696589D01*
X152913786Y-123822319D01*
X152895300Y-123974860D01*
X152895300Y-124142500D01*
X152654000Y-124142500D01*
X152654000Y-123959620D01*
X152669002Y-123784122D01*
G37*
G36*
X153268680Y-126304040D02*
G01*
X153384250Y-126352300D01*
X153475690Y-126431040D01*
X153545540Y-126517400D01*
X153598880Y-126616460D01*
X153636980Y-126706630D01*
X153667460Y-126791720D01*
X153687780Y-126850140D01*
X153719530Y-126946660D01*
X153755090Y-127026670D01*
X153807160Y-127110490D01*
X153873200Y-127154940D01*
X153967180Y-127177800D01*
X154071002Y-127156527D01*
X154153870Y-127092710D01*
X154208162Y-126993967D01*
X154226260Y-126867920D01*
X154206893Y-126739650D01*
X154148790Y-126639320D01*
X154059572Y-126571375D01*
X153946860Y-126540260D01*
X153946860Y-126288800D01*
X154086983Y-126311942D01*
X154209327Y-126367822D01*
X154313890Y-126456440D01*
X154393618Y-126572151D01*
X154441454Y-126709311D01*
X154457400Y-126867920D01*
X154442301Y-127025682D01*
X154397004Y-127163689D01*
X154321510Y-127281940D01*
X154220898Y-127372251D01*
X154100248Y-127426438D01*
X153959560Y-127444500D01*
X153765250Y-127405130D01*
X153624280Y-127290830D01*
X153534110Y-127146050D01*
X153466800Y-126977140D01*
X153446480Y-126911100D01*
X153398220Y-126776480D01*
X153339800Y-126668530D01*
X153247090Y-126578360D01*
X153116280Y-126550420D01*
X153003250Y-126573597D01*
X152923240Y-126643130D01*
X152875615Y-126747587D01*
X152859740Y-126875540D01*
X152880060Y-127016827D01*
X152941020Y-127125730D01*
X153040080Y-127199708D01*
X153174700Y-127236220D01*
X153174700Y-127500380D01*
X153017361Y-127473851D01*
X152884011Y-127414584D01*
X152774650Y-127322580D01*
X152693511Y-127200942D01*
X152644828Y-127052776D01*
X152628600Y-126878080D01*
X152642711Y-126712980D01*
X152685044Y-126569893D01*
X152755600Y-126448820D01*
X152852967Y-126357098D01*
X152975733Y-126302064D01*
X153123900Y-126283720D01*
X153268680Y-126304040D01*
G37*
%TO.C,D2*%
X96265000Y-101174000D02*
X92965000Y-101174000D01*
X92965000Y-101174000D02*
X92965000Y-94274000D01*
X96265000Y-101174000D02*
X96265000Y-94274000D01*
%TO.C,C11*%
X97788000Y-85070733D02*
X97788000Y-85363267D01*
X98808000Y-85070733D02*
X98808000Y-85363267D01*
%TO.C,R10*%
X100329276Y-76214500D02*
X100838724Y-76214500D01*
X100329276Y-75169500D02*
X100838724Y-75169500D01*
%TO.C,C15*%
X51056000Y-107842267D02*
X51056000Y-107549733D01*
X50036000Y-107842267D02*
X50036000Y-107549733D01*
%TO.C,C4*%
X138432000Y-105114733D02*
X138432000Y-105407267D01*
X137412000Y-105114733D02*
X137412000Y-105407267D01*
%TO.C,R11*%
X95010500Y-80772724D02*
X95010500Y-80263276D01*
X93965500Y-80772724D02*
X93965500Y-80263276D01*
%TO.C,kibuzzard-66CB7AA0*%
G36*
X146812000Y-123546870D02*
G01*
X146039840Y-123816110D01*
X146039840Y-123833890D01*
X146812000Y-124105670D01*
X146812000Y-124413010D01*
X145034000Y-124413010D01*
X145034000Y-124174250D01*
X146311620Y-124174250D01*
X146311620Y-124153930D01*
X145729960Y-123943110D01*
X145729960Y-123706890D01*
X146311620Y-123498610D01*
X146311620Y-123478290D01*
X145034000Y-123478290D01*
X145034000Y-123239530D01*
X146812000Y-123239530D01*
X146812000Y-123546870D01*
G37*
G36*
X146812000Y-125032770D02*
G01*
X146055080Y-125032770D01*
X146055080Y-125667770D01*
X146812000Y-125667770D01*
X146812000Y-125934470D01*
X145034000Y-125934470D01*
X145034000Y-125667770D01*
X145813780Y-125667770D01*
X145813780Y-125032770D01*
X145034000Y-125032770D01*
X145034000Y-124766070D01*
X146812000Y-124766070D01*
X146812000Y-125032770D01*
G37*
G36*
X145733911Y-126658652D02*
G01*
X145783864Y-126520646D01*
X145867120Y-126406910D01*
X145978316Y-126322243D01*
X146112089Y-126271443D01*
X146268440Y-126254510D01*
X146420558Y-126271161D01*
X146551791Y-126321114D01*
X146662140Y-126404370D01*
X146745396Y-126515566D01*
X146795349Y-126649339D01*
X146812000Y-126805690D01*
X146812000Y-127458470D01*
X145034000Y-127458470D01*
X145034000Y-127199390D01*
X145717260Y-127199390D01*
X145953480Y-127199390D01*
X146575780Y-127199390D01*
X146575780Y-126851410D01*
X146555143Y-126719012D01*
X146493230Y-126616460D01*
X146395758Y-126550737D01*
X146268440Y-126528830D01*
X146136995Y-126550737D01*
X146037300Y-126616460D01*
X145974435Y-126722822D01*
X145953480Y-126866650D01*
X145953480Y-127199390D01*
X145717260Y-127199390D01*
X145717260Y-126820930D01*
X145733911Y-126658652D01*
G37*
%TO.C,U4*%
X56896000Y-117368000D02*
X58846000Y-117368000D01*
X56896000Y-112248000D02*
X54946000Y-112248000D01*
X56896000Y-117368000D02*
X54946000Y-117368000D01*
X56896000Y-112248000D02*
X60346000Y-112248000D01*
%TO.C,kibuzzard-66CB7A1F*%
G36*
X138620500Y-123536710D02*
G01*
X137619740Y-123899930D01*
X137619740Y-123917710D01*
X138620500Y-124283470D01*
X138620500Y-124550170D01*
X137350500Y-124067570D01*
X137350500Y-123752610D01*
X138620500Y-123272550D01*
X138620500Y-123536710D01*
G37*
G36*
X137350500Y-125733810D02*
G01*
X137350500Y-125413770D01*
X137891520Y-125063250D01*
X138028363Y-124979430D01*
X138159490Y-124915930D01*
X138294427Y-124875925D01*
X138442700Y-124862590D01*
X138599474Y-124879947D01*
X138734518Y-124932017D01*
X138847830Y-125018800D01*
X138933202Y-125133523D01*
X138984426Y-125269413D01*
X139001500Y-125426470D01*
X138984849Y-125580846D01*
X138934896Y-125715466D01*
X138851640Y-125830330D01*
X138741856Y-125917819D01*
X138612316Y-125970312D01*
X138463020Y-125987810D01*
X138321203Y-125972006D01*
X138197167Y-125924592D01*
X138090910Y-125845570D01*
X137981372Y-125684915D01*
X137944860Y-125487430D01*
X137954986Y-125429010D01*
X138140440Y-125429010D01*
X138162982Y-125554105D01*
X138230610Y-125649990D01*
X138332527Y-125710950D01*
X138457940Y-125731270D01*
X138586528Y-125710632D01*
X138692890Y-125648720D01*
X138764327Y-125552517D01*
X138788140Y-125429010D01*
X138764327Y-125307090D01*
X138692890Y-125210570D01*
X138586528Y-125147705D01*
X138457940Y-125126750D01*
X138334115Y-125147387D01*
X138231880Y-125209300D01*
X138163300Y-125305502D01*
X138140440Y-125429010D01*
X137954986Y-125429010D01*
X137977880Y-125296930D01*
X137350500Y-125733810D01*
G37*
G36*
X138249660Y-127425450D02*
G01*
X138031220Y-127425450D01*
X138031220Y-126490730D01*
X138249660Y-126490730D01*
X138249660Y-127425450D01*
G37*
%TO.C,C18*%
X63353733Y-75694000D02*
X63646267Y-75694000D01*
X63353733Y-74674000D02*
X63646267Y-74674000D01*
%TO.C,D7*%
X104770000Y-80557000D02*
X104770000Y-82257000D01*
X104770000Y-82257000D02*
X101620000Y-82257000D01*
X104770000Y-80557000D02*
X101620000Y-80557000D01*
%TO.C,R3*%
X134605500Y-105006276D02*
X134605500Y-105515724D01*
X135650500Y-105006276D02*
X135650500Y-105515724D01*
%TO.C,U3*%
X66802000Y-77196000D02*
X70252000Y-77196000D01*
X66802000Y-77196000D02*
X64852000Y-77196000D01*
X66802000Y-82316000D02*
X68752000Y-82316000D01*
X66802000Y-82316000D02*
X64852000Y-82316000D01*
%TO.C,R13*%
X61482500Y-79248724D02*
X61482500Y-78739276D01*
X60437500Y-79248724D02*
X60437500Y-78739276D01*
%TO.C,FB1*%
X54878500Y-107950724D02*
X54878500Y-107441276D01*
X53833500Y-107950724D02*
X53833500Y-107441276D01*
%TO.C,D4*%
X87758000Y-92374000D02*
X87758000Y-99274000D01*
X87758000Y-92374000D02*
X91058000Y-92374000D01*
X91058000Y-92374000D02*
X91058000Y-99274000D01*
%TO.C,TP5*%
X62672000Y-84836000D02*
G75*
G03*
X62672000Y-84836000I-950000J0D01*
G01*
%TO.C,C3*%
X93335500Y-125982000D02*
X89915500Y-125982000D01*
X93335500Y-119047000D02*
X93335500Y-125982000D01*
X89915500Y-125982000D02*
X89915500Y-119047000D01*
%TO.C,kibuzzard-66CB7A30*%
G36*
X156972000Y-125008640D02*
G01*
X155699460Y-125008640D01*
X155699460Y-125026420D01*
X156972000Y-125658880D01*
X156972000Y-125928120D01*
X155194000Y-125928120D01*
X155194000Y-125679200D01*
X156464000Y-125679200D01*
X156464000Y-125661420D01*
X155194000Y-125028960D01*
X155194000Y-124759720D01*
X156972000Y-124759720D01*
X156972000Y-125008640D01*
G37*
G36*
X156133800Y-126860300D02*
G01*
X155920440Y-126860300D01*
X155920440Y-126522480D01*
X155778200Y-126522480D01*
X155618815Y-126544387D01*
X155501340Y-126610110D01*
X155428950Y-126713297D01*
X155404820Y-126847600D01*
X155430728Y-126985674D01*
X155508452Y-127093066D01*
X155637992Y-127169774D01*
X155819348Y-127215798D01*
X156052520Y-127231140D01*
X156261506Y-127219851D01*
X156434649Y-127185984D01*
X156571950Y-127129540D01*
X156706253Y-127007620D01*
X156751020Y-126845060D01*
X156718000Y-126712416D01*
X156618940Y-126615896D01*
X156453840Y-126555500D01*
X156453840Y-126276100D01*
X156612308Y-126309684D01*
X156745658Y-126369798D01*
X156853890Y-126456440D01*
X156933618Y-126566224D01*
X156981454Y-126695764D01*
X156997400Y-126845060D01*
X156969601Y-127036689D01*
X156886204Y-127198402D01*
X156747210Y-127330200D01*
X156609971Y-127406876D01*
X156448442Y-127461645D01*
X156262626Y-127494506D01*
X156052520Y-127505460D01*
X155852574Y-127495538D01*
X155676918Y-127465772D01*
X155525549Y-127416163D01*
X155398470Y-127346710D01*
X155270764Y-127226060D01*
X155194141Y-127075777D01*
X155168600Y-126895860D01*
X155183205Y-126753937D01*
X155227020Y-126643130D01*
X155346400Y-126517400D01*
X155346400Y-126499620D01*
X155194000Y-126469140D01*
X155194000Y-126263400D01*
X156133800Y-126263400D01*
X156133800Y-126860300D01*
G37*
G36*
X155209002Y-123779042D02*
G01*
X155254007Y-123625927D01*
X155329017Y-123495197D01*
X155434030Y-123386850D01*
X155564919Y-123301839D01*
X155717558Y-123241118D01*
X155891944Y-123204684D01*
X156088080Y-123192540D01*
X156281834Y-123204764D01*
X156454158Y-123241435D01*
X156605049Y-123302554D01*
X156734510Y-123388120D01*
X156838412Y-123496864D01*
X156912628Y-123627515D01*
X156957157Y-123780074D01*
X156972000Y-123954540D01*
X156972000Y-124404120D01*
X155194000Y-124404120D01*
X155194000Y-124137420D01*
X155435300Y-124137420D01*
X156730700Y-124137420D01*
X156730700Y-123969780D01*
X156712849Y-123815334D01*
X156659298Y-123688969D01*
X156570045Y-123590685D01*
X156445091Y-123520482D01*
X156284436Y-123478361D01*
X156088080Y-123464320D01*
X155891794Y-123478572D01*
X155729658Y-123521329D01*
X155601670Y-123592590D01*
X155509242Y-123691509D01*
X155453786Y-123817239D01*
X155435300Y-123969780D01*
X155435300Y-124137420D01*
X155194000Y-124137420D01*
X155194000Y-123954540D01*
X155209002Y-123779042D01*
G37*
%TO.C,D11*%
X71248000Y-108884000D02*
X74548000Y-108884000D01*
X74548000Y-108884000D02*
X74548000Y-115784000D01*
X71248000Y-108884000D02*
X71248000Y-115784000D01*
%TO.C,C5*%
X154942000Y-105407267D02*
X154942000Y-105114733D01*
X153922000Y-105407267D02*
X153922000Y-105114733D01*
%TO.C,kibuzzard-66CB7A55*%
G36*
X143827500Y-123483370D02*
G01*
X142826740Y-123846590D01*
X142826740Y-123864370D01*
X143827500Y-124230130D01*
X143827500Y-124496830D01*
X142557500Y-124014230D01*
X142557500Y-123699270D01*
X143827500Y-123219210D01*
X143827500Y-123483370D01*
G37*
G36*
X142557500Y-125680470D02*
G01*
X142557500Y-125360430D01*
X143098520Y-125009910D01*
X143235363Y-124926090D01*
X143366490Y-124862590D01*
X143501427Y-124822585D01*
X143649700Y-124809250D01*
X143806474Y-124826607D01*
X143941518Y-124878677D01*
X144054830Y-124965460D01*
X144140202Y-125080183D01*
X144191426Y-125216073D01*
X144208500Y-125373130D01*
X144191849Y-125527506D01*
X144141896Y-125662126D01*
X144058640Y-125776990D01*
X143948856Y-125864479D01*
X143819316Y-125916972D01*
X143670020Y-125934470D01*
X143528203Y-125918666D01*
X143404167Y-125871252D01*
X143297910Y-125792230D01*
X143188372Y-125631575D01*
X143151860Y-125434090D01*
X143161986Y-125375670D01*
X143347440Y-125375670D01*
X143369982Y-125500765D01*
X143437610Y-125596650D01*
X143539527Y-125657610D01*
X143664940Y-125677930D01*
X143793528Y-125657292D01*
X143899890Y-125595380D01*
X143971327Y-125499177D01*
X143995140Y-125375670D01*
X143971327Y-125253750D01*
X143899890Y-125157230D01*
X143793528Y-125094365D01*
X143664940Y-125073410D01*
X143541115Y-125094047D01*
X143438880Y-125155960D01*
X143370300Y-125252162D01*
X143347440Y-125375670D01*
X143161986Y-125375670D01*
X143184880Y-125243590D01*
X142557500Y-125680470D01*
G37*
G36*
X143375380Y-126790450D02*
G01*
X143827500Y-126790450D01*
X143827500Y-127019050D01*
X143375380Y-127019050D01*
X143375380Y-127478790D01*
X143162020Y-127478790D01*
X143162020Y-127019050D01*
X142709900Y-127019050D01*
X142709900Y-126790450D01*
X143162020Y-126790450D01*
X143162020Y-126333250D01*
X143375380Y-126333250D01*
X143375380Y-126790450D01*
G37*
%TO.C,R1*%
X40146500Y-79096776D02*
X40146500Y-79606224D01*
X39101500Y-79096776D02*
X39101500Y-79606224D01*
%TO.C,C10*%
X93578000Y-86563252D02*
X93578000Y-85140748D01*
X95398000Y-86563252D02*
X95398000Y-85140748D01*
%TD*%
%LPC*%
D14*
%TO.C,SW1*%
X121900000Y-73701000D03*
D15*
X121900000Y-78400000D03*
X121900000Y-83099000D03*
%TD*%
D16*
%TO.C,RV2*%
X57800000Y-78400000D03*
X49000000Y-78400000D03*
D17*
X50900000Y-85400000D03*
D18*
X53400000Y-85400000D03*
X55900000Y-85400000D03*
%TD*%
D16*
%TO.C,RV1*%
X84800000Y-78400000D03*
X76000000Y-78400000D03*
D17*
X77900000Y-85400000D03*
D18*
X80400000Y-85400000D03*
X82900000Y-85400000D03*
%TD*%
D14*
%TO.C,SW2*%
X144187000Y-73566000D03*
D15*
X144187000Y-78396000D03*
X144187000Y-83226000D03*
X149017000Y-73566000D03*
X149017000Y-78396000D03*
X149017000Y-83226000D03*
%TD*%
D19*
%TO.C,R2*%
X83751500Y-120038500D03*
X83751500Y-118213500D03*
%TD*%
D20*
%TO.C,R7*%
X98552000Y-94845500D03*
X98552000Y-96670500D03*
%TD*%
D21*
%TO.C,C17*%
X50546000Y-118210500D03*
X50546000Y-116485500D03*
%TD*%
D22*
%TO.C,R5*%
X111783500Y-85471000D03*
X109958500Y-85471000D03*
%TD*%
D23*
%TO.C,Q1*%
X42484000Y-80088500D03*
X44384000Y-80088500D03*
X43434000Y-81963500D03*
%TD*%
D24*
%TO.C,J8*%
X152870000Y-91600000D03*
X140130000Y-91600000D03*
D25*
X142050000Y-90500000D03*
X143320000Y-96500000D03*
X144590000Y-90500000D03*
X145860000Y-96500000D03*
X147130000Y-90500000D03*
X148400000Y-96500000D03*
X149670000Y-90500000D03*
X150940000Y-96500000D03*
%TD*%
D26*
%TO.C,D1*%
X44684000Y-76454000D03*
X42184000Y-76454000D03*
%TD*%
D27*
%TO.C,TP3*%
X84455000Y-92710000D03*
%TD*%
D20*
%TO.C,R12*%
X72644000Y-79097500D03*
X72644000Y-80922500D03*
%TD*%
D28*
%TO.C,D3*%
X105410000Y-99274000D03*
X105410000Y-94274000D03*
%TD*%
D22*
%TO.C,R6*%
X111783500Y-87884000D03*
X109958500Y-87884000D03*
%TD*%
D29*
%TO.C,C6*%
X146177000Y-112675500D03*
X146177000Y-114400500D03*
%TD*%
D20*
%TO.C,R9*%
X99949000Y-99163500D03*
X99949000Y-100988500D03*
%TD*%
D27*
%TO.C,TP1*%
X87307500Y-117094000D03*
%TD*%
D30*
%TO.C,C20*%
X67463500Y-84074000D03*
X69188500Y-84074000D03*
%TD*%
D27*
%TO.C,TP4*%
X116078000Y-92710000D03*
%TD*%
D28*
%TO.C,D10*%
X41148000Y-110784000D03*
X41148000Y-115784000D03*
%TD*%
D24*
%TO.C,J9*%
X59870000Y-91600000D03*
X47130000Y-91600000D03*
D25*
X49050000Y-90500000D03*
X50320000Y-96500000D03*
X51590000Y-90500000D03*
X52860000Y-96500000D03*
X54130000Y-90500000D03*
X55400000Y-96500000D03*
X56670000Y-90500000D03*
X57940000Y-96500000D03*
%TD*%
D31*
%TO.C,U2*%
X106615000Y-84836000D03*
X106615000Y-86106000D03*
X106615000Y-87376000D03*
X106615000Y-88646000D03*
X101665000Y-88646000D03*
X101665000Y-87376000D03*
X101665000Y-86106000D03*
X101665000Y-84836000D03*
%TD*%
D28*
%TO.C,D5*%
X110490000Y-94274000D03*
X110490000Y-99274000D03*
%TD*%
D31*
%TO.C,U1*%
X101466500Y-115697000D03*
X101466500Y-116967000D03*
X101466500Y-118237000D03*
X101466500Y-119507000D03*
X96516500Y-119507000D03*
X96516500Y-118237000D03*
X96516500Y-116967000D03*
X96516500Y-115697000D03*
%TD*%
D27*
%TO.C,TP7*%
X70104000Y-105410000D03*
%TD*%
D32*
%TO.C,Q2*%
X86357500Y-120166000D03*
X88257500Y-120166000D03*
X87307500Y-123166000D03*
%TD*%
D28*
%TO.C,D8*%
X46228000Y-115824000D03*
X46228000Y-110824000D03*
%TD*%
D33*
%TO.C,C14*%
X63246000Y-114084500D03*
X63246000Y-110959500D03*
%TD*%
D26*
%TO.C,D6*%
X109073000Y-78740000D03*
X106573000Y-78740000D03*
%TD*%
D27*
%TO.C,TP2*%
X97790000Y-90424000D03*
%TD*%
D34*
%TO.C,C9*%
X98513500Y-78740000D03*
X101638500Y-78740000D03*
%TD*%
D29*
%TO.C,C16*%
X62230000Y-106833500D03*
X62230000Y-108558500D03*
%TD*%
D35*
%TO.C,C1*%
X91625500Y-115719000D03*
X91625500Y-112119000D03*
%TD*%
D19*
%TO.C,R8*%
X101473000Y-96670500D03*
X101473000Y-94845500D03*
%TD*%
D33*
%TO.C,C13*%
X50546000Y-114084500D03*
X50546000Y-110959500D03*
%TD*%
D27*
%TO.C,TP6*%
X43688000Y-105410000D03*
%TD*%
D36*
%TO.C,C8*%
X149860000Y-105101000D03*
X149860000Y-110501000D03*
%TD*%
%TO.C,C7*%
X142494000Y-105101000D03*
X142494000Y-110501000D03*
%TD*%
D21*
%TO.C,C19*%
X54356000Y-120750500D03*
X54356000Y-119025500D03*
%TD*%
D37*
%TO.C,C2*%
X105849500Y-115433000D03*
X105849500Y-120533000D03*
%TD*%
D38*
%TO.C,J1*%
X138303000Y-121500000D03*
D39*
X140843000Y-121500000D03*
X143383000Y-121500000D03*
X145923000Y-121500000D03*
X148463000Y-121500000D03*
X151003000Y-121500000D03*
X153543000Y-121500000D03*
X156083000Y-121500000D03*
%TD*%
D28*
%TO.C,D9*%
X67818000Y-115784000D03*
X67818000Y-110784000D03*
%TD*%
D19*
%TO.C,FB2*%
X59436000Y-108608500D03*
X59436000Y-106783500D03*
%TD*%
%TO.C,R4*%
X157226000Y-106173500D03*
X157226000Y-104348500D03*
%TD*%
D30*
%TO.C,C12*%
X104928500Y-91059000D03*
X106653500Y-91059000D03*
%TD*%
D28*
%TO.C,D2*%
X94615000Y-99274000D03*
X94615000Y-94274000D03*
%TD*%
D29*
%TO.C,C11*%
X98298000Y-84354500D03*
X98298000Y-86079500D03*
%TD*%
D40*
%TO.C,R10*%
X99671500Y-75692000D03*
X101496500Y-75692000D03*
%TD*%
D21*
%TO.C,C15*%
X50546000Y-108558500D03*
X50546000Y-106833500D03*
%TD*%
D29*
%TO.C,C4*%
X137922000Y-104398500D03*
X137922000Y-106123500D03*
%TD*%
D19*
%TO.C,R11*%
X94488000Y-81430500D03*
X94488000Y-79605500D03*
%TD*%
D31*
%TO.C,U4*%
X59371000Y-112903000D03*
X59371000Y-114173000D03*
X59371000Y-115443000D03*
X59371000Y-116713000D03*
X54421000Y-116713000D03*
X54421000Y-115443000D03*
X54421000Y-114173000D03*
X54421000Y-112903000D03*
%TD*%
D30*
%TO.C,C18*%
X62637500Y-75184000D03*
X64362500Y-75184000D03*
%TD*%
D26*
%TO.C,D7*%
X104120000Y-81407000D03*
X101620000Y-81407000D03*
%TD*%
D20*
%TO.C,R3*%
X135128000Y-104348500D03*
X135128000Y-106173500D03*
%TD*%
D31*
%TO.C,U3*%
X69277000Y-77851000D03*
X69277000Y-79121000D03*
X69277000Y-80391000D03*
X69277000Y-81661000D03*
X64327000Y-81661000D03*
X64327000Y-80391000D03*
X64327000Y-79121000D03*
X64327000Y-77851000D03*
%TD*%
D19*
%TO.C,R13*%
X60960000Y-79906500D03*
X60960000Y-78081500D03*
%TD*%
%TO.C,FB1*%
X54356000Y-108608500D03*
X54356000Y-106783500D03*
%TD*%
D28*
%TO.C,D4*%
X89408000Y-94274000D03*
X89408000Y-99274000D03*
%TD*%
D27*
%TO.C,TP5*%
X61722000Y-84836000D03*
%TD*%
D41*
%TO.C,C3*%
X91625500Y-124597000D03*
X91625500Y-119497000D03*
%TD*%
D28*
%TO.C,D11*%
X72898000Y-110784000D03*
X72898000Y-115784000D03*
%TD*%
D21*
%TO.C,C5*%
X154432000Y-106123500D03*
X154432000Y-104398500D03*
%TD*%
D20*
%TO.C,R1*%
X39624000Y-78439000D03*
X39624000Y-80264000D03*
%TD*%
D33*
%TO.C,C10*%
X94488000Y-87414500D03*
X94488000Y-84289500D03*
%TD*%
M02*
